/* XPM */
static char * eye_m4_xpm[] = {
"32 32 36 1",
" 	c None",
".	c #CBCBCB",
"+	c #F6F6F6",
"@	c #FDFDFD",
"#	c #FBFBFB",
"$	c #E5E5E5",
"%	c #909090",
"&	c #FCFCFC",
"*	c #A8A8A8",
"=	c #F5F5F5",
"-	c #F4F4F4",
";	c #F9F9F9",
">	c #D2D2D2",
",	c #A7A7A7",
"'	c #DCDCDC",
")	c #F1F1F1",
"!	c #ADADAD",
"~	c #E1E1E1",
"{	c #EDEDED",
"]	c #EEEEEE",
"^	c #DBDBDB",
"/	c #E4E4E4",
"(	c #727272",
"_	c #D9D9D9",
":	c #F2F2F2",
"<	c #CACACA",
"[	c #E3E3E3",
"}	c #737373",
"|	c #D6D6D6",
"1	c #F3F3F3",
"2	c #F7F7F7",
"3	c #E7E7E7",
"4	c #A6A6A6",
"5	c #B7B7B7",
"6	c #B3B3B3",
"7	c #8E8E8E",
"                                ",
"                                ",
"                                ",
"                                ",
"                                ",
"                                ",
"                                ",
"                                ",
"                                ",
"                                ",
"                                ",
"                                ",
"                                ",
"         .+@#$%  %$#&+.         ",
"        *=&-@;>  >;@-&-,        ",
"        '&)!~&{  ]&~!)&^        ",
"        /@](_@)  :@_({@/        ",
"        <;&@@#[  [#@@&;<        ",
"        }|1;23,  ,32;1|}        ",
"         (4567    7654(         ",
"                                ",
"                                ",
"                                ",
"                                ",
"                                ",
"                                ",
"                                ",
"                                ",
"                                ",
"                                ",
"                                ",
"                                "};
