/* XPM */
static char * eye_m5_xpm[] = {
"32 32 28 1",
" 	c None",
".	c #838383",
"+	c #E6E6E6",
"@	c #F9F9F9",
"#	c #F7F7F7",
"$	c #C5C5C5",
"%	c #CFCFCF",
"&	c #DADADA",
"*	c #F1F1F1",
"=	c #ECECEC",
"-	c #7C7C7C",
";	c #EDEDED",
">	c #CECECE",
",	c #E8E8E8",
"'	c #F5F5F5",
")	c #9C9C9C",
"!	c #E3E3E3",
"~	c #F6F6F6",
"{	c #8E8E8E",
"]	c #C3C3C3",
"^	c #FBFBFB",
"/	c #FAFAFA",
"(	c #E5E5E5",
"_	c #747474",
":	c #E4E4E4",
"<	c #B8B8B8",
"[	c #D5D5D5",
"}	c #999999",
"                                ",
"                                ",
"                                ",
"                                ",
"                                ",
"                                ",
"                                ",
"                                ",
"                                ",
"                                ",
"                                ",
"                                ",
"                                ",
"                                ",
"          .+@#$  $#@+.          ",
"          %#&*=--;*&#>          ",
"          ,')!~{{~!)',          ",
"          ]'^/(__:/^']          ",
"           <[>}  }>[<           ",
"                                ",
"                                ",
"                                ",
"                                ",
"                                ",
"                                ",
"                                ",
"                                ",
"                                ",
"                                ",
"                                ",
"                                ",
"                                "};
