/* XPM */
static char * eye_m3_xpm[] = {
"32 32 42 1",
" 	c None",
".	c #757575",
"+	c #7E7E7E",
"@	c #7C7C7C",
"#	c #A7A7A7",
"$	c #EBEBEB",
"%	c #FBFBFB",
"&	c #FEFEFE",
"*	c #FDFDFD",
"=	c #F3F3F3",
"-	c #C5C5C5",
";	c #777777",
">	c #EAEAEA",
",	c #FAFAFA",
"'	c #FCFCFC",
")	c #F1F1F1",
"!	c #A6A6A6",
"~	c #E1E1E1",
"{	c #DADADA",
"]	c #DBDBDB",
"^	c #C4C4C4",
"/	c #DEDEDE",
"(	c #DDDDDD",
"_	c #737373",
":	c #E5E5E5",
"<	c #4F4F4F",
"[	c #D3D3D3",
"}	c #CFCFCF",
"|	c #E6E6E6",
"1	c #EFEFEF",
"2	c #A8A8A8",
"3	c #9D9D9D",
"4	c #D7D7D7",
"5	c #F5F5F5",
"6	c #F4F4F4",
"7	c #E4E4E4",
"8	c #B4B4B4",
"9	c #F0F0F0",
"0	c #8B8B8B",
"a	c #919191",
"b	c #8F8F8F",
"c	c #787878",
"                                ",
"                                ",
"                                ",
"                                ",
"                                ",
"                                ",
"                                ",
"                                ",
"                                ",
"                                ",
"                                ",
"         .+@        @+.         ",
"       #$%&*=-    -=**%$#       ",
"      ;>,*&&')!  !)'&**,>;      ",
"      -%&*~&*%{  ]'*&~**,^      ",
"      /*&(_^**>  $**^_(**/      ",
"      /&&:<[**>  $**[<:**/      ",
"      }%***&*'~  ~'*&***%}      ",
"      +|,*&*%12  21%***,|+      ",
"       34)5678    8766943       ",
"         0abc      cba0         ",
"                                ",
"                                ",
"                                ",
"                                ",
"                                ",
"                                ",
"                                ",
"                                ",
"                                ",
"                                ",
"                                "};
