/* XPM */
static char * eye_m1_xpm[] = {
"32 32 34 1",
" 	c None",
".	c #B2B2B2",
"+	c #6F6F6F",
"@	c #CECECE",
"#	c #E8E8E8",
"$	c #FEFEFE",
"%	c #EEEEEE",
"&	c #CFCFCF",
"*	c #E7E7E7",
"=	c #EBEBEB",
"-	c #D0D0D0",
";	c #FFFFFF",
">	c #717171",
",	c #D2D2D2",
"'	c #D8D8D8",
")	c #737373",
"!	c #070707",
"~	c #575757",
"{	c #1B1B1B",
"]	c #E3E3E3",
"^	c #A4A4A4",
"/	c #F5F5F5",
"(	c #F7F7F7",
"_	c #AFAFAF",
":	c #D3D3D3",
"<	c #F3F3F3",
"[	c #D7D7D7",
"}	c #7F7F7F",
"|	c #D5D5D5",
"1	c #F2F2F2",
"2	c #8C8C8C",
"3	c #959595",
"4	c #DFDFDF",
"5	c #A8A8A8",
"                                ",
"                                ",
"                                ",
"                                ",
"                                ",
"                                ",
"                                ",
"                                ",
"                                ",
"      .....+        +.....      ",
"    @#$$$$$%&      &%$$$$$#@    ",
"   &*$$$$$$$=-    -=$$$$$$$*&   ",
"   *$$;$$$$$$=>  >=$$$$$$$$$*   ",
"  ,;;;;$$$$$$$'  '$$$$$$$$$$$,  ",
"  ,;;;$$)$$$$$'  '$$$$$)$$$$$,  ",
"  ,;;;;+!~$$$$'  '$$$$~!+$$$$,  ",
"  ,;$;$*{]$$$$'  '$$$$]{*$$$$,  ",
"  ,;;;;$$$$$$$'  '$$$$$$$$$$$,  ",
"  ^/;;;$$$$$$(_  _($$$$$$$$$/^  ",
"   :<$;$$$$$/[    [/$$$$$$$<:   ",
"   }|1;$$$$/'2    2'/$$$$$1|}   ",
"     3444445        5444443     ",
"                                ",
"                                ",
"                                ",
"                                ",
"                                ",
"                                ",
"                                ",
"                                ",
"                                ",
"                                "};
