/* XPM */
static char * eye_s4_xpm[] = {
"32 32 5 1",
" 	c None",
".	c #000000",
"+	c #666666",
"@	c #CCCCCC",
"#	c #FFFFFF",
"                                ",
"                                ",
"  ...........      ...........  ",
" .+++++++++++.    .+++++++++++. ",
" +           +    +           + ",
"                                ",
"                                ",
"    @@@@@@@          @@@@@@@    ",
"  @@#######@@      @@#######@@  ",
" @@#########@@    @@#########@@ ",
" @###########@    @###########@ ",
"@#############@  @#############@",
"@#############@  @#############@",
"@######.######@  @######.######@",
"@#####...#####@  @#####...#####@",
"@######.######@  @######.######@",
"@#############@  @#############@",
"@#############@  @#############@",
" @###########@    @###########@ ",
" @@#########@@    @@#########@@ ",
"  @@#######@@      @@#######@@  ",
"    @@@@@@@          @@@@@@@    ",
"                                ",
"                                ",
"                                ",
"                                ",
"                                ",
"                                ",
"                                ",
"                                ",
"                                ",
"                                "};
