/* XPM */
static char * eye_h3_xpm[] = {
"32 32 4 1",
" 	c None",
".	c #CCCCCC",
"+	c #FFFFFF",
"@	c #000000",
"                                ",
"                                ",
"                                ",
"                                ",
"                                ",
"                                ",
"                                ",
"    .......          .......    ",
"  ..+++++++..      ..+++++++..  ",
" ..+++++++++..    ..+++++++++.. ",
" .+++++++++++.    .+++++++++++. ",
".+++++@@@+++++.  .+++++@@@+++++.",
".++++@+++@++++.  .++++@+++@++++.",
".+++@+++++@+++.  .+++@+++++@+++.",
".+++@+++++@+++.  .+++@+++++@+++.",
".+++@+++++@+++.  .+++@+++++@+++.",
".++++@+++@++++.  .++++@+++@++++.",
".+++++@@@+++++.  .+++++@@@+++++.",
" .+++++++++++.    .+++++++++++. ",
" ..+++++++++..    ..+++++++++.. ",
"  ..+++++++..      ..+++++++..  ",
"    .......          .......    ",
"                                ",
"                                ",
"                                ",
"                                ",
"                                ",
"                                ",
"                                ",
"                                ",
"                                ",
"                                "};
