/* XPM */
static char * eye_z5_xpm[] = {
"32 32 3 1",
" 	c None",
".	c #CCCCCC",
"+	c #000000",
"                                ",
"                                ",
"                                ",
"                                ",
"                                ",
"                                ",
"                                ",
"    .......          .......    ",
"  ...........      ...........  ",
" .............    ............. ",
" .............    ............. ",
"...............  ...............",
"...............  ...............",
"...............  ...............",
".+++++++++++++.  .+++++++++++++.",
"...............  ...............",
"...............  ...............",
"...............  ...............",
" .............    ............. ",
" .............    ............. ",
"  ...........      ...........  ",
"    .......          .......    ",
"                                ",
"                                ",
"                                ",
"                                ",
"                                ",
"                                ",
"                                ",
"                                ",
"                                ",
"                                "};
