/* XPM */
static char * eye_m2_xpm[] = {
"32 32 40 1",
" 	c None",
".	c #777777",
"+	c #989898",
"@	c #888888",
"#	c #7B7B7B",
"$	c #DCDCDC",
"%	c #F5F5F5",
"&	c #FEFEFE",
"*	c #FAFAFA",
"=	c #E3E3E3",
"-	c #F4F4F4",
";	c #F8F8F8",
">	c #E2E2E2",
",	c #6E6E6E",
"'	c #9D9D9D",
")	c #FDFDFD",
"!	c #F7F7F7",
"~	c #B5B5B5",
"{	c #D8D8D8",
"]	c #B9B9B9",
"^	c #363636",
"/	c #979797",
"(	c #E1E1E1",
"_	c #333333",
":	c #D5D5D5",
"<	c #D2D2D2",
"[	c #DEDEDE",
"}	c #8C8C8C",
"|	c #EFEFEF",
"1	c #FCFCFC",
"2	c #F3F3F3",
"3	c #A7A7A7",
"4	c #BEBEBE",
"5	c #EEEEEE",
"6	c #F2F2F2",
"7	c #CCCCCC",
"8	c #FBFBFB",
"9	c #ECECEC",
"0	c #ADADAD",
"a	c #D7D7D7",
"                                ",
"                                ",
"                                ",
"                                ",
"                                ",
"                                ",
"                                ",
"                                ",
"                                ",
"                                ",
"       .+++@        @+++.       ",
"     #$%&&&*=+    +=*&&&%$#     ",
"     $-&&&&&;>,  ,>;&&&&&-$     ",
"    '%&&&&&&)!~  ~!&&&&&&&-'    ",
"    {&&&&]&&))>  >&&&&]&&&&{    ",
"    {&&&~^/&))>  >&&&/^~&&&{    ",
"    {&&&(_:&))>  >&&&:_(&&&{    ",
"    <)&&&)&&))[  [)&&&)&&&)<    ",
"    }|1&&&&&123  321&&&&&1|}    ",
"     451&&&167    761&&&854     ",
"      '{999>0      0>999a'      ",
"                                ",
"                                ",
"                                ",
"                                ",
"                                ",
"                                ",
"                                ",
"                                ",
"                                ",
"                                ",
"                                "};
