/* XPM */
static char*bash_r6[]={
"32 32 55 1",
"y c #f6b016",
"s c #ffd76d",
"w c #fec752",
"I c #fda120",
"j c #b39757",
"z c #ffa213",
"Q c #575757",
"h c #eeeeee",
"V c #fabb01",
"v c #fc9d20",
"t c #444444",
"L c #0a0801",
"l c #676767",
"d c #0e0e0e",
"q c #ac6701",
"N c #571e01",
"F c #ff9800",
"r c #ff8e03",
"C c #833900",
"g c #1e1e1e",
"0 c #fea637",
"f c #d8d8d8",
"n c #ffebbe",
"J c #ff9e13",
"K c #fe920a",
"H c #ffa507",
"A c #fac635",
"x c #fecb3f",
"U c #ea8b11",
"u c #160c03",
"p c #17150e",
"R c #ecaf3d",
"i c #4c535d",
"# c #595959",
"E c #f4750b",
"k c #f8df78",
"S c #503414",
"D c #ee4f01",
"X c #c17046",
"m c #6f5418",
"P c #252525",
"W c #fed365",
". c None",
"B c #ffce50",
"O c #353535",
"M c #20170b",
"Y c #f98105",
"a c #606060",
"Z c #ff9711",
"c c #070707",
"G c #ff9d02",
"T c #4f240c",
"b c #171717",
"o c #d1d1d1",
"e c #b6b6b6",
"................................",
"................................",
"................................",
"................................",
"................................",
".................#aa#...........",
"................bccccd#.........",
"...............bccccefg.........",
"...............ccccahijk........",
"..............lcccmnopqrs.......",
"............atbccuvwxyrzABkA....",
".........#gcccccccCDEFGHzIJK....",
".......#dcccccccccccLMNC........",
"......Occccccccccccccca.........",
".....ccccccccccccccccd..........",
"....ccccccccccccccccccb.........",
"...PcccccccccccccccccccP........",
"..#ca..dcccccccccccccccca.......",
"..#...tcccccccccccccccccc.......",
"......ccccccccccccccO#cccl......",
".....lccccccccccccccQ..bcd......",
".....Pccccccccccccccl...dc......",
".....dccccccccccccccl...#c......",
".....ccccccccccccccc#....P......",
"....#ccccccccccccccc............",
"....cccccccccccccccc............",
"...Occcccccccccccccb............",
"..Occcccccccccccccc.............",
".#cccccccccccccccc#.............",
"..#dcccccccccccccuRk............",
".....ScccccccccTUVVBWWk.........",
"......kXmTpbdgqYYKZZZv0J........"};
