/* XPM */
static char*bash_l10[]={
"32 32 75 2",
".D c #fec752",
".H c #fda120",
".o c #2f2f2f",
".X c #c6c6c6",
".p c #ab8741",
".d c #373737",
"#b c #ffad2f",
".8 c #d78b04",
".T c #fffefd",
".e c #3f3f3f",
".I c #fb9d09",
".l c #b39757",
".S c #4f4f4f",
".u c #fbbf9a",
".a c #575757",
".W c #eeeeee",
"#f c #fabb01",
"## c #a07c20",
"#e c #ffed5e",
".5 c #9d9d9d",
".j c #444444",
".f c #0e0e0e",
".k c #ac6701",
".L c #571e01",
"#g c #ff9800",
".q c #ff8e03",
".r c #833900",
".Y c #d8d8d8",
".G c #ff9e13",
".F c #fe920a",
"#. c #a2a2a2",
".w c #fac635",
".R c #878787",
".C c #fecb3f",
".E c #ea8b11",
".9 c #17150e",
".m c #4c535d",
".# c #595959",
".i c #979797",
".z c #faca31",
".J c #f4750b",
".g c #232323",
".1 c #bababa",
".6 c #929293",
".x c #f8df78",
"#d c #ffb57d",
".v c #503414",
".Z c #afafaf",
".K c #ee4f01",
".2 c #bfbfbf",
".t c #faf3de",
".V c #666666",
".0 c #e2e2e2",
".U c #6e6e6e",
".s c #151515",
"#a c #6f5418",
".O c #080500",
".A c #ffa108",
"Qt c None",
".y c #ffce50",
".3 c #8e8e8e",
".N c #20170b",
".B c #fdb81d",
".b c #606060",
"#h c #ff9711",
".c c #070707",
".n c #f7f7f7",
"#i c #44433f",
"#c c #feb411",
".7 c #ffd0b1",
".M c #4f240c",
".h c #dedfe0",
".4 c #d1d1d1",
".P c #1f1f1f",
".Q c #b6b6b6",
"QtQtQtQtQtQtQtQtQtQtQtQtQtQtQtQtQtQtQtQtQtQtQtQtQtQtQtQtQtQtQtQt",
"QtQtQtQtQtQtQtQtQtQtQtQtQtQtQtQtQtQtQtQtQtQtQtQtQtQtQtQtQtQtQtQt",
"QtQtQtQtQtQtQtQtQtQtQtQtQtQtQtQtQtQtQtQtQtQtQtQtQtQtQtQtQtQtQtQt",
"QtQtQtQtQtQtQtQtQtQtQtQtQtQtQtQtQtQtQtQtQtQtQtQtQtQtQtQtQtQtQtQt",
"QtQtQtQtQtQtQtQtQtQtQtQtQtQtQtQtQtQtQtQtQtQtQtQtQtQtQtQtQtQtQtQt",
"QtQtQtQtQtQtQtQtQtQtQtQtQt.#.a.bQtQtQtQtQtQtQtQtQtQtQtQtQtQtQtQt",
"QtQtQtQt.#.c.c.d.#QtQt.#.c.c.c.c.c.eQtQtQtQtQtQtQtQtQtQtQtQtQtQt",
"QtQtQtQtQt.b.f.c.c.c.c.g.h.i.c.c.c.c.jQtQtQtQtQtQtQtQtQtQtQtQtQt",
"QtQtQtQtQtQtQt.b.g.c.k.l.m.n.o.c.c.c.cQtQtQtQtQtQtQtQtQtQtQtQtQt",
"QtQtQtQtQtQtQtQt.b.p.q.r.s.t.u.v.c.c.cQtQtQtQtQtQtQtQtQtQtQtQtQt",
"QtQtQtQtQtQt.w.x.y.z.A.q.B.C.D.E.c.c.cQtQtQtQtQtQtQtQtQtQtQtQtQt",
"QtQtQtQtQtQt.F.G.H.I.A.A.q.J.K.L.c.c.c.cQtQtQtQtQtQtQtQtQtQtQtQt",
"QtQtQtQtQtQtQtQtQtQtQt.M.N.O.c.c.c.c.c.c.cQtQtQtQtQtQtQtQtQtQtQt",
"QtQtQtQtQtQtQtQtQtQtQt.e.c.c.c.c.c.c.c.c.c.cQtQtQtQtQtQtQtQtQtQt",
"QtQtQtQtQtQtQtQtQtQtQt.P.c.c.c.c.c.c.c.c.c.s.cQtQtQtQtQtQtQtQtQt",
"QtQtQtQtQtQtQtQtQtQtQt.f.Q.R.c.c.c.c.c.c.c.o.o.gQtQtQtQtQtQtQtQt",
"QtQtQtQtQtQtQtQtQtQtQt.S.T.T.Q.f.c.j.f.c.c.c.j.PQtQtQtQtQtQtQtQt",
"QtQtQtQtQtQtQtQtQtQtQt.U.T.T.n.R.c.f.S.c.c.c.c.d.VQtQtQtQtQtQtQt",
"QtQtQtQtQtQtQtQtQtQtQt.U.T.T.W.X.o.c.P.e.c.c.c.c.cQtQtQtQtQtQtQt",
"QtQtQtQtQtQtQtQtQtQtQt.U.T.T.T.Y.U.c.c.c.#.#.f.c.c.c.bQtQtQtQtQt",
"QtQtQtQtQtQtQtQtQtQtQt.U.T.T.T.h.i.c.c.c.c.s.#.#.c.c.c.f.bQtQtQt",
"QtQtQtQtQtQtQtQtQtQtQt.U.T.T.T.h.Z.o.c.c.c.c.c.c.#.#.#.#.#QtQtQt",
"QtQtQtQtQtQtQtQtQtQtQt.V.T.T.T.0.1.a.c.c.c.c.c.c.c.c.jQtQtQtQtQt",
"QtQtQtQtQtQtQtQtQtQtQt.b.T.T.T.W.X.U.f.c.c.c.c.c.c.c.cQtQtQtQtQt",
"QtQtQtQtQtQtQtQtQtQtQt.S.T.T.T.n.2.R.s.c.c.c.c.c.c.c.c.sQtQtQtQt",
"QtQtQtQtQtQtQtQtQtQtQt.o.W.T.T.W.Q.3.o.c.c.c.c.c.c.c.c.cQtQtQtQt",
"QtQtQtQtQtQtQtQtQtQtQt.#.i.n.0.Y.Z.i.d.c.c.c.c.c.c.c.c.c.cQtQtQt",
"QtQtQtQtQtQtQtQtQtQtQtQt.d.h.4.2.5.5.e.c.c.c.c.c.c.c.c.c.c.dQtQt",
"QtQtQtQtQtQtQtQtQtQtQtQt.N.6.X.i.R.5.b.c.c.c.c.c.c.c.c.c.c.c.#Qt",
"QtQtQtQtQtQtQtQtQtQt.7.y.8.9#..Q.6#..#.S.v###a.c.c.c.c.c.c.c.#Qt",
"QtQtQtQtQtQtQtQtQtQt.w#b#c.8.9.j#.#d.D.y#e.z#f#g.k.c.c.c.#QtQtQt",
"QtQtQtQtQtQtQtQtQtQtQtQtQtQtQtQt.p#c#b.H#h.F.F#h.I.8#iQtQtQtQtQt"};
