/* XPM */
static char*bash_l2[]={
"32 32 75 2",
"#b c #f6b016",
"## c #fec752",
".Y c #808080",
".O c #a3a3a3",
".o c #2f2f2f",
".q c #ab8741",
"#g c #d78b04",
".Q c #fffefd",
".s c #6e6f6e",
"#. c #b39757",
".9 c #4f4f4f",
".x c #fbbf9a",
".n c #e6e6e6",
".j c #575757",
"#d c #fabb01",
".z c #a07c20",
".R c #7a7a7a",
".G c #fc9d20",
".i c #444444",
".0 c #676767",
".4 c #111220",
".g c #0e0e0e",
".J c #b33200",
".v c #ac6701",
"#e c #571e01",
".K c #833900",
".b c #1e1e1e",
".P c #d8d8d8",
".y c #ffebbe",
".I c #fe920a",
".D c #ffa507",
".C c #fac635",
".# c #878787",
"#h c #ea8b11",
".L c #160c03",
"#i c #ecaf3d",
".l c #747474",
".c c #595959",
".e c #3e3e3e",
".p c #faca31",
".H c #f4750b",
".A c #f8df78",
".3 c #a7a7a7",
".8 c #0f0900",
"#c c #503414",
".V c #333333",
".r c #090b0c",
".S c #afafaf",
".U c #bfbfbf",
".W c #c7c7c7",
".f c #6e6e6e",
".a c #151515",
".M c #61605f",
".w c #6f5418",
".N c #080500",
".h c #252525",
".B c #fed365",
"Qt c None",
"#a c #ffce50",
".1 c #8e8e8e",
".7 c #20170b",
".6 c #a8abb5",
".u c #f98105",
".m c #efefef",
".t c #fdb81d",
".X c #606060",
".d c #070707",
".T c #f7f7f7",
".E c #ff9d02",
".k c #44433f",
".F c #feb411",
"#f c #4f240c",
".5 c #dedfe0",
".Z c #d1d1d1",
".2 c #b6b6b6",
"QtQtQtQtQtQtQtQtQtQtQtQtQtQtQtQtQtQtQt.#QtQtQtQtQtQtQtQtQtQtQtQt",
"QtQtQtQtQtQtQtQtQtQtQtQtQtQtQtQtQtQtQt.a.bQtQtQtQtQtQtQtQtQtQtQt",
"QtQtQtQtQtQtQtQtQtQtQtQtQtQtQtQtQtQtQt.c.d.cQtQtQtQtQtQtQtQtQtQt",
"QtQtQtQtQtQtQtQtQtQtQtQtQtQtQtQtQtQtQtQt.d.dQtQtQtQtQtQtQtQtQtQt",
"QtQtQtQtQtQtQtQtQtQtQtQtQtQtQtQtQtQtQtQt.e.dQtQtQtQtQtQtQtQtQtQt",
"QtQtQtQtQtQtQtQtQtQtQtQtQt.f.a.g.g.hQtQt.i.d.cQtQtQtQtQtQtQtQtQt",
"QtQtQtQtQtQtQtQtQtQtQtQt.b.h.g.d.d.d.dQt.j.d.dQtQtQtQtQtQtQtQtQt",
"QtQtQtQtQtQtQtQtQtQtQt.k.l.m.n.g.d.d.d.l.o.d.dQtQtQtQtQtQtQtQtQt",
"QtQtQtQtQtQtQtQtQtQtQt.p.q.r.m.s.d.d.d.c.d.d.dQtQtQtQtQtQtQtQtQt",
"QtQtQtQtQtQtQtQtQtQt.t.u.v.w.x.y.z.d.d.c.d.d.dQtQtQtQtQtQtQtQtQt",
"QtQtQtQtQtQtQt.t.A.B.C.D.E.F.t.G.H.d.d.d.d.d.dQtQtQtQtQtQtQtQtQt",
"QtQtQtQtQtQtQt.G.u.u.I.I.u.H.J.K.L.d.d.d.d.d.dQtQtQtQtQtQtQtQtQt",
"QtQtQtQtQtQtQtQtQtQtQt.M.N.N.d.d.d.d.d.d.d.d.aQtQtQtQtQtQtQtQtQt",
"QtQtQtQtQtQtQtQtQtQtQt.d.d.d.d.d.d.d.d.d.d.d.eQtQtQtQtQtQtQtQtQt",
"QtQtQtQtQtQtQtQtQtQt.g.d.d.d.d.d.d.d.d.d.d.d.gQtQtQtQtQtQtQtQtQt",
"QtQtQtQtQtQtQtQtQt.h.d.o.O.d.d.d.d.d.d.d.d.d.dQtQtQtQtQtQtQtQtQt",
"QtQtQtQtQtQtQtQtQt.d.d.P.Q.j.d.d.d.d.d.d.d.d.d.oQtQtQtQtQtQtQtQt",
"QtQtQtQtQtQtQtQt.i.d.R.Q.m.S.a.d.d.d.d.d.d.d.d.dQtQtQtQtQtQtQtQt",
"QtQtQtQtQtQtQtQt.g.d.m.Q.T.U.V.d.d.d.d.d.d.d.d.dQtQtQtQtQtQtQtQt",
"QtQtQtQtQtQtQtQt.d.V.Q.Q.T.W.X.d.d.d.d.d.d.d.d.d.YQtQtQtQtQtQtQt",
"QtQtQtQtQtQtQtQt.d.X.Q.Q.Q.Z.f.d.d.d.d.d.d.d.d.d.oQtQtQtQtQtQtQt",
"QtQtQtQtQtQtQtQt.d.0.Q.Q.Q.Z.R.d.d.d.d.d.d.d.d.d.gQtQtQtQtQtQtQt",
"QtQtQtQtQtQtQtQtQt.0.Q.Q.T.Z.Y.g.d.d.d.d.d.d.d.d.dQtQtQtQtQtQtQt",
"QtQtQtQtQtQtQtQtQt.0.Q.Q.T.W.1.a.d.d.d.d.d.d.d.d.dQtQtQtQtQtQtQt",
"QtQtQtQtQtQtQtQtQt.f.Q.Q.m.2.#.b.d.d.d.d.d.d.d.d.dQtQtQtQtQtQtQt",
"QtQtQtQtQtQtQtQtQt.j.Q.Q.P.3.Y.4.d.d.d.d.d.d.d.d.d.1QtQtQtQtQtQt",
"QtQtQtQtQtQtQtQtQt.b.n.5.6.O.Y.7.8.8.d.d.d.d.d.d.d.9QtQtQtQtQtQt",
"QtQtQtQtQtQtQtQtQt.a.3.2#.###a#a.p.p#b#c.d.d.d.d.d.dQtQtQtQtQtQt",
"QtQtQtQtQtQtQtQtQt.j.k.p.F#a.p.F.F.D.D#d#e.d.d.d.d.dQtQtQtQtQtQt",
"QtQtQtQtQtQtQtQtQtQt.8.K#f.K#e#f.K.H.H.H.u.7.d.d.d.gQtQtQtQtQtQt",
"QtQtQtQtQtQtQtQtQtQtQt.4.d.d.d.d.d.d.N.N.8.d.d.4.jQtQtQtQtQtQtQt",
"QtQtQtQtQtQtQtQtQtQtQtQt#g#h.H#h#h#h#g#g#iQtQtQtQtQtQtQtQtQtQtQt"};
