/* XPM */
static char*bash_l3[]={
"32 32 59 1",
"T c #fec752",
"f c #656565",
"i c #373737",
"4 c #ffad2f",
"U c #d78b04",
"Y c #ffba41",
"S c #f2b044",
"o c #b39757",
"m c #4f4f4f",
"k c #e6e6e6",
"E c #fabb01",
"H c #fc9d20",
"c c #060606",
"P c #0f0c02",
"r c #444444",
"e c #0e0e0e",
"K c #b33200",
"V c #ac6701",
"1 c #ff9800",
"t c #ff8e03",
"L c #833900",
"F c #fea637",
"p c #d8d8d8",
"2 c #fe920a",
"g c #262626",
"0 c #ffa507",
"n c #fac635",
"B c #fecb3f",
"y c #515151",
"3 c #ea8b11",
"# c #747474",
"b c #595959",
"h c #3e3e3e",
"s c #faca31",
"J c #f4750b",
"G c #2b2b2b",
"w c #f8df78",
"R c #ffb57d",
"l c #090b0c",
"N c #181818",
"u c #ee4f01",
"x c #aaa9a8",
"d c #151515",
"M c #2b2c2f",
"j c #61605f",
"v c #6f5418",
"Z c #ffc951",
"W c #080500",
"A c #fed365",
". c None",
"Q c #fdeac3",
"q c #8e8e8e",
"I c #f98105",
"z c #fdb81d",
"O c #070707",
"D c #ff9d02",
"X c #ffd0b1",
"C c #feb411",
"a c #1f1f1f",
"................................",
"................................",
"...........#ab..................",
"............acd.................",
".............eccb...............",
".............fcccgb.............",
"............haeccdib............",
"...........hjkklccmd............",
"...........nolpqccarb...........",
"..........stuvwxlccyh...........",
".......zwABCDEzFGccar...........",
".......HIIItIJKLMcccGa..........",
"............Ncclbcccgdb.........",
"............accdOcccgae.........",
"............cccaOccceccb........",
"...........bccOOOcccccce........",
"...........eccOOOcccccccb.......",
"...........ccccOcccccccce.......",
"...........cccccccccccccc.......",
"..........bccccclccccccccb......",
"..........gcccccccccccccch......",
"..........ecccccccccccccce......",
"..........cccccccccccccccc......",
"..........ccccccccccccccccb.....",
"..........cccccccccccccccca.....",
"..........ccccccccccccccccc.....",
"..........cccccccccccccccccb....",
"..........cPcccccccccccccccc....",
"........QRSTUVLWccccccccccccr...",
"......XYwZnzEE01Lccccccccccg....",
"......XTRTH22IJt3PccccccWm......",
".................bbbLVUI4......."};
