/* XPM */
static char*bash_r7[]={
"32 32 55 1",
"x c #f6b016",
"I c #fda120",
"O c #373737",
"Z c #ffad2f",
"Y c #ffba41",
"k c #b39757",
"0 c #ffa213",
"W c #a07c20",
"R c #fabb01",
"V c #7a7a7a",
"u c #fc9d20",
"T c #ffed5e",
"c c #060606",
"d c #0e0e0e",
"q c #ac6701",
"D c #571e01",
"G c #ff9800",
"r c #ff8e03",
"g c #1e1e1e",
"f c #d8d8d8",
"n c #ffebbe",
"H c #ff9e13",
"J c #fe920a",
"z c #fac635",
"Q c #ea8b11",
"t c #160c03",
"p c #17150e",
"U c #ecaf3d",
"j c #4c535d",
"# c #595959",
"i c #f0f0f0",
"B c #faca31",
"P c #232323",
"F c #f4750b",
"h c #64676e",
"l c #f8df78",
"E c #ee4f01",
"N c #434343",
"w c #ffc33e",
"C c #2b2c2f",
"m c #6f5418",
"K c #080500",
"v c #fed365",
". c None",
"A c #ffce50",
"a c #58595b",
"L c #20170b",
"S c #fdb81d",
"s c #606060",
"X c #ff9711",
"y c #ff9d02",
"M c #4f240c",
"b c #171717",
"o c #d1d1d1",
"e c #b6b6b6",
"................................",
"................................",
"................................",
"................................",
"................................",
"................#aa#............",
"...............bccccd#..........",
"..............bccccefg..........",
".............#cccchijkl.........",
".............acccmnopqrl........",
"............sccctuvwxryzAlB.....",
"..........CccccccDEFGGyHIHJ.....",
"........dccccccccccKLM#.........",
".....sdcccccccccccccc#..........",
"..bcccccccccccccccccc...........",
".....NgccccccccccccccO..........",
".......dcccccccccccccd..........",
".......ccccccccccccccc..........",
"......#ccccccccccccccca.........",
"......gcccccccccccccccP.........",
"......dcccccccccccccccb.........",
"......ccccccccccccccccd.........",
".....CccccccccccccccNcc.........",
".....ccccccccccccccc.bc.........",
".....ccccccccccccccc.#c.........",
"....bccccccccccccccc..P.........",
"....cccccccccccccccc............",
"...ccccccccccccccccc............",
"..cccccccccccccccccc............",
"..dccccccccccccLqqtc............",
"....NdcccccccMQRSTvUv...........",
"........VNdgWHJJXXIYZ0.........."};
