/* XPM */
static char*bash_l4[]={
"32 32 47 1",
"P c #373113",
"e c #272727",
"n c #a3a3a3",
"s c #fda120",
"i c #ab8741",
"x c #d78b04",
"h c #403932",
"G c #ffba41",
"L c #ffa213",
"S c #fbbf9a",
"r c #a07c20",
"M c #fc9d20",
"l c #7a7a7a",
"y c #0a0801",
"a c #0e0e0e",
"Q c #ac6701",
"A c #1e1e1e",
"o c #ffebbe",
"O c #fe920a",
"R c #ea8b11",
"E c #160c03",
"K c #747474",
"# c #595959",
"z c #3e3e3e",
"q c #faca31",
"J c #f4750b",
"u c #232323",
"D c #f8df78",
"m c #503414",
"d c #434343",
"g c #c7c7c7",
"B c #2b2c2f",
"p c #6f5418",
"F c #fed365",
". c None",
"C c #353535",
"t c #20170b",
"N c #f98105",
"k c #efefef",
"H c #fdb81d",
"j c #606060",
"v c #ff9711",
"b c #070707",
"I c #ff9d02",
"w c #feb411",
"f c #d7d6d5",
"c c #171717",
"................................",
"................................",
"................................",
"................................",
"................................",
".............####...............",
"............abbbbc..............",
"...#bbbd#..efgbbbbc.............",
"....#abbbbhijklbbbb#............",
"......mbbbbbbnopbbbc............",
"......qibbbbbbrstbbbu...........",
"......vwxbbbbb#bybbbbc..........",
"..........bbbbbbbbbbbbc.........",
"..........#bbbbbbbbbbbbc........",
"...........#bbbbbbbbbbbbz.......",
"...........bbbbbbbbbbbbbb#......",
"...........bbbbbbbbbbbbbbc......",
"...........bbbbbbbbbbbbbbb#.....",
"...........bbbbbbbbbbbbbbbc.....",
"...........bbbbbbbbbbbbbbbb.....",
"...........bbbbbbbbbbbbbbbb.....",
"...........bbbbbbbbbbbbbbb#.....",
"...........abbbbbbbbbbbbbbA.....",
"...........abbbbbbbbbbbbbbb.....",
"...........abbbbbbbbbbbbbbb#....",
"...........abbbbbbbbbbbbbbbA....",
"...........Bbbbbbbbbbbbbbbbb#...",
"...........zbbbbbbbbbbbbbbbbd...",
"...........BbbbbbbbbbbbbbbbbbC..",
"..........DiEbbbbbbbbbbbbbbbbbB.",
".......DDFGHIJtbbbbbbbbbbbbydK..",
"......LMvvNNOvvrBacaaaPQrRNJS..."};
