/* XPM */
static char*basher1[]={
"32 32 93 2",
"#g c #373113",
"#v c #f6b016",
".w c #ffd76d",
".C c #fec752",
".f c #272727",
".G c #fda120",
".k c #2f2f2f",
".t c #ab8741",
".g c #373737",
"#n c #d78b04",
".W c #fffefd",
".O c #3f3f3f",
".d c #6e6f6e",
".D c #ffba41",
".A c #fb9d09",
"#q c #f2b044",
"#i c #b39757",
".V c #4f4f4f",
".U c #e6e6e6",
".R c #130600",
".c c #575757",
"#l c #fabb01",
"#d c #a07c20",
"#r c #fc9d20",
".4 c #7a7a7a",
"#c c #0f0c02",
".X c #444444",
".b c #676767",
".S c #0e0e0e",
".M c #b33200",
"#o c #ac6701",
".P c #571e01",
".8 c #c8c8c8",
".z c #ff8e03",
"#m c #f3af04",
".E c #833900",
".m c #596876",
"#x c #fea637",
"#z c #ff9e13",
".F c #fe920a",
".I c #ffa507",
".B c #fac635",
".Z c #878787",
".x c #fecb3f",
"#s c #ea8b11",
".N c #160c03",
".i c #8f8f8f",
"## c #17150e",
".l c #ecaf3d",
"#a c #4c535d",
".# c #595959",
".7 c #979797",
"#k c #faca31",
".p c #f4750b",
".2 c #9f9f9f",
".r c #64676e",
".o c #ffa811",
".9 c #a7a7a7",
"#t c #503414",
".s c #fff4db",
"#. c #afafaf",
".L c #ee4f01",
"#u c #453214",
".Y c #bfbfbf",
"#p c #ffc33e",
".3 c #c7c7c7",
".H c #ffa319",
"#f c #61605f",
"#h c #6f5418",
".u c #080500",
"#b c #878789",
"#e c #27313f",
"#A c #ffa108",
".v c #fed365",
"Qt c None",
"#w c #ffce50",
"#y c #ffa314",
".q c #20170b",
".n c #a8abb5",
".K c #f98105",
".T c #efefef",
".y c #fdb81d",
".a c #070707",
".0 c #f7f7f7",
".j c #dcdcdc",
".J c #ff9d02",
"#j c #f5e072",
".h c #44433f",
".Q c #4f240c",
".1 c #d7d6d5",
".e c #171717",
".5 c #1f1f1f",
".6 c #b6b6b6",
"QtQtQtQtQtQtQtQtQtQtQtQtQtQtQtQtQtQtQtQtQtQtQtQtQtQtQtQtQtQtQtQt",
"QtQtQtQtQtQtQtQtQtQtQtQtQtQtQtQtQtQtQtQtQtQtQtQtQtQtQtQtQtQtQtQt",
"QtQtQtQtQtQtQtQtQtQtQtQtQtQtQtQtQtQtQtQtQtQtQtQtQtQt.#QtQtQtQtQt",
"QtQtQtQtQtQtQtQtQtQtQtQtQtQtQtQtQtQtQtQtQtQtQtQtQtQt.a.#QtQtQtQt",
"QtQtQtQtQtQtQtQtQtQtQtQtQtQtQtQtQtQtQtQtQtQtQtQtQt.#.a.#QtQtQtQt",
"QtQtQtQtQtQtQtQtQtQtQtQtQtQtQt.b.c.dQtQtQtQtQtQtQt.e.a.#QtQtQtQt",
"QtQtQtQtQtQtQtQtQtQtQtQtQt.f.a.a.a.a.aQtQtQtQtQt.g.a.a.#QtQtQtQt",
"QtQtQtQtQtQtQtQtQtQtQtQt.h.i.j.k.a.a.a.aQtQtQt.b.a.a.aQtQtQtQtQt",
"QtQtQtQtQtQtQtQtQtQtQtQt.l.m.n.j.a.a.a.a.cQt.e.a.a.a.eQtQtQtQtQt",
"QtQtQtQtQtQtQtQtQtQtQt.o.p.q.r.s.t.u.a.a.a.a.a.a.a.aQtQtQtQtQtQt",
"QtQtQtQtQtQtQtQt.v.w.x.y.z.A.B.C.D.E.a.a.a.a.a.a.a.#QtQtQtQtQtQt",
"QtQtQtQtQtQtQtQt.F.G.H.I.J.J.K.L.M.N.a.a.a.a.a.a.OQtQtQtQtQtQtQt",
"QtQtQtQtQtQtQtQtQtQtQtQt.P.Q.R.a.a.a.a.a.a.a.a.OQtQtQtQtQtQtQtQt",
"QtQtQtQtQtQtQtQtQtQtQt.S.a.a.a.a.a.a.a.a.a.a.gQtQtQtQtQtQtQtQtQt",
"QtQtQtQtQtQtQtQtQtQt.e.a.a.a.a.a.a.a.a.a.a.a.fQtQtQtQtQtQtQtQtQt",
"QtQtQtQtQtQtQtQtQt.k.a.a.a.a.a.a.a.a.a.a.a.a.aQtQtQtQtQtQtQtQtQt",
"QtQtQtQtQtQtQtQt.g.a.a.f.T.U.c.a.a.a.a.a.a.a.a.VQtQtQtQtQtQtQtQt",
"QtQtQtQtQtQtQt.#.a.a.a.U.W.W.U.b.a.a.a.a.a.a.a.SQtQtQtQtQtQtQtQt",
"QtQtQtQtQtQtQt.e.a.a.X.W.W.W.T.Y.V.a.a.a.a.a.a.aQtQtQtQtQtQtQtQt",
"QtQtQtQtQtQt.#.a.S.g.Z.W.W.W.0.1.2.f.a.a.a.a.a.a.VQtQtQtQtQtQtQt",
"QtQtQtQtQtQt.#.aQt.g.3.W.W.W.W.j.Y.b.a.a.a.a.a.a.SQtQtQtQtQtQtQt",
"QtQtQtQtQtQt.O.gQt.g.U.W.W.W.W.T.Y.4.a.a.a.a.a.a.aQtQtQtQtQtQtQt",
"QtQtQtQtQtQt.#QtQt.5.T.W.W.W.W.T.Y.i.5.a.a.a.a.a.a.#QtQtQtQtQtQt",
"QtQtQtQtQtQtQtQtQt.f.0.W.W.W.W.0.Y.2.g.a.a.a.a.a.a.eQtQtQtQtQtQt",
"QtQtQtQtQtQtQtQtQt.f.0.W.W.W.W.T.6.2.O.a.a.a.a.a.a.aQtQtQtQtQtQt",
"QtQtQtQtQtQtQtQtQt.5.0.W.W.W.W.U.6.7.O.a.a.a.a.a.a.aQtQtQtQtQtQt",
"QtQtQtQtQtQtQtQtQt.5.j.W.W.W.W.8.2.7.g.a.a.a.a.a.a.a.eQtQtQtQtQt",
"QtQtQtQtQtQtQtQtQt.b.9.0.T.0.j#..i.Z.f.a.a.a.a.a.a.a.aQtQtQtQtQt",
"QtQtQtQtQtQtQtQtQtQt.k.1.Y.Y.9.i.i.d.a.a.a.a.a.a.a.a.aQtQtQtQtQt",
"QtQtQtQtQtQtQtQtQtQt###a.9.7.7#b.r.e.a.a.a#c.u.a.a.a.aQtQtQtQtQt",
"QtQtQtQtQtQtQtQtQtQt#d.a#e#f.#.X#g#h#i.w#j#k#l#m#n#o.gQtQtQtQtQt",
"QtQtQtQtQtQtQtQt#p#q#r#s#t.e.e#u#v#w#w#x.y#y#y#z.F#AQtQtQtQtQtQt"};
