/* XPM */
static char*bash_l9[]={
"32 32 67 2",
".4 c #373113",
".7 c #ffd76d",
".U c #808080",
".g c #fec752",
".A c #fda120",
".I c #2f2f2f",
".6 c #ab8741",
".h c #919090",
".J c #373737",
".V c #fffefd",
".c c #3f3f3f",
"## c #ffba41",
".P c #4f4f4f",
".S c #575757",
".9 c #fabb01",
".3 c #a07c20",
"#a c #fc9d20",
".8 c #ffed5e",
".b c #444444",
".a c #0e0e0e",
".E c #b33200",
".D c #ff9800",
".u c #ff8e03",
".i c #596876",
".L c #d8d8d8",
".z c #ff9e13",
".y c #fe920a",
".n c #262626",
".r c #fac635",
".w c #fecb3f",
"#. c #ea8b11",
".q c #160c03",
".N c #8f8f8f",
".d c #595959",
".K c #979797",
".1 c #3e3e3e",
".t c #faca31",
".s c #f8df78",
".R c #9a9a9b",
".p c #ffb57d",
".T c #a7a7a7",
".m c #503414",
".x c #ee4f01",
".o c #faf3de",
".0 c #666666",
".X c #c7c7c7",
".f c #6e6e6e",
".5 c #61605f",
".Z c #868686",
"Qt c None",
".k c #ffce50",
".M c #58595b",
".F c #20170b",
".2 c #a8abb5",
".l c #f98105",
".O c #efefef",
".v c #fdb81d",
".B c #ff9711",
".# c #070707",
".j c #f7f7f7",
".C c #ff9d02",
".Y c #e4e4e4",
".G c #4f240c",
".H c #171717",
".e c #dedfe0",
".Q c #1f1f1f",
".W c #b6b6b6",
"QtQtQtQtQtQtQtQtQtQtQtQtQtQtQtQtQtQtQtQtQtQtQtQtQtQtQtQtQtQtQtQt",
"QtQtQtQtQtQtQtQtQtQtQtQtQtQtQtQtQt.#QtQtQtQtQtQtQtQtQtQtQtQtQtQt",
"QtQtQtQtQtQtQtQtQtQtQtQtQtQtQtQtQt.a.aQtQtQtQtQtQtQtQtQtQtQtQtQt",
"QtQtQtQtQtQtQtQtQtQtQtQtQtQtQtQtQt.b.#QtQtQtQtQtQtQtQtQtQtQtQtQt",
"QtQtQtQtQtQtQtQtQtQtQtQtQtQtQtQtQt.a.#.cQtQtQtQtQtQtQtQtQtQtQtQt",
"QtQtQtQtQtQtQtQtQtQtQtQtQtQt.d.d.d.#.#.aQtQtQtQtQtQtQtQtQtQtQtQt",
"QtQtQtQtQtQtQtQtQtQtQtQt.d.#.#.#.#.#.#.#QtQtQtQtQtQtQtQtQtQtQtQt",
"QtQtQtQtQtQtQtQtQtQtQtQt.b.e.f.#.#.#.#.#QtQtQtQtQtQtQtQtQtQtQtQt",
"QtQtQtQtQtQtQtQtQtQtQt.g.h.i.j.a.#.#.#.#QtQtQtQtQtQtQtQtQtQtQtQt",
"QtQtQtQtQtQtQtQtQtQt.k.l.m.n.o.p.q.#.#.#QtQtQtQtQtQtQtQtQtQtQtQt",
"QtQtQtQtQtQtQt.r.s.k.t.u.u.v.w.g.x.#.#.#QtQtQtQtQtQtQtQtQtQtQtQt",
"QtQtQtQtQtQtQt.y.z.A.B.C.D.u.x.E.F.#.#.#QtQtQtQtQtQtQtQtQtQtQtQt",
"QtQtQtQtQtQtQtQtQtQtQtQt.G.q.#.#.#.#.#.#.#QtQtQtQtQtQtQtQtQtQtQt",
"QtQtQtQtQtQtQtQtQtQtQtQt.#.#.#.#.#.#.#.#.#.#QtQtQtQtQtQtQtQtQtQt",
"QtQtQtQtQtQtQtQtQtQtQt.H.#.#.a.#.#.#.#.a.#.#.#QtQtQtQtQtQtQtQtQt",
"QtQtQtQtQtQtQtQtQtQtQt.#.#.#.a.H.#.#.#.I.#.#.#.aQtQtQtQtQtQtQtQt",
"QtQtQtQtQtQtQtQtQtQtQt.d.n.#.#.J.#.#.#.J.a.#.#.#.dQtQtQtQtQtQtQt",
"QtQtQtQtQtQtQtQtQtQtQt.d.K.#.#.c.J.#.#.a.b.#.#.#.#QtQtQtQtQtQtQt",
"QtQtQtQtQtQtQtQtQtQt.d.K.L.#.#.#.M.H.#.#.n.J.#.#.#.dQtQtQtQtQtQt",
"QtQtQtQtQtQtQtQtQtQt.d.N.O.H.#.#.#.P.H.#.#.c.Q.#.#.#QtQtQtQtQtQt",
"QtQtQtQtQtQtQtQtQtQt.d.R.j.S.#.#.#.#.S.Q.#.#.b.H.#.#.dQtQtQtQtQt",
"QtQtQtQtQtQtQtQtQtQt.d.T.j.U.a.#.#.#.#.J.b.n.a.P.J.#.#QtQtQtQtQt",
"QtQtQtQtQtQtQtQtQtQt.d.N.j.K.I.#.#.#.#.#.#.I.b.c.S.a.#QtQtQtQtQt",
"QtQtQtQtQtQtQtQtQtQtQt.d.V.W.b.#.#.#.#.#.#.#.#.#.#.#.#QtQtQtQtQt",
"QtQtQtQtQtQtQtQtQtQtQt.P.j.X.M.#.#.#.#.#.#.#.#.#.#.#.#.PQtQtQtQt",
"QtQtQtQtQtQtQtQtQtQtQt.Q.Y.L.Z.Q.#.#.#.#.#.#.#.#.#.#.#.aQtQtQtQt",
"QtQtQtQtQtQtQtQtQtQtQt.f.U.L.K.c.#.#.#.#.#.#.#.#.#.#.#.#QtQtQtQt",
"QtQtQtQtQtQtQtQtQtQtQtQt.H.T.R.0.#.#.#.#.#.#.#.#.#.#.#.#.nQtQtQt",
"QtQtQtQtQtQtQtQtQtQtQtQt.d.b.T.Z.Q.#.#.#.#.#.#.#.#.#.#.#.#.aQtQt",
"QtQtQtQtQtQtQtQtQtQtQtQtQt.c.1.2.1.q.3.3.4.#.#.#.#.#.#.#.#.#QtQt",
"QtQtQtQtQtQtQtQtQtQtQtQtQtQt.5.6.s.7.8.9.9#..G.#.#.#.#.SQtQtQtQt",
"QtQtQtQtQtQtQtQtQtQtQtQtQtQt##.B#a.B.B.B.B.B.B.3.cQtQtQtQtQtQtQt"};
