/* XPM */
static char*bash_r2[]={
"32 32 75 2",
"## c #f6b016",
"#b c #fec752",
".W c #808080",
".O c #a3a3a3",
".k c #2f2f2f",
".r c #ab8741",
"#h c #d78b04",
".P c #fffefd",
".p c #6e6f6e",
"#c c #b39757",
".5 c #4f4f4f",
".v c #fbbf9a",
".m c #e6e6e6",
".j c #575757",
"#e c #fabb01",
".t c #a07c20",
".S c #7a7a7a",
".B c #fc9d20",
".f c #444444",
".0 c #676767",
".3 c #111220",
".h c #0e0e0e",
".K c #b33200",
".x c #ac6701",
"#d c #571e01",
".J c #833900",
".a c #1e1e1e",
".Q c #d8d8d8",
".u c #ffebbe",
".L c #fe920a",
".E c #ffa507",
".F c #fac635",
".# c #878787",
"#i c #ea8b11",
".I c #160c03",
"#g c #ecaf3d",
".l c #747474",
".c c #595959",
".e c #3e3e3e",
".s c #faca31",
".A c #f4750b",
".H c #f8df78",
".4 c #a7a7a7",
".6 c #0f0900",
"#. c #503414",
".T c #333333",
".q c #090b0c",
".R c #afafaf",
".U c #bfbfbf",
".Y c #c7c7c7",
".i c #6e6e6e",
".b c #151515",
".N c #61605f",
".w c #6f5418",
".M c #080500",
".g c #252525",
".G c #fed365",
"Qt c None",
"#a c #ffce50",
".1 c #8e8e8e",
".7 c #20170b",
".8 c #a8abb5",
".y c #f98105",
".n c #efefef",
".z c #fdb81d",
".X c #606060",
".d c #070707",
".V c #f7f7f7",
".D c #ff9d02",
".o c #44433f",
".C c #feb411",
"#f c #4f240c",
".9 c #dedfe0",
".Z c #d1d1d1",
".2 c #b6b6b6",
"QtQtQtQtQtQtQtQtQtQtQtQt.#QtQtQtQtQtQtQtQtQtQtQtQtQtQtQtQtQtQtQt",
"QtQtQtQtQtQtQtQtQtQtQt.a.bQtQtQtQtQtQtQtQtQtQtQtQtQtQtQtQtQtQtQt",
"QtQtQtQtQtQtQtQtQtQt.c.d.cQtQtQtQtQtQtQtQtQtQtQtQtQtQtQtQtQtQtQt",
"QtQtQtQtQtQtQtQtQtQt.d.dQtQtQtQtQtQtQtQtQtQtQtQtQtQtQtQtQtQtQtQt",
"QtQtQtQtQtQtQtQtQtQt.d.eQtQtQtQtQtQtQtQtQtQtQtQtQtQtQtQtQtQtQtQt",
"QtQtQtQtQtQtQtQtQt.c.d.fQtQt.g.h.h.b.iQtQtQtQtQtQtQtQtQtQtQtQtQt",
"QtQtQtQtQtQtQtQtQt.d.d.jQt.d.d.d.d.h.g.aQtQtQtQtQtQtQtQtQtQtQtQt",
"QtQtQtQtQtQtQtQtQt.d.d.k.l.d.d.d.h.m.n.l.oQtQtQtQtQtQtQtQtQtQtQt",
"QtQtQtQtQtQtQtQtQt.d.d.d.c.d.d.d.p.n.q.r.sQtQtQtQtQtQtQtQtQtQtQt",
"QtQtQtQtQtQtQtQtQt.d.d.d.c.d.d.t.u.v.w.x.y.zQtQtQtQtQtQtQtQtQtQt",
"QtQtQtQtQtQtQtQtQt.d.d.d.d.d.d.A.B.z.C.D.E.F.G.H.zQtQtQtQtQtQtQt",
"QtQtQtQtQtQtQtQtQt.d.d.d.d.d.d.I.J.K.A.y.L.L.y.y.BQtQtQtQtQtQtQt",
"QtQtQtQtQtQtQtQtQt.b.d.d.d.d.d.d.d.d.M.M.NQtQtQtQtQtQtQtQtQtQtQt",
"QtQtQtQtQtQtQtQtQt.e.d.d.d.d.d.d.d.d.d.d.dQtQtQtQtQtQtQtQtQtQtQt",
"QtQtQtQtQtQtQtQtQt.h.d.d.d.d.d.d.d.d.d.d.d.hQtQtQtQtQtQtQtQtQtQt",
"QtQtQtQtQtQtQtQtQt.d.d.d.d.d.d.d.d.d.d.O.k.d.gQtQtQtQtQtQtQtQtQt",
"QtQtQtQtQtQtQtQt.k.d.d.d.d.d.d.d.d.d.j.P.Q.d.dQtQtQtQtQtQtQtQtQt",
"QtQtQtQtQtQtQtQt.d.d.d.d.d.d.d.d.d.b.R.n.P.S.d.fQtQtQtQtQtQtQtQt",
"QtQtQtQtQtQtQtQt.d.d.d.d.d.d.d.d.d.T.U.V.P.n.d.hQtQtQtQtQtQtQtQt",
"QtQtQtQtQtQtQt.W.d.d.d.d.d.d.d.d.d.X.Y.V.P.P.T.dQtQtQtQtQtQtQtQt",
"QtQtQtQtQtQtQt.k.d.d.d.d.d.d.d.d.d.i.Z.P.P.P.X.dQtQtQtQtQtQtQtQt",
"QtQtQtQtQtQtQt.h.d.d.d.d.d.d.d.d.d.S.Z.P.P.P.0.dQtQtQtQtQtQtQtQt",
"QtQtQtQtQtQtQt.d.d.d.d.d.d.d.d.d.h.W.Z.V.P.P.0QtQtQtQtQtQtQtQtQt",
"QtQtQtQtQtQtQt.d.d.d.d.d.d.d.d.d.b.1.Y.V.P.P.0QtQtQtQtQtQtQtQtQt",
"QtQtQtQtQtQtQt.d.d.d.d.d.d.d.d.d.a.#.2.n.P.P.iQtQtQtQtQtQtQtQtQt",
"QtQtQtQtQtQt.1.d.d.d.d.d.d.d.d.d.3.W.4.Q.P.P.jQtQtQtQtQtQtQtQtQt",
"QtQtQtQtQtQt.5.d.d.d.d.d.d.d.6.6.7.W.O.8.9.m.aQtQtQtQtQtQtQtQtQt",
"QtQtQtQtQtQt.d.d.d.d.d.d#.##.s.s#a#a#b#c.2.4.bQtQtQtQtQtQtQtQtQt",
"QtQtQtQtQtQt.d.d.d.d.d#d#e.E.E.C.C.s#a.C.s.o.jQtQtQtQtQtQtQtQtQt",
"QtQtQtQtQtQt.h.d.d.d.7.y.A.A.A.J#f#d.J#f.J.6QtQtQtQtQtQtQtQtQtQt",
"QtQtQtQtQtQtQt.j.3.d.d.6.M.M.d.d.d.d.d.d.3QtQtQtQtQtQtQtQtQtQtQt",
"QtQtQtQtQtQtQtQtQtQtQt#g#h#h#i#i#i.A#i#hQtQtQtQtQtQtQtQtQtQtQtQt"};
