/* XPM */
static char*bash_l8[]={
"32 32 64 1",
"x c #ffd76d",
"3 c #fec752",
"X c #808080",
"f c #272727",
"e c #2f2f2f",
"l c #ab8741",
"Q c #373737",
"F c #4f4f4f",
"6 c #ffa213",
"i c #e6e6e6",
"R c #575757",
"9 c #a07c20",
"B c #fabb01",
"C c #fc9d20",
"a c #7a7a7a",
"m c #060606",
"K c #444444",
"L c #676767",
"b c #0e0e0e",
"I c #b33200",
"1 c #ac6701",
"r c #ff8e03",
"5 c #f3af04",
"J c #833900",
"G c #fea637",
"v c #ffebbe",
"8 c #ff9e13",
"z c #ffa507",
"W c #878787",
"E c #160c03",
"w c #ecaf3d",
"p c #595959",
"d c #3e3e3e",
"k c #faca31",
"D c #f4750b",
"o c #9f9f9f",
"u c #f8df78",
"Y c #a7a7a7",
"2 c #503414",
"M c #afafaf",
"s c #ee4f01",
"h c #666666",
"O c #6e6e6e",
"t c #6f5418",
"V c #bcbcbc",
"y c #fed365",
"0 c #939392",
". c None",
"4 c #ffce50",
"H c #f98105",
"P c #efefef",
"q c #fdb81d",
"7 c #ff9711",
"# c #070707",
"j c #f7f7f7",
"A c #ff9d02",
"n c #e4e4e4",
"U c #d7d6d5",
"c c #171717",
"N c #dedfe0",
"Z c #939393",
"T c #d1d1d1",
"g c #1f1f1f",
"S c #b6b6b6",
"................................",
"................................",
"................................",
"................................",
"........................#.......",
"............ab##c......d#.......",
"...........efg####.....##.......",
"...........hijc####...b#f.......",
"..........klmno####..b##p.......",
".........qrstuvw########........",
"......qxykzABqCDE######F........",
"......GHHHrDDIJE#######.........",
"...........###########p.........",
"..........K###########F.........",
"..........LM###########.........",
"..........pN#f####e####c........",
"..........pN#f###bF#####........",
"..........Oi#d###cK#####g.......",
"..........pibec##gd######.......",
"..........FPe#K##gd######e......",
"..........QPF#Kc#cK#######......",
"..........pia#bR##K#######Q.....",
"..........pNS##dQ#Kb#######.....",
"...........pTg##Rbgf#######f....",
"...........LUF##bRKR########....",
"...........LVWc###Qpe#######....",
"............XYp#####b#######b...",
"............pMZd#############...",
".............pYYg#############..",
"..............a0l12##########b..",
".............uy34B5r2######O....",
"............AC6C777789ccO......."};
