/* XPM */
static char*bash_r9[]={
"32 32 67 2",
".1 c #373113",
".8 c #ffd76d",
".T c #808080",
".j c #fec752",
".D c #fda120",
".I c #2f2f2f",
".9 c #ab8741",
".i c #919090",
".J c #373737",
".W c #fffefd",
".c c #3f3f3f",
"#a c #ffba41",
".O c #4f4f4f",
".R c #575757",
".6 c #fabb01",
".2 c #a07c20",
"## c #fc9d20",
".7 c #ffed5e",
".b c #444444",
".a c #0e0e0e",
".z c #b33200",
".A c #ff9800",
".u c #ff8e03",
".h c #596876",
".M c #d8d8d8",
".E c #ff9e13",
".F c #fe920a",
".n c #262626",
".x c #fac635",
".s c #fecb3f",
".5 c #ea8b11",
".k c #160c03",
".Q c #8f8f8f",
".d c #595959",
".K c #979797",
".3 c #3e3e3e",
".v c #faca31",
".w c #f8df78",
".S c #9a9a9b",
".l c #ffb57d",
".U c #a7a7a7",
".o c #503414",
".r c #ee4f01",
".m c #faf3de",
".0 c #666666",
".X c #c7c7c7",
".e c #6e6e6e",
"#. c #61605f",
".Y c #868686",
"Qt c None",
".q c #ffce50",
".L c #58595b",
".y c #20170b",
".4 c #a8abb5",
".p c #f98105",
".P c #efefef",
".t c #fdb81d",
".C c #ff9711",
".# c #070707",
".g c #f7f7f7",
".B c #ff9d02",
".Z c #e4e4e4",
".G c #4f240c",
".H c #171717",
".f c #dedfe0",
".N c #1f1f1f",
".V c #b6b6b6",
"QtQtQtQtQtQtQtQtQtQtQtQtQtQtQtQtQtQtQtQtQtQtQtQtQtQtQtQtQtQtQtQt",
"QtQtQtQtQtQtQtQtQtQtQtQtQtQt.#QtQtQtQtQtQtQtQtQtQtQtQtQtQtQtQtQt",
"QtQtQtQtQtQtQtQtQtQtQtQtQt.a.aQtQtQtQtQtQtQtQtQtQtQtQtQtQtQtQtQt",
"QtQtQtQtQtQtQtQtQtQtQtQtQt.#.bQtQtQtQtQtQtQtQtQtQtQtQtQtQtQtQtQt",
"QtQtQtQtQtQtQtQtQtQtQtQt.c.#.aQtQtQtQtQtQtQtQtQtQtQtQtQtQtQtQtQt",
"QtQtQtQtQtQtQtQtQtQtQtQt.a.#.#.d.d.dQtQtQtQtQtQtQtQtQtQtQtQtQtQt",
"QtQtQtQtQtQtQtQtQtQtQtQt.#.#.#.#.#.#.#.dQtQtQtQtQtQtQtQtQtQtQtQt",
"QtQtQtQtQtQtQtQtQtQtQtQt.#.#.#.#.#.e.f.bQtQtQtQtQtQtQtQtQtQtQtQt",
"QtQtQtQtQtQtQtQtQtQtQtQt.#.#.#.#.a.g.h.i.jQtQtQtQtQtQtQtQtQtQtQt",
"QtQtQtQtQtQtQtQtQtQtQtQt.#.#.#.k.l.m.n.o.p.qQtQtQtQtQtQtQtQtQtQt",
"QtQtQtQtQtQtQtQtQtQtQtQt.#.#.#.r.j.s.t.u.u.v.q.w.xQtQtQtQtQtQtQt",
"QtQtQtQtQtQtQtQtQtQtQtQt.#.#.#.y.z.r.u.A.B.C.D.E.FQtQtQtQtQtQtQt",
"QtQtQtQtQtQtQtQtQtQtQt.#.#.#.#.#.#.#.k.GQtQtQtQtQtQtQtQtQtQtQtQt",
"QtQtQtQtQtQtQtQtQtQt.#.#.#.#.#.#.#.#.#.#QtQtQtQtQtQtQtQtQtQtQtQt",
"QtQtQtQtQtQtQtQtQt.#.#.#.a.#.#.#.#.a.#.#.HQtQtQtQtQtQtQtQtQtQtQt",
"QtQtQtQtQtQtQtQt.a.#.#.#.I.#.#.#.H.a.#.#.#QtQtQtQtQtQtQtQtQtQtQt",
"QtQtQtQtQtQtQt.d.#.#.#.a.J.#.#.#.J.#.#.n.dQtQtQtQtQtQtQtQtQtQtQt",
"QtQtQtQtQtQtQt.#.#.#.#.b.a.#.#.J.c.#.#.K.dQtQtQtQtQtQtQtQtQtQtQt",
"QtQtQtQtQtQt.d.#.#.#.J.n.#.#.H.L.#.#.#.M.K.dQtQtQtQtQtQtQtQtQtQt",
"QtQtQtQtQtQt.#.#.#.N.c.#.#.H.O.#.#.#.H.P.Q.dQtQtQtQtQtQtQtQtQtQt",
"QtQtQtQtQt.d.#.#.H.b.#.#.N.R.#.#.#.#.R.g.S.dQtQtQtQtQtQtQtQtQtQt",
"QtQtQtQtQt.#.#.J.O.a.n.b.J.#.#.#.#.a.T.g.U.dQtQtQtQtQtQtQtQtQtQt",
"QtQtQtQtQt.#.a.R.c.b.I.#.#.#.#.#.#.I.K.g.Q.dQtQtQtQtQtQtQtQtQtQt",
"QtQtQtQtQt.#.#.#.#.#.#.#.#.#.#.#.#.b.V.W.dQtQtQtQtQtQtQtQtQtQtQt",
"QtQtQtQt.O.#.#.#.#.#.#.#.#.#.#.#.#.L.X.g.OQtQtQtQtQtQtQtQtQtQtQt",
"QtQtQtQt.a.#.#.#.#.#.#.#.#.#.#.#.N.Y.M.Z.NQtQtQtQtQtQtQtQtQtQtQt",
"QtQtQtQt.#.#.#.#.#.#.#.#.#.#.#.#.c.K.M.T.eQtQtQtQtQtQtQtQtQtQtQt",
"QtQtQt.n.#.#.#.#.#.#.#.#.#.#.#.#.0.S.U.HQtQtQtQtQtQtQtQtQtQtQtQt",
"QtQt.a.#.#.#.#.#.#.#.#.#.#.#.#.N.Y.U.b.dQtQtQtQtQtQtQtQtQtQtQtQt",
"QtQt.#.#.#.#.#.#.#.#.#.1.2.2.k.3.4.3.cQtQtQtQtQtQtQtQtQtQtQtQtQt",
"QtQtQtQt.R.#.#.#.#.G.5.6.6.7.8.w.9#.QtQtQtQtQtQtQtQtQtQtQtQtQtQt",
"QtQtQtQtQtQtQt.c.2.C.C.C.C.C.C##.C#aQtQtQtQtQtQtQtQtQtQtQtQtQtQt"};
