/* XPM */
static char*bash_r11[]={
"32 32 75 2",
"#d c #ffd76d",
"#a c #fec752",
".1 c #808080",
".i c #272727",
".G c #fda120",
".j c #2f2f2f",
".c c #373737",
"#i c #ffad2f",
".Q c #fffefd",
"#g c #ffba41",
".V c #6a6a6a",
".m c #b39757",
".N c #4f4f4f",
".T c #e6e6e6",
".p c #fbbf9a",
".7 c #b0b0b0",
".a c #575757",
".S c #eeeeee",
"## c #fabb01",
".5 c #a07c20",
".w c #fc9d20",
".M c #444444",
".3 c #111220",
".e c #0e0e0e",
"#. c #ac6701",
".B c #571e01",
".x c #ff9800",
".t c #ff8e03",
".O c #1e1e1e",
".s c #833900",
".H c #ff9e13",
".I c #fe920a",
".E c #ffa507",
".Y c #878787",
".v c #fecb3f",
".u c #ea8b11",
".0 c #8f8f8f",
".l c #4c535d",
".b c #595959",
".U c #979797",
".y c #faca31",
".D c #f4750b",
".9 c #929293",
".g c #9f9f9f",
".F c #ffa811",
".A c #f8df78",
".8 c #9a9a9b",
".6 c #ffb57d",
".P c #a7a7a7",
".o c #503414",
".R c #afafaf",
".f c #3b3b3b",
".C c #ee4f01",
".q c #faf3de",
".W c #c7c7c7",
".2 c #b4b4b4",
".J c #080500",
"#b c #252525",
".Z c #bcbcbc",
".n c #fed365",
"Qt c None",
".z c #ffce50",
".K c #20170b",
"#h c #fdb81d",
".# c #606060",
"#f c #ff9711",
".d c #070707",
".k c #f7f7f7",
".h c #dcdcdc",
"#c c #110c00",
".L c #4f240c",
".X c #d7d6d5",
".r c #171717",
".4 c #d1d1d1",
"#e c #1f1f1f",
"QtQtQtQtQtQtQtQtQtQtQtQtQtQtQtQtQtQtQtQtQtQtQtQtQtQtQtQtQtQtQtQt",
"QtQtQtQtQtQtQtQtQtQtQtQtQtQtQtQtQtQtQtQtQtQtQtQtQtQtQtQtQtQtQtQt",
"QtQtQtQtQtQtQtQtQtQtQtQtQtQtQtQtQtQtQtQtQtQtQtQtQtQtQtQtQtQtQtQt",
"QtQtQtQtQtQtQtQtQtQtQtQtQtQtQtQtQtQtQtQtQtQtQtQtQtQtQtQtQtQtQtQt",
"QtQtQtQtQtQtQtQtQtQtQtQtQtQtQtQtQtQtQtQtQtQtQtQtQtQtQtQtQtQtQtQt",
"QtQtQtQtQtQtQtQtQtQtQtQtQtQtQtQtQt.#.a.bQtQtQtQtQtQtQtQtQtQtQtQt",
"QtQtQtQtQtQtQtQtQtQtQtQtQtQtQt.c.d.d.d.d.e.bQtQtQtQtQtQtQtQtQtQt",
"QtQtQtQtQtQtQtQtQtQtQtQtQtQt.f.d.d.d.d.g.h.iQtQtQtQtQtQtQtQtQtQt",
"QtQtQtQtQtQtQtQtQtQtQtQtQtQt.e.d.d.d.j.k.l.m.nQtQtQtQtQtQtQtQtQt",
"QtQtQtQtQtQtQtQtQtQtQtQtQtQt.d.d.d.o.p.q.r.s.t.nQtQtQtQtQtQtQtQt",
"QtQtQtQtQtQtQtQtQtQtQtQtQtQt.d.d.d.u.n.v.w.t.x.y.z.A.yQtQtQtQtQt",
"QtQtQtQtQtQtQtQtQtQtQtQtQt.e.d.d.d.B.C.D.x.x.E.F.G.H.IQtQtQtQtQt",
"QtQtQtQtQtQtQtQtQtQt.i.d.d.d.d.d.d.d.d.J.K.L.sQtQtQtQtQtQtQtQtQt",
"QtQtQtQtQtQtQtQt.e.d.d.d.d.d.d.d.d.d.d.d.d.d.d.d.MQtQtQtQtQtQtQt",
"QtQtQtQtQtQt.j.d.d.d.d.d.d.d.d.d.d.d.d.d.d.j.d.d.d.d.jQtQtQtQtQt",
"QtQtQtQtQt.d.d.d.d.d.d.d.d.d.d.d.d.e.#.N.d.c.d.d.d.d.d.OQtQtQtQt",
"QtQtQtQt.d.d.d.d.d.d.d.d.d.d.d.d.r.P.Q.Q.N.e.r.d.d.d.d.d.MQtQtQt",
"QtQtQt.d.d.#Qt.b.d.d.d.d.d.d.d.i.R.S.Q.Q.T.MQtQt.b.c.d.d.dQtQtQt",
"QtQt.N.fQtQtQt.e.d.d.d.d.d.d.r.U.h.S.Q.Q.S.fQtQtQtQtQt.V.d.bQtQt",
"QtQtQtQtQtQt.M.d.d.d.d.d.d.d.V.W.T.Q.Q.Q.T.rQtQtQtQtQtQtQtQtQtQt",
"QtQtQtQtQtQt.e.d.d.d.d.d.d.f.R.X.S.Q.Q.Q.h.rQtQtQtQtQtQtQtQtQtQt",
"QtQtQtQtQtQt.d.d.d.d.d.d.d.Y.Z.T.Q.Q.Q.Q.h.rQtQtQtQtQtQtQtQtQtQt",
"QtQtQtQtQtQt.d.d.d.d.d.d.c.P.W.T.Q.Q.Q.Q.X.MQtQtQtQtQtQtQtQtQtQt",
"QtQtQtQtQt.O.d.d.d.d.d.d.V.R.W.T.Q.Q.Q.Q.g.bQtQtQtQtQtQtQtQtQtQt",
"QtQtQtQtQt.d.d.d.d.d.d.r.0.R.W.S.k.Q.Q.Q.#QtQtQtQtQtQtQtQtQtQtQt",
"QtQtQtQtQt.d.d.d.d.d.d.M.P.P.Z.S.Q.Q.Q.Q.NQtQtQtQtQtQtQtQtQtQtQt",
"QtQtQtQt.j.d.d.d.d.d.d.1.R.P.Z.T.Q.Q.Q.Q.#QtQtQtQtQtQtQtQtQtQtQt",
"QtQtQtQt.d.d.d.d.d.d.d.0.2.U.R.X.S.S.k.Q.MQtQtQtQtQtQtQtQtQtQtQt",
"QtQtQt.r.d.d.d.d.d.d.3.Z.P.Y.U.Z.4.4.4.Z.jQtQtQtQtQtQtQtQtQtQtQt",
"QtQtQt.d.d.d.d.d.d.o.5.6.7.8.9.g.R.W.X.3.oQtQtQtQtQtQtQtQtQtQtQt",
"QtQtQtQt.d.d.d#..x##.y.z#a#a.m.W.4.9#b#c.w.v#dQtQtQtQtQtQtQtQtQt",
"QtQtQtQtQt#e.u.H#f#f#f#f.G#g#h.u.j.o.s.u#f#f.G#iQtQtQtQtQtQtQtQt"};
