/* XPM */
static char*bash_l7[]={
"32 32 55 1",
"w c #f6b016",
"E c #fda120",
"N c #373737",
"W c #ffad2f",
"X c #ffba41",
"i c #b39757",
"V c #ffa213",
"Z c #a07c20",
"T c #fabb01",
"0 c #7a7a7a",
"z c #fc9d20",
"R c #ffed5e",
"c c #060606",
"b c #0e0e0e",
"n c #ac6701",
"I c #571e01",
"F c #ff9800",
"m c #ff8e03",
"e c #1e1e1e",
"f c #d8d8d8",
"q c #ffebbe",
"D c #ff9e13",
"C c #fe920a",
"u c #fac635",
"U c #ea8b11",
"A c #160c03",
"o c #17150e",
"Q c #ecaf3d",
"j c #4c535d",
"# c #595959",
"k c #f0f0f0",
"s c #faca31",
"P c #232323",
"G c #f4750b",
"l c #64676e",
"h c #f8df78",
"H c #ee4f01",
"O c #434343",
"x c #ffc33e",
"J c #2b2c2f",
"r c #6f5418",
"M c #080500",
"y c #fed365",
". c None",
"t c #ffce50",
"a c #58595b",
"L c #20170b",
"S c #fdb81d",
"B c #606060",
"Y c #ff9711",
"v c #ff9d02",
"K c #4f240c",
"d c #171717",
"p c #d1d1d1",
"g c #b6b6b6",
"................................",
"................................",
"................................",
"................................",
"................................",
"............#aa#................",
"..........#bccccd...............",
"..........efgccccd..............",
".........hijklcccc#.............",
"........hmnopqrccca.............",
".....shtuvmwxyzAcccB............",
".....CDEDvFFGHIccccccJ..........",
".........#KLMccccccccccb........",
"..........#ccccccccccccccbB.....",
"...........ccccccccccccccccccd..",
"..........NcccccccccccccceO.....",
"..........bcccccccccccccb.......",
"..........ccccccccccccccc.......",
".........accccccccccccccc#......",
".........Pccccccccccccccce......",
".........dcccccccccccccccb......",
".........bcccccccccccccccc......",
".........ccOccccccccccccccJ.....",
".........cd.ccccccccccccccc.....",
".........c#.ccccccccccccccc.....",
".........P..cccccccccccccccd....",
"............cccccccccccccccc....",
"............ccccccccccccccccc...",
"............cccccccccccccccccc..",
"............cAnnLccccccccccccb..",
"...........yQyRSTUKcccccccbO....",
"..........VWXEYYCCDZebO0........"};
