/* XPM */
static char*bash_l6[]={
"32 32 55 1",
"w c #f6b016",
"l c #ffd76d",
"y c #fec752",
"E c #fda120",
"i c #b39757",
"v c #ffa213",
"Q c #575757",
"k c #eeeeee",
"T c #fabb01",
"z c #fc9d20",
"B c #444444",
"N c #0a0801",
"s c #676767",
"b c #0e0e0e",
"n c #ac6701",
"L c #571e01",
"H c #ff9800",
"m c #ff8e03",
"K c #833900",
"e c #1e1e1e",
"X c #fea637",
"f c #d8d8d8",
"q c #ffebbe",
"D c #ff9e13",
"C c #fe920a",
"F c #ffa507",
"t c #fac635",
"x c #fecb3f",
"U c #ea8b11",
"A c #160c03",
"o c #17150e",
"R c #ecaf3d",
"j c #4c535d",
"# c #595959",
"I c #f4750b",
"h c #f8df78",
"W c #503414",
"J c #ee4f01",
"0 c #c17046",
"r c #6f5418",
"P c #252525",
"S c #fed365",
". c None",
"u c #ffce50",
"O c #353535",
"M c #20170b",
"Z c #f98105",
"a c #606060",
"Y c #ff9711",
"c c #070707",
"G c #ff9d02",
"V c #4f240c",
"d c #171717",
"p c #d1d1d1",
"g c #b6b6b6",
"................................",
"................................",
"................................",
"................................",
"................................",
"...........#aa#.................",
".........#bccccd................",
".........efgccccd...............",
"........hijkacccc...............",
".......lmnopqrcccs..............",
"....thutvmwxyzAccdBa............",
"....CDEvFGHIJKccccccce#.........",
"........KLMNcccccccccccb#.......",
".........acccccccccccccccO......",
"..........bcccccccccccccccc.....",
".........dcccccccccccccccccc....",
"........PcccccccccccccccccccP...",
".......accccccccccccccccb..ac#..",
".......ccccccccccccccccccB...#..",
"......sccc#Occcccccccccccc......",
"......bcd..Qccccccccccccccs.....",
"......cb...sccccccccccccccP.....",
"......c#...sccccccccccccccb.....",
"......P....#ccccccccccccccc.....",
"............ccccccccccccccc#....",
"............cccccccccccccccc....",
"............dcccccccccccccccO...",
".............ccccccccccccccccO..",
".............#cccccccccccccccc#.",
"............hRAcccccccccccccb#..",
".........hSSuTTUVcccccccccW.....",
"........DXzYYYCZZnebdoVr0h......"};
