/* XPM */
static char*bash_r3[]={
"32 32 59 1",
"T c #fec752",
"g c #656565",
"h c #373737",
"4 c #ffad2f",
"S c #d78b04",
"0 c #ffba41",
"U c #f2b044",
"q c #b39757",
"j c #4f4f4f",
"l c #e6e6e6",
"C c #fabb01",
"M c #fc9d20",
"d c #060606",
"P c #0f0c02",
"n c #444444",
"e c #0e0e0e",
"J c #b33200",
"R c #ac6701",
"X c #ff9800",
"x c #ff8e03",
"I c #833900",
"A c #fea637",
"p c #d8d8d8",
"3 c #fe920a",
"f c #262626",
"Y c #ffa507",
"r c #fac635",
"F c #fecb3f",
"s c #515151",
"2 c #ea8b11",
"b c #747474",
"# c #595959",
"i c #3e3e3e",
"y c #faca31",
"K c #f4750b",
"z c #2b2b2b",
"u c #f8df78",
"V c #ffb57d",
"k c #090b0c",
"N c #181818",
"w c #ee4f01",
"t c #aaa9a8",
"c c #151515",
"H c #2b2c2f",
"m c #61605f",
"v c #6f5418",
"Z c #ffc951",
"Q c #080500",
"G c #fed365",
". c None",
"W c #fdeac3",
"o c #8e8e8e",
"L c #f98105",
"B c #fdb81d",
"O c #070707",
"D c #ff9d02",
"1 c #ffd0b1",
"E c #feb411",
"a c #1f1f1f",
"................................",
"................................",
"..................#ab...........",
".................cda............",
"...............#dde.............",
".............#fdddg.............",
"............#hcddeai............",
"............cjddkllmi...........",
"...........#naddopkqr...........",
"...........isddktuvwxy..........",
"...........naddzABCDEFGuB.......",
"..........azdddHIJKLxLLLM.......",
".........#cfddd#kddN............",
".........eafdddOcdda............",
"........#ddedddOaddd............",
"........eddddddOOOdd#...........",
".......#dddddddOOOdde...........",
".......eddddddddOdddd...........",
".......dddddddddddddd...........",
"......#ddddddddkddddd#..........",
"......iddddddddddddddf..........",
"......edddddddddddddde..........",
"......dddddddddddddddd..........",
".....#dddddddddddddddd..........",
".....adddddddddddddddd..........",
".....ddddddddddddddddd..........",
"....#ddddddddddddddddd..........",
"....ddddddddddddddddPd..........",
"...nddddddddddddQIRSTUVW........",
"....fddddddddddIXYCCBrZu01......",
"......jQddddddP2xKL33MTVT1......",
".......4LSRI###................."};
