/* XPM */
static char*bash_l12[]={
"32 32 81 2",
".x c #f6b016",
".z c #fec752",
".7 c #bebebe",
".F c #fda120",
".8 c #2f2f2f",
".C c #373737",
".1 c #cacbd0",
".V c #fffefd",
".P c #3f3f3f",
"#n c #ffba41",
"#f c #f2b044",
".9 c #c3c3c3",
".i c #b39757",
".U c #4f4f4f",
".G c #ffa213",
".6 c #e6e6e6",
"#d c #b0b0b0",
".A c #fc9d20",
".Q c #444444",
".f c #0e0e0e",
".n c #ac6701",
".M c #571e01",
".I c #ff9800",
".m c #ff8e03",
".L c #833900",
".c c #1e1e1e",
"#l c #fea637",
".d c #d8d8d8",
".q c #ffebbe",
".E c #ff9e13",
".D c #fe920a",
"#a c #bdbdbd",
"#h c #ffa507",
".v c #fac635",
"#j c #fecb3f",
".s c #515151",
"#o c #ea8b11",
".B c #160c03",
".0 c #8f8f8f",
".o c #17150e",
"## c #747474",
".j c #4c535d",
".# c #595959",
".Y c #f0f0f0",
".S c #979797",
".t c #faca31",
".J c #f4750b",
"#b c #bababa",
".3 c #9f9f9f",
".l c #64676e",
".h c #f8df78",
"#e c #ffb57d",
".X c #a7a7a7",
"#g c #503414",
".2 c #afafaf",
".K c #ee4f01",
"#i c #aaa9a8",
".T c #666666",
".y c #ffc33e",
".5 c #6e6e6e",
".r c #6f5418",
".b c #070500",
".O c #080500",
".4 c #252525",
".w c #ffa108",
"Qt c None",
".u c #ffce50",
".R c #8e8e8e",
".N c #20170b",
"#c c #a8abb5",
"#k c #f98105",
".k c #efefef",
"#. c #969696",
".a c #606060",
"#m c #ff9711",
".W c #f7f7f7",
".H c #ff9d02",
".g c #171717",
".Z c #dedfe0",
".p c #d1d1d1",
".e c #b6b6b6",
"QtQtQtQtQtQtQtQtQtQtQtQtQtQtQtQtQtQtQtQtQtQtQtQtQtQtQtQtQtQtQtQt",
"QtQtQtQtQtQtQtQtQtQtQtQtQtQtQtQtQtQtQtQtQtQtQtQtQtQtQtQtQtQtQtQt",
"QtQtQtQtQtQtQtQtQtQtQtQtQtQtQtQtQtQtQtQtQtQtQtQtQtQtQtQtQtQtQtQt",
"QtQtQtQtQtQtQtQtQtQtQtQtQtQtQtQtQtQtQtQtQtQtQtQtQtQtQtQtQtQtQtQt",
"QtQtQtQtQtQtQtQtQtQtQtQtQtQtQtQtQtQtQtQtQtQtQtQtQtQtQtQtQtQtQtQt",
"QtQtQtQtQtQtQtQtQtQtQtQtQt.#.a.a.#QtQtQtQtQtQtQtQtQtQtQtQtQtQtQt",
"QtQtQtQtQtQtQtQtQtQtQt.#.b.b.b.b.b.cQtQtQtQtQtQtQtQtQtQtQtQtQtQt",
"QtQtQtQtQtQtQtQtQtQtQt.c.d.e.f.b.b.b.gQtQtQtQtQtQtQtQtQtQtQtQtQt",
"QtQtQtQtQtQtQtQtQtQt.h.i.j.k.l.b.b.b.bQtQtQtQtQtQtQtQtQtQtQtQtQt",
"QtQtQtQtQtQtQtQtQt.h.m.n.o.p.q.r.b.b.b.sQtQtQtQtQtQtQtQtQtQtQtQt",
"QtQtQtQtQtQt.t.h.u.v.w.m.x.y.z.A.B.b.b.b.f.b.f.C.#QtQtQtQtQtQtQt",
"QtQtQtQtQtQt.D.E.F.G.w.H.I.J.K.L.b.b.b.b.b.b.b.b.b.b.g.#QtQtQtQt",
"QtQtQtQtQtQtQtQtQtQtQt.M.N.O.b.b.b.b.b.b.b.b.b.b.b.b.b.b.b.PQtQt",
"QtQtQtQtQtQtQtQtQtQt.f.b.b.b.b.b.b.b.b.b.b.b.b.b.b.b.b.b.b.b.gQt",
"QtQtQtQtQtQtQtQt.Q.b.b.b.b.b.b.b.b.b.b.b.b.b.b.bQtQtQtQtQtQt.b.a",
"QtQtQtQtQtQtQt.C.b.b.b.b.b.c.R.S.T.f.b.b.b.b.b.bQtQtQtQtQtQtQtQt",
"QtQtQtQtQtQt.#.b.b.b.b.b.U.V.V.V.W.X.g.b.b.b.b.b.gQtQtQtQtQtQtQt",
"QtQtQtQtQtQt.b.b.b.b.b.g.Y.V.V.V.k.Z.0.f.b.b.b.b.bQtQtQtQtQtQtQt",
"QtQtQtQtQtQt.b.b.fQtQt.Q.V.V.V.V.V.1.e.a.b.b.b.b.b.gQtQtQtQtQtQt",
"QtQtQtQtQt.#.b.gQtQtQt.C.V.V.V.V.V.d.2.3.P.b.b.b.b.bQtQtQtQtQtQt",
"QtQtQtQtQt.c.bQtQtQtQt.P.V.V.V.V.V.Z.2.X.0.f.b.b.b.b.aQtQtQtQtQt",
"QtQtQtQtQt.4.5QtQtQtQt.P.W.V.V.V.V.6.7.3.X.U.b.b.b.b.gQtQtQtQtQt",
"QtQtQtQtQtQtQtQtQtQtQt.P.6.V.V.V.V.k.7.X.2.0.b.b.b.b.bQtQtQtQtQt",
"QtQtQtQtQtQtQtQtQtQtQt.P.d.V.V.V.V.k.1.X.X.2.C.b.b.b.bQtQtQtQtQt",
"QtQtQtQtQtQtQtQtQtQtQt.C.d.V.V.V.V.W.1.X.X.e.s.b.b.b.b.#QtQtQtQt",
"QtQtQtQtQtQtQtQtQtQtQt.8.1.V.V.V.V.W.d.3.3.7.5.b.b.b.b.8QtQtQtQt",
"QtQtQtQtQtQtQtQtQtQtQt.Q.7.V.V.V.V.W.9#.#..7.T.b.b.b.b.fQtQtQtQt",
"QtQtQtQtQtQtQtQtQtQtQt.###.V.W.V.V.Z.2.0#..7.a.b.b.b.b.bQtQtQtQt",
"QtQtQtQtQtQtQtQtQtQtQtQt.f.6.d.Z.d.7#..R#a#b.4.b.b.b.b.b.8QtQtQt",
"QtQtQtQtQtQtQtQtQtQtQt.z.b.a.6.1.e#c.3#d#e#f#g.b.b.b.b.b.cQtQtQt",
"QtQtQtQtQtQtQtQtQt.u.u#h.L.b.U.5#i#e.z.z#j#h.H#k.L.b.b.bQtQtQtQt",
"QtQtQtQtQtQtQt#l#l#l.E#m.E.n.g.g.A.z#n.F.E.D#m.D.D#o.c.8QtQtQtQt"};
