/* XPM */
static char*bash_r12[]={
"32 32 81 2",
".y c #f6b016",
".w c #fec752",
".4 c #bebebe",
".J c #fda120",
".8 c #2f2f2f",
".t c #373737",
".1 c #cacbd0",
".W c #fffefd",
".M c #3f3f3f",
"#n c #ffba41",
"#d c #f2b044",
"#. c #c3c3c3",
".k c #b39757",
".X c #4f4f4f",
".I c #ffa213",
".5 c #e6e6e6",
"#f c #b0b0b0",
".v c #fc9d20",
".Q c #444444",
".e c #0e0e0e",
".r c #ac6701",
".P c #571e01",
".G c #ff9800",
".s c #ff8e03",
".D c #833900",
".b c #1e1e1e",
"#o c #fea637",
".g c #d8d8d8",
".o c #ffebbe",
".K c #ff9e13",
".L c #fe920a",
"#b c #bdbdbd",
"#i c #ffa507",
".A c #fac635",
"#j c #fecb3f",
".m c #515151",
"#l c #ea8b11",
".u c #160c03",
".Y c #8f8f8f",
".q c #17150e",
"## c #747474",
".j c #4c535d",
".# c #595959",
".0 c #f0f0f0",
".S c #979797",
".C c #faca31",
".F c #f4750b",
"#a c #bababa",
".2 c #9f9f9f",
".h c #64676e",
".l c #f8df78",
"#e c #ffb57d",
".U c #a7a7a7",
"#c c #503414",
".3 c #afafaf",
".E c #ee4f01",
"#k c #aaa9a8",
".R c #666666",
".x c #ffc33e",
".6 c #6e6e6e",
".n c #6f5418",
".c c #070500",
".N c #080500",
".7 c #252525",
".z c #ffa108",
"Qt c None",
".B c #ffce50",
".T c #8e8e8e",
".O c #20170b",
"#g c #a8abb5",
"#h c #f98105",
".i c #efefef",
".9 c #969696",
".a c #606060",
"#m c #ff9711",
".V c #f7f7f7",
".H c #ff9d02",
".d c #171717",
".Z c #dedfe0",
".p c #d1d1d1",
".f c #b6b6b6",
"QtQtQtQtQtQtQtQtQtQtQtQtQtQtQtQtQtQtQtQtQtQtQtQtQtQtQtQtQtQtQtQt",
"QtQtQtQtQtQtQtQtQtQtQtQtQtQtQtQtQtQtQtQtQtQtQtQtQtQtQtQtQtQtQtQt",
"QtQtQtQtQtQtQtQtQtQtQtQtQtQtQtQtQtQtQtQtQtQtQtQtQtQtQtQtQtQtQtQt",
"QtQtQtQtQtQtQtQtQtQtQtQtQtQtQtQtQtQtQtQtQtQtQtQtQtQtQtQtQtQtQtQt",
"QtQtQtQtQtQtQtQtQtQtQtQtQtQtQtQtQtQtQtQtQtQtQtQtQtQtQtQtQtQtQtQt",
"QtQtQtQtQtQtQtQtQtQtQtQtQtQtQt.#.a.a.#QtQtQtQtQtQtQtQtQtQtQtQtQt",
"QtQtQtQtQtQtQtQtQtQtQtQtQtQt.b.c.c.c.c.c.#QtQtQtQtQtQtQtQtQtQtQt",
"QtQtQtQtQtQtQtQtQtQtQtQtQt.d.c.c.c.e.f.g.bQtQtQtQtQtQtQtQtQtQtQt",
"QtQtQtQtQtQtQtQtQtQtQtQtQt.c.c.c.c.h.i.j.k.lQtQtQtQtQtQtQtQtQtQt",
"QtQtQtQtQtQtQtQtQtQtQtQt.m.c.c.c.n.o.p.q.r.s.lQtQtQtQtQtQtQtQtQt",
"QtQtQtQtQtQtQt.#.t.e.c.e.c.c.c.u.v.w.x.y.s.z.A.B.l.CQtQtQtQtQtQt",
"QtQtQtQt.#.d.c.c.c.c.c.c.c.c.c.c.D.E.F.G.H.z.I.J.K.LQtQtQtQtQtQt",
"QtQt.M.c.c.c.c.c.c.c.c.c.c.c.c.c.c.c.N.O.PQtQtQtQtQtQtQtQtQtQtQt",
"Qt.d.c.c.c.c.c.c.c.c.c.c.c.c.c.c.c.c.c.c.c.eQtQtQtQtQtQtQtQtQtQt",
".a.cQtQtQtQtQtQt.c.c.c.c.c.c.c.c.c.c.c.c.c.c.c.QQtQtQtQtQtQtQtQt",
"QtQtQtQtQtQtQtQt.c.c.c.c.c.c.e.R.S.T.b.c.c.c.c.c.tQtQtQtQtQtQtQt",
"QtQtQtQtQtQtQt.d.c.c.c.c.c.d.U.V.W.W.W.X.c.c.c.c.c.#QtQtQtQtQtQt",
"QtQtQtQtQtQtQt.c.c.c.c.c.e.Y.Z.i.W.W.W.0.d.c.c.c.c.cQtQtQtQtQtQt",
"QtQtQtQtQtQt.d.c.c.c.c.c.a.f.1.W.W.W.W.W.QQtQt.e.c.cQtQtQtQtQtQt",
"QtQtQtQtQtQt.c.c.c.c.c.M.2.3.g.W.W.W.W.W.tQtQtQt.d.c.#QtQtQtQtQt",
"QtQtQtQtQt.a.c.c.c.c.e.Y.U.3.Z.W.W.W.W.W.MQtQtQtQt.c.bQtQtQtQtQt",
"QtQtQtQtQt.d.c.c.c.c.X.U.2.4.5.W.W.W.W.V.MQtQtQtQt.6.7QtQtQtQtQt",
"QtQtQtQtQt.c.c.c.c.c.Y.3.U.4.i.W.W.W.W.5.MQtQtQtQtQtQtQtQtQtQtQt",
"QtQtQtQtQt.c.c.c.c.t.3.U.U.1.i.W.W.W.W.g.MQtQtQtQtQtQtQtQtQtQtQt",
"QtQtQtQt.#.c.c.c.c.m.f.U.U.1.V.W.W.W.W.g.tQtQtQtQtQtQtQtQtQtQtQt",
"QtQtQtQt.8.c.c.c.c.6.4.2.2.g.V.W.W.W.W.1.8QtQtQtQtQtQtQtQtQtQtQt",
"QtQtQtQt.e.c.c.c.c.R.4.9.9#..V.W.W.W.W.4.QQtQtQtQtQtQtQtQtQtQtQt",
"QtQtQtQt.c.c.c.c.c.a.4.9.Y.3.Z.W.W.V.W##.#QtQtQtQtQtQtQtQtQtQtQt",
"QtQtQt.8.c.c.c.c.c.7#a#b.T.9.4.g.Z.g.5.eQtQtQtQtQtQtQtQtQtQtQtQt",
"QtQtQt.b.c.c.c.c.c#c#d#e#f.2#g.f.1.5.a.c.wQtQtQtQtQtQtQtQtQtQtQt",
"QtQtQtQt.c.c.c.D#h.H#i#j.w.w#e#k.6.X.c.D#i.B.BQtQtQtQtQtQtQtQtQt",
"QtQtQtQt.8.b#l.L.L#m.L.K.J#n.w.v.d.d.r.K#m.K#o#o#oQtQtQtQtQtQtQt"};
