/* XPM */
static char*bash_r10[]={
"32 32 75 2",
".x c #fec752",
".J c #fda120",
".k c #2f2f2f",
".W c #c6c6c6",
".v c #ab8741",
".e c #373737",
"#g c #ffad2f",
"## c #d78b04",
".S c #fffefd",
".c c #3f3f3f",
".I c #fb9d09",
".n c #b39757",
".T c #4f4f4f",
".q c #fbbf9a",
".a c #575757",
".X c #eeeeee",
"#c c #fabb01",
".8 c #a07c20",
"#d c #ffed5e",
".4 c #9d9d9d",
".f c #444444",
".j c #0e0e0e",
".o c #ac6701",
".F c #571e01",
"#b c #ff9800",
".u c #ff8e03",
".t c #833900",
".Y c #d8d8d8",
".K c #ff9e13",
".L c #fe920a",
".9 c #a2a2a2",
".E c #fac635",
".Q c #878787",
".y c #fecb3f",
".w c #ea8b11",
"#. c #17150e",
".m c #4c535d",
".b c #595959",
".g c #979797",
".B c #faca31",
".H c #f4750b",
".i c #232323",
".0 c #bababa",
".6 c #929293",
".D c #f8df78",
"#e c #ffb57d",
".p c #503414",
".Z c #afafaf",
".G c #ee4f01",
".2 c #bfbfbf",
".r c #faf3de",
".U c #666666",
".1 c #e2e2e2",
".V c #6e6e6e",
".s c #151515",
".7 c #6f5418",
".M c #080500",
".A c #ffa108",
"Qt c None",
".C c #ffce50",
".3 c #8e8e8e",
".N c #20170b",
".z c #fdb81d",
".# c #606060",
"#i c #ff9711",
".d c #070707",
".l c #f7f7f7",
"#h c #44433f",
"#f c #feb411",
"#a c #ffd0b1",
".O c #4f240c",
".h c #dedfe0",
".5 c #d1d1d1",
".P c #1f1f1f",
".R c #b6b6b6",
"QtQtQtQtQtQtQtQtQtQtQtQtQtQtQtQtQtQtQtQtQtQtQtQtQtQtQtQtQtQtQtQt",
"QtQtQtQtQtQtQtQtQtQtQtQtQtQtQtQtQtQtQtQtQtQtQtQtQtQtQtQtQtQtQtQt",
"QtQtQtQtQtQtQtQtQtQtQtQtQtQtQtQtQtQtQtQtQtQtQtQtQtQtQtQtQtQtQtQt",
"QtQtQtQtQtQtQtQtQtQtQtQtQtQtQtQtQtQtQtQtQtQtQtQtQtQtQtQtQtQtQtQt",
"QtQtQtQtQtQtQtQtQtQtQtQtQtQtQtQtQtQtQtQtQtQtQtQtQtQtQtQtQtQtQtQt",
"QtQtQtQtQtQtQtQtQtQtQtQtQtQtQtQt.#.a.bQtQtQtQtQtQtQtQtQtQtQtQtQt",
"QtQtQtQtQtQtQtQtQtQtQtQtQtQt.c.d.d.d.d.d.bQtQt.b.e.d.d.bQtQtQtQt",
"QtQtQtQtQtQtQtQtQtQtQtQtQt.f.d.d.d.d.g.h.i.d.d.d.d.j.#QtQtQtQtQt",
"QtQtQtQtQtQtQtQtQtQtQtQtQt.d.d.d.d.k.l.m.n.o.d.i.#QtQtQtQtQtQtQt",
"QtQtQtQtQtQtQtQtQtQtQtQtQt.d.d.d.p.q.r.s.t.u.v.#QtQtQtQtQtQtQtQt",
"QtQtQtQtQtQtQtQtQtQtQtQtQt.d.d.d.w.x.y.z.u.A.B.C.D.EQtQtQtQtQtQt",
"QtQtQtQtQtQtQtQtQtQtQtQt.d.d.d.d.F.G.H.u.A.A.I.J.K.LQtQtQtQtQtQt",
"QtQtQtQtQtQtQtQtQtQtQt.d.d.d.d.d.d.d.M.N.OQtQtQtQtQtQtQtQtQtQtQt",
"QtQtQtQtQtQtQtQtQtQt.d.d.d.d.d.d.d.d.d.d.cQtQtQtQtQtQtQtQtQtQtQt",
"QtQtQtQtQtQtQtQtQt.d.s.d.d.d.d.d.d.d.d.d.PQtQtQtQtQtQtQtQtQtQtQt",
"QtQtQtQtQtQtQtQt.i.k.k.d.d.d.d.d.d.d.Q.R.jQtQtQtQtQtQtQtQtQtQtQt",
"QtQtQtQtQtQtQtQt.P.f.d.d.d.j.f.d.j.R.S.S.TQtQtQtQtQtQtQtQtQtQtQt",
"QtQtQtQtQtQtQt.U.e.d.d.d.d.T.j.d.Q.l.S.S.VQtQtQtQtQtQtQtQtQtQtQt",
"QtQtQtQtQtQtQt.d.d.d.d.d.c.P.d.k.W.X.S.S.VQtQtQtQtQtQtQtQtQtQtQt",
"QtQtQtQtQt.#.d.d.d.j.b.b.d.d.d.V.Y.S.S.S.VQtQtQtQtQtQtQtQtQtQtQt",
"QtQtQt.#.j.d.d.d.b.b.s.d.d.d.d.g.h.S.S.S.VQtQtQtQtQtQtQtQtQtQtQt",
"QtQtQt.b.b.b.b.b.d.d.d.d.d.d.k.Z.h.S.S.S.VQtQtQtQtQtQtQtQtQtQtQt",
"QtQtQtQtQt.f.d.d.d.d.d.d.d.d.a.0.1.S.S.S.UQtQtQtQtQtQtQtQtQtQtQt",
"QtQtQtQtQt.d.d.d.d.d.d.d.d.j.V.W.X.S.S.S.#QtQtQtQtQtQtQtQtQtQtQt",
"QtQtQtQt.s.d.d.d.d.d.d.d.d.s.Q.2.l.S.S.S.TQtQtQtQtQtQtQtQtQtQtQt",
"QtQtQtQt.d.d.d.d.d.d.d.d.d.k.3.R.X.S.S.X.kQtQtQtQtQtQtQtQtQtQtQt",
"QtQtQt.d.d.d.d.d.d.d.d.d.d.e.g.Z.Y.1.l.g.bQtQtQtQtQtQtQtQtQtQtQt",
"QtQt.e.d.d.d.d.d.d.d.d.d.d.c.4.4.2.5.h.eQtQtQtQtQtQtQtQtQtQtQtQt",
"Qt.b.d.d.d.d.d.d.d.d.d.d.d.#.4.Q.g.W.6.NQtQtQtQtQtQtQtQtQtQtQtQt",
"Qt.b.d.d.d.d.d.d.d.7.8.p.T.b.9.6.R.9#.##.C#aQtQtQtQtQtQtQtQtQtQt",
"QtQtQt.b.d.d.d.o#b#c.B#d.C.x#e.9.f#.###f#g.EQtQtQtQtQtQtQtQtQtQt",
"QtQtQtQtQt#h##.I#i.L.L#i.J#g#f.vQtQtQtQtQtQtQtQtQtQtQtQtQtQtQtQt"};
