/* XPM */
static char*bash_r8[]={
"32 32 64 1",
"F c #ffd76d",
"5 c #fec752",
"Y c #808080",
"f c #272727",
"g c #2f2f2f",
"o c #ab8741",
"Q c #373737",
"x c #4f4f4f",
"9 c #ffa213",
"i c #e6e6e6",
"R c #575757",
"6 c #a07c20",
"B c #fabb01",
"A c #fc9d20",
"d c #7a7a7a",
"n c #060606",
"K c #444444",
"M c #676767",
"c c #0e0e0e",
"H c #b33200",
"1 c #ac6701",
"v c #ff8e03",
"3 c #f3af04",
"G c #833900",
"J c #fea637",
"r c #ffebbe",
"7 c #ff9e13",
"D c #ffa507",
"V c #878787",
"y c #160c03",
"q c #ecaf3d",
"k c #595959",
"a c #3e3e3e",
"p c #faca31",
"z c #f4750b",
"l c #9f9f9f",
"s c #f8df78",
"X c #a7a7a7",
"0 c #503414",
"L c #afafaf",
"u c #ee4f01",
"j c #666666",
"O c #6e6e6e",
"t c #6f5418",
"W c #bcbcbc",
"E c #fed365",
"2 c #939392",
". c None",
"4 c #ffce50",
"I c #f98105",
"P c #efefef",
"w c #fdb81d",
"8 c #ff9711",
"# c #070707",
"h c #f7f7f7",
"C c #ff9d02",
"m c #e4e4e4",
"U c #d7d6d5",
"b c #171717",
"N c #dedfe0",
"Z c #939393",
"T c #d1d1d1",
"e c #1f1f1f",
"S c #b6b6b6",
"................................",
"................................",
"................................",
"................................",
".......#........................",
".......#a......b##cd............",
".......##.....####efg...........",
".......f#c...####bhij...........",
".......k##c..####lmnop..........",
"........########qrstuvw.........",
"........x######yzAwBCDpEFw......",
".........#######yGHzzvIIIJ......",
".........k###########...........",
".........x###########K..........",
".........###########LM..........",
"........b####g####f#Nk..........",
"........#####xc###f#Nk..........",
".......e#####Kb###a#iO..........",
".......######ae##bgcik..........",
"......g######ae##K#gPx..........",
"......#######Kb#bK#xPQ..........",
".....Q#######K##Rc#dik..........",
".....#######cK#Qa##SNk..........",
"....f#######fecR##eTk...........",
"....########RKRc##xUM...........",
"....#######gkQ###bVWM...........",
"...c#######c#####kXY............",
"...#############aZLk............",
"..#############eXXk.............",
"..c##########01o2d..............",
"....O######0v3B45Es.............",
".......Obb678888A9AC............"};
