/* XPM */
static char*bash_l5[]={
"32 32 54 1",
"O c #373113",
"g c #fec752",
"M c #272727",
"U c #fda120",
"E c #ffae21",
"h c #919090",
"K c #373737",
"T c #ffad2f",
"Z c #ffba41",
"L c #4f4f4f",
"J c #130600",
"a c #575757",
"Y c #a07c20",
"Q c #fabb01",
"V c #fc9d20",
"# c #7a7a7a",
"e c #444444",
"t c #0e0e0e",
"H c #b33200",
"y c #ff9800",
"G c #ff8e03",
"i c #596876",
"X c #fe920a",
"p c #262626",
"b c #646464",
"F c #ffa507",
"v c #fac635",
"A c #fecb3f",
"R c #ea8b11",
"N c #ecaf3d",
"d c #595959",
"c c #050000",
"x c #faca31",
"w c #f8df78",
"r c #ffb57d",
"o c #503414",
"B c #ee4f01",
"q c #faf3de",
"D c #ffa319",
"P c #ffc951",
"S c #080500",
"C c #ffa108",
"u c #fed365",
". c None",
"k c #121212",
"m c #ffce50",
"s c #20170b",
"n c #f98105",
"z c #fdb81d",
"W c #ff9711",
"j c #f7f7f7",
"f c #dcdcdc",
"I c #4f240c",
"l c #1f1f1f",
"................................",
"................................",
"................................",
"................................",
"................................",
".............#ab................",
"...........bcccccd..............",
"...........ef#ccccd.............",
"..........ghijkcccl.............",
".........mnopqrscct.............",
".....uvwmxyyzAgBccca............",
"......CDEFFyGBHscccckd..........",
"...........IJccccccccccd........",
"......dKtcccccccccccccccL.......",
"....dcccccccccccccccccccca......",
"...Lccccccccccccccccccccccd.....",
"..dcccctttccccccccccccccccc.....",
"..ecKd....Lcccccccccccccccck....",
"...........tcccccccccccccltc....",
"...........dcccccccccccccd.pL...",
"............cccccccccccccc......",
"............cccccccccccccc......",
"............cccccccccccccce.....",
"............cccccccccccccct.....",
"............ccccccccccccccc.....",
"............cccccccccccccccM....",
"............cccccccccccccccc....",
"............cccccccccccccccct...",
"............cccccccccccccccccc..",
"..........wNOcccccccccccccccck..",
".......wuPPxQRscccccccccccSMd...",
"......TUVWWXXWCYptkkkkkoRWXZ...."};
