/* XPM */
static char*bash_r5[]={
"32 32 54 1",
"N c #373113",
"l c #fec752",
"M c #272727",
"Y c #fda120",
"F c #ffae21",
"k c #919090",
"L c #373737",
"Z c #ffad2f",
"T c #ffba41",
"K c #4f4f4f",
"I c #130600",
"a c #575757",
"W c #a07c20",
"R c #fabb01",
"X c #fc9d20",
"b c #7a7a7a",
"f c #444444",
"m c #0e0e0e",
"C c #b33200",
"x c #ff9800",
"D c #ff8e03",
"j c #596876",
"U c #fe920a",
"q c #262626",
"# c #646464",
"E c #ffa507",
"A c #fac635",
"v c #fecb3f",
"Q c #ea8b11",
"O c #ecaf3d",
"c c #595959",
"d c #050000",
"y c #faca31",
"z c #f8df78",
"o c #ffb57d",
"r c #503414",
"u c #ee4f01",
"p c #faf3de",
"G c #ffa319",
"S c #ffc951",
"P c #080500",
"H c #ffa108",
"B c #fed365",
". c None",
"h c #121212",
"t c #ffce50",
"n c #20170b",
"s c #f98105",
"w c #fdb81d",
"V c #ff9711",
"i c #f7f7f7",
"e c #dcdcdc",
"J c #4f240c",
"g c #1f1f1f",
"................................",
"................................",
"................................",
"................................",
"................................",
"................#ab.............",
"..............cddddd#...........",
".............cddddbef...........",
".............gdddhijkl..........",
".............mddnopqrst.........",
"............adddulvwxxytzAB.....",
"..........chddddnCuDxEEFGH......",
"........cddddddddddIJ...........",
".......KdddddddddddddddmLc......",
"......addddddddddddddddddddc....",
".....cddddddddddddddddddddddK...",
".....dddddddddddddddddmmmddddc..",
"....hddddddddddddddddK....cLdf..",
"....dmgdddddddddddddm...........",
"...Kq.cdddddddddddddc...........",
"......dddddddddddddd............",
"......dddddddddddddd............",
".....fdddddddddddddd............",
".....mdddddddddddddd............",
".....ddddddddddddddd............",
"....Mddddddddddddddd............",
"....dddddddddddddddd............",
"...mdddddddddddddddd............",
"..dddddddddddddddddd............",
"..hddddddddddddddddNOz..........",
"...cMPdddddddddddnQRySSBz.......",
"....TUVQrhhhhhmqWHVUUVVXYZ......"};
