/* XPM */
static char*bash_l11[]={
"32 32 75 2",
"#. c #ffd76d",
"#b c #fec752",
".1 c #808080",
".f c #272727",
".D c #fda120",
".n c #2f2f2f",
".e c #373737",
"#e c #ffad2f",
".P c #fffefd",
"#h c #ffba41",
".U c #6a6a6a",
".k c #b39757",
".O c #4f4f4f",
".R c #e6e6e6",
".s c #fbbf9a",
".7 c #b0b0b0",
".a c #575757",
".S c #eeeeee",
"#c c #fabb01",
".9 c #a07c20",
".y c #fc9d20",
".M c #444444",
".4 c #111220",
".c c #0e0e0e",
"#d c #ac6701",
".I c #571e01",
".x c #ff9800",
".o c #ff8e03",
".N c #1e1e1e",
".p c #833900",
".C c #ff9e13",
".B c #fe920a",
".F c #ffa507",
".Z c #878787",
".z c #fecb3f",
".A c #ea8b11",
".0 c #8f8f8f",
".l c #4c535d",
".# c #595959",
".V c #979797",
".u c #faca31",
".G c #f4750b",
".5 c #929293",
".h c #9f9f9f",
".E c #ffa811",
".v c #f8df78",
".8 c #ffb57d",
".6 c #9a9a9b",
".Q c #a7a7a7",
".t c #503414",
".T c #afafaf",
".i c #3b3b3b",
".H c #ee4f01",
".r c #faf3de",
".W c #c7c7c7",
".2 c #b4b4b4",
".L c #080500",
"#a c #252525",
".Y c #bcbcbc",
".j c #fed365",
"Qt c None",
".w c #ffce50",
".K c #20170b",
"#g c #fdb81d",
".b c #606060",
"#f c #ff9711",
".d c #070707",
".m c #f7f7f7",
".g c #dcdcdc",
"## c #110c00",
".J c #4f240c",
".X c #d7d6d5",
".q c #171717",
".3 c #d1d1d1",
"#i c #1f1f1f",
"QtQtQtQtQtQtQtQtQtQtQtQtQtQtQtQtQtQtQtQtQtQtQtQtQtQtQtQtQtQtQtQt",
"QtQtQtQtQtQtQtQtQtQtQtQtQtQtQtQtQtQtQtQtQtQtQtQtQtQtQtQtQtQtQtQt",
"QtQtQtQtQtQtQtQtQtQtQtQtQtQtQtQtQtQtQtQtQtQtQtQtQtQtQtQtQtQtQtQt",
"QtQtQtQtQtQtQtQtQtQtQtQtQtQtQtQtQtQtQtQtQtQtQtQtQtQtQtQtQtQtQtQt",
"QtQtQtQtQtQtQtQtQtQtQtQtQtQtQtQtQtQtQtQtQtQtQtQtQtQtQtQtQtQtQtQt",
"QtQtQtQtQtQtQtQtQtQtQtQt.#.a.bQtQtQtQtQtQtQtQtQtQtQtQtQtQtQtQtQt",
"QtQtQtQtQtQtQtQtQtQt.#.c.d.d.d.d.eQtQtQtQtQtQtQtQtQtQtQtQtQtQtQt",
"QtQtQtQtQtQtQtQtQtQt.f.g.h.d.d.d.d.iQtQtQtQtQtQtQtQtQtQtQtQtQtQt",
"QtQtQtQtQtQtQtQtQt.j.k.l.m.n.d.d.d.cQtQtQtQtQtQtQtQtQtQtQtQtQtQt",
"QtQtQtQtQtQtQtQt.j.o.p.q.r.s.t.d.d.dQtQtQtQtQtQtQtQtQtQtQtQtQtQt",
"QtQtQtQtQt.u.v.w.u.x.o.y.z.j.A.d.d.dQtQtQtQtQtQtQtQtQtQtQtQtQtQt",
"QtQtQtQtQt.B.C.D.E.F.x.x.G.H.I.d.d.d.cQtQtQtQtQtQtQtQtQtQtQtQtQt",
"QtQtQtQtQtQtQtQtQt.p.J.K.L.d.d.d.d.d.d.d.d.fQtQtQtQtQtQtQtQtQtQt",
"QtQtQtQtQtQtQt.M.d.d.d.d.d.d.d.d.d.d.d.d.d.d.d.cQtQtQtQtQtQtQtQt",
"QtQtQtQtQt.n.d.d.d.d.n.d.d.d.d.d.d.d.d.d.d.d.d.d.d.nQtQtQtQtQtQt",
"QtQtQtQt.N.d.d.d.d.d.e.d.O.b.c.d.d.d.d.d.d.d.d.d.d.d.dQtQtQtQtQt",
"QtQtQt.M.d.d.d.d.d.q.c.O.P.P.Q.q.d.d.d.d.d.d.d.d.d.d.d.dQtQtQtQt",
"QtQtQt.d.d.d.e.#QtQt.M.R.P.P.S.T.f.d.d.d.d.d.d.d.#Qt.b.d.dQtQtQt",
"QtQt.#.d.UQtQtQtQtQt.i.S.P.P.S.g.V.q.d.d.d.d.d.d.cQtQtQt.i.OQtQt",
"QtQtQtQtQtQtQtQtQtQt.q.R.P.P.P.R.W.U.d.d.d.d.d.d.d.MQtQtQtQtQtQt",
"QtQtQtQtQtQtQtQtQtQt.q.g.P.P.P.S.X.T.i.d.d.d.d.d.d.cQtQtQtQtQtQt",
"QtQtQtQtQtQtQtQtQtQt.q.g.P.P.P.P.R.Y.Z.d.d.d.d.d.d.dQtQtQtQtQtQt",
"QtQtQtQtQtQtQtQtQtQt.M.X.P.P.P.P.R.W.Q.e.d.d.d.d.d.dQtQtQtQtQtQt",
"QtQtQtQtQtQtQtQtQtQt.#.h.P.P.P.P.R.W.T.U.d.d.d.d.d.d.NQtQtQtQtQt",
"QtQtQtQtQtQtQtQtQtQtQt.b.P.P.P.m.S.W.T.0.q.d.d.d.d.d.dQtQtQtQtQt",
"QtQtQtQtQtQtQtQtQtQtQt.O.P.P.P.P.S.Y.Q.Q.M.d.d.d.d.d.dQtQtQtQtQt",
"QtQtQtQtQtQtQtQtQtQtQt.b.P.P.P.P.R.Y.Q.T.1.d.d.d.d.d.d.nQtQtQtQt",
"QtQtQtQtQtQtQtQtQtQtQt.M.P.m.S.S.X.T.V.2.0.d.d.d.d.d.d.dQtQtQtQt",
"QtQtQtQtQtQtQtQtQtQtQt.n.Y.3.3.3.Y.V.Z.Q.Y.4.d.d.d.d.d.d.qQtQtQt",
"QtQtQtQtQtQtQtQtQtQtQt.t.4.X.W.T.h.5.6.7.8.9.t.d.d.d.d.d.dQtQtQt",
"QtQtQtQtQtQtQtQtQt#..z.y###a.5.3.W.k#b#b.w.u#c.x#d.d.d.dQtQtQtQt",
"QtQtQtQtQtQtQtQt#e.D#f#f.A.p.t.n.A#g#h.D#f#f#f#f.C.A#iQtQtQtQtQt"};
