/* XPM */
static char*bash_r1[]={
"32 32 93 2",
"#l c #373113",
"#u c #f6b016",
".D c #ffd76d",
".x c #fec752",
".g c #272727",
".N c #fda120",
".h c #2f2f2f",
".p c #ab8741",
".f c #373737",
"#e c #d78b04",
".W c #fffefd",
".F c #3f3f3f",
".c c #6e6f6e",
".w c #ffba41",
".z c #fb9d09",
"#z c #f2b044",
"#j c #b39757",
".T c #4f4f4f",
".U c #e6e6e6",
".P c #130600",
".d c #575757",
"#o c #a07c20",
"#g c #fabb01",
"#y c #fc9d20",
".4 c #7a7a7a",
"## c #0f0c02",
".Y c #444444",
".e c #676767",
".S c #0e0e0e",
".H c #b33200",
"#d c #ac6701",
".R c #571e01",
".8 c #c8c8c8",
".A c #ff8e03",
"#f c #f3af04",
".v c #833900",
".m c #596876",
"#s c #fea637",
"#q c #ff9e13",
".O c #fe920a",
".L c #ffa507",
".y c #fac635",
".2 c #878787",
".C c #fecb3f",
"#x c #ea8b11",
".G c #160c03",
".j c #8f8f8f",
"#c c #17150e",
".n c #ecaf3d",
"#b c #4c535d",
".# c #595959",
".7 c #979797",
"#h c #faca31",
".t c #f4750b",
".Z c #9f9f9f",
".r c #64676e",
".u c #ffa811",
"#. c #a7a7a7",
"#w c #503414",
".q c #fff4db",
".9 c #afafaf",
".I c #ee4f01",
"#v c #453214",
".X c #bfbfbf",
"#A c #ffc33e",
".3 c #c7c7c7",
".M c #ffa319",
"#m c #61605f",
"#k c #6f5418",
".o c #080500",
"#a c #878789",
"#n c #27313f",
"#p c #ffa108",
".E c #fed365",
"Qt c None",
"#t c #ffce50",
"#r c #ffa314",
".s c #20170b",
".l c #a8abb5",
".J c #f98105",
".V c #efefef",
".B c #fdb81d",
".a c #070707",
".1 c #f7f7f7",
".i c #dcdcdc",
".K c #ff9d02",
"#i c #f5e072",
".k c #44433f",
".Q c #4f240c",
".0 c #d7d6d5",
".b c #171717",
".5 c #1f1f1f",
".6 c #b6b6b6",
"QtQtQtQtQtQtQtQtQtQtQtQtQtQtQtQtQtQtQtQtQtQtQtQtQtQtQtQtQtQtQtQt",
"QtQtQtQtQtQtQtQtQtQtQtQtQtQtQtQtQtQtQtQtQtQtQtQtQtQtQtQtQtQtQtQt",
"QtQtQtQtQt.#QtQtQtQtQtQtQtQtQtQtQtQtQtQtQtQtQtQtQtQtQtQtQtQtQtQt",
"QtQtQtQt.#.aQtQtQtQtQtQtQtQtQtQtQtQtQtQtQtQtQtQtQtQtQtQtQtQtQtQt",
"QtQtQtQt.#.a.#QtQtQtQtQtQtQtQtQtQtQtQtQtQtQtQtQtQtQtQtQtQtQtQtQt",
"QtQtQtQt.#.a.bQtQtQtQtQtQtQt.c.d.eQtQtQtQtQtQtQtQtQtQtQtQtQtQtQt",
"QtQtQtQt.#.a.a.fQtQtQtQtQt.a.a.a.a.a.gQtQtQtQtQtQtQtQtQtQtQtQtQt",
"QtQtQtQtQt.a.a.a.eQtQtQt.a.a.a.a.h.i.j.kQtQtQtQtQtQtQtQtQtQtQtQt",
"QtQtQtQtQt.b.a.a.a.bQt.d.a.a.a.a.i.l.m.nQtQtQtQtQtQtQtQtQtQtQtQt",
"QtQtQtQtQtQt.a.a.a.a.a.a.a.a.o.p.q.r.s.t.uQtQtQtQtQtQtQtQtQtQtQt",
"QtQtQtQtQtQt.#.a.a.a.a.a.a.a.v.w.x.y.z.A.B.C.D.EQtQtQtQtQtQtQtQt",
"QtQtQtQtQtQtQt.F.a.a.a.a.a.a.G.H.I.J.K.K.L.M.N.OQtQtQtQtQtQtQtQt",
"QtQtQtQtQtQtQtQt.F.a.a.a.a.a.a.a.a.P.Q.RQtQtQtQtQtQtQtQtQtQtQtQt",
"QtQtQtQtQtQtQtQtQt.f.a.a.a.a.a.a.a.a.a.a.SQtQtQtQtQtQtQtQtQtQtQt",
"QtQtQtQtQtQtQtQtQt.g.a.a.a.a.a.a.a.a.a.a.a.bQtQtQtQtQtQtQtQtQtQt",
"QtQtQtQtQtQtQtQtQt.a.a.a.a.a.a.a.a.a.a.a.a.a.hQtQtQtQtQtQtQtQtQt",
"QtQtQtQtQtQtQtQt.T.a.a.a.a.a.a.a.a.d.U.V.g.a.a.fQtQtQtQtQtQtQtQt",
"QtQtQtQtQtQtQtQt.S.a.a.a.a.a.a.a.e.U.W.W.U.a.a.a.#QtQtQtQtQtQtQt",
"QtQtQtQtQtQtQtQt.a.a.a.a.a.a.a.T.X.V.W.W.W.Y.a.a.bQtQtQtQtQtQtQt",
"QtQtQtQtQtQtQt.T.a.a.a.a.a.a.g.Z.0.1.W.W.W.2.f.S.a.#QtQtQtQtQtQt",
"QtQtQtQtQtQtQt.S.a.a.a.a.a.a.e.X.i.W.W.W.W.3.fQt.a.#QtQtQtQtQtQt",
"QtQtQtQtQtQtQt.a.a.a.a.a.a.a.4.X.V.W.W.W.W.U.fQt.f.FQtQtQtQtQtQt",
"QtQtQtQtQtQt.#.a.a.a.a.a.a.5.j.X.V.W.W.W.W.V.5QtQt.#QtQtQtQtQtQt",
"QtQtQtQtQtQt.b.a.a.a.a.a.a.f.Z.X.1.W.W.W.W.1.gQtQtQtQtQtQtQtQtQt",
"QtQtQtQtQtQt.a.a.a.a.a.a.a.F.Z.6.V.W.W.W.W.1.gQtQtQtQtQtQtQtQtQt",
"QtQtQtQtQtQt.a.a.a.a.a.a.a.F.7.6.U.W.W.W.W.1.5QtQtQtQtQtQtQtQtQt",
"QtQtQtQtQt.b.a.a.a.a.a.a.a.f.7.Z.8.W.W.W.W.i.5QtQtQtQtQtQtQtQtQt",
"QtQtQtQtQt.a.a.a.a.a.a.a.a.g.2.j.9.i.1.V.1#..eQtQtQtQtQtQtQtQtQt",
"QtQtQtQtQt.a.a.a.a.a.a.a.a.a.c.j.j#..X.X.0.hQtQtQtQtQtQtQtQtQtQt",
"QtQtQtQtQt.a.a.a.a.o##.a.a.a.b.r#a.7.7#.#b#cQtQtQtQtQtQtQtQtQtQt",
"QtQtQtQtQt.f#d#e#f#g#h#i.D#j#k#l.Y.##m#n.a#oQtQtQtQtQtQtQtQtQtQt",
"QtQtQtQtQtQt#p.O#q#r#r.B#s#t#t#u#v.b.b#w#x#y#z#AQtQtQtQtQtQtQtQt"};
