/* XPM */
static char*bash_r4[]={
"32 32 47 1",
"P c #373113",
"f c #272727",
"o c #a3a3a3",
"s c #fda120",
"k c #ab8741",
"w c #d78b04",
"l c #403932",
"J c #ffba41",
"S c #ffa213",
"L c #fbbf9a",
"t c #a07c20",
"R c #fc9d20",
"h c #7a7a7a",
"v c #0a0801",
"c c #0e0e0e",
"O c #ac6701",
"A c #1e1e1e",
"n c #ffebbe",
"Q c #fe920a",
"N c #ea8b11",
"D c #160c03",
"F c #747474",
"# c #595959",
"z c #3e3e3e",
"u c #faca31",
"G c #f4750b",
"q c #232323",
"E c #f8df78",
"p c #503414",
"g c #434343",
"d c #c7c7c7",
"B c #2b2c2f",
"m c #6f5418",
"K c #fed365",
". c None",
"C c #353535",
"r c #20170b",
"M c #f98105",
"i c #efefef",
"I c #fdb81d",
"j c #606060",
"y c #ff9711",
"b c #070707",
"H c #ff9d02",
"x c #feb411",
"e c #d7d6d5",
"a c #171717",
"................................",
"................................",
"................................",
"................................",
"................................",
"...............####.............",
"..............abbbbc............",
".............abbbbdef..#gbbb#...",
"............#bbbbhijklbbbbc#....",
"............abbbmnobbbbbbp......",
"...........qbbbrstbbbbbbku......",
"..........abbbbvb#bbbbbwxy......",
".........abbbbbbbbbbbb..........",
"........abbbbbbbbbbbb#..........",
".......zbbbbbbbbbbbb#...........",
"......#bbbbbbbbbbbbbb...........",
"......abbbbbbbbbbbbbb...........",
".....#bbbbbbbbbbbbbbb...........",
".....abbbbbbbbbbbbbbb...........",
".....bbbbbbbbbbbbbbbb...........",
".....bbbbbbbbbbbbbbbb...........",
".....#bbbbbbbbbbbbbbb...........",
".....Abbbbbbbbbbbbbbc...........",
".....bbbbbbbbbbbbbbbc...........",
"....#bbbbbbbbbbbbbbbc...........",
"....Abbbbbbbbbbbbbbbc...........",
"...#bbbbbbbbbbbbbbbbB...........",
"...gbbbbbbbbbbbbbbbbz...........",
"..CbbbbbbbbbbbbbbbbbB...........",
".BbbbbbbbbbbbbbbbbbDkE..........",
"..FgvbbbbbbbbbbbbrGHIJKEE.......",
"...LGMNtOPcccacBtyyQMMyyRS......"};
