/* XPM */
static char*blocker3[]={
"32 32 148 2",
".n c #dadadc",
"#Z c #b68204",
"#n c #1e1e1c",
"#l c #3a3ac7",
"#d c #422e04",
"ab c #c6a64c",
"ak c #caa64c",
"ae c #feda7c",
"af c #fec22c",
".B c #e2e2e4",
".l c #262624",
".6 c #d69604",
"#B c #eaeaec",
".a c #2e2e2c",
"#O c #867244",
".5 c #eeaa04",
".g c #020204",
".s c #f2f2f4",
".Y c #7a5604",
".U c #060204",
".C c #363634",
"ap c #dea614",
".d c #0a0a0c",
".t c #fafafc",
"#t c #3e3e3c",
"#f c #221604",
"ag c #faba14",
".1 c #121214",
".Z c #464644",
".b c #1a1a1c",
".r c #4e4e4c",
".N c #a27a14",
"#T c #f6be2c",
"#k c #222224",
".7 c #ca9204",
".# c #565654",
"#. c #563e04",
".4 c #ce9204",
".2 c #2a2a2c",
".o c #5e5e5c",
"ai c #b28a24",
".R c #eaa604",
"#a c #323234",
".K c #423e2c",
".A c #666664",
"an c #eaae0c",
"ao c #eeae0c",
"#7 c #f6c65c",
".3 c #b995b7",
"#e c #161204",
".f c #3a3a3c",
".H c #8e6604",
"#z c #6e6e6c",
".I c #1a1204",
".0 c #9b9b9d",
".i c #424244",
"a. c #966e0c",
"#x c #4747a8",
".P c #aa7a04",
"#g c #362604",
".m c #4a4a4c",
".j c #7e7e7c",
"#N c #d6c294",
"#Y c #c68e04",
".e c #525254",
".D c #868684",
"#b c #5a5a5c",
".u c #8e8e8c",
"#X c #e6a204",
"#v c #3939c1",
"#C c #626264",
".M c #969694",
"#8 c #fab604",
"#Q c #120e04",
".W c #feb604",
"#3 c #8a6204",
"#F c #6a6a6c",
"#S c #eeb214",
"#H c #727274",
"#5 c #a27604",
"#o c #a6a6a4",
".F c #1e1e14",
"al c #dec284",
".x c #7a7a7c",
"#p c #aeaeac",
".J c #2a261c",
"#i c #4e3604",
"#U c #f6d684",
".E c #828284",
"#I c #b6b6b4",
"#w c #5e5e6f",
"#P c #423214",
"#R c #c6920c",
"## c #4646bd",
".z c #362e24",
"#2 c #664a04",
".8 c #de9e04",
".y c #bebebc",
"am c #eec24c",
"#E c #c6c6c4",
"aj c #c69624",
"ad c #f6ca54",
"#9 c #825e04",
"#6 c #faca54",
"#j c #0e0a04",
".V c #fab204",
"#D c #fefaf4",
"#0 c #865e04",
".X c #feb204",
"#m c #55558c",
"#M c #9a9a9c",
"#q c #cececc",
".L c #020202",
".S c #9e7204",
".T c #2a1e04",
"#J c #d6d6d4",
"#c c #2e1e04",
"aa c #fabe24",
"#u c #aaaaac",
"Qt c None",
"ah c #daae3c",
".v c #dededc",
"#h c #4a3204",
"#V c #f2d284",
"#L c #b2b2b4",
"#A c #e6e6e4",
".p c #2a2a24",
"ar c #d6caa4",
".9 c #d69a04",
".Q c #da9a04",
"#K c #bababc",
"#s c #eeeeec",
".O c #ca9614",
"#G c #c2c2c4",
".h c #060604",
".w c #f6f6f4",
"a# c #f6ae04",
".G c #5e4a1c",
"#W c #e6aa14",
"#y c #cacacc",
".c c #0e0e0c",
"#r c #fefefc",
"ac c #dabe74",
"#1 c #221a04",
"#4 c #9a6e04",
".q c #d2d2d4",
".k c #161614",
"aq c #c69e44",
"QtQtQtQtQtQtQtQtQtQtQtQtQtQtQtQtQtQtQtQtQtQtQtQtQtQtQtQtQtQtQtQt",
"QtQtQtQtQtQtQtQtQtQtQtQt.#.a.b.c.d.b.eQtQtQtQtQtQtQtQtQtQtQtQtQt",
"QtQtQtQtQtQtQtQtQtQtQt.f.g.g.g.g.g.g.h.iQtQtQtQtQtQtQtQtQtQtQtQt",
"QtQtQtQtQtQtQtQtQtQt.j.d.d.d.g.g.k.k.g.dQtQtQtQtQtQtQtQtQtQtQtQt",
"QtQtQtQtQtQtQtQtQtQt.l.d.m.n.o.p.q.n.a.h.rQtQtQtQtQtQtQtQtQtQtQt",
"QtQtQtQtQtQtQtQtQtQt.g.f.s.t.u.#.v.t.w.g.mQtQtQtQtQtQtQtQtQtQtQt",
"QtQtQtQtQtQtQtQtQtQt.d.x.y.h.g.z.g.A.B.g.CQtQtQtQtQtQtQtQtQtQtQt",
"QtQtQtQtQtQtQtQtQtQt.d.D.E.F.G.H.I.J.K.g.c.LQtQtQtQtQtQtQtQtQtQt",
"QtQt.MQtQtQtQtQtQtQt.c.N.O.P.Q.R.S.S.P.T.bQtQtQtQtQtQtQtQtQtQtQt",
"Qt.#.h.DQtQtQtQtQtQt.U.V.W.X.V.V.V.X.W.Y.iQtQtQtQtQtQtQtQt.Z.0Qt",
"Qt.1.2.3QtQtQt.x.o.p.U.4.5.6.7.8.9.R.5#..c.Z.Z##QtQtQtQt.#.g.kQt",
".u.h.h#a#b#b.C.h.g.g.g#c#d#e#f#g#g#h#i#j.g.g.g#k#l#m#m#l#n.g.h#o",
".e.h.g.g.g.g.g.g.g.g.g.g.l.j.j#p.e.d.g.g.g.g.d.c.d.g.g.k.g.g.bQt",
".E.2.1.h.g.g.g.g.h.h.g.p#q#r.w#r#s.m.k.g.g.g.g.g.g.g.g.g.g.g#tQt",
"QtQtQt.x.1.g.g.g.h.c.1#u#r#r.t.w#r#r#p#t.g.g.h.1.d.1.r#v#w#xQtQt",
"QtQtQtQtQt.u.r.h.g.h.o#s#r#r.t.t.w#r.t#y.b.g.pQtQtQtQtQtQtQtQtQt",
"QtQtQtQtQtQtQt.o.1.Z.B#r#r#r#s.t#r#r#r.w#z.c.rQtQtQtQtQtQtQtQtQt",
"QtQtQtQtQtQtQt.o.f#q#r#r#r#r.s#s#r#r.t.t#q#a.mQtQtQtQtQtQtQtQtQt",
"QtQtQtQtQtQtQt.a.A.w.t#s.w.t.w.w.w#r#r.s.v#a#aQtQtQtQtQtQtQtQtQt",
"QtQtQtQtQtQtQt.C#u.t#r.w#s#s#A#A#A.w.w.t#B.Z#kQtQtQtQtQtQtQtQtQt",
"QtQtQtQtQtQtQt#C.y.t#r#D.t#r#r#r#r.t#r#r#A.A#nQtQtQtQtQtQtQtQtQt",
"QtQtQtQtQtQtQt.E#E.v.s.w#r#r#r#r#r#r#B.s#s#F.bQtQtQtQtQtQtQtQtQt",
"QtQtQtQtQtQtQt.A#G.v.B.w#r#r#r#r.t.t#s#s#s.j.lQtQtQtQtQtQtQtQtQt",
"QtQtQtQtQtQtQt#C#H#E#E#s.t.t.t#r.t.t#s.v.n#F.CQtQtQtQtQtQtQtQtQt",
"QtQtQtQtQtQtQt.M.r#I#y#J#s.v.n.n.n#y#K#K#I#n#aQtQtQtQtQtQtQtQtQt",
"QtQtQtQtQtQtQt#u.2.##I#E#K.y#q#E#G#I#p#L.e.c.aQtQtQtQtQtQtQtQtQt",
"QtQtQtQtQtQtQt#C.k.c.C#z.u.u.u#M.M.D.o.2.k.1.zQtQtQtQtQtQtQtQtQt",
"QtQtQtQtQt#N#O#P#Q.g.g.g.g.g.h.c.1.c.g.g.g#g#R#S#T#UQtQtQtQtQtQt",
"QtQtQtQt#V#W.5#X#Y.4.9#Z#0#..I#1#2#3#4#5#Y.5.V.W.W.X#6QtQtQtQtQt",
"QtQtQtQt#7#8.W.W#8.W.X.X.V.R#9a.a##8.V.X.X.W.W.W.X#8aaQtQtQtQtQt",
"QtQtQtQtaa.X.W.X.V.W.W.X.V.5abac.V.W.W.W.W.W.W.W.W.RadQtQtQtQtQt",
"QtQtQtQtaeafagahaiai.OajakalQtQtQtam#Sanao.V.5apaqarQtQtQtQtQtQt"};
