/* XPM */
static char*blocker5[]={
"32 32 139 2",
".u c #dadadc",
"#Y c #b68204",
"#p c #1e1e1c",
"#k c #422e04",
"#6 c #c6a64c",
"ac c #caa64c",
"#7 c #feda7c",
"#8 c #fec22c",
"#C c #e2e2e4",
".r c #262624",
".1 c #d69604",
"#u c #eaeaec",
".d c #2e2e2c",
"#L c #867244",
".P c #eeaa04",
".h c #020204",
".v c #f2f2f4",
"#j c #363634",
".5 c #f2aa04",
".U c #060204",
"ag c #dea614",
".b c #0a0a0c",
"#t c #fafafc",
"#v c #3e3e3c",
".I c #1e1604",
"#. c #121214",
".G c #ba9a44",
".q c #464644",
".a c #1a1a1c",
".l c #4e4e4c",
"#R c #f6be2c",
".m c #222224",
".e c #565654",
".V c #563e04",
"#W c #ce9204",
".J c #2a2a2c",
".A c #5e5e5c",
"a# c #b28a24",
".7 c #eaa604",
".C c #323234",
".y c #666664",
"af c #eaae0c",
".0 c #eeae0c",
".K c #b995b7",
"#o c #161204",
".i c #3a3a3c",
"#l c #1a1204",
".x c #6e6e6c",
".H c #6e561c",
"#m c #1e1a0c",
".f c #424244",
"#3 c #966e0c",
"#O c #362604",
".s c #4a4a4c",
".j c #7e7e7c",
"#K c #d6c294",
"#V c #c68e04",
".# c #525254",
".B c #868684",
"#i c #5a5a5c",
"#h c #8e8e8c",
".F c #626264",
".T c #969694",
"#4 c #fab604",
"#J c #aaa28c",
"#0 c #feb604",
"#N c #120e04",
"#c c #8a6204",
"#y c #6a6a6c",
"#Q c #eeb214",
".9 c #9e9e9c",
".t c #727274",
".Q c #a27604",
"#q c #a6a6a4",
"#a c #322204",
".M c #86661c",
"ad c #dec284",
".8 c #967214",
"## c #7a7a7c",
".n c #aeaeac",
"#S c #f6d684",
".k c #828284",
"#D c #b6b6b4",
"#M c #423214",
"#P c #c6920c",
".N c #dab654",
"#I c #362e24",
"#e c #664a04",
".W c #de9e04",
"#F c #bebebc",
"ae c #eec24c",
"#B c #c6c6c4",
"ab c #c69624",
"#2 c #f6ca54",
".R c #825e04",
"#1 c #faca54",
"#n c #0e0a04",
".Y c #fab204",
"#Z c #865e04",
".6 c #feb204",
"#H c #9a9a9c",
"#s c #cececc",
".L c #020202",
".D c #12120c",
"#d c #9e7204",
".O c #2a1e04",
".E c #d6d6d4",
"#5 c #fabe24",
"#E c #aaaaac",
"Qt c None",
"a. c #daae3c",
"#x c #dededc",
".4 c #ba8604",
"#T c #f2d284",
"#G c #b2b2b4",
"#z c #e6e6e4",
"#r c #2a2a24",
"ai c #d6caa4",
"#X c #d69a04",
"#A c #bababc",
".z c #eeeeec",
"aa c #ca9614",
".p c #c2c2c4",
".X c #f2ae04",
".g c #060604",
"#w c #f6f6f4",
"#b c #0a0604",
".Z c #f6ae04",
"#U c #e6aa14",
".w c #cacacc",
"#9 c #fab60c",
".c c #0e0e0c",
".o c #fefefc",
".S c #dabe74",
"#f c #221a04",
".2 c #9a6e04",
".3 c #d2ba84",
"#g c #161614",
"ah c #c69e44",
"QtQtQtQtQtQtQtQtQtQtQtQtQtQtQtQtQtQtQtQtQtQtQtQtQtQtQtQtQtQtQtQt",
"QtQtQtQtQtQtQtQtQtQtQtQt.#.a.b.c.a.d.eQtQtQtQtQtQtQtQtQtQtQtQtQt",
"QtQtQtQtQtQtQtQtQtQtQt.f.g.h.h.h.h.h.h.iQtQtQtQtQtQtQtQtQtQtQtQt",
"QtQtQtQtQtQtQtQtQtQt.j.b.h.b.a.h.h.g.g.b.kQtQtQtQtQtQtQtQtQtQtQt",
"QtQtQtQtQtQtQtQtQtQt.l.g.g.m.n.o.p.q.r.k.rQtQtQtQtQtQtQtQtQtQtQt",
"QtQtQtQtQtQtQtQtQtQt.s.h.g.t.u.v.w.x.y.z.A.BQtQtQtQtQtQtQtQtQtQt",
"QtQtQtQtQtQtQtQtQtQt.C.h.D.i.E.F.h.G.H.I.J.KQtQtQtQtQtQtQtQtQtQt",
"QtQtQtQtQtQtQtQtQt.L.D.h.I.M.N.O.g.P.Q.I.R.SQtQtQtQtQtQtQtQtQtQt",
"QtQt.TQtQtQtQtQtQt.L.a.U.V.W.X.Y.Z.0.1.2.Z.P.3QtQtQtQtQtQtQtQtQt",
"Qt.e.g.BQtQtQtQtQtQt.f.h.h.h.4.5.6.Z.Y.X.Z.7.8QtQtQtQtQtQt.q.9Qt",
"Qt#..J.KQtQtQt##.q.q.c#a.h.U#b.O#c.W.Z.7#d#e#f.BQtQtQtQt.e.h#gQt",
"#h.g.g.C#i.e#j.b.h.h.h.b#k#l#m#a#n#o#k.h.h.h.h.m.k.x.x.k#p.h.g#q",
".#.g.h.h.h.h.h.h.h.h.h.h#r.j##.n.#.b.h.h.h.h.b.c.b.h.h#g.h.h.aQt",
".k.J.D.g.h.h.h.h.g.g.h#r#s.o#t.o#u.s#g.h.h.h.h.h.h.h.h.h.h.h#vQt",
"QtQtQt###..h.h.h.g.c.c#q.o.o#t#t.o.o.n#v.h.h.g#..b#..l##.y.tQtQt",
"QtQtQtQtQt#h.l.g.h.g.F.v.o#t#t#w#w.o#t.w.a.h#rQtQtQtQtQtQtQtQtQt",
"QtQtQtQtQtQtQt.A#..f#x.o.o.o.v#t.o.o.o#w.x.c.lQtQtQtQtQtQtQtQtQt",
"QtQtQtQtQtQtQt.A.i#s.o.o.o.o.v.z.o.o#t#t#s.C.sQtQtQtQtQtQtQtQtQt",
"QtQtQtQtQtQtQt.d#y#w#t.v#t#t#w#w#w.o.o.v#x.C.C#hQtQtQtQtQtQtQtQt",
"QtQtQtQtQtQtQt#j#q.o.o#w#u#u#z#z#z#w#w#t#u.q.m.eQtQtQtQtQtQtQtQt",
"QtQtQtQtQtQtQt.y#A#t.o.o.o.o.o.o.o#t.o.o#z.y#p.qQtQtQtQtQtQtQtQt",
"QtQtQtQtQtQtQt.k#B#x.v.v.o.o.o.o.o.o#u.v.z#y.a.qQtQtQtQtQtQtQtQt",
"QtQtQtQtQtQtQt.y.p#x#C#w.o.o.o.o#t#t.z.z.z.j.r.FQtQtQtQtQtQtQtQt",
"QtQtQtQtQtQtQt.F.t#B#B.z#t#t#t.o#t#t.z#x.u#y#j.kQtQtQtQtQtQtQtQt",
"QtQtQtQtQtQtQt.T.s#D.w.E.z#x.u.u.u.w#A#A#D#p.C#qQtQtQtQtQtQtQtQt",
"QtQtQtQtQtQtQt#E.d.e#D#B#A#F#s#B.p#D.n#G.#.c.d#EQtQtQtQtQtQtQtQt",
"QtQtQtQtQtQtQt.F#g.c#j.x#h#h#h#H.T.B.A.J#g#.#I#JQtQtQtQtQtQtQtQt",
"QtQtQtQtQt#K#L#M#N.h.h.h.h.h.g.c#..c.h.h.h#O#P#Q#R#SQtQtQtQtQtQt",
"QtQtQtQt#T#U.7.7#V#W#X#Y#Z.V#l#f#e#c.2.Q#V.P.Y#0#0.6#1QtQtQtQtQt",
"QtQtQtQt#2#0#0#0.Y#0.6.6.Y.7.R#3.Z#4.Y.6.6#0#0#0.6#4#5QtQtQtQtQt",
"QtQtQtQt#5#0#0#0.Y#0#0.6.Y.P#6.S.Y#0#0#0#0#0#0#0#0.7#2QtQtQtQtQt",
"QtQtQtQt#7#8#9a.a#a#aaabacadQtQtQtae#Qaf.0.Y.PagahaiQtQtQtQtQtQt"};
