/* XPM */
static char*blocker2[]={
"32 32 151 2",
".J c #dadadc",
".8 c #b68204",
"#r c #3a3ac7",
".s c #1e1e1c",
"#j c #422e04",
"af c #c6a64c",
"ao c #caa64c",
"ah c #feda7c",
"ae c #fec22c",
"#B c #e2e2e4",
".l c #262624",
"#E c #eaeaec",
".a c #2e2e2c",
"#T c #867244",
"#h c #6060b0",
".P c #eeaa04",
".g c #020204",
".A c #f2f2f4",
".0 c #f2aa04",
".K c #363634",
"as c #dea614",
".d c #0a0a0c",
"#s c #fafafc",
"#t c #3e3e3c",
".T c #221604",
"ai c #faba14",
"#. c #121214",
".I c #ba9a44",
".o c #464644",
".b c #1a1a1c",
".t c #4e4e4c",
"#Y c #f6be2c",
"#n c #222224",
".# c #565654",
"#6 c #563e04",
"#4 c #ce9204",
".F c #2a2a2c",
".v c #5e5e5c",
"al c #b28a24",
".6 c #eaa604",
"## c #323234",
"#x c #666664",
"#1 c #eaae0c",
"ar c #eeae0c",
"ab c #f6c65c",
".E c #b995b7",
"#k c #161204",
".f c #3a3a3c",
"ak c #b28e3c",
".N c #1a1204",
".y c #6e6e6c",
".H c #6e561c",
".G c #1e1a0c",
".i c #424244",
".Y c #966e0c",
".C c #767674",
"#e c #322604",
"#V c #362604",
".j c #3b3bc1",
".D c #4a4a4c",
".k c #7e7e7c",
"#S c #d6c294",
"#3 c #c68e04",
".e c #525254",
".3 c #523a04",
"#f c #868684",
"#i c #5a5a5c",
"#O c #8e8e8c",
"#2 c #e6a204",
"#u c #3939c1",
".x c #626264",
"#Q c #969694",
"ac c #fab604",
"a. c #feb604",
"#l c #120e04",
"#8 c #8a6204",
"#C c #6a6a6c",
"#X c #eeb214",
".9 c #9e9e9c",
"#y c #727274",
".O c #a27604",
"#o c #a6a6a4",
"#m c #322204",
".S c #86661c",
"#G c #1e1e14",
"ap c #dec284",
".5 c #967214",
"#p c #7a7a7c",
"#w c #aeaeac",
"#Z c #f6d684",
".m c #828284",
"#M c #b6b6b4",
"#H c #5e5e6f",
"#U c #423214",
"#W c #c6920c",
".u c #4646bd",
".R c #dab654",
"#R c #362e24",
"#7 c #664a04",
".2 c #de9e04",
"#N c #bebebc",
"#b c #6a4a04",
"aq c #eec24c",
".4 c #2508fb",
"#L c #c6c6c4",
"an c #c69624",
"ag c #f6ca54",
".M c #825e04",
"aa c #faca54",
".X c #fab204",
"#v c #fefaf4",
"#5 c #865e04",
"a# c #feb204",
"#K c #55558c",
"#P c #9a9a9c",
".z c #cececc",
".U c #020202",
"#c c #9e7204",
".Q c #2a1e04",
".B c #d6d6d4",
"ad c #fabe24",
"#q c #aaaaac",
"Qt c None",
"aj c #daae3c",
"#D c #dededc",
"#0 c #f2d284",
".r c #b2b2b4",
"#J c #5a5a6f",
"#F c #e6e6e4",
".n c #2a2a24",
"au c #d6caa4",
".Z c #d69a04",
"#I c #bababc",
".w c #eeeeec",
"am c #ca9614",
".p c #c2c2c4",
".1 c #f2ae04",
".h c #060604",
"#z c #f6f6f4",
"#d c #0a0604",
".7 c #f6ae04",
"#A c #cacacc",
".c c #0e0e0c",
".q c #fefefc",
".L c #dabe74",
"#a c #221a04",
"#9 c #9a6e04",
".V c #7c7ca6",
".W c #d2ba84",
"#g c #161614",
"at c #c69e44",
"QtQtQtQtQtQtQtQtQtQtQtQtQtQtQtQtQtQtQtQtQtQtQtQtQtQtQtQtQtQtQtQt",
"QtQtQtQtQtQtQtQtQtQtQtQt.#.a.b.c.d.b.eQtQtQtQtQtQtQtQtQtQtQtQtQt",
"QtQtQtQtQtQtQtQtQtQtQt.f.g.g.g.g.g.g.h.iQtQtQtQtQtQtQtQtQtQtQtQt",
"QtQtQtQtQtQtQtQtQtQt.j.d.h.g.g.g.b.h.g.d.kQtQtQtQtQtQtQtQtQtQtQt",
"QtQtQtQtQtQtQtQtQtQt.l.m.n.o.p.q.r.s.d.h.tQtQtQtQtQtQtQtQtQtQtQt",
"QtQtQtQtQtQtQtQtQt.u.v.w.x.y.z.A.B.C.h.g.DQtQtQtQtQtQtQtQtQtQtQt",
"QtQtQtQtQtQtQtQtQt.E.F.G.H.I.g.x.J.f.c.g.KQtQtQtQtQtQtQtQtQtQtQt",
"QtQtQtQtQtQtQtQtQt.L.M.N.O.P.h.Q.R.S.T.g.c.UQtQtQtQtQtQtQtQtQtQt",
"QtQt.VQtQtQtQtQt.W.P.X.Y.Z.0.X.X.1.2.3.h.b.4QtQtQtQtQtQtQtQtQtQt",
"Qt.#.h.uQtQtQtQt.5.6.1.7.7.X.X.0.8.g.g.g.iQtQtQtQtQtQtQtQt.o.9Qt",
"Qt#..F.EQtQtQt###a#b#c.6.1.2.M.Q#d.g.g#e.c.o.o#fQtQtQtQt.#.g#gQt",
"#h.h.h###i#i.K#d.g.g.g.g#j#k#l#m#a.N#j#d.g.g.g#n.m.y.y.m.s.g.h#o",
".e.h.g.g.g.g.g.g.g.g.g.g.l.m#p#q.e.d.g.g.g.g.d.c.d.g.g#g.g.g.bQt",
"#r.F#..h.g.g.g.g.h.h.g.n.z.q#s.q.w.D.b.g.g.g.g.g.g.g.g.g.g.g#tQt",
"QtQtQt#u#..g.g.g.h.c.c#o#v.q#s#s.q.q#w#t.g.g.h#..d#..t#p#x#yQtQt",
"QtQtQtQtQt#h.t.h.g.h.x.A.q#s#s#z#z.q#s#A.b.g.nQtQtQtQtQtQtQtQtQt",
"QtQtQtQtQtQtQt.v#..i#B.q.q.q.w#s.q.q.q#z.y.c.tQtQtQtQtQtQtQtQtQt",
"QtQtQtQtQtQtQt.v.f.z.q.q.q.q#z.w.q.q#s#s.z##.DQtQtQtQtQtQtQtQtQt",
"QtQtQtQtQtQtQt.a#C#z.q.A#s#s#z.A#z.q.q.A#D####QtQtQtQtQtQtQtQtQt",
"QtQtQtQtQtQtQt.K#o#s.q#z#E#E#F#E#F#z#z#s#E.o#GQtQtQtQtQtQtQtQtQt",
"QtQtQtQtQtQtQt#H#I#z.q.q.q.q#v.q.q#s.q.q#F#x#GQtQtQtQtQtQtQtQtQt",
"QtQtQtQtQtQtQt#r#A#B.A.A#v.q.q.q.q.q#E.A.w#C.bQtQtQtQtQtQtQtQtQt",
"QtQtQtQtQtQtQt#H.p#D#B#z.q.q.q.q#s#s.w.w.w.k.lQtQtQtQtQtQtQtQtQt",
"QtQtQtQtQtQtQt#J#K#L#L.A#v#s#s.q#s#s.w#D.J#C.KQtQtQtQtQtQtQtQtQt",
"QtQtQtQtQtQtQt.V.D#M#L.B.w#D.J.J.J#A#I#I#M.s##QtQtQtQtQtQtQtQtQt",
"QtQtQtQtQtQtQt#q.a#i#I#L#I#N.z#L.p#M#w.r.e.c.aQtQtQtQtQtQtQtQtQt",
"QtQtQtQtQtQtQt#J#..c.K.y#O#O#O#P#Q#f.v.F#g#.#RQtQtQtQtQtQtQtQtQt",
"QtQtQtQtQt#S#T#U#k.g.g.g.g.g.h.c#..c.g.g.g#V#W#X#Y#ZQtQtQtQtQtQt",
"QtQtQtQt#0#1.6#2#3#4.Z.8#5#6.N#a#7#8#9.O#3.P.Xa.a.a#aaQtQtQtQtQt",
"QtQtQtQtab.Xa.a..Xa#a.a#.X.6.M.Y.7ac.Xa#a#a.a.a.a#acadQtQtQtQtQt",
"QtQtQtQtaeaca.a#.Xa#a..X.X.Paf.L.Xa.a.a.a.a.a.a.a..6agQtQtQtQtQt",
"QtQtQtQtahaeaiajakalamanaoapQtQtQtaq#X#1ar.X.PasatauQtQtQtQtQtQt"};
