/* XPM */
static char*blocker1[]={
"32 32 149 2",
".H c #dadadc",
".5 c #b68204",
"#k c #3a3ac7",
".r c #1e1e1c",
"#f c #422e04",
"ad c #c6a64c",
"am c #caa64c",
"af c #feda7c",
"ac c #fec22c",
"#y c #e2e2e4",
".k c #262624",
"#B c #eaeaec",
".a c #2e2e2c",
"#R c #867244",
"#d c #6060b0",
".N c #eeaa04",
".g c #020204",
".y c #f2f2f4",
".X c #f2aa04",
".I c #363634",
"aq c #dea614",
".d c #0a0a0c",
"#p c #fafafc",
"#q c #3e3e3c",
".R c #221604",
"ag c #faba14",
".7 c #121214",
".G c #ba9a44",
".n c #464644",
".b c #1a1a1c",
".s c #4e4e4c",
"#W c #f6be2c",
"#j c #222224",
".# c #565654",
"#4 c #563e04",
"#2 c #ce9204",
".D c #2a2a2c",
".t c #5e5e5c",
"aj c #b28a24",
".3 c #eaa604",
".8 c #323234",
"#E c #666664",
"#Z c #eaae0c",
"ap c #eeae0c",
"a# c #f6c65c",
".C c #b995b7",
"#g c #161204",
".f c #3a3a3c",
"ai c #b28e3c",
".L c #1a1204",
".w c #6e6e6c",
".F c #6e561c",
".6 c #9b9b9d",
".E c #1e1a0c",
".i c #424244",
".V c #966e0c",
".A c #767674",
"#v c #4747a8",
"#b c #322604",
"#T c #362604",
".j c #3b3bc1",
".B c #4a4a4c",
"#F c #7e7e7c",
"#Q c #d6c294",
"#1 c #c68e04",
".e c #525254",
".0 c #523a04",
"#N c #868684",
"#e c #5a5a5c",
"#K c #8e8e8c",
"#0 c #e6a204",
"#r c #3939c1",
".v c #626264",
"#M c #969694",
"aa c #fab604",
"#P c #aaa28c",
"#8 c #feb604",
"#h c #120e04",
"#6 c #8a6204",
"#z c #6a6a6c",
"#V c #eeb214",
".M c #a27604",
"#m c #a6a6a4",
"#i c #322204",
".Q c #86661c",
"an c #dec284",
".2 c #967214",
"#n c #7a7a7c",
"#t c #aeaeac",
"#X c #f6d684",
".l c #828284",
"#I c #b6b6b4",
"#u c #5e5e6f",
"#S c #423214",
"#U c #c6920c",
".1 c #4646bd",
".P c #dab654",
"#O c #362e24",
"#5 c #664a04",
".Z c #de9e04",
"#J c #bebebc",
"#. c #6a4a04",
"ao c #eec24c",
"#H c #c6c6c4",
"al c #c69624",
"ae c #f6ca54",
".K c #825e04",
"a. c #faca54",
".U c #fab204",
"#s c #fefaf4",
"#3 c #865e04",
"#9 c #feb204",
"#l c #55558c",
"#L c #9a9a9c",
".x c #cececc",
"## c #9e7204",
".O c #2a1e04",
".z c #d6d6d4",
"ab c #fabe24",
"#o c #aaaaac",
"Qt c None",
"ah c #daae3c",
"#A c #dededc",
"#Y c #f2d284",
".q c #b2b2b4",
"#G c #5a5a6f",
"#C c #e6e6e4",
".m c #2a2a24",
"as c #d6caa4",
".W c #d69a04",
"#D c #bababc",
".u c #eeeeec",
"ak c #ca9614",
".o c #c2c2c4",
".Y c #f2ae04",
".h c #060604",
"#w c #f6f6f4",
"#a c #0a0604",
".4 c #f6ae04",
"#x c #cacacc",
".c c #0e0e0c",
".p c #fefefc",
".J c #dabe74",
".9 c #221a04",
"#7 c #9a6e04",
".S c #7c7ca6",
".T c #d2ba84",
"#c c #161614",
"ar c #c69e44",
"QtQtQtQtQtQtQtQtQtQtQtQtQtQtQtQtQtQtQtQtQtQtQtQtQtQtQtQtQtQtQtQt",
"QtQtQtQtQtQtQtQtQtQtQtQt.#.a.b.c.d.b.eQtQtQtQtQtQtQtQtQtQtQtQtQt",
"QtQtQtQtQtQtQtQtQtQtQt.f.g.g.g.g.g.g.h.iQtQtQtQtQtQtQtQtQtQtQtQt",
"QtQtQtQtQtQtQtQtQtQt.j.d.h.g.g.g.b.h.g.d.jQtQtQtQtQtQtQtQtQtQtQt",
"QtQtQtQtQtQtQtQtQtQt.k.l.m.n.o.p.q.r.d.h.sQtQtQtQtQtQtQtQtQtQtQt",
"QtQtQtQtQtQtQtQtQtQt.t.u.v.w.x.y.z.A.h.g.BQtQtQtQtQtQtQtQtQtQtQt",
"QtQtQtQtQtQtQtQtQt.C.D.E.F.G.g.v.H.f.c.g.IQtQtQtQtQtQtQtQtQtQtQt",
"QtQtQtQtQtQtQtQtQt.J.K.L.M.N.h.O.P.Q.R.g.cQtQtQtQtQtQtQtQtQtQtQt",
"QtQt.SQtQtQtQtQt.T.N.U.V.W.X.U.U.Y.Z.0.h.bQtQtQtQtQtQtQtQtQtQtQt",
"Qt.#.h.1QtQtQtQt.2.3.Y.4.4.U.U.X.5.g.g.g.iQtQtQtQtQtQtQtQt.n.6Qt",
"Qt.7.D.CQtQtQt.8.9#.##.3.Y.Z.K.O#a.g.g#b.c.n.n.1QtQtQtQt.#.g#cQt",
"#d.h.h.8#e#e.I#a.g.g.g.g#f#g#h#i.9.L#f#a.g.g.g#j#k#l#l#k.r.g.h#m",
".e.h.g.g.g.g.g.g.g.g.g.g.k.l#n#o.e.d.g.g.g.g.d.c.d.g.g#c.g.g.bQt",
"#k.D.7.h.g.g.g.g.h.h.g.m.x.p#p.p.u.B.b.g.g.g.g.g.g.g.g.g.g.g#qQt",
"QtQtQt#r.7.g.g.g.h.c.c#m#s.p#p#p.p.p#t#q.g.g.h.7.d.7.s#r#u#vQtQt",
"QtQtQtQtQt#d.s.h.g.h.v.y.p#p#p#w#w.p#p#x.b.g.mQtQtQtQtQtQtQtQtQt",
"QtQtQtQtQtQtQt.t.7.i#y.p.p.p.u#p.p.p.p#w.w.c.sQtQtQtQtQtQtQtQtQt",
"QtQtQtQtQtQtQt.t.f.x.p.p.p.p#w.u.p.p#p#p.x.8.BQtQtQtQtQtQtQtQtQt",
"QtQtQtQtQtQtQt.a#z#w.p.y#p#p#w.y#w.p.p.y#A.8.8#dQtQtQtQtQtQtQtQt",
"QtQtQtQtQtQtQt.I#m#p.p#w#B#B#C#B#C#w#w#p#B.n#j.#QtQtQtQtQtQtQtQt",
"QtQtQtQtQtQtQt#u#D#w.p.p.p.p#s.p.p#p.p.p#C#E.r.nQtQtQtQtQtQtQtQt",
"QtQtQtQtQtQtQt#k#x#y.y.y#s.p.p.p.p.p#B.y.u#z.b.nQtQtQtQtQtQtQtQt",
"QtQtQtQtQtQtQt#u.o#A#y#w.p.p.p.p#p#p.u.u.u#F.k#GQtQtQtQtQtQtQtQt",
"QtQtQtQtQtQtQt#G#l#H#H.y#s#p#p.p#p#p.u#A.H#z.I#kQtQtQtQtQtQtQtQt",
"QtQtQtQtQtQtQt.S.B#I#H.z.u#A.H.H.H#x#D#D#I.r.8#mQtQtQtQtQtQtQtQt",
"QtQtQtQtQtQtQt#o.a#e#D#H#D#J.x#H.o#I#t.q.e.c.a#oQtQtQtQtQtQtQtQt",
"QtQtQtQtQtQtQt#G.7.c.I.w#K#K#K#L#M#N.t.D#c.7#O#PQtQtQtQtQtQtQtQt",
"QtQtQtQtQt#Q#R#S#g.g.g.g.g.g.h.c.7.c.g.g.g#T#U#V#W#XQtQtQtQtQtQt",
"QtQtQtQt#Y#Z.3#0#1#2.W.5#3#4.L.9#5#6#7.M#1.N.U#8#8#9a.QtQtQtQtQt",
"QtQtQtQta#.U#8#8.U#9#8#9.U.3.K.V.4aa.U#9#9#8#8#8#9aaabQtQtQtQtQt",
"QtQtQtQtacaa#8#9.U#9#8.U.U.Nad.J.U#8#8#8#8#8#8#8#8.3aeQtQtQtQtQt",
"QtQtQtQtafacagahaiajakalamanQtQtQtao#V#Zap.U.NaqarasQtQtQtQtQtQt"};
