/* XPM */
static char*blocker4[]={
"32 32 147 2",
".t c #dadadc",
"#6 c #b68204",
"#t c #3a3ac7",
"#p c #1e1e1c",
"#k c #422e04",
"ac c #c6a64c",
"ak c #caa64c",
"ad c #feda7c",
"ae c #fec22c",
"#I c #e2e2e4",
".q c #262624",
".0 c #d69604",
"#w c #eaeaec",
".d c #2e2e2c",
"#T c #867244",
"#h c #6060b0",
".O c #eeaa04",
".h c #020204",
".u c #f2f2f4",
"#j c #363634",
".5 c #f2aa04",
".T c #060204",
"ao c #dea614",
".b c #0a0a0c",
"#v c #fafafc",
"#x c #3e3e3c",
".H c #1e1604",
"#. c #121214",
".F c #ba9a44",
".p c #464644",
".a c #1a1a1c",
".k c #4e4e4c",
"#Z c #f6be2c",
".l c #222224",
".e c #565654",
".U c #563e04",
"#4 c #ce9204",
".I c #2a2a2c",
".z c #5e5e5c",
"ah c #b28a24",
".7 c #eaa604",
".B c #323234",
".x c #666664",
"an c #eaae0c",
".Z c #eeae0c",
".J c #b995b7",
"#o c #161204",
".i c #3a3a3c",
"#l c #1a1204",
".w c #6e6e6c",
".G c #6e561c",
"#m c #1e1a0c",
".f c #424244",
"a# c #966e0c",
"#K c #4747a8",
"#W c #362604",
".r c #4a4a4c",
"#r c #7e7e7c",
"#S c #d6c294",
"#3 c #c68e04",
".# c #525254",
".A c #868684",
"#i c #5a5a5c",
"#D c #8e8e8c",
"## c #3939c1",
".E c #626264",
"#P c #969694",
"aa c #fab604",
"#R c #aaa28c",
"#8 c #feb604",
"#V c #120e04",
"#c c #8a6204",
"#C c #6a6a6c",
"#Y c #eeb214",
".9 c #9e9e9c",
".s c #727274",
".P c #a27604",
"#y c #a6a6a4",
"#a c #322204",
".L c #86661c",
"al c #dec284",
".8 c #967214",
"#s c #7a7a7c",
".m c #aeaeac",
"#0 c #f6d684",
".j c #828284",
"#L c #b6b6b4",
"#F c #5e5e6f",
"#U c #423214",
"#X c #c6920c",
".3 c #4646bd",
".M c #dab654",
"#Q c #362e24",
"#e c #664a04",
".V c #de9e04",
"#M c #bebebc",
"am c #eec24c",
"#H c #c6c6c4",
"aj c #c69624",
"a. c #f6ca54",
".Q c #825e04",
"#9 c #faca54",
"#n c #0e0a04",
".X c #fab204",
"#7 c #865e04",
".6 c #feb204",
"#O c #9a9a9c",
"#u c #cececc",
".K c #020202",
".C c #12120c",
"#d c #9e7204",
".N c #2a1e04",
".D c #d6d6d4",
"ab c #fabe24",
"#B c #aaaaac",
"Qt c None",
"ag c #daae3c",
"#A c #dededc",
".4 c #ba8604",
"#1 c #f2d284",
"#N c #b2b2b4",
"#J c #5a5a6f",
"#E c #e6e6e4",
"#q c #2a2a24",
"aq c #d6caa4",
"#5 c #d69a04",
"#G c #bababc",
".y c #eeeeec",
"ai c #ca9614",
".o c #c2c2c4",
".W c #f2ae04",
".g c #060604",
"#z c #f6f6f4",
"#b c #0a0604",
".Y c #f6ae04",
"#2 c #e6aa14",
".v c #cacacc",
"af c #fab60c",
".c c #0e0e0c",
".n c #fefefc",
".R c #dabe74",
"#f c #221a04",
".1 c #9a6e04",
".S c #7c7ca6",
".2 c #d2ba84",
"#g c #161614",
"ap c #c69e44",
"QtQtQtQtQtQtQtQtQtQtQtQtQtQtQtQtQtQtQtQtQtQtQtQtQtQtQtQtQtQtQtQt",
"QtQtQtQtQtQtQtQtQtQtQtQt.#.a.b.c.a.d.eQtQtQtQtQtQtQtQtQtQtQtQtQt",
"QtQtQtQtQtQtQtQtQtQtQt.f.g.h.h.h.h.h.h.iQtQtQtQtQtQtQtQtQtQtQtQt",
"QtQtQtQtQtQtQtQtQtQtQt.b.h.b.a.h.h.g.g.b.jQtQtQtQtQtQtQtQtQtQtQt",
"QtQtQtQtQtQtQtQtQtQt.k.g.g.l.m.n.o.p.q.j.qQtQtQtQtQtQtQtQtQtQtQt",
"QtQtQtQtQtQtQtQtQtQt.r.h.g.s.t.u.v.w.x.y.z.AQtQtQtQtQtQtQtQtQtQt",
"QtQtQtQtQtQtQtQtQtQt.B.h.C.i.D.E.h.F.G.H.I.JQtQtQtQtQtQtQtQtQtQt",
"QtQtQtQtQtQtQtQtQt.K.C.h.H.L.M.N.g.O.P.H.Q.RQtQtQtQtQtQtQtQtQtQt",
"QtQt.SQtQtQtQtQtQt.K.a.T.U.V.W.X.Y.Z.0.1.Y.O.2QtQtQtQtQtQtQtQtQt",
"Qt.e.g.3QtQtQtQtQtQt.f.h.h.h.4.5.6.Y.X.W.Y.7.8QtQtQtQtQtQt.p.9Qt",
"Qt#..I.JQtQtQt##.p.p.c#a.h.T#b.N#c.V.Y.7#d#e#f.AQtQtQtQt.e.h#gQt",
"#h.g.g.B#i.e#j.b.h.h.h.b#k#l#m#a#n#o#k.h.h.h.h.l.j.w.w.j#p.h.gQt",
".#.g.h.h.h.h.h.h.h.h.h.h#q#r#s.m.#.b.h.h.h.h.b.c.b.h.h#g.h.h.aQt",
"#t.I.C.g.h.h.h.h.g.g.h#q#u.n#v.n#w.r#g.h.h.h.h.h.h.h.h.h.h.h#xQt",
"QtQtQt###..h.h.h.g.c.c#y.n.n#v#v.n.n.m#x.h.h.g#..b#..k#s.x.sQtQt",
"QtQtQtQtQt#h.k.g.h.g.E.u.n#v#v#z#z.n#v.v.a.h#qQtQtQtQtQtQtQtQtQt",
"QtQtQtQtQtQtQt.z#..f#A.n.n.n.u#v.n.n.n#z.w.c.kQtQtQtQtQtQtQtQtQt",
"QtQtQtQtQtQtQt.z.i#u.n.n.n.n.u.y.n.n#v#v#u.B.rQtQtQtQtQtQtQtQtQt",
"QtQtQtQtQtQt#B.d#C#z#v.u#v#v#z#z#z.n.n.u#A.B.B#DQtQtQtQtQtQtQtQt",
"QtQtQtQtQtQtQt#j#y.n.n#z#w#w#E#E#E#z#z#v#w.p.l.eQtQtQtQtQtQtQtQt",
"QtQtQtQtQtQtQt#F#G#v.n.n.n.n.n.n.n#v.n.n#E.x#p.pQtQtQtQtQtQtQtQt",
"QtQtQtQtQtQtQt#t#H#A.u.u.n.n.n.n.n.n#w.u.y#C.a.pQtQtQtQtQtQtQtQt",
"QtQtQtQtQtQtQt#F.o#A#I#z.n.n.n.n#v#v.y.y.y#r.q.EQtQtQtQtQtQtQtQt",
"QtQtQtQtQtQtQt#J#K#H#H.y#v#v#v.n#v#v.y#A.t#C#j.jQtQtQtQtQtQtQtQt",
"QtQtQtQtQtQtQt.S.r#L.v.D.y#A.t.t.t.v#G#G#L#p.B#yQtQtQtQtQtQtQtQt",
"QtQtQtQtQtQtQt#B.d.e#L#H#G#M#u#H.o#L.m#N.#.c.d#BQtQtQtQtQtQtQtQt",
"QtQtQtQtQtQtQt#J#g.c#j.w#D#D#D#O#P.A.z.I#g#.#Q#RQtQtQtQtQtQtQtQt",
"QtQtQtQtQt#S#T#U#V.h.h.h.h.h.g.c#..c.h.h.h#W#X#Y#Z#0QtQtQtQtQtQt",
"QtQtQtQt#1#2.7.7#3#4#5#6#7.U#l#f#e#c.1.P#3.O.X#8#8.6#9QtQtQtQtQt",
"QtQtQtQta.#8#8#8.X#8.6.6.X.7.Qa#.Yaa.X.6.6#8#8#8.6aaabQtQtQtQtQt",
"QtQtQtQtab#8#8#8.X#8#8.6.X.Oac.R.X#8#8#8#8#8#8#8#8.7a.QtQtQtQtQt",
"QtQtQtQtadaeafagahahaiajakalQtQtQtam#Yan.Z.X.OaoapaqQtQtQtQtQtQt"};
