/* XPM */
static char*blocker6[]={
"32 32 142 2",
".n c #dadadc",
"#T c #b68204",
"#k c #1e1e1c",
"#b c #422e04",
"#7 c #c6a64c",
"ae c #caa64c",
"a. c #feda7c",
"a# c #fec22c",
".B c #e2e2e4",
".l c #262624",
".5 c #d69604",
"#v c #eaeaec",
".a c #2e2e2c",
"#I c #867244",
".4 c #eeaa04",
".g c #020204",
".s c #f2f2f4",
".X c #7a5604",
".T c #060204",
".C c #363634",
"aj c #dea614",
".d c #0a0a0c",
".t c #fafafc",
"#p c #3e3e3c",
"#d c #221604",
"aa c #faba14",
".0 c #121214",
".Y c #464644",
".b c #1a1a1c",
".r c #4e4e4c",
".M c #a27a14",
"#N c #f6be2c",
"#i c #222224",
".6 c #ca9204",
".# c #565654",
".9 c #563e04",
".3 c #ce9204",
".1 c #2a2a2c",
".o c #5e5e5c",
"ac c #b28a24",
".Q c #eaa604",
"#. c #323234",
".K c #423e2c",
".A c #666664",
"ah c #eaae0c",
"ai c #eeae0c",
"#1 c #f6c65c",
".2 c #b995b7",
"#c c #161204",
".f c #3a3a3c",
".H c #8e6604",
"#j c #6e6e6c",
".I c #1a1204",
".i c #424244",
"#4 c #966e0c",
".O c #aa7a04",
"#e c #362604",
".m c #4a4a4c",
".j c #7e7e7c",
"#H c #d6c294",
"#S c #c68e04",
".e c #525254",
".D c #868684",
"## c #5a5a5c",
".u c #8e8e8c",
"#R c #e6a204",
"#w c #626264",
".L c #969694",
"#2 c #fab604",
"#G c #aaa28c",
"#K c #120e04",
".V c #feb604",
"#X c #8a6204",
"#z c #6a6a6c",
"#M c #eeb214",
".Z c #9e9e9c",
"#r c #727274",
"#Z c #a27604",
"#t c #a6a6a4",
".F c #1e1e14",
"af c #dec284",
".x c #7a7a7c",
"#l c #aeaeac",
".J c #2a261c",
"#g c #4e3604",
"#O c #f6d684",
".E c #828284",
"#B c #b6b6b4",
"#J c #423214",
"#L c #c6920c",
".z c #362e24",
"#W c #664a04",
".7 c #de9e04",
".y c #bebebc",
"ag c #eec24c",
"#y c #c6c6c4",
"ad c #c69624",
"#9 c #f6ca54",
"#3 c #825e04",
"#0 c #faca54",
"#h c #0e0a04",
".U c #fab204",
"#x c #fefaf4",
"#U c #865e04",
".W c #feb204",
"#F c #9a9a9c",
"#m c #cececc",
".R c #9e7204",
".S c #2a1e04",
"#C c #d6d6d4",
"#a c #2e1e04",
"#6 c #fabe24",
"#q c #aaaaac",
"Qt c None",
"ab c #daae3c",
".v c #dededc",
"#f c #4a3204",
"#P c #f2d284",
"#E c #b2b2b4",
"#u c #e6e6e4",
".p c #2a2a24",
"al c #d6caa4",
".8 c #d69a04",
".P c #da9a04",
"#D c #bababc",
"#o c #eeeeec",
".N c #ca9614",
"#A c #c2c2c4",
".h c #060604",
".w c #f6f6f4",
"#5 c #f6ae04",
".G c #5e4a1c",
"#Q c #e6aa14",
"#s c #cacacc",
".c c #0e0e0c",
"#n c #fefefc",
"#8 c #dabe74",
"#V c #221a04",
"#Y c #9a6e04",
".q c #d2d2d4",
".k c #161614",
"ak c #c69e44",
"QtQtQtQtQtQtQtQtQtQtQtQtQtQtQtQtQtQtQtQtQtQtQtQtQtQtQtQtQtQtQtQt",
"QtQtQtQtQtQtQtQtQtQtQtQt.#.a.b.c.d.b.eQtQtQtQtQtQtQtQtQtQtQtQtQt",
"QtQtQtQtQtQtQtQtQtQtQt.f.g.g.g.g.g.g.h.iQtQtQtQtQtQtQtQtQtQtQtQt",
"QtQtQtQtQtQtQtQtQtQt.j.d.d.d.g.g.k.k.g.d.jQtQtQtQtQtQtQtQtQtQtQt",
"QtQtQtQtQtQtQtQtQtQt.l.d.m.n.o.p.q.n.a.h.rQtQtQtQtQtQtQtQtQtQtQt",
"QtQtQtQtQtQtQtQtQtQt.g.f.s.t.u.#.v.t.w.g.mQtQtQtQtQtQtQtQtQtQtQt",
"QtQtQtQtQtQtQtQtQtQt.d.x.y.h.g.z.g.A.B.g.CQtQtQtQtQtQtQtQtQtQtQt",
"QtQtQtQtQtQtQtQtQtQt.d.D.E.F.G.H.I.J.K.g.pQtQtQtQtQtQtQtQtQtQtQt",
"QtQt.LQtQtQtQtQtQtQt.c.M.N.O.P.Q.R.R.O.S.bQtQtQtQtQtQtQtQtQtQtQt",
"Qt.#.h.DQtQtQtQtQtQt.T.U.V.W.U.U.U.W.V.X.iQtQtQtQtQtQtQtQt.Y.ZQt",
"Qt.0.1.2QtQtQt.x.o.p.T.3.4.5.6.7.8.Q.4.9.p.Y.Y.DQtQtQtQt.#.g.kQt",
".u.h.h#.####.C.h.g.g.g#a#b#c#d#e#e#f#g#h.g.g.g#i.E#j#j.E#k.g.hQt",
".e.h.g.g.g.g.g.g.g.g.g.g.l.j.j#l.e.d.g.g.g.g.d.c.d.g.g.k.g.g.bQt",
".E.1.0.h.g.g.g.g.h.h.g.p#m#n.w#n#o.m.k.g.g.g.g.g.g.g.g.g.g.g#pQt",
"QtQtQt.x.0.g.g.g.h.c.0#q#n#n.t.w#n#n#l#p.g.g.h.0.d.0.r.x.A#rQtQt",
"QtQtQtQtQt.u.r.h.g.h.o#o#n#n.t.t.w#n.t#s.b.g.p.Z#tQtQtQtQtQtQtQt",
"QtQtQtQtQtQtQt.o.0.Y.B#n#n#n#o.t#n#n#n.w#j.c.rQtQtQtQtQtQtQtQtQt",
"QtQtQtQtQtQtQt.o.f#m#n#n#n#n.s#o#n#n.t.t#m#..mQtQtQtQtQtQtQtQtQt",
"QtQtQtQtQtQtQt.a.A.w.t#o.w.t.w.w.w#n#n.s.v#.#..uQtQtQtQtQtQtQtQt",
"QtQtQtQtQtQtQt.C#q.t#n.w#o#o#u#u#u.w.w.t#v.Y#i.#QtQtQtQtQtQtQtQt",
"QtQtQtQtQtQtQt#w.y.t#n#x.t#n#n#n#n.t#n#n#u.A#k.YQtQtQtQtQtQtQtQt",
"QtQtQtQtQtQtQt.E#y.v.s.w#n#n#n#n#n#n#v.s#o#z.b.YQtQtQtQtQtQtQtQt",
"QtQtQtQtQtQtQt.A#A.v.B.w#n#n#n#n.t.t#o#o#o.j.l#wQtQtQtQtQtQtQtQt",
"QtQtQtQtQtQtQt#w#r#y#y#o.t.t.t#n.t.t#o.v.n#z.C.EQtQtQtQtQtQtQtQt",
"QtQtQtQtQtQtQt.L.r#B#s#C#o.v.n.n.n#s#D#D#B#k#.#tQtQtQtQtQtQtQtQt",
"QtQtQtQtQtQtQt#q.1.##B#y#D.y#m#y#A#B#l#E.e.c.a#qQtQtQtQtQtQtQtQt",
"QtQtQtQtQtQtQt#w.k.c.C#j.u.u.u#F.L.D.o.1.k.0.z#GQtQtQtQtQtQtQtQt",
"QtQtQtQtQt#H#I#J#K.g.g.g.g.g.h.c.0.c.g.g.g#e#L#M#N#OQtQtQtQtQtQt",
"QtQtQtQt#P#Q.4#R#S.3.8#T#U.9.I#V#W#X#Y#Z#S.4.U.V.V.W#0QtQtQtQtQt",
"QtQtQtQt#1#2.V.V#2.V.W.W.U.Q#3#4#5#2.U.W.W.V.V.V.W#2#6QtQtQtQtQt",
"QtQtQtQt#6.W.V.W.U.V.V.W.U.4#7#8.U.V.V.V.V.V.V.V.V.Q#9QtQtQtQtQt",
"QtQtQtQta.a#aaabacac.NadaeafQtQtQtag#Mahai.U.4ajakalQtQtQtQtQtQt"};
