/* XPM */
static char*bomber10[]={
"32 32 83 2",
".1 c #ffefbd",
".w c #424242",
"#l c #e78c4a",
".E c #de6b00",
".Q c #9c6b4a",
".k c #4a4a4a",
".y c #c6c6c6",
".d c #525252",
".f c #cecece",
".x c #5a5a5a",
"#a c #ff7b10",
"#b c #ced6d6",
".U c #c6b58c",
".W c #ff9c00",
".B c #180800",
".2 c #d6d6d6",
"#f c #ffc639",
"#g c #ef8421",
".L c #ff8410",
".g c #dedede",
".X c #ffa500",
"#m c #5a4210",
".9 c #ff8c18",
"#e c #ffb57b",
"#p c #ef9c39",
".F c #ff9431",
".O c #ffde84",
".A c #212121",
".G c #d6ad63",
".0 c #ff7b00",
".m c #292929",
".v c #a5a5a5",
".R c #ffa54a",
"#q c #313131",
".z c #adadad",
"#d c #ffad63",
".l c #393939",
"#i c #9c7321",
".i c #b5b5b5",
".8 c #ffb500",
".M c #ff9c18",
".u c #bdbdbd",
".Y c #735a29",
".Z c #ffb539",
".s c #000000",
".D c #080000",
".o c #fffff7",
".3 c #ceced6",
".t c #080808",
".4 c #ff9400",
".H c #523918",
".a c #848484",
".r c #101010",
"#n c #948c7b",
".# c #8c8c8c",
"#j c #181818",
".e c #949494",
".T c #de9c63",
".b c #9c9c9c",
"#k c #945200",
".V c #ff7300",
"#o c #211000",
".N c #ffce4a",
".I c #291000",
".7 c #f78c21",
"## c #ffad00",
".K c #d65a08",
".q c #636363",
"Qt c None",
".J c #6b6b6b",
".h c #e7e7e7",
".j c #737373",
"#c c #e7ce94",
".6 c #decea5",
"#. c #ffc67b",
".n c #efefef",
".c c #7b7b7b",
".5 c #e7d6ad",
".p c #f7f7f7",
".S c #f78c00",
".C c #423118",
".P c #ad8c4a",
"#h c #8c8c94",
"QtQtQtQtQtQtQtQtQtQtQtQtQtQtQtQtQtQtQtQtQtQtQtQtQtQtQtQtQtQtQtQt",
"QtQtQtQtQtQtQtQtQtQtQtQtQtQtQtQtQtQtQtQtQtQtQtQtQtQtQtQtQtQtQtQt",
"QtQtQtQtQtQtQtQtQtQtQtQtQtQtQtQtQtQtQtQtQtQtQtQtQtQtQtQtQtQtQtQt",
"QtQtQtQtQtQtQtQtQtQtQtQtQtQtQtQtQtQtQtQtQtQtQtQtQtQtQtQtQtQtQtQt",
"QtQtQtQtQtQtQtQtQtQtQtQtQtQtQtQtQtQtQtQtQtQtQtQtQtQtQtQtQtQtQtQt",
"QtQtQtQtQtQtQtQtQtQtQtQtQtQtQtQtQtQtQtQtQtQtQtQtQtQtQtQtQtQtQtQt",
"QtQtQtQtQtQtQtQtQtQtQtQt.#.#.a.b.b.#QtQtQtQtQtQtQtQtQtQtQtQtQtQt",
"QtQtQtQtQtQtQtQtQtQt.c.d.e.f.g.h.i.j.k.l.j.#QtQtQtQtQtQtQtQtQtQt",
"QtQtQtQtQtQtQtQtQt.m.k.n.o.o.o.o.p.g.i.q.r.s.m.#QtQtQtQtQtQtQtQt",
"QtQtQtQtQtQtQt.#.t.m.h.o.o.o.o.o.h.f.u.v.w.t.s.s.x.#QtQtQtQtQtQt",
"QtQtQtQtQtQt.q.s.s.v.o.o.o.o.o.o.n.y.z.z.c.A.s.B.C.D.t.xQtQtQtQt",
"QtQtQtQt.v.m.s.s.w.o.o.o.o.o.o.o.h.f.z.z.v.l.C.E.F.G.H.s.xQtQtQt",
"QtQtQt.x.s.s.I.I.a.o.o.o.o.o.o.p.g.u.z.z.i.J.K.L.M.N.O.PQtQtQtQt",
"QtQt.k.s.B.Q.R.S.T.o.o.o.p.p.n.g.y.i.v.z.y.U.V.L.W.X.N.O.OQtQtQt",
"QtQt.m.Y.G.O.Z.L.0.1.p.n.h.g.2.y.u.z.v.i.3.T.0.X.X.4.4.N.NQtQtQt",
"QtQt.5.O.O.Z.W.W.V.R.p.g.f.y.u.i.z.z.z.u.6.7.X.8.8.Z.9.L.ZQtQtQt",
"QtQt#.#..M.4.X##.W#a.5#b.i.i.i.i.i.i.i.3#c.S####.8#..Z.MQtQtQtQt",
"QtQtQt.M.S.M.8####.S#d.g.u.z.i.i.i.u.f.g#e.S.X.8.N.O.PQtQtQtQtQt",
"QtQtQtQt.M#.#f.8.8.W#g.v.y.y.y.y.y.u.u#h.Y.0.M.N.N#i#jQtQtQtQtQt",
"QtQtQtQtQt.N#..Z##.W.E#j.l.J.a.a.j.x.l.r.D#k.7#l#m.s.kQtQtQtQtQt",
"QtQtQtQtQt#n.G.N.Z.4.K.s.s.s.t.r.r.t.s.s.s.D#o.s.s.s.#QtQtQtQtQt",
"QtQtQtQtQtQt#o#i#p.E.C.s.s.s.s.s.s.s.s.s.s.s.s.s.s.rQtQtQtQtQtQt",
"QtQtQtQtQtQt.x.s.B.B.s.s.s.s.s.s.s.s.s.s.s.s.s.s.s.#QtQtQtQtQtQt",
"QtQtQtQtQtQtQt.l.s.s.s.s.s.s.s.s.s.s.s.s.s.s.s.s.cQtQtQtQtQtQtQt",
"QtQtQtQtQtQtQtQt.x.s.s.s.s.s.s.s.s.s.s.s.s.s.AQtQtQtQtQtQtQtQtQt",
"QtQtQtQtQtQtQtQtQt.#.l.s.s.s.s.s.s.s.s.s.t.JQtQtQtQtQtQtQtQtQtQt",
"QtQtQtQtQtQtQtQtQtQtQt.#.k.r.s.s.s.s.s.wQtQtQtQtQtQtQtQtQtQtQtQt",
"QtQtQtQtQtQtQtQtQtQtQtQtQtQt.J.s.s#qQtQtQtQtQtQtQtQtQtQtQtQtQtQt",
"QtQtQtQtQtQtQtQtQtQtQtQtQtQtQtQtQtQtQtQtQtQtQtQtQtQtQtQtQtQtQtQt",
"QtQtQtQtQtQtQtQtQtQtQtQtQtQtQtQtQtQtQtQtQtQtQtQtQtQtQtQtQtQtQtQt",
"QtQtQtQtQtQtQtQtQtQtQtQtQtQtQtQtQtQtQtQtQtQtQtQtQtQtQtQtQtQtQtQt",
"QtQtQtQtQtQtQtQtQtQtQtQtQtQtQtQtQtQtQtQtQtQtQtQtQtQtQtQtQtQtQtQt"};
