/* XPM */
static char*bomber15[]={
"32 32 11 1",
"e c #c6c6c6",
"i c #cecece",
"a c #d6d6d6",
"c c #dedede",
"# c #a5a5a5",
"h c #bdbdbd",
"b c #9c9c9c",
". c None",
"f c #e7e7e7",
"g c #efefef",
"d c #f7f7f7",
"................................",
"...............#................",
"..........a....b......c.........",
"..........#..........de.........",
"................................",
"................................",
".....a....................bd....",
"......c.........................",
"................................",
"................................",
"..c..........................a..",
"...f..........................d.",
"................................",
"................................",
"................................",
".g............................eh",
".#g.............................",
"................................",
"................................",
"................................",
"................................",
"...dc........................h..",
"..............................d.",
"................................",
"..........................f.....",
"..........................#f....",
"................................",
".....c...............d..........",
"..........h...........i.........",
"..........i.....................",
"................#...............",
"................c..............."};
