/* XPM */
static char*bomber4[]={
"32 32 81 2",
".x c #ffefbd",
".m c #424242",
".v c #de6b00",
".r c #9c6b4a",
".9 c #ff8c39",
".n c #4a4a4a",
".h c #c6c6c6",
"#b c #e79c00",
".Y c #525252",
".D c #ff7308",
".V c #cecece",
".X c #5a5a5a",
".N c #ff7b10",
"#k c #c6b58c",
".S c #d6d6d6",
".u c #ef8421",
".T c #dedede",
"#e c #ffa500",
".8 c #5a4210",
".3 c #181821",
"#n c #ffb57b",
"#o c #ff9431",
".z c #ffde84",
".a c #212121",
".7 c #73737b",
".A c #d6ad63",
".C c #ff7b00",
".p c #292929",
".g c #a5a5a5",
"#g c #ffa54a",
".L c #ff6310",
".i c #313131",
".W c #adadad",
"#h c #ffad63",
".2 c #393939",
"#d c #9c7321",
".Z c #b5b5b5",
"#f c #ffb500",
"#i c #ff9c18",
".I c #6b4a08",
".U c #bdbdbd",
"#c c #735a29",
"#j c #ffb539",
".b c #000000",
".M c #ff6b08",
".P c #080000",
".G c #ffd6a5",
".s c #fffff7",
".4 c #ceced6",
".f c #080808",
"## c #ff9400",
".q c #523918",
".l c #848484",
"#m c #ff7b29",
".c c #101010",
".1 c #8c8c8c",
".y c #ffe7ad",
".e c #181818",
".j c #949494",
".t c #9c9c9c",
".B c #945200",
"#l c #ff4a08",
"#. c #ff7300",
".H c #ffce4a",
".J c #5a4208",
".w c #f78c21",
"#a c #ffad00",
".K c #d65a08",
".# c #636363",
"Qt c None",
".Q c #6b6b6b",
".k c #e7e7e7",
".d c #737373",
".F c #ffc67b",
".o c #efefef",
".R c #7b7b7b",
".E c #ffa542",
".0 c #f7f7f7",
".6 c #423118",
".O c #ad8c4a",
".5 c #7b4a00",
"QtQtQtQtQtQtQtQtQtQtQtQtQtQtQtQtQtQtQtQtQtQtQtQtQtQtQtQtQtQtQtQt",
"QtQtQtQtQtQtQtQtQtQtQtQtQtQtQtQtQtQtQtQtQtQtQtQtQtQtQtQtQtQtQtQt",
"QtQtQtQtQtQtQtQtQtQtQtQtQtQtQtQtQtQtQtQtQtQtQtQtQtQtQtQtQtQtQtQt",
"QtQtQtQtQtQtQtQtQtQtQtQtQtQtQtQtQtQtQtQtQtQtQtQtQtQtQtQtQtQtQtQt",
"QtQtQtQtQtQtQtQtQtQtQtQtQtQtQtQtQtQtQtQtQtQtQtQtQtQtQtQtQtQtQtQt",
"QtQtQtQtQtQtQtQtQtQtQtQtQtQtQtQtQtQtQtQtQtQtQtQtQtQtQtQtQtQtQtQt",
"QtQtQtQtQtQtQtQtQtQtQtQt.#.a.b.b.b.c.dQtQtQtQtQtQtQtQtQtQtQtQtQt",
"QtQtQtQtQtQtQtQtQtQtQt.e.b.c.b.b.f.c.b.#QtQtQtQtQtQtQtQtQtQtQtQt",
"QtQtQtQtQtQtQtQtQtQt.#.e.g.h.i.b.j.k.l.fQtQtQtQtQtQtQtQtQtQtQtQt",
"QtQtQtQtQtQtQtQtQtQt.m.n.o.p.q.r.m.l.s.p.tQtQtQtQtQtQtQtQtQtQtQt",
"QtQtQtQtQtQtQtQtQtQt.p.q.u.v.w.x.y.z.A.c.nQtQtQtQtQtQtQtQtQtQtQt",
"QtQtQtQtQtQtQtQt.l.f.B.C.D.E.F.G.G.z.H.I.b.c.jQtQtQtQtQtQtQtQtQt",
"QtQtQtQtQtQtQt.i.b.b.J.K.v.L.M.v.N.u.O.q.b.b.b.nQtQtQtQtQtQtQtQt",
"QtQtQtQtQtQt.p.b.b.b.b.P.P.P.P.P.P.P.b.b.b.b.b.b.pQtQtQtQtQtQtQt",
"QtQtQtQtQt.a.b.b.b.b.b.b.b.b.b.b.b.b.b.b.b.b.b.b.b.mQtQtQtQtQtQt",
"QtQtQtQt.m.b.b.b.b.b.b.b.b.b.c.i.i.e.f.b.b.b.b.b.b.b.QQtQtQtQtQt",
"QtQtQt.R.b.b.b.b.b.b.b.b.c.d.S.T.U.l.n.c.b.b.b.b.b.b.bQtQtQtQtQt",
"QtQtQt.b.b.b.b.b.b.b.b.n.T.s.s.k.V.h.W.X.e.b.b.b.b.b.b.nQtQtQtQt",
"QtQt.Q.b.R.p.b.b.b.b.Y.s.s.s.s.o.S.U.h.Z.X.f.b.b.b.f.c.cQtQtQtQt",
"QtQtQtQtQt.c.b.b.b.e.T.s.s.s.s.0.k.V.U.h.W.i.b.b.b.eQt.iQtQtQtQt",
"QtQtQtQt.t.b.b.b.b.#.s.s.s.s.s.s.0.T.h.U.h.Q.b.b.b.b.lQtQtQtQtQt",
"QtQtQtQt.1.b.b.b.b.W.s.s.s.s.s.s.s.o.V.U.h.j.c.b.b.b.iQtQtQtQtQt",
"QtQtQtQt.j.b.b.b.b.V.s.s.s.s.s.s.s.0.S.U.h.t.p.b.b.b.aQtQtQtQtQt",
"QtQtQtQtQt.b.b.b.c.S.s.s.s.s.s.s.s.0.k.h.h.W.2.b.b.b.2QtQtQtQtQt",
"QtQtQtQtQt.e.b.b.f.V.s.s.s.s.s.s.s.0.k.V.U.U.Y.b.b.b.nQtQtQtQtQt",
"QtQtQtQtQt.n.b.b.b.U.s.s.s.s.s.s.s.0.S.U.h.Z.n.f.b.b.RQtQtQtQtQt",
"QtQtQtQtQtQt.b.b.b.l.s.s.s.0.0.0.o.T.h.U.h.g.i.b.b.bQtQtQtQtQtQt",
"QtQtQtQtQtQt.#.b.b.c.h.s.o.T.S.S.V.h.U.h.U.Q.c.b.b.#QtQtQtQtQtQt",
"QtQtQtQtQtQtQt.i.b.b.3.W.T.4.h.h.h.U.U.t.X.c.b.b.#QtQtQtQtQtQtQt",
"QtQtQtQtQtQtQtQt.r.5.5.6.n.7.l.l.l.R.Q.n.8.J.q.rQtQtQtQtQtQtQtQt",
"QtQtQtQtQtQtQt.9#.###a#a#b#c.a.e.3.6#d.v###e#a#fQtQtQtQtQtQtQtQt",
"QtQtQtQtQtQt#g.L#h.E.E.E#i#jQtQtQt#k#l#m#h#n#n#o##QtQtQtQtQtQtQt"};
