/* XPM */
static char*bomber13[]={
"32 32 66 2",
".9 c #424242",
".3 c #844a00",
".P c #de6b00",
"## c #4a4a4a",
".r c #c6c6c6",
".0 c #e79c00",
".e c #525252",
".A c #cecece",
".f c #5a5a5a",
".C c #ff7b10",
".R c #ff9c00",
".7 c #180800",
".o c #d6d6d6",
".w c #ff8410",
".p c #dedede",
".D c #ffa500",
".i c #ff8c18",
".B c #ffb57b",
".a c #ff9431",
".L c #212121",
".E c #d6ad63",
".j c #ff7b00",
"#. c #292929",
".g c #a5a5a5",
".k c #ffa54a",
".5 c #313131",
".s c #adadad",
".V c #393939",
".t c #9c7321",
".G c #b5b5b5",
".v c #ff9c18",
".b c #bdbdbd",
".H c #735a29",
".M c #000000",
".# c #ffb539",
".N c #080000",
".z c #fffff7",
".X c #080808",
".Q c #ff9400",
".m c #848484",
".1 c #101010",
".c c #8c8c8c",
".W c #181818",
".T c #949494",
".K c #9c9c9c",
".Z c #945200",
".x c #ff7300",
".6 c #211000",
".l c #ffce4a",
".Y c #291000",
".O c #5a4208",
".4 c #ffad00",
".I c #d65a08",
".d c #636363",
"Qt c None",
".U c #6b6b6b",
".q c #e7e7e7",
".8 c #737373",
".h c #ffc67b",
".F c #efefef",
".n c #7b7b7b",
".S c #e7d6ad",
".J c #ffa542",
".y c #f7f7f7",
".u c #f78c00",
".2 c #7b4a00",
"QtQtQtQtQtQtQtQtQtQtQtQtQtQtQtQtQtQtQtQtQtQtQtQtQtQtQtQtQtQtQtQt",
"QtQtQtQtQtQtQtQtQtQtQtQtQtQtQtQtQtQtQtQtQtQtQtQtQtQtQtQtQtQtQtQt",
"QtQtQtQtQtQtQtQtQtQtQtQtQtQtQtQtQtQtQtQtQtQtQtQtQtQtQtQtQtQtQtQt",
"QtQtQtQtQtQtQtQtQtQtQtQtQtQtQtQtQtQtQtQtQtQtQtQt.#.a.#QtQtQtQtQt",
"QtQtQtQtQtQtQtQtQtQtQtQt.b.c.d.e.f.e.d.gQtQt.h.i.j.a.k.lQtQtQtQt",
"QtQtQtQtQtQtQtQtQtQt.m.f.n.o.p.q.p.r.s.t.u.v.a.w.x.j.a.l.lQtQtQt",
"QtQtQtQtQtQtQtQt.m.f.b.y.z.z.y.q.A.r.A.B.C.i.k.B.a.i.i.#.#QtQtQt",
"QtQtQtQtQtQtQt.D.E.z.z.z.F.p.A.r.G.G.g.n.H.I.w.J.k.#.v.v.l.#QtQt",
"QtQtQtQtQtQt.w.J.#.h.z.z.F.o.r.s.K.n.e.L.M.N.O.P.j.Q.R.D.#.#QtQt",
"QtQtQtQtQt.i.x.w.k.#.l.S.K.T.n.U.e.V.W.X.M.M.M.Y.Z.P.j.u.Q.RQtQt",
"QtQtQtQt.v.u.x.j.R.#.#.0.L.W.L.L.W.1.X.M.M.M.M.M.M.Y.O.2.3QtQtQt",
"QtQtQt.a.#.a.i.i.R.D.#.#.Z.M.X.M.M.M.M.M.M.M.M.M.M.M.M.M.WQtQtQt",
"QtQtQt.i.J.#.v.v.v.4.v.#.P.M.M.M.M.M.M.M.M.M.M.M.M.M.M.M.XQtQtQt",
"QtQtQtQt.w.Q.R.D.D.D.D.4.I.X.M.M.M.M.M.M.M.M.M.M.M.M.M.M.MQtQtQt",
"QtQtQtQtQt.Z.P.P.u.u.u.P.Y.M.M.M.M.M.M.M.M.M.M.M.M.M.M.M.MQtQtQt",
"QtQtQtQtQt.5.M.N.6.O.2.7.M.M.M.M.M.M.M.M.M.M.M.M.M.M.M.M.MQtQtQt",
"QtQtQtQtQt.1.M.M.M.M.M.M.M.M.M.M.M.M.M.M.M.M.M.M.M.M.M.M.MQtQtQt",
"QtQtQtQtQt.X.M.M.M.M.M.M.M.M.M.M.M.M.M.M.M.M.M.M.M.M.M.M.MQtQtQt",
"QtQtQtQtQt.M.M.M.M.M.M.M.M.M.M.M.M.M.M.M.M.M.M.M.M.M.M.M.MQtQtQt",
"QtQtQtQtQt.W.M.M.M.M.M.M.M.M.M.M.M.M.M.M.M.M.M.M.M.M.M.M.XQtQtQt",
"QtQtQtQt.8.V.M.M.M.M.M.M.M.M.M.M.M.M.M.M.M.M.M.M.M.M.M.M.9QtQtQt",
"QtQtQtQt.W.1.M.M.M.M.M.M.M.M.M.M.M.M.M.M.M.M.M.M.M.M.M.MQtQtQtQt",
"QtQtQtQt.8.M.M.M.M.M.M.M.M.M.M.M.M.M.M.M.M.M.M.M.M.M.M.eQtQtQtQt",
"QtQtQtQtQt.V.M.M.M.M.M.M.M.M.M.M.M.M.M.M.M.M.M.M.M.M.9QtQtQtQtQt",
"QtQtQtQtQtQt.d.M.M.M.M.M.M.M.M.M.M.M.M.M.M.M.M.M.M.9QtQtQtQtQtQt",
"QtQtQtQtQtQtQtQt.n.V.1.M.M.M.M.M.M.M.M.M.M.M.M.M.M.8QtQtQtQtQtQt",
"QtQtQtQtQtQtQtQtQtQtQt.8#..M.M.M.M.M.M.M.M.M.M.M.MQtQtQtQtQtQtQt",
"QtQtQtQtQtQtQtQtQtQtQtQtQtQt.T.e.L.M.M.M.M.M.M.M.LQtQtQtQtQtQtQt",
"QtQtQtQtQtQtQtQtQtQtQtQtQtQtQtQtQt##.M.M.M.M.M.VQtQtQtQtQtQtQtQt",
"QtQtQtQtQtQtQtQtQtQtQtQtQtQtQtQtQtQtQtQtQtQtQtQtQtQtQtQtQtQtQtQt",
"QtQtQtQtQtQtQtQtQtQtQtQtQtQtQtQtQtQtQtQtQtQtQtQtQtQtQtQtQtQtQtQt",
"QtQtQtQtQtQtQtQtQtQtQtQtQtQtQtQtQtQtQtQtQtQtQtQtQtQtQtQtQtQtQtQt"};
