/* XPM */
static char*bomber14[]={
"32 32 14 1",
"b c #c6c6c6",
"g c #cecece",
"l c #d6d6d6",
"c c #dedede",
"a c #a5a5a5",
"h c #adadad",
"# c #b5b5b5",
"d c #bdbdbd",
"j c #949494",
"f c #9c9c9c",
". c None",
"e c #e7e7e7",
"i c #efefef",
"k c #f7f7f7",
"................................",
"................................",
"................................",
"................................",
"................................",
"...............#................",
"...............a..bb............",
"...........b......a.............",
"............c.........de........",
"........f#...........gg.........",
".........#b.....................",
"........................h#......",
".......i........................",
"........d.......................",
"................................",
".....gbe.................gag....",
"................................",
"................................",
"........................gf......",
".......#j.......................",
"......k................l........",
".........#.............a........",
"........ba......................",
"...................e#...........",
"............a.......g...........",
"............i...b...............",
"................a...............",
"................g...............",
"................................",
"................................",
"................................",
"................................"};
