/* XPM */
static char*bomber9[]={
"32 32 79 2",
".X c #ffefbd",
".r c #424242",
".Y c #e78c4a",
".B c #9c6b4a",
".9 c #ff8c39",
".f c #4a4a4a",
".k c #c6c6c6",
".a c #525252",
".T c #ff7308",
".S c #cecece",
"#g c #ced6d6",
".2 c #c6b58c",
".V c #ff9c00",
".A c #180800",
".t c #d6d6d6",
".3 c #ef8421",
".Z c #ff8410",
".z c #dedede",
".W c #ffa500",
".P c #5a4210",
".0 c #ff8c18",
".L c #ef9c39",
"#f c #e7e7de",
".Q c #ffde84",
".c c #212121",
".N c #d6ad63",
".7 c #ff7b00",
".b c #292929",
".u c #a5a5a5",
".w c #313131",
".J c #adadad",
"#i c #9c7321",
".x c #b5b5b5",
"## c #ffb500",
"#c c #ff7331",
".M c #ff9c18",
"#a c #d6ad9c",
".D c #6b4a08",
".v c #bdbdbd",
"#e c #844200",
".I c #fff7de",
".R c #ffb539",
".h c #000000",
".5 c #ff6b08",
".o c #fffff7",
".8 c #ceced6",
".i c #080808",
".U c #ff9400",
".g c #848484",
".e c #101010",
"#h c #8c8c8c",
".d c #181818",
".# c #949494",
".j c #9c9c9c",
"#m c #945200",
"#. c #ff4a08",
".6 c #ff7300",
"#d c #d6d6ce",
".E c #211000",
".H c #ffce4a",
"#l c #291000",
"#k c #5a4208",
".4 c #ffad00",
"#j c #d65a08",
".m c #636363",
"Qt c None",
".y c #6b6b6b",
".q c #e7e7e7",
".s c #737373",
".G c #ffc67b",
".n c #efefef",
".l c #7b7b7b",
".K c #e7d6ad",
"#b c #ffa542",
".p c #f7f7f7",
".1 c #f78c00",
".O c #423118",
".F c #ad8c4a",
".C c #7b4a00",
"QtQtQtQtQtQtQtQtQtQtQtQtQtQtQtQtQtQtQtQtQtQtQtQtQtQtQtQtQtQtQtQt",
"QtQtQtQtQtQtQtQtQtQtQtQtQtQtQtQtQtQtQtQtQtQtQtQtQtQtQtQtQtQtQtQt",
"QtQtQtQtQtQtQtQtQtQtQtQtQtQtQtQtQtQtQtQtQtQtQtQtQtQtQtQtQtQtQtQt",
"QtQtQtQtQtQtQtQtQtQtQtQtQtQtQtQtQtQtQtQtQtQtQtQtQtQtQtQtQtQtQtQt",
"QtQtQtQtQtQtQtQtQtQtQtQtQtQtQtQtQtQtQtQtQtQtQtQtQtQtQtQtQtQtQtQt",
"QtQtQtQtQtQtQtQtQtQtQtQtQtQtQtQtQtQtQtQtQtQtQtQtQtQtQtQtQtQtQtQt",
"QtQtQtQtQtQtQtQtQtQtQtQtQtQtQtQtQtQtQtQtQtQtQtQtQtQtQtQtQtQtQtQt",
"QtQtQtQtQtQtQtQtQtQt.#.a.b.b.c.d.e.c.d.b.f.#QtQtQtQtQtQtQtQtQtQt",
"QtQtQtQtQtQtQt.g.b.h.h.h.h.h.h.i.e.i.h.h.h.h.i.aQtQtQtQtQtQtQtQt",
"QtQtQtQtQt.#.d.h.h.h.h.h.b.j.k.j.l.a.b.i.h.h.h.h.i.lQtQtQtQtQtQt",
"QtQtQtQt.a.h.h.h.h.h.h.m.n.o.o.p.q.k.#.r.e.h.h.h.h.h.rQtQtQtQtQt",
"QtQt.#.d.h.h.h.h.h.h.s.o.o.o.o.n.t.k.k.u.r.i.h.h.h.h.h.dQtQtQtQt",
"Qt.#.h.h.h.h.h.h.h.r.o.o.o.o.o.p.q.k.v.v.#.w.h.h.h.h.h.h.rQtQtQt",
"Qt.c.e.b.h.h.h.h.h.v.o.o.o.o.o.o.n.t.x.v.k.s.e.h.h.h.h.f.bQtQtQt",
"Qt.yQtQt.i.h.h.h.b.p.o.o.o.o.o.o.o.z.k.x.k.x.w.h.h.h.eQtQtQtQtQt",
"QtQtQtQt.h.h.h.A.l.o.o.o.o.o.o.o.o.q.k.x.v.z.B.C.D.A.hQtQtQtQtQt",
"QtQtQtQt.h.E.F.G.H.I.o.o.o.o.o.o.p.q.v.J.v.K.L.M.H.N.O.#QtQtQtQt",
"QtQtQtQt.P.N.Q.G.R.R.o.o.o.o.o.o.n.S.x.u.v.N.T.U.R.Q.H.NQtQtQtQt",
"QtQtQt.N.R.H.R.V.V.W.X.o.p.p.n.n.t.v.u.u.v.Y.Z.V.V.R.Q.HQtQtQtQt",
"QtQtQt.0.M.V.1.1.M.R.G.p.q.z.t.S.v.J.u.J.2.3.V.4.W.1.R.G.HQtQtQt",
"QtQtQt.5.5.6.7.M.R.H.H.K.8.v.v.v.x.u.J.x.Y.0.4.4.M.M.1.M.QQtQtQt",
"QtQtQt.9#.#..1.4##.H.G.G.8.x.J.J.J.u.J#a.3.W####.H.H.M#bQtQtQtQt",
"QtQtQtQt#c.5.1.4.4.R.G.G#d.v.x.x.J.J.v.2.Z.V.4##.G.H.HQtQtQtQtQt",
"QtQtQtQtQt#e.6.7.V##.H.H#f.t.k.x.x.v#g.2.7.U.R.H.H.FQtQtQtQtQtQt",
"QtQtQtQtQt#h#e.5.6.Z#b#i.l.S.t.S.k.x.#.f#j.M.H.R#iQtQtQtQtQtQtQt",
"QtQtQtQtQtQt.g#k#j.5#j.A.h.c.a.m.y.f.c.h#l#j#m.OQtQtQtQtQtQtQtQt",
"QtQtQtQtQtQtQt.u.b.O.A.h.h.h.h.i.i.A.h.h.h.h.cQtQtQtQtQtQtQtQtQt",
"QtQtQtQtQtQtQtQtQt.#.w.h.h.h.h.h.h.h.h.i.c.gQtQtQtQtQtQtQtQtQtQt",
"QtQtQtQtQtQtQtQtQtQtQt.J.l.w.e.i.d.w.lQtQtQtQtQtQtQtQtQtQtQtQtQt",
"QtQtQtQtQtQtQtQtQtQtQtQtQtQtQtQtQtQtQtQtQtQtQtQtQtQtQtQtQtQtQtQt",
"QtQtQtQtQtQtQtQtQtQtQtQtQtQtQtQtQtQtQtQtQtQtQtQtQtQtQtQtQtQtQtQt",
"QtQtQtQtQtQtQtQtQtQtQtQtQtQtQtQtQtQtQtQtQtQtQtQtQtQtQtQtQtQtQtQt"};
