/* XPM */
static char*bomber11[]={
"32 32 74 2",
".k c #424242",
".T c #de6b00",
".L c #9c6b4a",
".8 c #4a4a4a",
".o c #c6c6c6",
".d c #525252",
".E c #ff7308",
".z c #cecece",
".i c #5a5a5a",
"#. c #ff9c00",
".K c #d6d6d6",
".7 c #ef8421",
".F c #ff8410",
".n c #dedede",
".3 c #ffa500",
".R c #5a4210",
".C c #ff8c18",
"## c #ef9c39",
".D c #ff9431",
".G c #ffde84",
".q c #212121",
".2 c #d6ad63",
".V c #ff7b00",
"#a c #292929",
".j c #a5a5a5",
".O c #ffa54a",
"#d c #313131",
".l c #adadad",
".f c #393939",
".s c #9c7321",
".A c #b5b5b5",
".4 c #ffb500",
".W c #ff9c18",
".p c #bdbdbd",
"#g c #844200",
".t c #735a29",
".H c #000000",
".v c #ffb539",
"#b c #080000",
".m c #fffff7",
".I c #ceced6",
".g c #080808",
".Y c #ff9400",
".# c #848484",
".h c #101010",
".S c #948c7b",
".a c #8c8c8c",
".w c #ffe7ad",
"#e c #181818",
".c c #949494",
".u c #9c9c9c",
".1 c #945200",
".N c #ff7300",
"#c c #292931",
".P c #ffce4a",
".6 c #291000",
"#f c #5a4208",
".M c #f78c21",
".0 c #ffad00",
".B c #d65a08",
".x c #636363",
"Qt c None",
"#h c #6b6b6b",
".X c #e7e7e7",
".e c #737373",
".Q c #ffc67b",
".y c #efefef",
".b c #7b7b7b",
".5 c #e7d6ad",
".U c #ffa542",
".J c #f7f7f7",
".9 c #423118",
".Z c #f78c00",
".r c #7b4a00",
"QtQtQtQtQtQtQtQtQtQtQtQtQtQtQtQtQtQtQtQtQtQtQtQtQtQtQtQtQtQtQtQt",
"QtQtQtQtQtQtQtQtQtQtQtQtQtQtQtQtQtQtQtQtQtQtQtQtQtQtQtQtQtQtQtQt",
"QtQtQtQtQtQtQtQtQtQtQtQtQtQtQtQtQtQtQtQtQtQtQtQtQtQtQtQtQtQtQtQt",
"QtQtQtQtQtQtQtQtQtQtQtQtQtQtQtQtQtQtQtQtQtQtQtQtQtQtQtQtQtQtQtQt",
"QtQtQtQtQtQtQtQtQtQtQt.#.a.b.#.a.cQtQtQtQtQtQtQtQtQtQtQtQtQtQtQt",
"QtQtQtQtQtQtQtQtQt.a.d.b.e.a.c.b.f.g.h.iQtQtQtQtQtQtQtQtQtQtQtQt",
"QtQtQtQtQtQtQt.j.k.l.m.m.m.m.n.o.p.#.q.r.s.t.u.v.v.wQtQtQtQtQtQt",
"QtQtQtQtQtQt.x.k.y.m.m.m.m.y.z.A.l.p.b.B.C.D.E.E.F.v.GQtQtQtQtQt",
"QtQtQtQtQt.b.H.I.m.m.m.m.m.J.K.A.j.l.l.L.F.D.M.N.F.O.PQtQtQtQtQt",
"QtQtQtQt.Q.r.R.y.m.m.m.m.m.y.K.A.j.l.p.S.T.C.U.F.V.U.PQtQtQtQtQt",
"QtQtQt.W.W.v.v.G.m.m.m.m.y.X.o.A.j.l.p.j.B.F.D.W.Y.v.PQtQtQtQtQt",
"QtQt.W.Z.Y.C.v.W.P.m.J.y.n.o.p.l.l.l.o.A.t.V.C.W.0.P.PQtQtQtQtQt",
"QtQt.O.V.V.Z.Y.W.0.Q.y.n.o.A.l.l.l.A.z.l.q.1.V.Y.v.P.2QtQtQtQtQt",
"Qt.W.D.O.D.C.Y.3.4.4.5.I.p.A.l.A.A.o.p.x.H.6.T.Z.v.7QtQtQtQtQtQt",
"Qt.F.C.D.U.v.W.4.4.4.2.z.p.A.A.l.j.#.8.h.H.H.9.T.T.6QtQtQtQtQtQt",
"QtQt.V.V.V.Y.3.3.0#.##.p.j.a.b.x.k#a.g.H.H.H.H.g#b.HQtQtQtQtQtQt",
"QtQtQtQt.B.N.V.Z.F.F.1#c#d#a.q#e.h.H.H.H.H.H.H.H.H.HQtQtQtQtQtQt",
"QtQtQtQt.g.6#f#g#g#f.H.H.g.g.g.H.H.H.H.H.H.H.H.H.H.HQtQtQtQtQtQt",
"QtQtQtQt#a.H.H.H.H.H.H.H.H.H.H.H.H.H.H.H.H.H.H.H.H.HQtQtQtQtQtQt",
"QtQtQtQt#h.H.H.H.H.H.H.H.H.H.H.H.H.H.H.H.H.H.H.H.H#eQtQtQtQtQtQt",
"QtQtQtQtQt.h.H.H.H.H.H.H.H.H.H.H.H.H.H.H.H.H.H.H.H.xQtQtQtQtQtQt",
"QtQtQtQtQt.c.H.H.H.H.H.H.H.H.H.H.H.H.H.H.H.H.H.H#eQtQtQtQtQtQtQt",
"QtQtQtQtQtQt.d.H.H.H.H.H.H.H.H.H.H.H.H.H.H.H.H.HQtQtQtQtQtQtQtQt",
"QtQtQtQtQtQtQt.8.H.H.H.H.H.H.H.H.H.H.H.H.H.H.HQtQtQtQtQtQtQtQtQt",
"QtQtQtQtQtQtQtQt.b.h.H.H.H.H.H.H.H.H.H.H.H#dQtQtQtQtQtQtQtQtQtQt",
"QtQtQtQtQtQtQtQtQtQt.u.d.h.H.H.H.H.H.h.8QtQtQtQtQtQtQtQtQtQtQtQt",
"QtQtQtQtQtQtQtQtQtQtQtQtQtQtQtQtQtQtQtQtQtQtQtQtQtQtQtQtQtQtQtQt",
"QtQtQtQtQtQtQtQtQtQtQtQtQtQtQtQtQtQtQtQtQtQtQtQtQtQtQtQtQtQtQtQt",
"QtQtQtQtQtQtQtQtQtQtQtQtQtQtQtQtQtQtQtQtQtQtQtQtQtQtQtQtQtQtQtQt",
"QtQtQtQtQtQtQtQtQtQtQtQtQtQtQtQtQtQtQtQtQtQtQtQtQtQtQtQtQtQtQtQt",
"QtQtQtQtQtQtQtQtQtQtQtQtQtQtQtQtQtQtQtQtQtQtQtQtQtQtQtQtQtQtQtQt",
"QtQtQtQtQtQtQtQtQtQtQtQtQtQtQtQtQtQtQtQtQtQtQtQtQtQtQtQtQtQtQtQt"};
