/* XPM */
static char*bomber6[]={
"32 32 77 2",
".A c #ffefbd",
".n c #424242",
".y c #de6b00",
".q c #9c6b4a",
".x c #ff8c39",
".M c #4a4a4a",
".i c #c6c6c6",
"## c #e79c00",
".u c #525252",
".G c #ff7308",
".4 c #cecece",
".0 c #5a5a5a",
".Q c #ff7b10",
".7 c #180800",
".1 c #d6d6d6",
".R c #ef8421",
".Z c #dedede",
"#. c #ffa500",
".w c #5a4210",
"#j c #ffb57b",
"#f c #ef9c39",
"#k c #ff9431",
".C c #ffde84",
".a c #212121",
".D c #d6ad63",
".F c #ff7b00",
".m c #292929",
"#a c #735a39",
".h c #a5a5a5",
".O c #ff6310",
".j c #313131",
".W c #adadad",
"#d c #ffad63",
".r c #393939",
"#b c #9c7321",
".3 c #b5b5b5",
"#e c #ff9c18",
".2 c #bdbdbd",
".6 c #844200",
".c c #000000",
".P c #ff6b08",
".U c #080000",
".J c #ffd6a5",
".t c #fffff7",
".b c #080808",
".9 c #ff9400",
".T c #523918",
".v c #848484",
"#i c #ff7b29",
".d c #101010",
".8 c #948c7b",
".s c #8c8c8c",
".B c #ffe7ad",
".f c #181818",
".k c #949494",
"#g c #de9c63",
".V c #9c9c9c",
".E c #945200",
"#h c #ff4a08",
".K c #ffce4a",
".5 c #291000",
".L c #5a4208",
".z c #f78c21",
".X c #636363",
".N c #d65a08",
"Qt c None",
".# c #6b6b6b",
".l c #e7e7e7",
".g c #737373",
".I c #ffc67b",
".o c #efefef",
".e c #7b7b7b",
".H c #ffa542",
".Y c #f7f7f7",
"#c c #f78c00",
".p c #423118",
".S c #ad8c4a",
"QtQtQtQtQtQtQtQtQtQtQtQtQtQtQtQtQtQtQtQtQtQtQtQtQtQtQtQtQtQtQtQt",
"QtQtQtQtQtQtQtQtQtQtQtQtQtQtQtQtQtQtQtQtQtQtQtQtQtQtQtQtQtQtQtQt",
"QtQtQtQtQtQtQtQtQtQtQtQtQtQtQtQtQtQtQtQtQtQtQtQtQtQtQtQtQtQtQtQt",
"QtQtQtQtQtQtQtQtQtQtQtQtQtQtQtQtQtQtQtQtQtQtQtQtQtQtQtQtQtQtQtQt",
"QtQtQtQtQtQtQtQtQtQtQtQtQtQtQtQtQtQtQtQtQtQtQtQtQtQtQtQtQtQtQtQt",
"QtQtQtQtQtQtQtQtQtQtQtQtQtQtQtQtQtQtQtQtQtQtQtQtQtQtQtQtQtQtQtQt",
"QtQtQtQtQtQtQtQtQtQtQtQtQtQtQtQtQtQtQtQtQtQtQtQtQtQtQtQtQtQtQtQt",
"QtQtQtQtQtQtQtQtQtQtQtQt.#.a.b.c.c.d.eQtQtQtQtQtQtQtQtQtQtQtQtQt",
"QtQtQtQtQtQtQtQtQtQtQt.f.c.d.c.c.b.d.c.#QtQtQtQtQtQtQtQtQtQtQtQt",
"QtQtQtQtQtQtQtQtQtQt.g.f.h.i.j.c.k.l.e.dQtQtQtQtQtQtQtQtQtQtQtQt",
"QtQtQtQtQtQtQtQtQtQt.m.n.o.m.p.q.r.s.t.a.u.vQtQtQtQtQtQtQtQtQtQt",
"QtQtQtQtQtQtQt.e.r.c.c.w.x.y.z.A.B.C.D.d.c.c.c.nQtQtQtQtQtQtQtQt",
"QtQtQtQtQt.s.b.c.c.c.E.F.G.H.I.J.J.C.K.L.c.c.c.c.c.MQtQtQtQtQtQt",
"QtQtQtQt.a.c.c.c.c.c.L.N.y.O.P.y.Q.R.S.T.c.c.c.c.c.c.f.kQtQtQtQt",
"QtQt.e.b.c.c.c.c.c.c.c.U.U.U.U.U.U.U.c.c.c.c.c.c.c.c.c.c.nQtQtQt",
"Qt.M.c.c.d.c.c.c.c.c.c.c.c.c.c.c.c.c.c.c.c.c.c.c.c.c.c.c.c.mQtQt",
"Qt.d.eQt.e.c.c.c.c.c.c.c.c.c.b.f.d.c.c.c.c.c.c.c.c.c.f.e.#.d.VQt",
"QtQtQtQt.b.c.c.c.c.c.c.c.a.s.l.l.W.X.j.d.c.c.c.c.c.c.cQtQtQtQtQt",
"QtQtQt.n.c.c.c.c.c.c.c.e.Y.t.t.o.Z.i.h.0.d.c.c.c.c.c.c.#QtQtQtQt",
"QtQt.h.c.c.c.c.c.c.c.V.t.t.t.t.o.1.2.2.3.X.d.c.c.c.c.c.fQtQtQtQt",
"QtQt.#.c.c.c.c.c.c.k.t.t.t.t.t.Y.Z.i.3.2.3.M.c.c.c.c.c.dQtQtQtQt",
"QtQt.a.c.c.c.c.c.n.t.t.t.t.t.t.t.Y.1.2.3.i.V.f.c.c.c.c.bQtQtQtQt",
"QtQt.j.c.c.c.c.c.V.t.t.t.t.t.t.t.t.l.i.3.2.2.n.c.c.c.c.dQtQtQtQt",
"QtQt.e.c.c.c.c.c.2.t.t.t.t.t.t.t.t.Y.1.2.2.4.#.b.c.c.c.fQtQtQtQt",
"QtQt.V.c.c.c.c.b.4.t.t.t.t.t.t.t.t.o.1.3.2.4.s.b.c.c.c.jQtQtQtQt",
"QtQtQt.d.c.c.c.c.2.t.t.t.t.t.t.t.Y.l.4.2.2.1.s.d.c.c.c.vQtQtQtQt",
"QtQtQt.u.c.c.c.c.k.t.t.t.t.Y.Y.Y.l.1.2.2.i.1.e.c.c.c.cQtQtQtQtQt",
"QtQtQtQt.b.c.c.c.r.t.t.Y.o.l.Z.1.4.i.2.2.4.i.r.c.c.c.rQtQtQtQtQt",
"QtQtQtQt.e.c.c.c.c.#.l.o.Z.4.i.i.i.2.i.i.i.0.c.c.c.cQtQtQtQtQtQt",
"QtQtQtQtQt.s.c.c.5.6.E.q.s.W.i.2.i.3.k.e.q.L.p.7.U.gQtQtQtQtQtQt",
"QtQtQtQtQtQt.8.E.P.9#.#####a.n.n.j.r#b.y#c#.#.##.SQtQtQtQtQtQtQt",
"QtQtQtQtQtQt#d.O#d.H.H.H#e#fQtQtQt#g#h#i#j#j#j#k#.QtQtQtQtQtQtQt"};
