/* XPM */
static char*bomber1[]={
"32 32 104 2",
"#j c #844a00",
"#e c #424242",
".y c #ffefbd",
".v c #e78c4a",
".P c #de6b00",
"#h c #9c6b4a",
".A c #efd68c",
"#D c #ff8c39",
"## c #4a4a4a",
".8 c #c6c6c6",
"#u c #e79c00",
".n c #525252",
".F c #ff7308",
".7 c #cecece",
".4 c #5a5a5a",
".S c #ff7b10",
"#q c #c6b58c",
".Y c #180800",
"#a c #d6d6d6",
".1 c #210800",
".x c #ef8421",
".l c #dedede",
"#B c #ffa500",
"#p c #5a4210",
".T c #ff8c18",
".3 c #181821",
"#K c #ffb57b",
".U c #ef9c39",
".K c #ffde84",
".a c #212121",
"#g c #73737b",
".V c #d6ad63",
".5 c #292929",
".q c #735a39",
"#. c #a5a5a5",
"#F c #ffa54a",
".Q c #ff6310",
".j c #313131",
".X c #adadad",
"#E c #ffad63",
".m c #393939",
"#v c #9c7321",
".r c #423939",
".9 c #b5b5b5",
"#J c #ff7331",
"#k c #9c9c84",
"#G c #ff9c18",
"#H c #d6ad9c",
"#o c #6b4a08",
"#b c #bdbdbd",
"#i c #844200",
".W c #735a29",
".L c #ffb539",
".c c #000000",
".2 c #080000",
".I c #ffd6a5",
".t c #fffff7",
".R c #ff7310",
"#l c #ceced6",
".b c #080808",
"#s c #ff9400",
".u c #523918",
".s c #848484",
"#r c #ff7b29",
"#f c #8c8484",
".f c #101010",
"#x c #948c7b",
".C c #8c8c8c",
".J c #ffe7ad",
".d c #181818",
".h c #949494",
"#y c #de9c63",
".N c #9c9c9c",
".D c #945200",
"#I c #ff4a08",
".E c #ff7300",
"#w c #5a5a52",
".0 c #211000",
"#C c #ffce4a",
".Z c #291000",
".M c #5a4208",
"#z c #f78c21",
"#t c #ffad00",
".w c #d65a08",
".g c #636363",
"#L c #ffb584",
"Qt c None",
".# c #6b6b6b",
".6 c #e7e7e7",
"#d c #737373",
".B c #e7ce94",
"#m c #decea5",
".H c #ffc67b",
".o c #efefef",
".e c #7b7b7b",
".z c #e7d6ad",
".G c #ffa542",
"#c c #f7f7f7",
"#A c #f78c00",
".p c #423118",
"#n c #ad8c4a",
".k c #8c8c94",
".O c #7b4a00",
".i c #bdbdc6",
"QtQtQtQtQtQtQtQtQtQtQtQtQtQtQtQtQtQtQtQtQtQtQtQtQtQtQtQtQtQtQtQt",
"QtQtQtQtQtQtQtQtQtQtQtQtQtQtQtQtQtQtQtQtQtQtQtQtQtQtQtQtQtQtQtQt",
"QtQtQtQtQtQtQtQtQtQtQtQtQtQtQtQtQtQtQtQtQtQtQtQtQtQtQtQtQtQtQtQt",
"QtQtQtQtQtQtQtQtQtQtQtQtQtQtQtQtQtQtQtQtQtQtQtQtQtQtQtQtQtQtQtQt",
"QtQtQtQtQtQtQtQtQtQtQtQtQtQtQtQtQtQtQtQtQtQtQtQtQtQtQtQtQtQtQtQt",
"QtQtQtQtQtQtQtQtQtQtQtQt.#.a.b.c.b.d.eQtQtQtQtQtQtQtQtQtQtQtQtQt",
"QtQtQtQtQtQtQtQtQtQtQt.d.c.f.c.c.b.b.c.gQtQtQtQtQtQtQtQtQtQtQtQt",
"QtQtQtQtQtQtQtQtQtQt.g.d.h.i.j.c.k.l.e.bQtQtQtQtQtQtQtQtQtQtQtQt",
"QtQtQtQtQtQtQtQtQtQt.m.n.o.j.p.q.r.s.t.j.hQtQtQtQtQtQtQtQtQtQtQt",
"QtQtQtQtQtQtQtQtQtQt.a.u.v.w.x.y.z.A.B.d.CQtQtQtQtQtQtQtQtQtQtQt",
"QtQtQtQtQtQtQtQtQt.C.D.E.F.G.H.I.J.K.L.M.jQtQtQtQtQtQtQtQtQtQtQt",
"QtQtQtQtQtQtQtQt.N.b.O.P.Q.R.S.S.T.U.V.W.c.fQtQtQtQtQtQtQtQtQtQt",
"QtQtQtQtQtQtQt.X.b.c.c.Y.Z.0.1.1.0.0.2.c.c.c.aQtQtQtQtQtQtQtQtQt",
"QtQtQtQtQtQtQt.d.c.c.c.c.c.c.c.c.c.c.c.c.c.c.c.jQtQtQtQtQtQtQtQt",
"QtQtQtQtQtQt.n.c.c.c.c.c.c.c.c.f.3.f.b.c.c.c.c.c.eQtQtQtQtQtQtQt",
"QtQtQtQtQtQt.b.c.c.c.c.c.c.d.s.X.N.4.5.b.c.c.c.c.dQtQtQtQtQtQtQt",
"QtQtQtQtQt.#.c.c.c.c.c.c.m.6.t.6.7.X.#.5.b.c.c.c.c.eQtQtQtQtQtQt",
"QtQtQtQtQt.a.c.c.c.c.c.b.7.t.t.l.8.9#..n.f.c.c.c.c##QtQtQtQtQtQt",
"QtQtQtQtQt.c.c.c.c.c.c.4.t.t.t.o#a#b.9.e.j.b.c.c.c.dQtQtQtQtQtQt",
"QtQtQtQt.C.c.c.c.c.c.c.X.t.t.t.t.6.7#b.N.n.d.c.c.c.c.eQtQtQtQtQt",
"QtQtQtQt.s.c.c.c.c.c.a.o.t.t.t.t#c.l#b.9.#.a.b.c.c.c.eQtQtQtQtQt",
"QtQtQtQt.e.c.b.c.c.c##.t.t.t.t.t.t.6.8.9.C.j.b.c.a.f.eQtQtQtQtQt",
"QtQtQtQtQt.N.d.c.c.c#d.t.t.t.t.t.t.o.7#b#.##.b.c##.sQtQtQtQtQtQt",
"QtQtQtQtQtQt.f.c.c.c.e.t.t.t.t.t.t.o#a.8.9.4.b.c.eQtQtQtQtQtQtQt",
"QtQtQtQtQtQt.d.c.c.c.h.t.t.t.t.t.t.o#a.8#b.g.b.c.#QtQtQtQtQtQtQt",
"QtQtQtQtQtQt#e.c.c.c#..t.t.t.t.t.t.o.7#b#b.g.b.c.eQtQtQtQtQtQtQt",
"QtQtQtQtQtQt.C.c.c.c.#.t.t.t.t#c.o.l.8.8#b.4.b.c.NQtQtQtQtQtQtQt",
"QtQtQtQtQtQtQt.b.c.c.a.o.t.o.6.l.7.8#b.8.9#e.c.bQtQtQtQtQtQtQtQt",
"QtQtQtQtQtQtQt#f.c.c.c#g.t.6.7.8#b#b#b.7.N.3.c#eQtQtQtQtQtQtQtQt",
"QtQtQtQtQtQtQtQt#h#i#j.M#k#l.7.7.7.7.7#m#n#o#p#qQtQtQtQtQtQtQtQt",
"QtQtQtQtQtQtQt#r.E#s#t#t#u#v#w.e.s#x#y#z#A#B#B#t#CQtQtQtQtQtQtQt",
"QtQtQtQtQtQt#D.Q#E#F#F.G#G.LQtQtQt#H#I#J#K#L#L#D#sQtQtQtQtQtQtQt"};
