/* XPM */
static char*bomber8[]={
"32 32 73 2",
".2 c #844a00",
".Q c #424242",
".i c #ffefbd",
".r c #de6b00",
".1 c #9c6b4a",
".h c #ff8c39",
".X c #4a4a4a",
".S c #c6c6c6",
".E c #525252",
".v c #e79c00",
".f c #ff7308",
".Y c #cecece",
".L c #5a5a5a",
".s c #180800",
".R c #d6d6d6",
"## c #ff8410",
".M c #dedede",
".e c #ffa500",
"#g c #ff8c18",
"#d c #181821",
".b c #ffb57b",
".9 c #ff9431",
".c c #ffde84",
".A c #212121",
".4 c #d6ad63",
".j c #ff7b00",
".I c #292929",
"#b c #735a39",
".6 c #ffa54a",
".J c #313131",
".g c #ff6310",
".T c #adadad",
".H c #393939",
".u c #9c7321",
".U c #b5b5b5",
".# c #ff9c18",
".m c #6b4a08",
".P c #bdbdbd",
".k c #844200",
".t c #000000",
".n c #ffb539",
"#a c #ff6b08",
".z c #080000",
".N c #fffff7",
".D c #080808",
".3 c #523918",
".x c #848484",
".K c #101010",
".B c #8c8c8c",
".d c #ffe7ad",
".F c #181818",
".W c #949494",
"#. c #ff4a08",
"#f c #ff7300",
".7 c #d6d6ce",
".l c #211000",
".o c #ffce4a",
".y c #291000",
"#e c #5a4208",
".q c #636363",
"Qt c None",
".G c #6b6b6b",
".O c #e7e7e7",
".0 c #737373",
".p c #decea5",
".5 c #ffc67b",
".V c #efefef",
".C c #7b7b7b",
".a c #ffa542",
".Z c #f7f7f7",
".8 c #f78c00",
".w c #423118",
"#c c #ad8c4a",
"QtQtQtQtQtQtQtQtQtQtQtQtQtQtQtQtQtQtQtQtQtQtQtQtQtQtQtQtQtQtQtQt",
"QtQtQtQtQtQtQtQtQtQtQtQtQtQtQtQtQtQtQtQtQtQtQtQtQtQtQtQtQtQtQtQt",
"QtQtQtQtQtQtQtQtQtQtQtQtQtQtQtQtQtQtQtQtQtQtQtQtQtQtQtQtQtQtQtQt",
"QtQtQtQtQtQtQtQtQtQtQtQtQtQtQtQtQtQtQtQtQtQtQtQtQtQtQtQtQtQtQtQt",
"QtQtQtQtQtQtQtQtQtQtQtQtQtQtQtQtQtQtQtQtQtQtQtQtQtQtQtQtQtQtQtQt",
"QtQtQtQtQtQtQtQtQtQtQtQt.#.a.b.c.c.dQtQtQtQtQtQtQtQtQtQtQtQtQtQt",
"QtQtQtQtQtQtQtQtQtQtQt.e.f.g.h.c.c.c.iQtQtQtQtQtQtQtQtQtQtQtQtQt",
"QtQtQtQtQtQtQtQtQtQtQt.e.j.k.l.m.n.o.pQtQtQtQtQtQtQtQtQtQtQtQtQt",
"QtQtQtQtQtQtQtQtQtQt.q.r.r.s.t.t.u.v.wQtQtQtQtQtQtQtQtQtQtQtQtQt",
"QtQtQtQtQtQtQtQtQt.x.t.l.y.t.t.t.t.z.t.A.BQtQtQtQtQtQtQtQtQtQtQt",
"QtQtQtQtQtQtQt.C.A.t.t.t.t.t.t.t.t.t.t.t.t.D.EQtQtQtQtQtQtQtQtQt",
"QtQtQtQtQt.B.F.t.t.t.t.t.t.t.t.t.t.t.t.t.t.t.t.t.GQtQtQtQtQtQtQt",
"QtQtQtQt.H.t.t.t.t.t.t.t.t.D.I.H.J.A.K.t.t.t.t.t.t.AQtQtQtQtQtQt",
"QtQtQt.D.t.t.t.t.t.t.t.t.L.M.N.N.O.P.x.Q.K.t.t.t.t.t.tQtQtQtQtQt",
"QtQt.F.t.t.t.t.t.t.t.t.C.N.N.N.N.O.R.S.T.q.K.t.t.t.t.t.DQtQtQtQt",
"Qt.L.t.t.t.t.t.t.t.t.L.N.N.N.N.N.O.S.U.S.P.E.t.t.t.t.t.t.HQtQtQt",
"Qt.tQt.t.t.t.t.t.t.F.M.N.N.N.N.N.V.R.P.U.S.W.F.t.t.t.DQt.HQtQtQt",
"QtQtQt.t.t.t.t.t.t.X.N.N.N.N.N.N.N.V.Y.U.P.U.H.t.t.t.tQtQtQtQtQt",
"QtQtQt.t.t.t.t.t.t.x.N.N.N.N.N.N.N.Z.M.P.P.S.L.t.t.t.t.0QtQtQtQt",
"QtQtQt.D.t.t.t.t.t.U.N.N.N.N.N.N.N.Z.M.P.U.R.C.t.t.t.t.QQtQtQtQt",
"QtQtQt.F.t.t.t.t.t.P.N.N.N.N.N.N.N.Z.M.P.P.R.G.t.t.t.t.JQtQtQtQt",
"QtQtQt.E.t.t.s.l.l.C.N.N.N.N.N.N.Z.O.S.U.P.M.1.2.u.1.3.JQtQtQtQt",
"QtQtQtQt.l.1.4.c.5.6.d.N.Z.Z.Z.V.M.Y.P.U.S.7.#.8.#.5.c.5QtQtQtQt",
"QtQtQt.#.n.#.6.9.9.n.4.V.Z.M.R.Y.S.U.U.P.M.p.j#.#..g.h.5.oQtQtQt",
"QtQtQt.#.####a#.#a.o.u.L.O.R.P.P.P.P.S.S.T#b.r#.#.#.#a.f.#QtQtQt",
"QtQtQtQt.b.g#.#a.j.o#c.t.X.U.R.Y.S.T.W.q#d#e#a#a#a.#.9QtQtQtQtQt",
"QtQtQtQtQt.b#a#f.j.n.5.l.t.K.L.0.L.Q.A.D.t.k#f#a#g.oQtQtQtQtQtQt",
"QtQtQtQtQtQt.6.j.j.a.5.l.t.t.t.t.D.t.t.t.t#e##.a.oQtQtQtQtQtQtQt",
"QtQtQtQtQtQtQt.5##.a#b.t.t.t.t.t.t.t.t.t.t.D.1QtQtQtQtQtQtQtQtQt",
"QtQtQtQtQtQtQtQtQtQtQt.C.Q.F.t.t.t.D.F.Q.CQtQtQtQtQtQtQtQtQtQtQt",
"QtQtQtQtQtQtQtQtQtQtQtQtQtQtQtQtQtQtQtQtQtQtQtQtQtQtQtQtQtQtQtQt",
"QtQtQtQtQtQtQtQtQtQtQtQtQtQtQtQtQtQtQtQtQtQtQtQtQtQtQtQtQtQtQtQt"};
