/* XPM */
static char*bomber5[]={
"32 32 80 2",
".f c #424242",
".s c #e78c4a",
".I c #de6b00",
"#g c #ff8c39",
".z c #4a4a4a",
".0 c #c6c6c6",
"#c c #e79c00",
".X c #525252",
".C c #ff7308",
".i c #cecece",
".4 c #5a5a5a",
".K c #ff7b10",
"#j c #c6b58c",
"#a c #ff9c00",
".R c #180800",
".3 c #d6d6d6",
".P c #290800",
"#m c #ff8410",
".p c #dedede",
"#e c #ffa500",
"#l c #ffb57b",
".G c #ef9c39",
".j c #212121",
".M c #d6ad63",
".d c #292929",
".n c #735a39",
".O c #a5a5a5",
".D c #ffa54a",
"#k c #ff6310",
".o c #313131",
".g c #adadad",
"#h c #ffad63",
".N c #393939",
".1 c #b5b5b5",
"## c #ff7331",
"#f c #ff9c18",
".9 c #6b4a08",
".h c #bdbdbd",
".7 c #844200",
".r c #735a29",
".v c #fff7de",
"#n c #ffb539",
".c c #000000",
".F c #ffd6a5",
".Z c #fffff7",
".J c #ff7310",
".b c #080808",
".m c #523918",
".V c #848484",
".U c #101010",
".y c #948c7b",
".W c #8c8c8c",
".x c #ffe7ad",
".a c #181818",
".S c #949494",
".T c #9c9c9c",
".A c #945200",
".B c #ff7300",
".5 c #292931",
".H c #211000",
"#i c #ffce4a",
".Q c #291000",
"#. c #5a4208",
".L c #f78c21",
"#b c #ffad00",
".t c #d65a08",
".# c #636363",
"Qt c None",
".e c #6b6b6b",
".l c #e7e7e7",
".q c #737373",
".w c #e7ce94",
".E c #ffc67b",
".2 c #efefef",
".k c #7b7b7b",
".u c #ffa542",
".Y c #f7f7f7",
"#d c #f78c00",
".6 c #423118",
".8 c #7b4a00",
"QtQtQtQtQtQtQtQtQtQtQtQtQtQtQtQtQtQtQtQtQtQtQtQtQtQtQtQtQtQtQtQt",
"QtQtQtQtQtQtQtQtQtQtQtQtQtQtQtQtQtQtQtQtQtQtQtQtQtQtQtQtQtQtQtQt",
"QtQtQtQtQtQtQtQtQtQtQtQtQtQtQtQtQtQtQtQtQtQtQtQtQtQtQtQtQtQtQtQt",
"QtQtQtQtQtQtQtQtQtQtQtQtQtQtQtQtQtQtQtQtQtQtQtQtQtQtQtQtQtQtQtQt",
"QtQtQtQtQtQtQtQtQtQtQtQtQtQtQtQtQtQtQtQtQtQtQtQtQtQtQtQtQtQtQtQt",
"QtQtQtQtQtQtQtQtQtQtQtQtQtQtQtQtQtQtQtQtQtQtQtQtQtQtQtQtQtQtQtQt",
"QtQtQtQtQtQtQtQtQtQtQtQt.#.a.b.c.b.d.eQtQtQtQtQtQtQtQtQtQtQtQtQt",
"QtQtQtQtQtQtQtQtQtQtQt.b.c.b.c.c.b.c.b.eQtQtQtQtQtQtQtQtQtQtQtQt",
"QtQtQtQtQtQtQtQtQtQt.f.d.g.g.b.b.h.i.f.fQtQtQtQtQtQtQtQtQtQtQtQt",
"QtQtQtQtQtQtQtQtQtQt.j.k.l.j.m.n.o.p.p.a.eQtQtQtQtQtQtQtQtQtQtQt",
"QtQtQtQtQtQtQtQtQt.q.b.r.s.t.u.v.w.x.y.c.c.zQtQtQtQtQtQtQtQtQtQt",
"QtQtQtQtQtQtQt.q.b.c.A.B.C.D.E.F.x.E.G.H.c.c.c.eQtQtQtQtQtQtQtQt",
"QtQtQtQtQtQt.j.c.c.c.A.I.J.K.K.K.L.D.M.j.c.c.c.c.NQtQtQtQtQtQtQt",
"QtQtQtQt.O.b.c.c.c.c.c.H.P.P.P.H.Q.R.c.c.c.c.c.c.c.jQtQtQtQtQtQt",
"QtQtQt.S.c.c.c.c.c.c.c.c.c.c.c.c.c.c.c.c.c.c.c.c.c.c.jQtQtQtQtQt",
"QtQt.T.c.c.c.c.c.c.c.c.c.c.c.b.U.a.a.b.c.c.c.c.c.c.c.c.aQtQtQtQt",
"QtQt.a.c.c.c.c.c.c.c.c.c.d.V.i.h.g.W.X.j.c.c.c.c.c.c.c.c.qQtQtQt",
"Qt.W.c.N.k.a.c.c.c.c.b.S.Y.Z.Z.l.0.h.g.q.d.b.c.c.c.a.e.o.cQtQtQt",
"Qt.e.WQtQt.c.c.c.c.U.0.Z.Z.Z.Z.l.0.1.1.h.W.o.c.c.c.bQtQt.z.eQtQt",
"QtQtQtQt.d.c.c.c.b.0.Z.Z.Z.Z.Y.Y.l.i.1.1.h.k.a.c.c.cQtQtQtQtQtQt",
"QtQtQtQt.c.c.c.c.V.Z.Z.Z.Z.Z.Z.Z.Y.p.0.1.h.1.z.c.c.c.eQtQtQtQtQt",
"QtQtQt.g.b.c.c.U.p.Z.Z.Z.Z.Z.Z.Z.Z.2.3.h.h.0.q.U.c.c.fQtQtQtQtQt",
"QtQtQt.1.c.c.c.f.Z.Z.Z.Z.Z.Z.Z.Z.Z.Z.l.h.1.0.S.a.c.c.NQtQtQtQtQt",
"QtQtQtQt.U.c.c.f.Z.Z.Z.Z.Z.Z.Z.Z.Z.Y.l.0.1.0.S.j.c.c.dQtQtQtQtQt",
"QtQtQtQt.j.c.c.U.l.Z.Z.Z.Z.Z.Z.Z.Z.Y.p.h.1.0.W.a.c.c.4QtQtQtQtQt",
"QtQtQtQt.q.c.c.c.T.Z.Z.Z.Z.Y.Y.Y.l.p.0.1.h.0.q.b.c.c.SQtQtQtQtQt",
"QtQtQtQtQt.c.c.c.d.2.Z.Y.l.p.3.3.i.h.1.1.0.h.X.c.c.cQtQtQtQtQtQt",
"QtQtQtQtQt.z.c.c.c.#.2.2.3.0.0.h.h.1.h.0.0.k.a.c.c.oQtQtQtQtQtQt",
"QtQtQtQtQtQt.U.c.c.c.5.S.0.h.h.h.h.1.g.S.4.U.c.c.cQtQtQtQtQtQtQt",
"QtQtQtQtQtQtQt.#.6.7.8.m.N.f.X.#.e.4.z.r.9#..6.dQtQtQtQtQtQtQtQt",
"QtQtQtQtQtQtQt##.B#a#b#b#c.6.c.b.b.6.t#d#a#e#b#fQtQtQtQtQtQtQtQt",
"QtQtQtQtQtQt#g###h.D.D.u#f#iQtQtQt#j#k.D#l#l#h#m#nQtQtQtQtQtQtQt"};
