/* XPM */
static char*digger5[]={
"32 32 196 2",
"#D c #d1d0ce",
".i c #dadadc",
"as c #818183",
"ac c #424242",
"#q c #363536",
".I c #ffefbd",
".F c #e78c4a",
"aa c #cdcccd",
".Z c #de6b00",
"#V c #b2b1b2",
".B c #e2e2e4",
"aD c #9c6b4a",
"#x c #0c0c0c",
".K c #efd68c",
"bb c #ff8c39",
"#X c #4a4a4a",
"#1 c #d5d4d5",
"#u c #616061",
"aV c #ad7005",
".m c #2e2e2c",
".o c #525252",
"aX c #180d04",
"an c #faf9f3",
".P c #ff7308",
".y c #020204",
".p c #f2f2f4",
"#K c #f6f5f2",
"aB c #9f7e3c",
"#5 c #5a5a5a",
"ap c #6c7bd1",
".2 c #ff7b10",
"#k c #010101",
"aw c #77693f",
".8 c #180800",
"aq c #cac9ca",
".q c #fafafc",
"## c #210800",
"a# c #edeced",
".H c #ef8421",
"aM c #4c4438",
"#y c #474747",
"aL c #b6b0aa",
"a5 c #ffa500",
"ar c #b7b6b7",
".3 c #ff8c18",
"at c #181821",
"aP c #cc8904",
"b# c #ffb57b",
"#h c #282728",
"aR c #6070d7",
"aI c #bfbebf",
".4 c #ef9c39",
"#d c #a4a3a4",
"ah c #eeeeee",
".s c #565654",
"#n c #c7c6c7",
"#Y c #e3e3dd",
".U c #ffde84",
".D c #212121",
"#s c #060606",
"al c #9d9d9d",
".5 c #d6ad63",
".j c #5e5e5c",
"aN c #423315",
"a1 c #8754e0",
"ax c #a6a594",
"aJ c #b4b3b4",
"a9 c #ffa54a",
".A c #666664",
".0 c #ff6310",
".v c #313131",
"#N c #bcbbbc",
".7 c #adadad",
"ay c #ceced5",
"a8 c #ffad63",
"#W c #929292",
".n c #393939",
"ak c #c4c3c4",
"ad c #e0e0da",
"az c #daccad",
"#o c #a9a8a9",
"#O c #5c5c5c",
"a2 c #ff7331",
"aU c #bc801c",
"#f c #8e8d8e",
"aC c #6b4a08",
"aj c #cccbcc",
"#6 c #e8e8e2",
"#r c #1a191a",
".h c #4a4a4c",
"#4 c #a2a2a2",
"#F c #fefdf6",
"aQ c #7384e9",
"#T c #e2e2db",
"aW c #b37500",
"av c #473305",
"#9 c #aaaaaa",
".6 c #735a29",
"aE c #0b0802",
"#8 c #c1c0c1",
"a0 c #6c7ce7",
".r c #8e8e8c",
"ai c #2d3c92",
".V c #ffb539",
".d c #000000",
"#w c #f5e0c4",
"#2 c #c9c8c9",
"#a c #080000",
".S c #ffd6a5",
"#E c #fffff7",
"#z c #a4a3a0",
".1 c #ff7310",
".f c #080808",
"aZ c #ff9400",
".E c #523918",
"aY c #ff7b29",
"au c #8c8484",
"#b c #040304",
".e c #101010",
"#L c #ffc9bb",
"aF c #3d3013",
"ao c #e5e5e5",
"#G c #6e7cd1",
".M c #8c8c8c",
".T c #ffe7ad",
"#3 c #bebdbe",
"aA c #c7af7c",
".c c #181818",
"#A c #fefdf7",
".C c #949494",
"#S c #797979",
"#C c #e4a85b",
"#t c #050505",
".X c #9c9c9c",
".N c #945200",
"b. c #ff4a08",
"#Z c #ff5427",
".z c #362e24",
"#H c #5363c8",
".O c #ff7300",
".w c #bebebc",
".# c #ccc100",
"aH c #c1bebc",
"#B c #898989",
"#M c #ff6941",
"a. c #ecece5",
"#p c #6a696a",
"#c c #1d1d1d",
".b c #ede900",
"#. c #211000",
"a7 c #ffce4a",
".9 c #291000",
".W c #5a4208",
"#v c #e09d45",
".a c #ffe900",
"a3 c #f78c21",
"#l c #191819",
"a6 c #ffad00",
"#g c #575657",
".G c #d65a08",
".g c #636363",
"ba c #ffb584",
"Qt c None",
"aS c #33302b",
"#Q c #b8b7b8",
"#J c #c4c4c4",
"am c #5b5b61",
"ab c #6b6b6b",
".t c #dededc",
"af c #a9a9a9",
"#m c #dbdadb",
"#U c #c0bfc0",
"#i c #0e0d0e",
".L c #e7ce94",
".k c #2a2a24",
"#e c #a5a4a5",
".R c #ffc67b",
"#0 c #c97676",
"#j c #7b7b7b",
"aT c #50402a",
".J c #e7d6ad",
".Q c #ffa542",
"#I c #606060",
"ag c #fbfaf5",
".x c #060604",
"a4 c #f78c00",
".u c #f6f6f4",
"aK c #ffffff",
"aO c #ce8a00",
"#7 c #c26363",
"#P c #d9d9d3",
"#R c #a2a1a2",
".l c #d2d2d4",
"aG c #6872ba",
"ae c #c5c4c5",
".Y c #7b4a00",
"QtQtQtQtQtQtQtQtQtQtQtQt.#.a.#.a.#.aQtQtQtQtQtQtQtQtQtQtQtQtQtQt",
"QtQtQtQtQtQtQtQtQtQtQt.#.#.a.#.a.#.a.#QtQtQtQtQtQtQtQtQtQtQtQtQt",
"QtQtQtQtQtQtQtQtQtQtQt.b.#.a.#.a.#.a.bQtQtQtQtQtQtQtQtQtQtQtQtQt",
"QtQtQtQtQtQtQtQtQtQt.#.#.b.b.b.a.b.b.a.aQtQtQtQtQtQtQtQtQtQtQtQt",
"QtQtQtQtQtQtQtQtQtQtQt.c.d.e.d.d.f.f.d.gQtQtQtQtQtQtQtQtQtQtQtQt",
"QtQtQtQtQtQtQtQtQtQt.g.c.h.i.j.k.l.i.m.fQtQtQtQtQtQtQtQtQtQtQtQt",
"QtQtQtQtQtQtQtQtQtQt.n.o.p.q.r.s.t.q.u.vQtQtQtQtQtQtQtQtQtQtQtQt",
"QtQtQtQtQtQtQtQtQtQt.d.d.w.x.y.z.y.A.B.d.CQtQtQtQtQtQtQtQtQtQtQt",
"QtQtQtQtQtQtQtQtQtQt.D.E.F.G.H.I.J.K.L.c.MQtQtQtQtQtQtQtQtQtQtQt",
"QtQtQtQtQtQtQtQtQt.M.N.O.P.Q.R.S.T.U.V.W.vQtQtQtQtQtQtQtQtQtQtQt",
"QtQtQtQtQtQtQtQt.X.f.Y.Z.0.1.2.2.3.4.5.6.d.eQtQtQtQtQtQtQtQtQtQt",
"QtQtQtQtQtQtQt.7.f.d.d.8.9#.#####.#.#a.d.d.d.DQtQtQtQtQtQtQtQtQt",
"QtQtQtQtQtQtQt.c.d.d.d.d.d.d.d.d.d.d.d.d.d.d.d.vQtQtQtQtQtQtQtQt",
"QtQtQtQtQtQtQt.d.d.d.d#b#c.d#d#e#f#g#h#i#b.d.d.d#jQtQtQtQtQtQtQt",
"QtQtQtQtQtQt.f.d#k.d#l.d.d.d.d#m#n#o#p#q#r#s.d.d.cQtQtQtQtQtQtQt",
"QtQtQtQtQtQt.d.d#t#t#u#v#v.d.d.d#w#w#w.d.d#x.d.d.dQtQtQtQtQtQtQt",
"QtQtQtQtQtQt.d.d.d#y#z#A#B#B#v#C#C#C#w.d.d.d.d.f.dQtQtQtQtQtQtQt",
"QtQtQtQtQtQt.d.d.d#B#D#A#E#F#F#G#H#I#v.d.d#v#v.c.dQtQtQtQtQtQtQt",
"QtQtQtQtQtQt.d.d.d#J#K#A#E#F#L#M#M#M#N#B#B#O.D.D.dQtQtQtQtQtQtQt",
"QtQtQtQtQtQt.d.d.d#P#A#A#E#F#M#M#M#M#L#Q#R#S.v.v.dQtQtQtQtQtQtQt",
"QtQtQtQtQtQt.f.d.d#T#A#A#E#F#M#M#M#M#M#U#V#W#X#X.DQtQtQtQtQtQtQt",
"QtQtQtQtQtQt.c.d.d#Y#A#A#E#Z#0#M#0#0#1#2#3#4#5#5#XQtQtQtQtQtQtQt",
"QtQtQtQtQtQt.e.d.d#6#A#A#E#7#0#0#0#7#1#2#8#9.g.g#jQtQtQtQtQtQtQt",
"QtQtQtQtQtQt.c.d.da.#A#A#E#F#G#H#Ia#aa#U#N#9.g.gabQtQtQtQtQtQtQt",
"QtQtQtQtQtQtac.d.dad#A#A#E#L#M#M#M#Laeae#8af#5#5#jQtQtQtQtQtQtQt",
"QtQtQtQtQtQt.M.d.d#J#Kagah#G#Haiajae#Nak#3alacac.XQtQtQtQtQtQtQt",
"QtQtQtQtQtQtQt.f.dam#Vanaoap#Hai#N#N#NaqarasatatQtQtQtQtQtQtQtQt",
"QtQtQtQtQtQtQtau.davawaxay#G#HaiaaaaaaazaAaBaCaCQtQtQtQtQtQtQtQt",
"QtQtQtQtQtQtQtQtaD.daEaFaGaHaiaIaJaKaLaMaN.d.d.dQtQtQtQtQtQtQtQt",
"QtQtQtQtQtQtQtQtQtaKaOaPaQaRaRaRaKaSaTaUaVaWaXQtQtQtQtQtQtQtQtQt",
"QtQtQtQtQtQtQtaY.OaZaKaKaQa0a1aKQtQta2a3a4a5a5a6a7Qt#u#uQtQtQtQt",
"QtQtQtQtQtQta2.0a8a9a9.QaKaQaKQtQtQtb.a2b#bababbaZQt#u#uQtQtQtQt"};
