/* XPM */
static char * digger11_xpm[] = {
"32 32 203 2",
"  	c None",
". 	c #CCC100",
"+ 	c #FFE900",
"@ 	c #EDE900",
"# 	c #636363",
"$ 	c #181818",
"% 	c #4A4A4C",
"& 	c #DADADC",
"* 	c #5E5E5C",
"= 	c #2A2A24",
"- 	c #D2D2D4",
"; 	c #2E2E2C",
"> 	c #080808",
", 	c #393939",
"' 	c #525252",
") 	c #F2F2F4",
"! 	c #FAFAFC",
"~ 	c #8E8E8C",
"{ 	c #565654",
"] 	c #DEDEDC",
"^ 	c #F6F6F4",
"/ 	c #313131",
"( 	c #000000",
"_ 	c #BEBEBC",
": 	c #060604",
"< 	c #020204",
"[ 	c #362E24",
"} 	c #666664",
"| 	c #E2E2E4",
"1 	c #949494",
"2 	c #212121",
"3 	c #523918",
"4 	c #E78C4A",
"5 	c #D65A08",
"6 	c #EF8421",
"7 	c #FFEFBD",
"8 	c #E7D6AD",
"9 	c #EFD68C",
"0 	c #E7CE94",
"a 	c #8C8C8C",
"b 	c #945200",
"c 	c #FF7300",
"d 	c #FF7308",
"e 	c #FFA542",
"f 	c #FFC67B",
"g 	c #FFD6A5",
"h 	c #FFE7AD",
"i 	c #FFDE84",
"j 	c #FFB539",
"k 	c #5A4208",
"l 	c #9C9C9C",
"m 	c #7B4A00",
"n 	c #DE6B00",
"o 	c #FF6310",
"p 	c #FF7310",
"q 	c #FF7B10",
"r 	c #FF8C18",
"s 	c #EF9C39",
"t 	c #D6AD63",
"u 	c #735A29",
"v 	c #101010",
"w 	c #ADADAD",
"x 	c #180800",
"y 	c #291000",
"z 	c #211000",
"A 	c #210800",
"B 	c #080000",
"C 	c #040304",
"D 	c #1D1D1D",
"E 	c #838283",
"F 	c #A4A3A4",
"G 	c #A5A4A5",
"H 	c #8E8D8E",
"I 	c #575657",
"J 	c #282728",
"K 	c #0E0D0E",
"L 	c #7B7B7B",
"M 	c #191819",
"N 	c #FEFDF6",
"O 	c #EBEAEA",
"P 	c #DBDADB",
"Q 	c #C7C6C7",
"R 	c #363536",
"S 	c #1A191A",
"T 	c #060606",
"U 	c #010101",
"V 	c #050505",
"W 	c #616061",
"X 	c #E4E3E2",
"Y 	c #D3D2D3",
"Z 	c #C2C1C2",
"` 	c #B4B3B4",
" .	c #F5E0C4",
"..	c #474747",
"+.	c #E09D45",
"@.	c #898989",
"#.	c #E4A85B",
"$.	c #7A797A",
"%.	c #464646",
"&.	c #6E7CD1",
"*.	c #5363C8",
"=.	c #606060",
"-.	c #DCDBDC",
";.	c #B6B5B6",
">.	c #939293",
",.	c #5C5C5C",
"'.	c #D9D9D3",
").	c #FEFDF7",
"!.	c #FFC9BB",
"~.	c #FF6941",
"{.	c #C5C4C5",
"].	c #B8B7B8",
"^.	c #A2A1A2",
"/.	c #797979",
"(.	c #E2E2DB",
"_.	c #FFFFF7",
":.	c #CDCCCD",
"<.	c #C0BFC0",
"[.	c #B2B1B2",
"}.	c #929292",
"|.	c #4A4A4A",
"1.	c #E3E3DD",
"2.	c #C97676",
"3.	c #C9C8C9",
"4.	c #BEBDBE",
"5.	c #A2A2A2",
"6.	c #5A5A5A",
"7.	c #E8E8E2",
"8.	c #FF5427",
"9.	c #C1C0C1",
"0.	c #AAAAAA",
"a.	c #ECECE5",
"b.	c #C26363",
"c.	c #BCBBBC",
"d.	c #6B6B6B",
"e.	c #424242",
"f.	c #E0E0DA",
"g.	c #F8F7F6",
"h.	c #A9A9A9",
"i.	c #C4C4C4",
"j.	c #F6F5F2",
"k.	c #FBFAF5",
"l.	c #EEEEEE",
"m.	c #E6E5E6",
"n.	c #C4C3C4",
"o.	c #9D9D9D",
"p.	c #5B5B61",
"q.	c #FAF9F3",
"r.	c #E5E5E5",
"s.	c #2D3C92",
"t.	c #CAC9CA",
"u.	c #B7B6B7",
"v.	c #818183",
"w.	c #181821",
"x.	c #8C8484",
"y.	c #473305",
"z.	c #77693F",
"A.	c #A6A594",
"B.	c #CECED5",
"C.	c #6C7BD1",
"D.	c #DACCAD",
"E.	c #C7AF7C",
"F.	c #9F7E3C",
"G.	c #6B4A08",
"H.	c #9C6B4A",
"I.	c #0B0802",
"J.	c #3E3114",
"K.	c #493F2C",
"L.	c #C1BEBC",
"M.	c #BFBEBF",
"N.	c #4C4438",
"O.	c #423315",
"P.	c #999999",
"Q.	c #3F1F0E",
"R.	c #CE8A00",
"S.	c #CC8B03",
"T.	c #C78D13",
"U.	c #FFFFFF",
"V.	c #33312A",
"W.	c #353535",
"X.	c #363635",
"Y.	c #50402A",
"Z.	c #BA8020",
"`.	c #AD7005",
" +	c #B37500",
".+	c #FF7B29",
"++	c #FF9400",
"@+	c #FFAD00",
"#+	c #FF7331",
"$+	c #9563EE",
"%+	c #6C7CE7",
"&+	c #6070D7",
"*+	c #957996",
"=+	c #F78B01",
"-+	c #FFA500",
";+	c #FFCE4A",
">+	c #FFAD63",
",+	c #FFA54A",
"'+	c #FF9C18",
")+	c #7384E9",
"!+	c #8766A3",
"~+	c #FFB584",
"{+	c #FF8C39",
"                    . + . + . +                                 ",
"                  . . + . + . + .                               ",
"                  @ . + . + . + @                               ",
"                . . @ @ @ + @ @ + +                             ",
"                # $ % & * = - & ; >                             ",
"                , ' ) ! ~ { ] ! ^ /                             ",
"                ( ( _ : < [ < } | ( 1                           ",
"                2 3 4 5 6 7 8 9 0 $ a                           ",
"              a b c d e f g h i j k /                           ",
"            l > m n o p q q r s t u ( v                         ",
"          w > ( ( x y z A A z z B ( ( ( 2                       ",
"          $ ( ( ( ( ( ( ( ( ( ( ( ( ( ( ( /                     ",
"          ( ( ( ( C D E F G H I J K C ( ( ( L                   ",
"        > ( ( ( M ( ( N O P Q ( ( R S T ( ( $                   ",
"        ( ( U V W ( ( N X Y Z ` ( ( (  .( ( (                   ",
"        ( ( V ..( ( ( (  . . .( ( ( ( +.> > (                   ",
"        ( ( ( @.( ( ( +.#.#.#.+.( @.$.%.$ $ (                   ",
"        ( ( ( +.+.( ( N &.*.=.-.@.;.>.,.2 2 (                   ",
"        ( ( ( '.).@.@.!.~.~.~.!.{.].^././ / (                   ",
"        > ( ( (.).)._.~.~.~.~.~.:.<.[.}.|.|.2                   ",
"        $ ( ( 1.).)._.N ~.~.~.~.2.3.4.5.6.6.|.                  ",
"        v ( ( 7.).)._.N 8.2.~.2.2.3.9.0.# # L                   ",
"        $ ( ( a.).)._.N b.2.2.2.b.<.c.0.# # d.                  ",
"        e.( ( f.).)._.N g.&.*.=.{.{.9.h.6.6.L                   ",
"        a ( ( i.j.k.l.m.!.~.~.~.!.n.4.o.e.e.l                   ",
"          > ( p.[.q.r.:.Q &.*.s.c.t.u.v.w.w.                    ",
"          x.( y.z.A.B.:.:.C.*.s.:.D.E.F.G.G.                    ",
"            H.( I.J.K.L.M.M.&.*.s.N.O.( P.P.                    ",
"              Q.R.S.T.U.V.W.X.s.Y.Z.`. +P.P.                    ",
"          .+c ++@+@+#+  U.$+%+&+&+*+=+U.-+@+;+                  ",
"        #+o >+,+,+e '+U.  U.)+%+!+U.U.~+~+{+++                  ",
"                            U.)+U.      U.                      "};
