/* XPM */
static char*digger1[]={
"32 32 195 2",
"#A c #d1d0ce",
".f c #dadadc",
"aX c #50599a",
"an c #818183",
"ac c #424242",
"#r c #363536",
".H c #ffefbd",
".E c #e78c4a",
"aJ c #c68c12",
"#E c #cdcccd",
".Y c #de6b00",
"aG c #3f1f0e",
"#0 c #b2b1b2",
".A c #e2e2e4",
"az c #9c6b4a",
".J c #efd68c",
"ba c #ff8c39",
"#W c #4a4a4a",
"#5 c #d5d4d5",
"a2 c #616061",
"aO c #ad7005",
".j c #2e2e2c",
".m c #525252",
"aQ c #180d04",
"ai c #faf9f3",
".O c #ff7308",
".x c #020204",
".n c #f2f2f4",
"#I c #f6f5f2",
"ax c #9f7e3c",
"aM c #b5b3b3",
"#2 c #5a5a5a",
"au c #6c7bd1",
".1 c #ff7b10",
"#l c #010101",
"ar c #77693f",
".8 c #180800",
"al c #cac9ca",
".o c #fafafc",
"## c #210800",
"ae c #edeced",
".G c #ef8421",
"aE c #4c4438",
"aD c #b6b0aa",
"a0 c #ffa500",
"am c #b7b6b7",
".2 c #ff8c18",
"ao c #181821",
"aB c #3e3114",
"b. c #ffb57b",
"#i c #282728",
"aW c #6070d7",
"aL c #bfbebf",
".3 c #ef9c39",
"#e c #a4a3a4",
".q c #565654",
"#q c #c7c6c7",
"#3 c #e3e3dd",
".T c #ffde84",
".C c #212121",
"#t c #060606",
".4 c #d6ad63",
".g c #5e5e5c",
"aF c #423315",
"a8 c #8754e0",
"as c #a6a594",
"a5 c #ffa54a",
".z c #666664",
".Z c #ff6310",
".t c #313131",
"#N c #bcbbbc",
"aU c #6c75ba",
".7 c #adadad",
"at c #ceced5",
"a4 c #ffad63",
"#1 c #929292",
".l c #393939",
"af c #e0e0da",
"av c #daccad",
"#Q c #5c5c5c",
"a3 c #ff7331",
"#g c #8e8d8e",
"a6 c #ff9c18",
"ay c #6b4a08",
"#9 c #e8e8e2",
"#s c #1a191a",
".e c #4a4a4c",
"#8 c #a2a2a2",
"#n c #fefdf6",
"a7 c #7384e9",
"#X c #e2e2db",
"aP c #b37500",
"aq c #473305",
"aa c #aaaaaa",
"#d c #838283",
".5 c #735a29",
"aA c #0b0802",
"a# c #c1c0c1",
"aV c #6c7ce7",
".p c #8e8e8c",
"ak c #2d3c92",
".U c #ffb539",
".u c #000000",
"#x c #f5e0c4",
"#6 c #c9c8c9",
"#a c #080000",
".R c #ffd6a5",
"#K c #fffff7",
".0 c #ff7310",
".k c #080808",
"aS c #ff9400",
"#P c #939293",
"#G c #464646",
".D c #523918",
"#O c #b6b5b6",
"aR c #ff7b29",
"ap c #8c8484",
"#b c #040304",
".6 c #101010",
"#L c #ffc9bb",
"aj c #e5e5e5",
"#B c #6e7cd1",
".L c #8c8c8c",
".S c #ffe7ad",
"#7 c #bebdbe",
"aw c #c7af7c",
".d c #181818",
"#J c #fefdf7",
".B c #949494",
"#V c #797979",
"#z c #e4a85b",
"#u c #050505",
".W c #9c9c9c",
".M c #945200",
"a9 c #ff4a08",
"#4 c #ff5427",
".y c #362e24",
"#C c #5363c8",
".N c #ff7300",
".v c #bebebc",
".# c #ccc100",
"aK c #c1bebc",
"#w c #898989",
"#M c #ff6941",
"#o c #ebeaea",
"ad c #ecece5",
"#c c #1d1d1d",
".b c #ede900",
"#. c #211000",
"#v c #e6e5e6",
"a1 c #ffce4a",
".9 c #291000",
".V c #5a4208",
"#y c #e09d45",
".a c #ffe900",
"aY c #f78c21",
"#m c #191819",
"aT c #ffad00",
"aC c #493f2c",
"#h c #575657",
".F c #d65a08",
".c c #636363",
"#F c #7a797a",
"b# c #ffb584",
"Qt c None",
"#T c #b8b7b8",
"#H c #c4c4c4",
"ah c #5b5b61",
"ab c #6b6b6b",
".r c #dededc",
"ag c #a9a9a9",
"#p c #dbdadb",
"#Z c #c0bfc0",
"#j c #0e0d0e",
".K c #e7ce94",
".h c #2a2a24",
"#f c #a5a4a5",
".Q c #ffc67b",
"#Y c #c97676",
"#k c #7b7b7b",
"aN c #50402a",
".I c #e7d6ad",
".P c #ffa542",
"#D c #606060",
".w c #060604",
"aZ c #f78c00",
".s c #f6f6f4",
"aI c #ffffff",
"aH c #ce8a00",
"a. c #c26363",
"#R c #d9d9d3",
"#U c #a2a1a2",
".i c #d2d2d4",
"#S c #c5c4c5",
".X c #7b4a00",
"QtQtQtQtQtQtQtQtQtQtQtQt.#.a.#.a.#.aQtQtQtQtQtQtQtQtQtQtQtQtQtQt",
"QtQtQtQtQtQtQtQtQtQtQt.#.#.a.#.a.#.a.#QtQtQtQtQtQtQtQtQtQtQtQtQt",
"QtQtQtQtQtQtQtQtQtQtQt.b.#.a.#.a.#.a.bQtQtQtQtQtQtQtQtQtQtQtQtQt",
"QtQtQtQtQtQtQtQtQtQt.#.#.b.b.b.a.b.b.a.aQtQtQtQtQtQtQtQtQtQtQtQt",
"QtQtQtQtQtQtQtQtQtQt.c.d.e.f.g.h.i.f.j.kQtQtQtQtQtQtQtQtQtQtQtQt",
"QtQtQtQtQtQtQtQtQtQt.l.m.n.o.p.q.r.o.s.tQtQtQtQtQtQtQtQtQtQtQtQt",
"QtQtQtQtQtQtQtQtQtQt.u.u.v.w.x.y.x.z.A.u.BQtQtQtQtQtQtQtQtQtQtQt",
"QtQtQtQtQtQtQtQtQtQt.C.D.E.F.G.H.I.J.K.d.LQtQtQtQtQtQtQtQtQtQtQt",
"QtQtQtQtQtQtQtQtQt.L.M.N.O.P.Q.R.S.T.U.V.tQtQtQtQtQtQtQtQtQtQtQt",
"QtQtQtQtQtQtQtQt.W.k.X.Y.Z.0.1.1.2.3.4.5.u.6QtQtQtQtQtQtQtQtQtQt",
"QtQtQtQtQtQtQt.7.k.u.u.8.9#.#####.#.#a.u.u.u.CQtQtQtQtQtQtQtQtQt",
"QtQtQtQtQtQtQt.d.u.u.u.u.u.u.u.u.u.u.u.u.u.u.u.tQtQtQtQtQtQtQtQt",
"QtQtQtQtQtQtQt.u.u.u.u#b#c#d#e#f#g#h#i#j#b.u.u.u#kQtQtQtQtQtQtQt",
"QtQtQtQtQtQt.k.u#l.u#m.u.u#n#o#p#q.u.u#r#s#t.u.u.dQtQtQtQtQtQtQt",
"QtQtQtQtQtQt.u.u#u.u.u.u.u#v#v#v#v.u.u.u.u#w.u.u.uQtQtQtQtQtQtQt",
"QtQtQtQtQtQt.u.u.u#w.u.u.u.u#x#x#x.u.u.u.u#x.k.k.uQtQtQtQtQtQtQt",
"QtQtQtQtQtQt.u.u.u#y#y.u.u#y#z#z#z#y.u.u#y#y.d.d.uQtQtQtQtQtQtQt",
"QtQtQtQtQtQt.u.u.u#w#A#w#w#n#B#C#D#E#w#w#F#G.C.C.uQtQtQtQtQtQtQt",
"QtQtQtQtQtQt.u.u.u#H#I#J#K#L#M#M#M#L#N#O#P#Q.t.t.uQtQtQtQtQtQtQt",
"QtQtQtQtQtQt.k.u.u#R#J#J#K#M#M#M#M#M#S#T#U#V#W#W.CQtQtQtQtQtQtQt",
"QtQtQtQtQtQt.d.u.u#X#J#J#K#M#M#M#M#Y#E#Z#0#1#2#2#WQtQtQtQtQtQtQt",
"QtQtQtQtQtQt.6.u.u#3#J#J#K#4#Y#M#Y#Y#5#6#7#8.c.c#kQtQtQtQtQtQtQt",
"QtQtQtQtQtQt.d.u.u#9#J#J#Ka.#Y#Y#Ya.#5#6a#aa.c.cabQtQtQtQtQtQtQt",
"QtQtQtQtQtQtac.u.uad#J#J#K#n#B#C#Dae#E#Z#Naa#2#2#kQtQtQtQtQtQtQt",
"QtQtQtQtQtQt.L.u.uaf#J#J#K#L#M#M#M#L#S#Sa#agacac.WQtQtQtQtQtQtQt",
"QtQtQtQtQtQtQt.k.uah#0aiaj#v#B#Cak#S#NalamanaoaoQtQtQtQtQtQtQtQt",
"QtQtQtQtQtQtQtap.uaqarasat#Eau#Cak#N#EavawaxayayQtQtQtQtQtQtQtQt",
"QtQtQtQtQtQtQtQtaz.uaAaBaC#E#B#Cak#EaDaEaF.u.u.uQtQtQtQtQtQtQtQt",
"QtQtQtQtQtQtQtQtQtaGaHaIaJaKaLak#OaMaNaIaOaPaQQtQtQtQtQtQtQtQtQt",
"QtQtQtQtQtQtQtaR.NaSaTaTaIaUaVaWaWaXaIaYaZa0a0aTa1QtQtQtQtQtQtQt",
"QtQta2a2QtQta3.Za4a5a5.Pa6aIa7aVa8aIa9a3b.b#b#baaSQtQtQtQtQtQtQt",
"QtQta2a2QtQtQtQtQtQtQtQtaIQtaIa7aIQtaIQtQtQtQtQtQtQtQtQtQtQtQtQt"};
