/* XPM */
static char*digger12[]={
"32 32 195 2",
"#x c #d1d0ce",
".f c #dadadc",
"an c #818183",
"#9 c #424242",
".H c #ffefbd",
".E c #e78c4a",
"#R c #cdcccd",
".Y c #de6b00",
"aL c #3f1f0e",
"#T c #b2b1b2",
"#v c #595859",
".A c #e2e2e4",
"aA c #9c6b4a",
".J c #efd68c",
"ba c #ff8c39",
"#V c #4a4a4a",
"#Y c #d5d4d5",
"az c #616061",
"aV c #ad7005",
".j c #2e2e2c",
".m c #525252",
"aX c #180d04",
"aj c #faf9f3",
".O c #ff7308",
".x c #020204",
".n c #f2f2f4",
"#G c #f6f5f2",
"aw c #9f7e3c",
"#2 c #5a5a5a",
"af c #6c7bd1",
".1 c #ff7b10",
"#i c #010101",
"ar c #77693f",
".8 c #180800",
"al c #cac9ca",
".o c #fafafc",
"aD c #483e2b",
"## c #210800",
"#4 c #edeced",
".G c #ef8421",
"aJ c #4c4438",
"#o c #474747",
"aR c #5561ae",
"aI c #b6b0aa",
"a4 c #ffa500",
"am c #b7b6b7",
".2 c #ff8c18",
"ao c #181821",
"aC c #3e3114",
"b. c #ffb57b",
"aG c #6070d7",
".3 c #ef9c39",
"#c c #a4a3a4",
"ad c #eeeeee",
".q c #565654",
"#W c #e3e3dd",
".T c #ffde84",
".C c #212121",
"ah c #9d9d9d",
".4 c #d6ad63",
".g c #5e5e5c",
"aK c #423315",
"as c #a6a594",
"a7 c #ffa54a",
".z c #666664",
".Z c #ff6310",
".t c #313131",
"#u c #bcbbbc",
".7 c #adadad",
"at c #ceced5",
"a6 c #ffad63",
"#U c #929292",
".l c #393939",
"ag c #c4c3c4",
"a. c #e0e0da",
"au c #daccad",
"#J c #5c5c5c",
"a1 c #ff7331",
"aU c #bc801c",
"#e c #8e8d8e",
"a8 c #ff9c18",
"ax c #6b4a08",
"#3 c #e8e8e2",
".e c #4a4a4c",
"#1 c #a2a2a2",
"aT c #503f2a",
"#q c #fefdf6",
"aQ c #7384e9",
"#P c #e2e2db",
"aW c #b37500",
"aq c #473305",
"#6 c #aaaaaa",
"aa c #dcdbdc",
"#b c #838283",
".5 c #735a29",
"aB c #0b0802",
"#5 c #c1c0c1",
"aF c #6c7ce7",
".p c #8e8e8c",
"a# c #2d3c92",
".U c #ffb539",
".u c #000000",
"#k c #f5e0c4",
"#Z c #c9c8c9",
"#a c #080000",
".R c #ffd6a5",
"#z c #fffff7",
"#p c #a4a3a0",
".0 c #ff7310",
".k c #080808",
"aZ c #ff9400",
"#I c #939293",
"#E c #464646",
".D c #523918",
"#H c #b6b5b6",
"aY c #ff7b29",
"ap c #8c8484",
"#g c #040304",
".6 c #101010",
"#A c #ffc9bb",
"ak c #e5e5e5",
"#r c #6e7cd1",
".L c #8c8c8c",
".S c #ffe7ad",
"#0 c #bebdbe",
"av c #c7af7c",
".d c #181818",
"#y c #fefdf7",
".B c #949494",
"#O c #797979",
"#n c #e4a85b",
"#l c #050505",
"aE c #8692dd",
".W c #9c9c9c",
".M c #945200",
"aO c #c78d13",
"a9 c #ff4a08",
"#Q c #ff5427",
"#w c #282828",
".y c #362e24",
"#s c #5363c8",
".N c #ff7300",
".v c #bebebc",
".# c #ccc100",
"#j c #898989",
"#B c #ff6941",
"#7 c #ecece5",
".b c #ede900",
"#. c #211000",
"ae c #e6e5e6",
"aP c #5a4a2c",
"ay c #999999",
"a5 c #ffce4a",
".9 c #291000",
".V c #5a4208",
"#m c #e09d45",
".a c #ffe900",
"a2 c #f78c21",
"a0 c #ffad00",
".F c #d65a08",
".c c #636363",
"#D c #7a797a",
"b# c #ffb584",
"Qt c None",
"aS c #33302b",
"#N c #b8b7b8",
"#F c #c4c4c4",
"ai c #5b5b61",
"#8 c #6b6b6b",
".r c #dededc",
"ab c #a9a9a9",
"#S c #c0bfc0",
"#f c #0e0d0e",
".K c #e7ce94",
".h c #2a2a24",
"#d c #a5a4a5",
".Q c #ffc67b",
"#L c #c97676",
"#h c #7b7b7b",
".I c #e7d6ad",
".P c #ffa542",
"#t c #606060",
"ac c #fbfaf5",
".w c #060604",
"a3 c #f78c00",
".s c #f6f6f4",
"aN c #cc8b03",
"aH c #7e88cb",
"aM c #ce8a00",
"#X c #c26363",
"#K c #d9d9d3",
"#C c #a2a1a2",
".i c #d2d2d4",
"#M c #c5c4c5",
".X c #7b4a00",
"QtQtQtQtQtQtQtQtQtQtQtQtQtQtQtQtQtQtQtQtQtQtQtQtQtQtQtQtQtQtQtQt",
"QtQtQtQtQtQtQtQtQtQt.#.a.#.a.#.aQtQtQtQtQtQtQtQtQtQtQtQtQtQtQtQt",
"QtQtQtQtQtQtQtQtQt.#.#.a.#.a.#.a.#QtQtQtQtQtQtQtQtQtQtQtQtQtQtQt",
"QtQtQtQtQtQtQtQtQt.b.#.a.#.a.#.a.bQtQtQtQtQtQtQtQtQtQtQtQtQtQtQt",
"QtQtQtQtQtQtQtQt.#.#.b.b.b.a.b.b.a.aQtQtQtQtQtQtQtQtQtQtQtQtQtQt",
"QtQtQtQtQtQtQtQt.c.d.e.f.g.h.i.f.j.kQtQtQtQtQtQtQtQtQtQtQtQtQtQt",
"QtQtQtQtQtQtQtQt.l.m.n.o.p.q.r.o.s.tQtQtQtQtQtQtQtQtQtQtQtQtQtQt",
"QtQtQtQtQtQtQtQt.u.u.v.w.x.y.x.z.A.u.BQtQtQtQtQtQtQtQtQtQtQtQtQt",
"QtQtQtQtQtQtQtQt.C.D.E.F.G.H.I.J.K.d.LQtQtQtQtQtQtQtQtQtQtQtQtQt",
"QtQtQtQtQtQtQt.L.M.N.O.P.Q.R.S.T.U.V.tQtQtQtQtQtQtQtQtQtQtQtQtQt",
"QtQtQtQtQtQt.W.k.X.Y.Z.0.1.1.2.3.4.5.u.6QtQtQtQtQtQtQtQtQtQtQtQt",
"QtQtQtQtQt.7.k.u.u.8.9#.#####.#.#a.u.u.u.CQtQtQtQtQtQtQtQtQtQtQt",
"QtQtQtQtQt.d.u.u.u.u.u.u.u.u.u.u.u.u.u.u.u.tQtQtQtQtQtQtQtQtQtQt",
"QtQtQtQtQt.u.u.u.u.u.u#b#c#d#e.u.u#f#g.u.u.u#hQtQtQtQtQtQtQtQtQt",
"QtQtQtQt.k.u#i#j.u.u.u.u#k#k#k.u.u.u.u#k.u.u.dQtQtQtQtQtQtQtQtQt",
"QtQtQtQt.u.u#l#m#m.u.u#m#n#n#n#m.u.u#m#m.u.u.uQtQtQtQtQtQtQtQtQt",
"QtQtQtQt.u.u.u#o#p#j#j#q#r#s#t#u#j#j#v#w.k.k.uQtQtQtQtQtQtQtQtQt",
"QtQtQtQt.u.u.u#j#x#y#z#A#B#B#B#A#u#C#D#E.d.d.uQtQtQtQtQtQtQtQtQt",
"QtQtQtQt.u.u.u#F#G#y#z#B#B#B#B#B#u#H#I#J.C.C.uQtQtQtQtQtQtQtQtQt",
"QtQtQtQt.u.u.u#K#y#y#z#B#B#B#B#L#M#N#C#O.t.t.uQtQtQtQtQtQtQtQtQt",
"QtQtQtQt.k.u.u#P#y#y#z#Q#L#B#L#L#R#S#T#U#V#V.CQtQtQtQtQtQtQtQtQt",
"QtQtQtQt.d.u.u#W#y#y#z#X#L#L#L#X#Y#Z#0#1#2#2#VQtQtQtQtQtQtQtQtQt",
"QtQtQtQt.6.u.u#3#y#y#z#q#r#s#t#4#Y#Z#5#6.c.c#hQtQtQtQtQtQtQtQtQt",
"QtQtQtQt.d.u.u#7#y#y#z#A#B#B#B#A#R#S#u#6.c.c#8QtQtQtQtQtQtQtQtQt",
"QtQtQtQt#9.u.ua.#y#y#z#q#r#sa#aa#M#M#5ab#2#2#hQtQtQtQtQtQtQtQtQt",
"QtQtQtQt.L.u.u#F#Gacadaeaf#sa##M#uag#0ah#9#9.WQtQtQtQtQtQtQtQtQt",
"QtQtQtQtQt.k.uai#Tajak#R#r#sa##u#ualamanaoaoQtQtQtQtQtQtQtQtQtQt",
"QtQtQtQtQtap.uaqarasat#R#Ra##Ral#RauavawaxaxQtQtayazQtQtQtQtQtQt",
"QtQtQtQtQtQtaA.uaBaCaDaEaFaGaGaHaIaJaK.u.u.uQtQtayazQtQtQtQtQtQt",
"QtQtQtQtQtQtQtaLaMaNaOaPaQaFaRaSaTaUaVaWaXQtQtQtQtQtQtQtQtQtQtQt",
"QtQtQtQtQtaY.NaZa0a0a1QtQtaQQtQta1a2a3a4a4a0a5QtQtQtQtQtQtQtQtQt",
"QtQtQtQta1.Za6a7a7.Pa8a1QtQtQtQta9a1b.b#b#baaZQtQtQtQtQtQtQtQtQt"};
