/* XPM */
static char * digger7_xpm[] = {
"32 32 194 2",
"  	c None",
". 	c #CCC100",
"+ 	c #FFE900",
"@ 	c #EDE900",
"# 	c #636363",
"$ 	c #181818",
"% 	c #4A4A4C",
"& 	c #DADADC",
"* 	c #5E5E5C",
"= 	c #2A2A24",
"- 	c #D2D2D4",
"; 	c #2E2E2C",
"> 	c #080808",
", 	c #393939",
"' 	c #525252",
") 	c #F2F2F4",
"! 	c #FAFAFC",
"~ 	c #8E8E8C",
"{ 	c #565654",
"] 	c #DEDEDC",
"^ 	c #F6F6F4",
"/ 	c #313131",
"( 	c #000000",
"_ 	c #BEBEBC",
": 	c #060604",
"< 	c #020204",
"[ 	c #362E24",
"} 	c #666664",
"| 	c #E2E2E4",
"1 	c #949494",
"2 	c #212121",
"3 	c #523918",
"4 	c #E78C4A",
"5 	c #D65A08",
"6 	c #EF8421",
"7 	c #FFEFBD",
"8 	c #E7D6AD",
"9 	c #EFD68C",
"0 	c #E7CE94",
"a 	c #8C8C8C",
"b 	c #945200",
"c 	c #FF7300",
"d 	c #FF7308",
"e 	c #FFA542",
"f 	c #FFC67B",
"g 	c #FFD6A5",
"h 	c #FFE7AD",
"i 	c #FFDE84",
"j 	c #FFB539",
"k 	c #5A4208",
"l 	c #9C9C9C",
"m 	c #7B4A00",
"n 	c #DE6B00",
"o 	c #FF6310",
"p 	c #FF7310",
"q 	c #FF7B10",
"r 	c #FF8C18",
"s 	c #EF9C39",
"t 	c #D6AD63",
"u 	c #735A29",
"v 	c #101010",
"w 	c #ADADAD",
"x 	c #180800",
"y 	c #291000",
"z 	c #211000",
"A 	c #210800",
"B 	c #080000",
"C 	c #040304",
"D 	c #1D1D1D",
"E 	c #838283",
"F 	c #A4A3A4",
"G 	c #A5A4A5",
"H 	c #8E8D8E",
"I 	c #575657",
"J 	c #282728",
"K 	c #0E0D0E",
"L 	c #7B7B7B",
"M 	c #010101",
"N 	c #191819",
"O 	c #FEFDF6",
"P 	c #EBEAEA",
"Q 	c #DBDADB",
"R 	c #C7C6C7",
"S 	c #363536",
"T 	c #1A191A",
"U 	c #060606",
"V 	c #050505",
"W 	c #E6E5E6",
"X 	c #898989",
"Y 	c #F5E0C4",
"Z 	c #E09D45",
"` 	c #E4A85B",
" .	c #D1D0CE",
"..	c #6E7CD1",
"+.	c #5363C8",
"@.	c #606060",
"#.	c #CDCCCD",
"$.	c #7A797A",
"%.	c #464646",
"&.	c #C4C4C4",
"*.	c #F6F5F2",
"=.	c #FEFDF7",
"-.	c #FFFFF7",
";.	c #FFC9BB",
">.	c #FF6941",
",.	c #BCBBBC",
"'.	c #B6B5B6",
").	c #939293",
"!.	c #5C5C5C",
"~.	c #D9D9D3",
"{.	c #C5C4C5",
"].	c #B8B7B8",
"^.	c #A2A1A2",
"/.	c #797979",
"(.	c #4A4A4A",
"_.	c #E2E2DB",
":.	c #C97676",
"<.	c #C0BFC0",
"[.	c #B2B1B2",
"}.	c #929292",
"|.	c #5A5A5A",
"1.	c #E3E3DD",
"2.	c #FF5427",
"3.	c #D5D4D5",
"4.	c #C9C8C9",
"5.	c #BEBDBE",
"6.	c #A2A2A2",
"7.	c #E8E8E2",
"8.	c #C26363",
"9.	c #C1C0C1",
"0.	c #AAAAAA",
"a.	c #6B6B6B",
"b.	c #424242",
"c.	c #ECECE5",
"d.	c #EDECED",
"e.	c #E0E0DA",
"f.	c #A9A9A9",
"g.	c #5B5B61",
"h.	c #FAF9F3",
"i.	c #E5E5E5",
"j.	c #2D3C92",
"k.	c #CAC9CA",
"l.	c #B7B6B7",
"m.	c #818183",
"n.	c #181821",
"o.	c #8C8484",
"p.	c #473305",
"q.	c #77693F",
"r.	c #A6A594",
"s.	c #CECED5",
"t.	c #6C7BD1",
"u.	c #DACCAD",
"v.	c #C7AF7C",
"w.	c #9F7E3C",
"x.	c #6B4A08",
"y.	c #9C6B4A",
"z.	c #0B0802",
"A.	c #3E3114",
"B.	c #493F2C",
"C.	c #B6B0AA",
"D.	c #4C4438",
"E.	c #423315",
"F.	c #FFFFFF",
"G.	c #3F1F0E",
"H.	c #CE8A00",
"I.	c #CC8B03",
"J.	c #C68C12",
"K.	c #C1BEBC",
"L.	c #BFBEBF",
"M.	c #B5B3B3",
"N.	c #50402A",
"O.	c #BC801C",
"P.	c #AD7005",
"Q.	c #B37500",
"R.	c #180D04",
"S.	c #FF7B29",
"T.	c #FF9400",
"U.	c #FFAD00",
"V.	c #FF7331",
"W.	c #6C75BA",
"X.	c #6C7CE7",
"Y.	c #6070D7",
"Z.	c #50599A",
"`.	c #FF7231",
" +	c #F78C21",
".+	c #FFA500",
"++	c #FFCE4A",
"@+	c #FFAD63",
"#+	c #FFA54A",
"$+	c #7384E9",
"%+	c #8754E0",
"&+	c #FFB57B",
"*+	c #FFB584",
"=+	c #FF8C39",
"                            . + . + . +                         ",
"                          . . + . + . + .                       ",
"                          @ . + . + . + @                       ",
"                        . . @ @ @ + @ @ + +                     ",
"                        # $ % & * = - & ; >                     ",
"                        , ' ) ! ~ { ] ! ^ /                     ",
"                        ( ( _ : < [ < } | ( 1                   ",
"                        2 3 4 5 6 7 8 9 0 $ a                   ",
"                      a b c d e f g h i j k /                   ",
"                    l > m n o p q q r s t u ( v                 ",
"                  w > ( ( x y z A A z z B ( ( ( 2               ",
"                  $ ( ( ( ( ( ( ( ( ( ( ( ( ( ( ( /             ",
"                  ( ( ( ( C D E F G H I J K C ( ( ( L           ",
"                > ( M ( N ( ( O P Q R ( ( S T U ( ( $           ",
"                ( ( V ( ( ( ( W W W W ( ( ( ( X ( ( (           ",
"                ( ( ( X ( ( ( ( Y Y Y ( ( ( ( Y > > (           ",
"                ( ( ( Z Z ( ( Z ` ` ` Z ( ( Z Z $ $ (           ",
"                ( ( ( X  .X X O ..+.@.#.X X $.%.2 2 (           ",
"                ( ( ( &.*.=.-.;.>.>.>.;.,.'.).!./ / (           ",
"                > ( ( ~.=.=.-.>.>.>.>.>.{.].^./.(.(.2           ",
"                $ ( ( _.=.=.-.>.>.>.>.:.#.<.[.}.|.|.(.          ",
"                v ( ( 1.=.=.-.2.:.>.:.:.3.4.5.6.# # L           ",
"                $ ( ( 7.=.=.-.8.:.:.:.8.3.4.9.0.# # a.          ",
"                b.( ( c.=.=.-.O ..+.@.d.#.<.,.0.|.|.L           ",
"                a ( ( e.=.=.-.;.>.>.>.;.{.{.9.f.b.b.l           ",
"                  > ( g.[.h.i.W ..+.j.{.,.k.l.m.n.n.            ",
"                  o.( p.q.r.s.#.t.+.j.,.#.u.v.w.x.x.            ",
"                    y.( z.A.B.#...+.j.#.C.D.E.( ( (             ",
"                    F.G.H.I.J.K.L.j.'.M.N.O.P.Q.R.F.            ",
"                  S.c T.F.U.V.W.X.Y.Y.Z.`. +F..+.+U.++          ",
"                  o @+#+#+F.F.  $+X.%+  F.F.&+*+*+=+T.          ",
"                              F.  $+  F.                        "};
