/* XPM */
static char*digger6[]={
"32 32 194 2",
"#x c #d1d0ce",
".i c #dadadc",
"an c #818183",
"#9 c #424242",
".I c #ffefbd",
".F c #e78c4a",
"#R c #cdcccd",
".Z c #de6b00",
"aJ c #3f1f0e",
"#T c #b2b1b2",
"#v c #595859",
".B c #e2e2e4",
"ay c #9c6b4a",
".K c #efd68c",
"b. c #ff8c39",
"#V c #4a4a4a",
"#Y c #d5d4d5",
"b# c #616061",
"aT c #ad7005",
".m c #2e2e2c",
".o c #525252",
"aV c #180d04",
"aj c #faf9f3",
".P c #ff7308",
".y c #020204",
".p c #f2f2f4",
"#G c #f6f5f2",
"aw c #9f7e3c",
"#2 c #5a5a5a",
"af c #6c7bd1",
".2 c #ff7b10",
"#i c #010101",
"ar c #77693f",
".8 c #180800",
"al c #cac9ca",
".q c #fafafc",
"aB c #483e2b",
"## c #210800",
"#4 c #edeced",
".H c #ef8421",
"aH c #4c4438",
"#o c #474747",
"aP c #5561ae",
"aG c #b6b0aa",
"a2 c #ffa500",
"am c #b7b6b7",
".3 c #ff8c18",
"ao c #181821",
"aA c #3e3114",
"a8 c #ffb57b",
"aE c #6070d7",
".4 c #ef9c39",
"#c c #a4a3a4",
"ad c #eeeeee",
".s c #565654",
"#W c #e3e3dd",
".U c #ffde84",
".D c #212121",
"ah c #9d9d9d",
".5 c #d6ad63",
".j c #5e5e5c",
"aI c #423315",
"as c #a6a594",
"a5 c #ffa54a",
".A c #666664",
".0 c #ff6310",
".v c #313131",
"#u c #bcbbbc",
".7 c #adadad",
"at c #ceced5",
"a4 c #ffad63",
"#U c #929292",
".n c #393939",
"ag c #c4c3c4",
"a. c #e0e0da",
"au c #daccad",
"#J c #5c5c5c",
"aZ c #ff7331",
"aS c #bc801c",
"#e c #8e8d8e",
"a6 c #ff9c18",
"ax c #6b4a08",
"#3 c #e8e8e2",
".h c #4a4a4c",
"#1 c #a2a2a2",
"aR c #503f2a",
"#q c #fefdf6",
"aO c #7384e9",
"#P c #e2e2db",
"aU c #b37500",
"aq c #473305",
"#6 c #aaaaaa",
"aa c #dcdbdc",
"#b c #838283",
".6 c #735a29",
"az c #0b0802",
"#5 c #c1c0c1",
"aD c #6c7ce7",
".r c #8e8e8c",
"a# c #2d3c92",
".V c #ffb539",
".d c #000000",
"#k c #f5e0c4",
"#Z c #c9c8c9",
"#a c #080000",
".S c #ffd6a5",
"#z c #fffff7",
"#p c #a4a3a0",
".1 c #ff7310",
".f c #080808",
"aX c #ff9400",
"#I c #939293",
"#E c #464646",
".E c #523918",
"#H c #b6b5b6",
"aW c #ff7b29",
"ap c #8c8484",
"#g c #040304",
".e c #101010",
"#A c #ffc9bb",
"ak c #e5e5e5",
"#r c #6e7cd1",
".M c #8c8c8c",
".T c #ffe7ad",
"#0 c #bebdbe",
"av c #c7af7c",
".c c #181818",
"#y c #fefdf7",
".C c #949494",
"#O c #797979",
"#n c #e4a85b",
"#l c #050505",
"aC c #8692dd",
".X c #9c9c9c",
".N c #945200",
"aM c #c78d13",
"a7 c #ff4a08",
"#Q c #ff5427",
"#w c #282828",
".z c #362e24",
"#s c #5363c8",
".O c #ff7300",
".w c #bebebc",
".# c #ccc100",
"#j c #898989",
"#B c #ff6941",
"#7 c #ecece5",
".b c #ede900",
"#. c #211000",
"ae c #e6e5e6",
"aN c #5a4a2c",
"a3 c #ffce4a",
".9 c #291000",
".W c #5a4208",
"#m c #e09d45",
".a c #ffe900",
"a0 c #f78c21",
"aY c #ffad00",
".G c #d65a08",
".g c #636363",
"#D c #7a797a",
"a9 c #ffb584",
"Qt c None",
"aQ c #33302b",
"#N c #b8b7b8",
"#F c #c4c4c4",
"ai c #5b5b61",
"#8 c #6b6b6b",
".t c #dededc",
"ab c #a9a9a9",
"#S c #c0bfc0",
"#f c #0e0d0e",
".L c #e7ce94",
".k c #2a2a24",
"#d c #a5a4a5",
".R c #ffc67b",
"#L c #c97676",
"#h c #7b7b7b",
".J c #e7d6ad",
".Q c #ffa542",
"#t c #606060",
"ac c #fbfaf5",
".x c #060604",
"a1 c #f78c00",
".u c #f6f6f4",
"aL c #cc8b03",
"aF c #7e88cb",
"aK c #ce8a00",
"#X c #c26363",
"#K c #d9d9d3",
"#C c #a2a1a2",
".l c #d2d2d4",
"#M c #c5c4c5",
".Y c #7b4a00",
"QtQtQtQtQtQtQtQtQtQtQtQtQtQt.#.a.#.a.#.aQtQtQtQtQtQtQtQtQtQtQtQt",
"QtQtQtQtQtQtQtQtQtQtQtQtQt.#.#.a.#.a.#.a.#QtQtQtQtQtQtQtQtQtQtQt",
"QtQtQtQtQtQtQtQtQtQtQtQtQt.b.#.a.#.a.#.a.bQtQtQtQtQtQtQtQtQtQtQt",
"QtQtQtQtQtQtQtQtQtQtQtQt.#.#.b.b.b.a.b.b.a.aQtQtQtQtQtQtQtQtQtQt",
"QtQtQtQtQtQtQtQtQtQtQtQtQt.c.d.e.d.d.f.f.d.gQtQtQtQtQtQtQtQtQtQt",
"QtQtQtQtQtQtQtQtQtQtQtQt.g.c.h.i.j.k.l.i.m.fQtQtQtQtQtQtQtQtQtQt",
"QtQtQtQtQtQtQtQtQtQtQtQt.n.o.p.q.r.s.t.q.u.vQtQtQtQtQtQtQtQtQtQt",
"QtQtQtQtQtQtQtQtQtQtQtQt.d.d.w.x.y.z.y.A.B.d.CQtQtQtQtQtQtQtQtQt",
"QtQtQtQtQtQtQtQtQtQtQtQt.D.E.F.G.H.I.J.K.L.c.MQtQtQtQtQtQtQtQtQt",
"QtQtQtQtQtQtQtQtQtQtQt.M.N.O.P.Q.R.S.T.U.V.W.vQtQtQtQtQtQtQtQtQt",
"QtQtQtQtQtQtQtQtQtQt.X.f.Y.Z.0.1.2.2.3.4.5.6.d.eQtQtQtQtQtQtQtQt",
"QtQtQtQtQtQtQtQtQt.7.f.d.d.8.9#.#####.#.#a.d.d.d.DQtQtQtQtQtQtQt",
"QtQtQtQtQtQtQtQtQt.c.d.d.d.d.d.d.d.d.d.d.d.d.d.d.d.vQtQtQtQtQtQt",
"QtQtQtQtQtQtQtQtQt.d.d.d.d.d.d#b#c#d#e.d.d#f#g.d.d.d#hQtQtQtQtQt",
"QtQtQtQtQtQtQtQt.f.d#i#j.d.d.d.d#k#k#k.d.d.d.d#k.d.d.cQtQtQtQtQt",
"QtQtQtQtQtQtQtQt.d.d#l#m#m.d.d#m#n#n#n#m.d.d#m#m.d.d.dQtQtQtQtQt",
"QtQtQtQtQtQtQtQt.d.d.d#o#p#j#j#q#r#s#t#u#j#j#v#w.f.f.dQtQtQtQtQt",
"QtQtQtQtQtQtQtQt.d.d.d#j#x#y#z#A#B#B#B#A#u#C#D#E.c.c.dQtQtQtQtQt",
"QtQtQtQtQtQtQtQt.d.d.d#F#G#y#z#B#B#B#B#B#u#H#I#J.D.D.dQtQtQtQtQt",
"QtQtQtQtQtQtQtQt.d.d.d#K#y#y#z#B#B#B#B#L#M#N#C#O.v.v.dQtQtQtQtQt",
"QtQtQtQtQtQtQtQt.f.d.d#P#y#y#z#Q#L#B#L#L#R#S#T#U#V#V.DQtQtQtQtQt",
"QtQtQtQtQtQtQtQt.c.d.d#W#y#y#z#X#L#L#L#X#Y#Z#0#1#2#2#VQtQtQtQtQt",
"QtQtQtQtQtQtQtQt.e.d.d#3#y#y#z#q#r#s#t#4#Y#Z#5#6.g.g#hQtQtQtQtQt",
"QtQtQtQtQtQtQtQt.c.d.d#7#y#y#z#A#B#B#B#A#R#S#u#6.g.g#8QtQtQtQtQt",
"QtQtQtQtQtQtQtQt#9.d.da.#y#y#z#q#r#sa#aa#M#M#5ab#2#2#hQtQtQtQtQt",
"QtQtQtQtQtQtQtQt.M.d.d#F#Gacadaeaf#sa##M#uag#0ah#9#9.XQtQtQtQtQt",
"QtQtQtQtQtQtQtQtQt.f.dai#Tajak#R#r#sa##u#ualamanaoaoQtQtQtQtQtQt",
"QtQtQtQtQtQtQtQtQtap.daqarasat#R#Ra##Ral#RauavawaxaxQtQtQtQtQtQt",
"QtQtQtQtQtQtQtQtQtQtay.dazaAaBaCaDaEaEaFaGaHaI.d.d.dQtQtQtQtQtQt",
"QtQtQtQtQtQtQtQtQtQtQtaJaKaLaMaNaOaDaPaQaRaSaTaUaVQtQtQtQtQtQtQt",
"QtQtQtQtQtQtQtQtQtaW.OaXaYaYaZQtQtaOQtQtaZa0a1a2a2aYa3QtQtQtQtQt",
"QtQtQtQtQtQtQtQtaZ.0a4a5a5.Qa6aZQtQtQtQta7aZa8a9a9b.aXQtb#b#QtQt"};
