/* XPM */
static char * digger13_xpm[] = {
"32 32 194 2",
"  	c None",
". 	c #CCC100",
"+ 	c #FFE900",
"@ 	c #EDE900",
"# 	c #181818",
"$ 	c #000000",
"% 	c #101010",
"& 	c #080808",
"* 	c #636363",
"= 	c #4A4A4C",
"- 	c #DADADC",
"; 	c #5E5E5C",
"> 	c #2A2A24",
", 	c #D2D2D4",
"' 	c #2E2E2C",
") 	c #393939",
"! 	c #525252",
"~ 	c #F2F2F4",
"{ 	c #FAFAFC",
"] 	c #8E8E8C",
"^ 	c #565654",
"/ 	c #DEDEDC",
"( 	c #F6F6F4",
"_ 	c #313131",
": 	c #BEBEBC",
"< 	c #060604",
"[ 	c #020204",
"} 	c #362E24",
"| 	c #666664",
"1 	c #E2E2E4",
"2 	c #949494",
"3 	c #212121",
"4 	c #523918",
"5 	c #E78C4A",
"6 	c #D65A08",
"7 	c #EF8421",
"8 	c #FFEFBD",
"9 	c #E7D6AD",
"0 	c #EFD68C",
"a 	c #E7CE94",
"b 	c #8C8C8C",
"c 	c #945200",
"d 	c #FF7300",
"e 	c #FF7308",
"f 	c #FFA542",
"g 	c #FFC67B",
"h 	c #FFD6A5",
"i 	c #FFE7AD",
"j 	c #FFDE84",
"k 	c #FFB539",
"l 	c #5A4208",
"m 	c #9C9C9C",
"n 	c #7B4A00",
"o 	c #DE6B00",
"p 	c #FF6310",
"q 	c #FF7310",
"r 	c #FF7B10",
"s 	c #FF8C18",
"t 	c #EF9C39",
"u 	c #D6AD63",
"v 	c #735A29",
"w 	c #ADADAD",
"x 	c #180800",
"y 	c #291000",
"z 	c #211000",
"A 	c #210800",
"B 	c #080000",
"C 	c #040304",
"D 	c #1D1D1D",
"E 	c #A4A3A4",
"F 	c #A5A4A5",
"G 	c #8E8D8E",
"H 	c #575657",
"I 	c #282728",
"J 	c #0E0D0E",
"K 	c #7B7B7B",
"L 	c #010101",
"M 	c #191819",
"N 	c #DBDADB",
"O 	c #C7C6C7",
"P 	c #A9A8A9",
"Q 	c #6A696A",
"R 	c #363536",
"S 	c #1A191A",
"T 	c #060606",
"U 	c #050505",
"V 	c #616061",
"W 	c #E09D45",
"X 	c #F5E0C4",
"Y 	c #0C0C0C",
"Z 	c #474747",
"` 	c #A4A3A0",
" .	c #FEFDF7",
"..	c #898989",
"+.	c #E4A85B",
"@.	c #D1D0CE",
"#.	c #FFFFF7",
"$.	c #FEFDF6",
"%.	c #6E7CD1",
"&.	c #5363C8",
"*.	c #606060",
"=.	c #C4C4C4",
"-.	c #F6F5F2",
";.	c #FFC9BB",
">.	c #FF6941",
",.	c #BCBBBC",
"'.	c #5C5C5C",
").	c #D9D9D3",
"!.	c #B8B7B8",
"~.	c #A2A1A2",
"{.	c #797979",
"].	c #E2E2DB",
"^.	c #C0BFC0",
"/.	c #B2B1B2",
"(.	c #929292",
"_.	c #4A4A4A",
":.	c #E3E3DD",
"<.	c #FF5427",
"[.	c #C97676",
"}.	c #D5D4D5",
"|.	c #C9C8C9",
"1.	c #BEBDBE",
"2.	c #A2A2A2",
"3.	c #5A5A5A",
"4.	c #E8E8E2",
"5.	c #C26363",
"6.	c #C1C0C1",
"7.	c #AAAAAA",
"8.	c #ECECE5",
"9.	c #EDECED",
"0.	c #CDCCCD",
"a.	c #6B6B6B",
"b.	c #424242",
"c.	c #E0E0DA",
"d.	c #C5C4C5",
"e.	c #A9A9A9",
"f.	c #FBFAF5",
"g.	c #EEEEEE",
"h.	c #2D3C92",
"i.	c #CCCBCC",
"j.	c #C4C3C4",
"k.	c #9D9D9D",
"l.	c #5B5B61",
"m.	c #FAF9F3",
"n.	c #E5E5E5",
"o.	c #6C7BD1",
"p.	c #CAC9CA",
"q.	c #B7B6B7",
"r.	c #818183",
"s.	c #181821",
"t.	c #473305",
"u.	c #77693F",
"v.	c #A6A594",
"w.	c #CECED5",
"x.	c #DACCAD",
"y.	c #C7AF7C",
"z.	c #9F7E3C",
"A.	c #6B4A08",
"B.	c #0B0802",
"C.	c #3D3013",
"D.	c #6872BA",
"E.	c #C1BEBC",
"F.	c #BFBEBF",
"G.	c #B4B3B4",
"H.	c #FFFFFF",
"I.	c #B6B0AA",
"J.	c #4C4438",
"K.	c #423315",
"L.	c #CE8A00",
"M.	c #CC8904",
"N.	c #7384E9",
"O.	c #6070D7",
"P.	c #33302B",
"Q.	c #50402A",
"R.	c #BC801C",
"S.	c #AD7005",
"T.	c #B37500",
"U.	c #180D04",
"V.	c #FF7B29",
"W.	c #FF9400",
"X.	c #6C7CE7",
"Y.	c #8754E0",
"Z.	c #FF7331",
"`.	c #F78C21",
" +	c #F78C00",
".+	c #FFA500",
"++	c #FFAD00",
"@+	c #FFCE4A",
"#+	c #FFAD63",
"$+	c #FFA54A",
"%+	c #FF4A08",
"&+	c #FFB57B",
"*+	c #FFB584",
"=+	c #FF8C39",
"                    . + . + . +                                 ",
"                  . . + . + . + .                               ",
"                  @ . + . + . + @                               ",
"                . . @ @ @ + @ @ + +                             ",
"                  # $ % $ $ & & $ *                             ",
"                * # = - ; > , - ' &                             ",
"                ) ! ~ { ] ^ / { ( _                             ",
"                $ $ : < [ } [ | 1 $ 2                           ",
"                3 4 5 6 7 8 9 0 a # b                           ",
"              b c d e f g h i j k l _                           ",
"            m & n o p q r r s t u v $ %                         ",
"          w & $ $ x y z A A z z B $ $ $ 3                       ",
"          # $ $ $ $ $ $ $ $ $ $ $ $ $ $ $ _                     ",
"          $ $ $ $ C D $ E F G H I J C $ $ $ K                   ",
"        & $ L $ M $ $ $ $ N O P Q R S T $ $ #                   ",
"        $ $ U U V W W $ $ $ X X X $ $ Y $ $ $                   ",
"        $ $ $ Z `  .....W +.+.+.X $ $ $ $ & $                   ",
"        $ $ $ ..@. .#.$.$.%.&.*.W $ $ W W # $                   ",
"        $ $ $ =.-. .#.$.;.>.>.>.,.....'.3 3 $                   ",
"        $ $ $ ). . .#.$.>.>.>.>.;.!.~.{._ _ $                   ",
"        & $ $ ]. . .#.$.>.>.>.>.>.^./.(._._.3                   ",
"        # $ $ :. . .#.<.[.>.[.[.}.|.1.2.3.3._.                  ",
"        % $ $ 4. . .#.5.[.[.[.5.}.|.6.7.* * K                   ",
"        # $ $ 8. . .#.$.%.&.*.9.0.^.,.7.* * a.                  ",
"        b.$ $ c. . .#.;.>.>.>.;.d.d.6.e.3.3.K                   ",
"        b $ $ =.-.f.g.%.&.h.i.d.,.j.1.k.b.b.m                   ",
"          & $ l./.m.n.o.&.h.,.,.,.p.q.r.s.s.                    ",
"          @.@.t.u.v.w.%.&.h.0.0.0.x.y.z.A.A.                    ",
"          V @.$ B.C.D.E.h.F.G.H.I.J.K.$ $ $                     ",
"              H.L.M.N.O.O.O.H.P.Q.R.S.T.U.          V V         ",
"          V.d W.H.H.N.X.Y.H.    Z.`. +.+.+++@+      V V         ",
"        Z.p #+$+$+f H.N.H.      %+Z.&+*+*+=+W.                  "};
