/* XPM */
static char * digger10_xpm[] = {
"32 32 193 2",
"  	c None",
". 	c #CCC100",
"+ 	c #FFE900",
"@ 	c #EDE900",
"# 	c #636363",
"$ 	c #181818",
"% 	c #4A4A4C",
"& 	c #DADADC",
"* 	c #5E5E5C",
"= 	c #2A2A24",
"- 	c #D2D2D4",
"; 	c #2E2E2C",
"> 	c #080808",
", 	c #393939",
"' 	c #525252",
") 	c #F2F2F4",
"! 	c #FAFAFC",
"~ 	c #8E8E8C",
"{ 	c #565654",
"] 	c #DEDEDC",
"^ 	c #F6F6F4",
"/ 	c #313131",
"( 	c #000000",
"_ 	c #BEBEBC",
": 	c #060604",
"< 	c #020204",
"[ 	c #362E24",
"} 	c #666664",
"| 	c #E2E2E4",
"1 	c #949494",
"2 	c #212121",
"3 	c #523918",
"4 	c #E78C4A",
"5 	c #D65A08",
"6 	c #EF8421",
"7 	c #FFEFBD",
"8 	c #E7D6AD",
"9 	c #EFD68C",
"0 	c #E7CE94",
"a 	c #8C8C8C",
"b 	c #945200",
"c 	c #FF7300",
"d 	c #FF7308",
"e 	c #FFA542",
"f 	c #FFC67B",
"g 	c #FFD6A5",
"h 	c #FFE7AD",
"i 	c #FFDE84",
"j 	c #FFB539",
"k 	c #5A4208",
"l 	c #9C9C9C",
"m 	c #7B4A00",
"n 	c #DE6B00",
"o 	c #FF6310",
"p 	c #FF7310",
"q 	c #FF7B10",
"r 	c #FF8C18",
"s 	c #EF9C39",
"t 	c #D6AD63",
"u 	c #735A29",
"v 	c #101010",
"w 	c #ADADAD",
"x 	c #180800",
"y 	c #291000",
"z 	c #211000",
"A 	c #210800",
"B 	c #080000",
"C 	c #838283",
"D 	c #A4A3A4",
"E 	c #A5A4A5",
"F 	c #8E8D8E",
"G 	c #0E0D0E",
"H 	c #040304",
"I 	c #7B7B7B",
"J 	c #010101",
"K 	c #898989",
"L 	c #F5E0C4",
"M 	c #050505",
"N 	c #E09D45",
"O 	c #E4A85B",
"P 	c #474747",
"Q 	c #A4A3A0",
"R 	c #FEFDF6",
"S 	c #6E7CD1",
"T 	c #5363C8",
"U 	c #606060",
"V 	c #BCBBBC",
"W 	c #595859",
"X 	c #282828",
"Y 	c #D1D0CE",
"Z 	c #FEFDF7",
"` 	c #FFFFF7",
" .	c #FFC9BB",
"..	c #FF6941",
"+.	c #A2A1A2",
"@.	c #7A797A",
"#.	c #464646",
"$.	c #C4C4C4",
"%.	c #F6F5F2",
"&.	c #B6B5B6",
"*.	c #939293",
"=.	c #5C5C5C",
"-.	c #D9D9D3",
";.	c #C97676",
">.	c #C5C4C5",
",.	c #B8B7B8",
"'.	c #797979",
").	c #E2E2DB",
"!.	c #FF5427",
"~.	c #CDCCCD",
"{.	c #C0BFC0",
"].	c #B2B1B2",
"^.	c #929292",
"/.	c #4A4A4A",
"(.	c #E3E3DD",
"_.	c #C26363",
":.	c #D5D4D5",
"<.	c #C9C8C9",
"[.	c #BEBDBE",
"}.	c #A2A2A2",
"|.	c #5A5A5A",
"1.	c #E8E8E2",
"2.	c #EDECED",
"3.	c #C1C0C1",
"4.	c #AAAAAA",
"5.	c #ECECE5",
"6.	c #6B6B6B",
"7.	c #424242",
"8.	c #E0E0DA",
"9.	c #2D3C92",
"0.	c #DCDBDC",
"a.	c #A9A9A9",
"b.	c #FBFAF5",
"c.	c #EEEEEE",
"d.	c #E6E5E6",
"e.	c #6C7BD1",
"f.	c #C4C3C4",
"g.	c #9D9D9D",
"h.	c #5B5B61",
"i.	c #FAF9F3",
"j.	c #E5E5E5",
"k.	c #CAC9CA",
"l.	c #B7B6B7",
"m.	c #818183",
"n.	c #181821",
"o.	c #8C8484",
"p.	c #473305",
"q.	c #77693F",
"r.	c #A6A594",
"s.	c #CECED5",
"t.	c #DACCAD",
"u.	c #C7AF7C",
"v.	c #9F7E3C",
"w.	c #6B4A08",
"x.	c #9C6B4A",
"y.	c #0B0802",
"z.	c #3E3114",
"A.	c #483E2B",
"B.	c #8692DD",
"C.	c #6C7CE7",
"D.	c #6070D7",
"E.	c #7E88CB",
"F.	c #B6B0AA",
"G.	c #4C4438",
"H.	c #423315",
"I.	c #3F1F0E",
"J.	c #CE8A00",
"K.	c #CC8B03",
"L.	c #C78D13",
"M.	c #5A4A2C",
"N.	c #7384E9",
"O.	c #5561AE",
"P.	c #33302B",
"Q.	c #503F2A",
"R.	c #BC801C",
"S.	c #AD7005",
"T.	c #B37500",
"U.	c #180D04",
"V.	c #FF7B29",
"W.	c #FF9400",
"X.	c #FFAD00",
"Y.	c #FF7331",
"Z.	c #F78C21",
"`.	c #F78C00",
" +	c #FFA500",
".+	c #FFCE4A",
"++	c #FFAD63",
"@+	c #FFA54A",
"#+	c #FF9C18",
"$+	c #FF4A08",
"%+	c #FFB57B",
"&+	c #FFB584",
"*+	c #FF8C39",
"                                                                ",
"                        . + . + . +                             ",
"                      . . + . + . + .                           ",
"                      @ . + . + . + @                           ",
"                    . . @ @ @ + @ @ + +                         ",
"                    # $ % & * = - & ; >                         ",
"                    , ' ) ! ~ { ] ! ^ /                         ",
"                    ( ( _ : < [ < } | ( 1                       ",
"                    2 3 4 5 6 7 8 9 0 $ a                       ",
"                  a b c d e f g h i j k /                       ",
"                l > m n o p q q r s t u ( v                     ",
"              w > ( ( x y z A A z z B ( ( ( 2                   ",
"              $ ( ( ( ( ( ( ( ( ( ( ( ( ( ( ( /                 ",
"              ( ( ( ( ( ( C D E F ( ( G H ( ( ( I               ",
"            > ( J K ( ( ( ( L L L ( ( ( ( L ( ( $               ",
"            ( ( M N N ( ( N O O O N ( ( N N ( ( (               ",
"            ( ( ( P Q K K R S T U V K K W X > > (               ",
"            ( ( ( K Y Z `  ....... .V +.@.#.$ $ (               ",
"            ( ( ( $.%.Z ` ..........V &.*.=.2 2 (               ",
"            ( ( ( -.Z Z ` ........;.>.,.+.'./ / (               ",
"            > ( ( ).Z Z ` !.;...;.;.~.{.].^././.2               ",
"            $ ( ( (.Z Z ` _.;.;.;._.:.<.[.}.|.|./.              ",
"            v ( ( 1.Z Z ` R S T U 2.:.<.3.4.# # I               ",
"            $ ( ( 5.Z Z `  ....... .~.{.V 4.# # 6.              ",
"            7.( ( 8.Z Z ` R S T 9.0.>.>.3.a.|.|.I               ",
"            a ( ( $.%.b.c.d.e.T 9.>.V f.[.g.7.7.l               ",
"              > ( h.].i.j.~.S T 9.V V k.l.m.n.n.                ",
"              o.( p.q.r.s.~.~.9.~.k.~.t.u.v.w.w.                ",
"                x.( y.z.A.B.C.D.D.E.F.G.H.( ( (                 ",
"                  I.J.K.L.M.N.C.O.P.Q.R.S.T.U.                  ",
"              V.c W.X.X.Y.    N.    Y.Z.`. + +X..+              ",
"            Y.o ++@+@+e #+Y.        $+Y.%+&+&+*+W.              "};
