/* XPM */
static char*faller3[]={
"32 32 104 2",
".q c #424242",
"#q c #a56331",
"#. c #ffad18",
".m c #4a4a4a",
".3 c #c6c6c6",
".6 c #525252",
".O c #ad4a00",
".p c #cecece",
"#H c #4a3910",
"#A c #ffbd4a",
".Y c #5a5a5a",
"#k c #ff9c00",
".7 c #5a3910",
".v c #d6d6d6",
"#I c #ffc639",
".K c #ffe7a5",
".s c #dedede",
"#v c #ffa500",
"#e c #ffce52",
"#l c #ffce63",
".x c #ff9431",
".k c #212121",
"#z c #ff7b00",
".F c #ad5a00",
".d c #292929",
".z c #ffa539",
".l c #a5a5a5",
".j c #313131",
"#m c #ff8400",
".H c #ffad52",
".n c #adadad",
".t c #522918",
"#J c #ff8c08",
".g c #393939",
".1 c #b5b5b5",
"#y c #ffb500",
"#D c #ff9421",
"#E c #ff9c18",
".y c #e75a00",
".o c #bdbdbd",
"#F c #ff5a00",
".P c #e76300",
".I c #ffce8c",
"#u c #ff6300",
".Q c #ef7310",
".c c #000000",
"#x c #efbd52",
".J c #ffd6a5",
".b c #080808",
"#h c #ff9400",
".h c #848484",
"#d c #ff9c08",
".f c #101010",
".C c #ffe79c",
".V c #c6944a",
"#p c #f7c652",
".e c #8c8c8c",
".a c #181818",
".8 c #ffce5a",
".5 c #949494",
"#C c #ffad10",
".L c #ffce6b",
"#f c #ffd673",
".A c #fff7ce",
"#a c #9c9c9c",
"#t c #ffd684",
"#g c #ffb529",
"#o c #ffde7b",
".B c #dec69c",
"#n c #ffbd31",
".u c #5a524a",
".G c #ff7300",
".9 c #ffbd42",
".X c #ded6ce",
".U c #ffa552",
"#w c #ffc642",
"#L c #e78c21",
"#K c #ffa563",
"#s c #ff8408",
".S c #ff8c10",
"#r c #ffad00",
".# c #636363",
".N c #291808",
"#b c #ff8c21",
"#i c #ffd663",
"#j c #636b6b",
".T c #ff9429",
"Qt c None",
".E c #6b6b6b",
".D c #a59c8c",
".4 c #e7e7e7",
"#B c #ff5200",
".W c #312108",
".i c #737373",
".0 c #efefef",
".r c #7b7b7b",
"## c #312921",
".w c #735a31",
"#G c #ffad39",
".2 c #f7f7f7",
".R c #ef7318",
".Z c #f7ffff",
".M c #de9c21",
"#c c #ff8c00",
"QtQtQtQtQtQtQtQtQtQtQtQtQtQtQtQtQtQtQtQtQtQtQtQtQtQtQtQtQtQtQtQt",
"QtQtQtQtQtQtQtQtQtQtQtQtQtQtQtQtQtQtQtQtQtQtQtQtQtQtQtQtQtQtQtQt",
"QtQtQtQtQtQtQtQtQtQtQtQtQtQtQtQtQtQtQtQtQtQtQtQtQtQtQtQtQtQtQtQt",
"QtQtQtQtQtQtQtQtQtQtQtQtQtQtQtQtQtQtQtQtQtQtQtQtQtQtQtQtQtQtQtQt",
"QtQtQtQtQtQtQtQtQtQtQtQtQtQtQtQtQtQtQtQtQtQtQtQtQtQtQtQtQtQtQtQt",
"QtQtQtQtQtQtQtQtQtQtQtQtQtQtQtQtQtQtQtQtQtQtQtQtQtQtQtQtQtQtQtQt",
"QtQtQtQtQtQtQtQtQtQtQtQtQt.#.a.b.c.b.dQtQtQtQtQtQtQtQtQtQtQtQtQt",
"QtQt.e.f.g.hQtQtQtQtQtQt.b.c.b.c.c.b.c.bQtQtQtQtQt.i.j.a.k.eQtQt",
"QtQtQt.l.j.c.c.d.hQtQt.m.d.n.n.b.f.o.p.q.gQt.r.d.c.c.d.rQtQtQtQt",
"QtQtQtQtQt.r.c.c.c.b.#.a.r.s.k.t.u.j.v.s.c.c.c.c.c.mQtQtQtQtQtQt",
"QtQtQtQtQtQt.r.b.c.c.c.c.w.x.y.z.A.B.C.D.c.c.c.c.EQtQtQtQtQtQtQt",
"QtQtQtQtQtQtQt.r.c.c.c.F.G.G.H.I.J.K.L.M.N.c.c.dQtQtQtQtQtQtQtQt",
"QtQtQtQtQtQtQtQt.b.c.c.O.P.Q.R.S.S.T.U.V.W.c.bQtQtQtQtQtQtQtQtQt",
"QtQtQtQtQtQtQtQt.d.c.c.c.D.X.X.X.X.X.X.Y.c.c.aQtQtQtQtQtQtQtQtQt",
"QtQtQtQtQtQtQtQt.d.c.c.Y.Z.Z.Z.Z.Z.0.0.o.d.c.cQtQtQtQtQtQtQtQtQt",
"QtQtQtQtQtQtQtQt.c.c.b.1.Z.Z.Z.Z.2.s.v.3.#.f.c.EQtQtQtQtQtQtQtQt",
"QtQtQtQtQtQtQt.E.c.c.g.0.Z.Z.Z.Z.2.4.p.3.5.d.b.dQtQtQtQtQtQtQtQt",
"QtQtQtQtQtQtQt.d.c.c.6.2.Z.Z.Z.Z.Z.0.v.3.1.6.f.kQtQtQtQtQtQtQtQt",
"QtQtQtQtQtQtQt.a.c.c.Y.Z.Z.Z.Z.Z.Z.2.s.3.3.E.a.aQtQtQtQtQtQtQtQt",
"QtQtQtQtQtQtQt.f.c.c.Y.Z.Z.Z.Z.Z.Z.2.s.3.o.i.a.aQtQtQtQtQtQtQtQt",
"QtQtQtQtQtQtQt.a.c.c.#.Z.Z.Z.Z.Z.Z.0.p.o.o.E.f.fQtQtQtQtQtQtQtQt",
"QtQtQtQtQtQtQt.7.c.c.q.0.Z.Z.Z.Z.2.s.o.1.1.Y.b.fQtQtQtQtQtQtQtQt",
"QtQtQtQtQt.8.9#..F.7##.1.Z.2.2.0.s.p.o.1#a.j.N.O#b#c#dQtQtQtQtQt",
"QtQtQtQt#e#f#g#h#g#i.M.D.4.4.s.v.3.1.1.1#j.O.G#c#k#c#.#fQtQtQtQt",
"QtQtQtQt.8#l#c#m#d#n#o#p.B.4.p.o.1.1.o.e#q#m#k#r#r#m#s#tQtQtQtQt",
"QtQtQt.K#l.z#u#u#c#v#w#o#x.n.o.o.o.n.r.w#u#k#y#y#r#z.G#A#fQtQtQt",
"QtQtQt#t.9#s#B#B.G#k#d#f#l.7.m.E.E.q.k.O#z#C#C#.#n#D#u#D#wQtQtQt",
"QtQtQtQt#E.Q.x#F#B.G#c#G#i#H.c.a.f.f.c.O#z#C#I#e#e#A.x#JQtQtQtQt",
"QtQtQtQtQtQtQtQt#K.R#z#J#L.N.c.c.b.c.c.O.G#J#.#eQtQtQtQtQtQtQtQt",
"QtQtQtQtQtQtQtQtQtQtQt.E##.c.c.c.c.c.c.j.EQtQtQtQtQtQtQtQtQtQtQt",
"QtQtQtQtQtQtQtQtQtQtQtQtQtQtQtQtQtQtQtQtQtQtQtQtQtQtQtQtQtQtQtQt",
"QtQtQtQtQtQtQtQtQtQtQtQtQtQtQtQtQtQtQtQtQtQtQtQtQtQtQtQtQtQtQtQt"};
