/* XPM */
static char*faller8[]={
"32 32 141 2",
"#h c #ffa510",
".h c #424242",
"#z c #a56331",
"ak c #ffce73",
"#4 c #ffad18",
".A c #ffefce",
"#j c #7b5a10",
".e c #4a4a4a",
".B c #f7d68c",
".6 c #c6c6c6",
".u c #525252",
"#n c #ad4a00",
".j c #cecece",
"#b c #4a3910",
"#5 c #bd9431",
"#s c #ffbd4a",
".d c #5a5a5a",
"#M c #ff9c00",
".4 c #d6d6d6",
".E c #5a3910",
".m c #dedede",
"#G c #ffa500",
"#R c #ffce52",
".0 c #181821",
"#r c #ffce63",
"#l c #63636b",
".H c #ff9431",
"#g c #ffb521",
"#2 c #ff4a00",
"#9 c #ffbd29",
"## c #ffde84",
".Y c #212121",
"#o c #f77b00",
"#A c #ff7b00",
".V c #292929",
".O c #ad5a00",
"#P c #ffa539",
".9 c #a5a5a5",
".a c #313131",
".F c #ff8400",
"ae c #522918",
"af c #ff8c08",
".8 c #393939",
"ac c #ff6b29",
"#. c #b5b5b5",
"#O c #ffb500",
".N c #311800",
".r c #846339",
"#1 c #ff9421",
"#F c #ff9c18",
"#X c #e75a00",
".7 c #bdbdbd",
"#x c #efe7ce",
"#a c #e7ce7b",
"#S c #ff5a00",
"#V c #737b84",
".Q c #ef6b08",
".J c #ffce8c",
".G c #ff6300",
"#c c #c6c6ce",
"ad c #bd8429",
"#q c #ffb539",
".y c #ef7310",
".c c #000000",
"#w c #efbd52",
".X c #080000",
".K c #ffd6a5",
".3 c #fffff7",
".z c #ffde9c",
".W c #100000",
".b c #080808",
"#p c #ff9400",
"ag c #ffdead",
"#U c #b5944a",
"#m c #5a3110",
".# c #848484",
"#t c #ff9c08",
".f c #101010",
".T c #c6944a",
"#H c #f7c652",
".o c #8c8c8c",
".g c #181818",
"#Z c #ffefb5",
".L c #ffce5a",
".Z c #949494",
"#f c #ffce6b",
"#8 c #ffb518",
"#E c #ffd673",
".n c #9c9c9c",
"aa c #ffb529",
"#Q c #ffd684",
"#D c #ffde7b",
"#0 c #ffbd31",
"#K c #ad734a",
"#C c #ffde8c",
".R c #ef7b08",
".s c #5a524a",
"#L c #ff7300",
"a. c #ffbd42",
"#d c #392118",
"#y c #9ca5ad",
".M c #8c6b10",
".1 c #ded6ce",
"ah c #ffa552",
"#u c #ffc642",
".S c #e78c21",
"#J c #a5adb5",
"a# c #ff8408",
"#I c #e7ded6",
"#Y c #ff8c10",
"#N c #ffad00",
".k c #636363",
".v c #291808",
"ab c #ff8c21",
"#T c #ffb508",
"#W c #636b6b",
"ai c #ff9429",
"Qt c None",
"#v c #ffde6b",
".l c #6b6b6b",
"#k c #a59c8c",
"#7 c #421808",
".p c #e7e7e7",
"#3 c #ff5200",
".q c #312108",
".i c #737373",
".5 c #efefef",
".P c #ef6308",
".D c #7b7b7b",
".C c #312921",
".U c #735a31",
".w c #ce7b31",
"aj c #ffad39",
".2 c #f7f7f7",
".x c #ef7318",
".t c #f7ffff",
"#i c #de9c21",
"#e c #ff8c00",
"#6 c #081018",
".I c #ffbd6b",
"#B c #ffc65a",
"QtQtQtQtQtQtQtQtQtQtQtQtQtQtQtQtQtQtQtQtQtQtQtQtQtQtQtQtQtQtQtQt",
"QtQtQtQtQtQtQtQtQtQtQtQtQtQtQtQtQtQtQtQtQtQtQtQtQtQtQtQtQtQtQtQt",
"QtQtQtQtQtQtQtQtQtQtQtQtQtQtQtQtQtQtQtQtQtQtQtQtQtQtQtQtQtQtQtQt",
"QtQtQtQtQtQtQtQtQtQtQtQtQtQtQtQtQtQtQtQtQtQtQtQtQtQtQtQtQtQtQtQt",
"QtQtQtQtQtQtQtQtQtQtQtQtQtQtQtQtQtQtQtQtQtQtQtQtQtQtQtQtQtQtQtQt",
"QtQtQtQtQtQtQtQtQtQtQtQt.#.a.b.c.c.b.dQtQtQtQtQtQtQtQtQtQtQtQtQt",
"QtQtQtQtQtQtQtQtQtQtQt.e.c.f.b.c.b.g.c.hQtQtQtQtQtQtQtQtQtQtQtQt",
"QtQtQtQtQtQtQtQtQtQtQt.c.i.j.k.c.l.m.n.fQtQtQtQtQtQtQtQtQtQtQtQt",
"QtQtQtQtQtQtQtQtQtQt.o.b.p.k.q.r.s.d.t.u.iQtQtQtQtQtQtQtQtQtQtQt",
"QtQtQtQtQtQtQtQtQtQt.i.v.w.x.y.z.A.B.B.C.lQtQtQtQtQtQtQtQtQtQtQt",
"QtQtQtQtQtQtQtQt.D.D.E.F.G.H.I.J.K.J.L.M.b.e.DQtQtQtQtQtQtQtQtQt",
"QtQtQtQtQt.D.k.f.c.c.N.O.P.Q.P.Q.R.S.T.U.c.c.c.c.V.DQtQtQtQtQtQt",
"QtQtQt.D.u.c.c.c.c.c.c.c.W.X.X.X.X.X.c.c.c.c.c.c.c.c.a.DQtQtQtQt",
"QtQt.k.c.c.b.Y.f.c.c.c.c.c.c.c.c.c.c.c.c.c.c.c.h.V.c.c.c.ZQtQtQt",
"Qt.n.VQtQtQtQtQt.f.c.c.c.c.f.a.e.h.0.b.b.c.c.fQtQt.D.e.c.c.kQtQt",
"QtQtQtQtQtQtQtQt.f.c.c.c.d.j.p.m.1.n.h.b.b.c.c.iQtQtQtQtQt.ZQtQt",
"QtQtQtQtQtQtQt.#.c.c.c.d.2.t.3.p.4.j.Z.a.b.c.c.VQtQtQtQtQtQtQtQt",
"QtQtQtQtQtQtQt.V.c.c.Y.4.t.t.t.5.m.6.7.l.Y.b.c.gQtQtQtQtQtQtQtQt",
"QtQtQtQtQtQtQt.f.c.c.k.t.t.t.t.2.p.j.7.n.8.b.c.fQtQtQtQtQtQtQtQt",
"QtQtQtQtQtQtQt.b.c.c.9.t.t.t.t.t.5.j.7#..u.f.b.cQtQtQtQtQtQtQtQt",
"QtQtQtQtQtQtQt.c.c.b.6.t.t.t.t.t.5.4.7.7.i.g.b.cQtQtQtQtQtQtQtQt",
"QtQtQtQtQtQtQt.c.c.g.j.t.t.t.t.t.5.j#.#..#.V.b.cQtQtQtQtQtQtQtQt",
"QtQtQtQtQtQtQt.f.c.f.4.t.t.t.t.t.5.j#..7.o.V.b.bQtQtQtQtQtQtQtQt",
"QtQtQtQtQt###a#b.X.c#c.t.t.t.t.2.p.6#.#..#.0.c#d#e#eQtQtQtQtQtQt",
"QtQtQtQt.L#f#g#h#i#j#k.t.t.2.5.p.4.7#.#.#l#m#n#o#e#p#qQtQtQtQtQt",
"QtQtQt.z#r#s#p#t#u#v#w#x.t.5.m.4.6.7.6#y#z#A#p#t#p.F#B#CQtQtQtQt",
"QtQtQt#D#E#F#A.F#G#u#D#H#I.p.m.j.6.7#J#K#L#M#N#O#M.G#P#QQtQtQtQt",
"QtQtQt#R#s#L#S#L#p#T#r#E#U#V.#.#.D#W.s#X#e#N#O#T#h#L#Y#B#ZQtQtQt",
"QtQtQt#0#1#S#2#3#A#p#4#C#5.c#6.Y.Y#6#7.G#t#8#9#sa.a#a#aa.KQtQtQt",
"QtQtQtQtabababac.G#L.Fa.ad.c.X.c.X.gae#Saf#8#u.L#Qagah#4QtQtQtQt",
"QtQtQtQtQtQtQtQtQtahai#PQtQtQtQtQtQtQtQtaiajakQtQtQtQtQtQtQtQtQt",
"QtQtQtQtQtQtQtQtQtQtQtQtQtQtQtQtQtQtQtQtQtQtQtQtQtQtQtQtQtQtQtQt"};
