/* XPM */
static char*faller4[]={
"32 32 105 2",
".7 c #ffa510",
".3 c #ffc66b",
".0 c #424242",
".K c #a56331",
"#n c #ffefce",
".F c #ffce73",
".u c #7b5a10",
".# c #4a4a4a",
".y c #fff7d6",
".Y c #c6c6c6",
".a c #525252",
"#A c #ad4a00",
".r c #cecece",
"#K c #4a3910",
"#o c #ffbd4a",
".d c #5a5a5a",
"#j c #ff9c00",
".p c #5a3910",
".l c #d6d6d6",
"#G c #ffc639",
".s c #dedede",
"#k c #ffa500",
"#a c #ffce52",
".4 c #ffce63",
".v c #ff9431",
"#d c #ffb521",
"#E c #ff4a00",
".R c #e7e7de",
"#y c #ffbd29",
".f c #212121",
"#p c #ff7b00",
".D c #ad5a00",
".g c #292929",
"#H c #ffa539",
".W c #a5a5a5",
".c c #313131",
"## c #ff8400",
".X c #adadad",
"#B c #ff8c08",
".M c #ff6b29",
".j c #b5b5b5",
"#t c #ffb500",
".q c #846339",
"#l c #ff9421",
"#J c #ff9c18",
".k c #bdbdbd",
"#g c #e7ce7b",
"#w c #ff5a00",
".w c #e76300",
"#. c #ef6b08",
".G c #ffce8c",
"#x c #ff6300",
"#s c #c6c6ce",
".8 c #bd8429",
".P c #fff7ef",
".b c #000000",
"#z c #efbd52",
".z c #ffd6a5",
".H c #ffde9c",
"#L c #100000",
".m c #080808",
"#c c #ff9400",
".B c #b5944a",
".9 c #5a3110",
".1 c #848484",
".i c #101010",
"#r c #c6944a",
".C c #8c8c8c",
".e c #181818",
"#f c #ffce5a",
".2 c #949494",
".6 c #ffad10",
".I c #ffce6b",
"#q c #ffb518",
"#b c #ffd673",
".Z c #9c9c9c",
"#m c #ffd684",
".E c #ff7300",
"#C c #ffbd42",
".A c #ffe78c",
".x c #ffa552",
".5 c #ffc642",
"#I c #ff8c10",
".h c #636363",
".o c #291808",
".N c #ff8c21",
"#u c #ffb508",
"#h c #6b6363",
"#e c #ffd663",
"Qt c None",
".S c #6b6b6b",
"#M c #421808",
".Q c #e7e7e7",
"#D c #ff5200",
".n c #737373",
".V c #efefef",
".t c #7b7b7b",
".J c #ffad39",
".U c #f7f7f7",
".L c #ef7318",
".T c #f7ffff",
"#i c #ff8c00",
"#F c #081018",
".O c #ffbd6b",
"#v c #ffc65a",
"QtQtQtQtQtQtQtQtQtQtQtQtQtQtQtQtQtQtQtQtQtQtQtQtQtQtQtQtQtQtQtQt",
"QtQtQtQtQtQtQtQtQtQtQtQtQtQtQtQtQtQtQtQtQtQtQtQtQtQtQtQtQtQtQtQt",
"QtQtQtQtQtQtQtQtQtQtQtQtQtQtQtQtQtQtQtQtQtQtQtQtQtQtQtQtQtQtQtQt",
"QtQtQtQtQtQtQtQtQtQtQtQtQtQtQtQtQtQtQtQtQtQtQtQtQtQtQtQtQtQtQtQt",
"QtQtQtQtQtQtQtQtQtQtQtQtQtQtQtQtQtQtQtQtQtQtQtQtQtQtQtQtQtQtQtQt",
"QtQtQtQtQtQtQtQtQtQtQtQtQtQtQtQtQtQtQtQtQtQtQtQtQtQtQtQtQtQtQtQt",
"QtQtQt.#.#QtQtQtQtQtQtQtQtQtQtQtQtQtQtQtQtQtQtQtQtQt.a.aQtQtQtQt",
"QtQtQtQt.#.b.cQtQtQtQtQtQt.d.e.b.b.b.fQtQtQtQtQt.c.b.gQtQtQtQtQt",
"QtQtQtQtQt.#.b.b.hQtQtQt.b.b.i.b.b.i.i.bQtQt.e.b.b.dQtQtQtQtQtQt",
"QtQtQtQtQtQt.f.b.b.gQt.#.c.j.j.i.e.k.l.#.m.b.b.b.aQtQtQtQtQtQtQt",
"QtQtQtQtQtQtQt.b.b.b.m.m.n.l.o.p.q.c.r.s.b.b.b.eQtQtQtQtQtQtQtQt",
"QtQtQtQtQtQtQt.t.b.b.b.b.u.v.w.x.y.z.A.B.b.b.b.CQtQtQtQtQtQtQtQt",
"QtQtQtQtQtQtQtQt.i.b.b.D.E.E.x.F.G.H.I.J.o.b.eQtQtQtQtQtQtQtQtQt",
"QtQtQtQtQtQtQtQt.a.b.b.K.L.M.N.M.N.v.O.B.i.b.gQtQtQtQtQtQtQtQtQt",
"QtQtQtQtQtQtQtQt.#.b.c.s.P.P.Q.R.s.l.s.j.i.b.gQtQtQtQtQtQtQtQtQt",
"QtQtQtQtQtQtQtQt.i.b.S.T.T.T.U.V.s.r.r.r.a.m.mQtQtQtQtQtQtQtQtQt",
"QtQtQtQtQtQtQtQt.b.b.W.T.T.T.U.V.s.r.k.k.t.e.bQtQtQtQtQtQtQtQtQt",
"QtQtQtQtQtQtQtQt.b.b.X.T.T.T.T.U.V.r.k.Y.Z.g.bQtQtQtQtQtQtQtQtQt",
"QtQtQtQtQtQtQtQt.b.b.X.T.T.T.T.U.V.l.k.k.X.0.bQtQtQtQtQtQtQtQtQt",
"QtQtQtQtQtQtQt.1.b.b.X.T.T.T.T.T.Q.l.k.k.X.0.m.hQtQtQtQtQtQtQtQt",
"QtQtQtQtQtQtQt.2.b.b.1.T.T.T.T.U.Q.r.k.k.X.#.m.hQtQtQtQtQtQtQtQt",
"QtQtQtQtQtQtQt.B.i.b.#.T.T.T.U.V.s.Y.k.j.X.0.b.nQt.F.3QtQtQtQtQt",
"QtQtQtQtQt.4.5.6.7.8.q.l.T.V.Q.s.l.k.j.k.2.c.9#.####.7.IQtQtQtQt",
"QtQtQtQt#a#b.7#c#d#e#f#g.l.s.l.r.k.k.j.j#h.w#i#j#k#i#l#mQtQtQtQt",
"QtQtQt#n.4#o#p#p#c#q#b#f#r#s.r.Y.k.k.j.t.w#i#k#t#u#p#p.F.HQtQtQt",
"QtQtQt.H#v#l#w#x###k#y.A#z.n.2.W.W.2.h#A.E#k#t#u#u#B#x#C.IQtQtQt",
"QtQtQt#m.J.E#D#E#x#i#c#v#b.p.c.0.0.c#F#A#p.6#q#G#o#H#x#I#GQtQtQt",
"QtQtQtQt#l.x.z.x#w#x#p#J#C#K.b.i.m.b.b#A#p.7#G#o.I.H.G#lQtQtQtQt",
"QtQtQtQtQtQtQtQtQt.O.v.w.D#L.b.b.b.b.b#M.w.J#o.HQtQtQtQtQtQtQtQt",
"QtQtQtQtQtQtQtQtQtQtQtQtQtQtQtQtQtQtQtQtQtQtQtQtQtQtQtQtQtQtQtQt",
"QtQtQtQtQtQtQtQtQtQtQtQtQtQtQtQtQtQtQtQtQtQtQtQtQtQtQtQtQtQtQtQt",
"QtQtQtQtQtQtQtQtQtQtQtQtQtQtQtQtQtQtQtQtQtQtQtQtQtQtQtQtQtQtQtQt"};
