/* XPM */
static char*faller1[]={
"32 32 106 2",
"#q c #ffa510",
"#z c #ffefbd",
".i c #424242",
".A c #ffefce",
".e c #4a4a4a",
".4 c #c6c6c6",
"#i c #fff7e7",
".a c #525252",
"#. c #ad4a00",
".3 c #cecece",
"#K c #ffbd4a",
".N c #5a5a5a",
"#l c #ff9c00",
".r c #5a3910",
".l c #d6d6d6",
"#M c #ffc639",
".C c #ffe7a5",
".2 c #dedede",
"#p c #ffa500",
"#c c #ffce52",
".Y c #181821",
"#o c #ffce63",
"#I c #ff9431",
"#e c #ffb521",
"#n c #ffde84",
".h c #212121",
"#k c #ff7b00",
".E c #ad5a00",
".g c #292929",
"#u c #ffa539",
".# c #a5a5a5",
".D c #313131",
".H c #ffad52",
".m c #adadad",
".9 c #522918",
"#L c #ff8c08",
".k c #393939",
".p c #b5b5b5",
"#y c #ffb500",
".w c #846339",
"#H c #ff9c18",
".y c #e75a00",
".j c #bdbdbd",
"#J c #ff5a00",
"#j c #e76300",
".P c #ef6b08",
".I c #ffce8c",
".F c #ff6300",
"#g c #ffb539",
".0 c #fff7ef",
".Q c #ef7310",
".c c #000000",
".T c #efbd52",
".K c #ffde9c",
".O c #100000",
".d c #080808",
"#a c #ff9400",
".J c #ffdead",
".U c #b5944a",
".u c #848484",
"#f c #ff9c08",
".b c #101010",
"#h c #f7c652",
".n c #8c8c8c",
".q c #181818",
".L c #ffce5a",
".f c #949494",
"#E c #ffad10",
"#t c #ffce6b",
"#d c #ffd673",
".6 c #9c9c9c",
"#A c #ffd684",
"#b c #ffb529",
".B c #dec69c",
"#s c #ffde8c",
"## c #ef7b08",
".s c #5a524a",
"#v c #ff7300",
"#B c #ffbd42",
"#w c #9ca5ad",
".M c #8c6b10",
"#N c #ffa552",
".7 c #ffc642",
".x c #e78c21",
".o c #a5adb5",
"#C c #ff8408",
".R c #ff8c10",
".V c #636363",
".W c #291808",
"#G c #ffb508",
".S c #ff9429",
"Qt c None",
".X c #6b6b6b",
".Z c #e7e7e7",
"#D c #ff5200",
"#F c #312108",
".5 c #efefef",
".v c #7b7b7b",
"#x c #ce7b31",
"#r c #ffad39",
".1 c #f7f7f7",
".G c #ef7318",
".t c #f7ffff",
".8 c #de9c21",
"#m c #ff8c00",
".z c #ffbd6b",
"QtQtQtQtQtQtQtQtQtQtQtQtQtQtQtQtQtQtQtQtQtQtQtQtQtQtQtQtQtQtQtQt",
"QtQtQtQtQtQtQtQtQtQtQtQtQtQtQtQtQtQtQtQtQtQtQtQtQtQtQtQtQtQtQtQt",
"QtQtQtQtQtQtQtQtQtQtQtQtQtQtQtQtQtQtQtQtQtQtQtQtQtQtQtQtQtQtQtQt",
"QtQtQtQtQtQtQtQtQtQtQtQtQtQtQtQtQtQtQtQtQtQtQtQtQtQtQtQtQtQtQtQt",
"QtQtQtQtQtQtQtQtQtQtQtQtQtQtQtQtQtQtQtQtQtQtQtQtQtQtQtQtQtQtQtQt",
"QtQtQtQtQtQtQtQtQtQtQtQt.#.a.b.c.c.d.eQtQtQtQtQtQtQtQtQtQtQtQtQt",
"QtQtQtQtQtQtQtQtQtQtQt.f.c.c.d.c.c.b.c.gQtQtQtQtQtQtQtQtQtQtQtQt",
"QtQtQtQtQtQtQtQtQtQtQt.h.i.j.f.c.k.l.m.h.nQtQtQtQtQtQtQtQtQtQtQt",
"QtQtQtQtQtQtQtQtQtQtQt.d.o.p.q.r.s.i.t.u.aQtQtQtQtQtQtQtQtQtQtQt",
"QtQtQtQtQtQtQtQtQt.n.v.d.w.x.y.z.A.B.C.s.D.nQtQtQtQtQtQtQtQtQtQt",
"QtQtQtQtQtQt.n.a.h.c.d.E.F.G.H.I.J.K.L.M.c.c.d.g.N.nQtQtQtQtQtQt",
"QtQtQtQt.N.b.c.c.c.c.O.E.P.Q.G.G.R.S.T.U.d.c.c.c.c.c.k.nQtQtQtQt",
"QtQt.V.c.c.c.c.c.c.c.c.c.W.W.O.O.b.O.O.c.c.c.c.c.c.c.c.c.N.nQtQt",
"Qt.V.g.a.XQtQt.n.b.c.c.c.c.c.Y.k.k.Y.d.c.c.c.c.qQtQt.V.e.c.gQtQt",
"QtQtQtQtQtQtQtQt.V.c.c.c.b.f.Z.0.Z.m.V.q.c.c.c.VQtQtQtQtQtQtQtQt",
"QtQtQtQtQtQtQtQt.h.c.c.d.m.t.t.1.2.3.j.N.b.c.c.DQtQtQtQtQtQtQtQt",
"QtQtQtQtQtQtQt.u.c.c.c.V.t.t.t.1.2.4.4.#.D.d.c.cQtQtQtQtQtQtQtQt",
"QtQtQtQtQtQtQt.i.c.c.b.j.t.t.t.t.5.3.j.p.V.q.c.c.nQtQtQtQtQtQtQt",
"QtQtQtQtQtQtQt.q.c.c.k.2.t.t.t.t.1.2.j.p.u.g.d.c.XQtQtQtQtQtQtQt",
"QtQtQtQtQtQtQt.d.c.c.X.t.t.t.t.t.t.2.j.p.f.k.d.c.iQtQtQtQtQtQtQt",
"QtQtQtQtQtQtQt.c.c.c.n.t.t.t.t.t.t.Z.j.p.6.e.b.c.hQtQtQtQtQtQtQt",
"QtQtQtQtQtQtQt.c.c.b.p.t.t.t.t.t.t.2.j.p.m.e.b.c.DQtQtQtQtQtQtQt",
"QtQtQtQtQtQt.B.b.c.d.p.t.t.t.t.t.1.l.j.p.m.e.d.c.sQtQtQtQtQtQtQt",
"QtQtQtQtQt.L.7.8.E.r.#.t.t.t.1.1.2.4.p.p.p.e.9#.###a#bQtQtQtQtQt",
"QtQtQtQt#c#d#e#f#g.L#h#i.t.1.Z.l.4.j.m.j.##j#k#l#a#m.H#nQtQtQtQt",
"QtQtQtQt.L.H#m#m#f.7#d#o.0.1.l.4.j.p.j.p.G#m#p#q#l#k#r#sQtQtQtQt",
"QtQtQt.K#t#u.F#v#a#q.L#t.T.m.m.m.#.##w#x#v#p#y#y#l#v.R#d#zQtQtQt",
"QtQtQt#A#B#C#D#D#k#l#E#s.T#F.k.e.e.a.e.y#m#G#E#e#g#C#k#r.KQtQtQt",
"QtQtQtQt#H#C#I#D#J#k#m#K.T.W.d.q.h.Y.W#D#L#e#M.L#K#r#C#qQtQtQtQt",
"QtQtQtQtQtQtQtQt#N.Q#k#L.c.b.c.c.c.c.W.c#k#f#b#dQtQtQtQtQtQtQtQt",
"QtQtQtQtQtQtQtQtQtQtQtQtQtQtQtQtQtQtQtQtQtQtQtQtQtQtQtQtQtQtQtQt",
"QtQtQtQtQtQtQtQtQtQtQtQtQtQtQtQtQtQtQtQtQtQtQtQtQtQtQtQtQtQtQtQt"};
