/* XPM */
static char*faller6[]={
"32 32 109 2",
"#. c #ffa510",
".y c #ffc66b",
".e c #424242",
".v c #a56331",
"#N c #ffad18",
"#m c #ffefce",
".N c #7b5a10",
".a c #4a4a4a",
".z c #fff7d6",
".A c #f7d68c",
".h c #c6c6c6",
".t c #525252",
"#a c #ad4a00",
".V c #cecece",
"#n c #ffbd4a",
"#k c #ff9c00",
".5 c #5a3910",
".j c #d6d6d6",
"#y c #ffc639",
".3 c #ffe7a5",
".2 c #dedede",
"#j c #ffa500",
"#f c #ffce52",
".7 c #ffce63",
"#t c #ff9431",
"#o c #ffb521",
"#E c #ff4a00",
"#u c #ffde84",
".g c #212121",
"#J c #ff7b00",
".D c #292929",
"#g c #ffa539",
".# c #a5a5a5",
".s c #313131",
"#l c #ff8400",
".I c #ffad52",
".n c #adadad",
".i c #393939",
".w c #ff6b29",
".0 c #b5b5b5",
"#A c #ffb500",
".R c #846339",
"#L c #ff9421",
"#w c #ff9c18",
".O c #e75a00",
".k c #bdbdbd",
".4 c #e7ce7b",
"#x c #ff5a00",
".F c #e76300",
".J c #ffce8c",
".x c #ef6b08",
"#q c #ff6300",
".M c #bd8429",
"#d c #ffb539",
".P c #ef7310",
".c c #000000",
".K c #ffde9c",
".E c #100000",
".d c #080808",
"#c c #ff9400",
".m c #848484",
".b c #101010",
"#K c #ffe79c",
".Q c #c6944a",
".f c #8c8c8c",
".u c #181818",
"#v c #ffce5a",
"#e c #ffefb5",
".l c #949494",
"#Q c #ffce6b",
".9 c #ffad10",
"#H c #ffb518",
"#C c #ffd673",
".X c #9c9c9c",
"#p c #ffde7b",
"#i c #dec69c",
".6 c #ad734a",
".B c #ffde8c",
".G c #ff7300",
"#I c #ffbd42",
"#M c #ffa552",
".8 c #ffc642",
"#O c #ffa563",
"#B c #ff8408",
".H c #ff8c10",
"#r c #ffad00",
".o c #291808",
"#s c #ffb508",
".L c #ffd663",
".q c #6b6363",
".W c #636b6b",
"#P c #ff9429",
"Qt c None",
".S c #6b6b6b",
".U c #dee7e7",
"## c #a59c8c",
".Y c #e7e7e7",
"#G c #ff5200",
"#F c #312108",
".C c #737373",
".Z c #efefef",
".1 c #7b7b7b",
".p c #735a31",
"#D c #ffad39",
".T c #f7f7f7",
".r c #f7ffff",
"#z c #de9c21",
"#b c #ff8c00",
"#h c #ffc65a",
"QtQtQtQtQtQtQtQtQtQtQtQtQtQtQtQtQtQtQtQtQtQtQtQtQtQtQtQtQtQtQtQt",
"QtQtQtQtQtQtQtQtQtQtQtQtQtQtQtQtQtQtQtQtQtQtQtQtQtQtQtQtQtQtQtQt",
"QtQtQtQtQtQtQtQtQtQtQtQtQtQtQtQtQtQtQtQtQtQtQtQtQtQtQtQtQtQtQtQt",
"QtQtQtQtQtQtQtQtQtQtQtQtQtQtQtQtQtQtQtQtQtQtQtQtQtQtQtQtQtQtQtQt",
"QtQtQtQtQtQtQtQtQtQtQtQtQtQtQtQtQtQtQtQtQtQtQtQtQtQtQtQtQtQtQtQt",
"QtQtQtQtQtQtQtQtQtQtQtQtQtQtQtQtQtQtQtQtQtQtQtQtQtQtQtQtQtQtQtQt",
"QtQtQtQtQtQtQtQtQtQtQtQt.#.a.b.c.c.d.eQtQtQtQtQtQtQtQtQtQtQtQtQt",
"QtQtQtQtQtQtQtQtQtQtQt.f.c.d.d.c.c.b.c.gQtQtQtQtQtQtQtQtQtQtQtQt",
"QtQtQtQtQtQtQtQtQtQtQt.g.a.h.f.c.i.j.k.g.lQtQtQtQtQtQtQtQtQtQtQt",
"QtQtQtQtQtQtQtQtQtQt.m.c.n.n.o.p.q.i.r.m.s.mQtQtQtQtQtQtQtQtQtQt",
"QtQtQtQt.m.t.u.b.d.d.d.b.v.w.x.y.z.A.B.a.c.c.c.c.i.t.CQtQtQtQtQt",
"Qt.C.D.d.c.c.c.c.c.c.E.F.G.H.I.J.K.K.L.M.d.c.c.c.c.c.c.d.g.mQtQt",
"QtQtQtQtQtQtQt.a.c.c.d.N.O.O.O.O.x.P.Q.R.c.c.c.SQtQtQtQtQtQtQtQt",
"QtQtQtQtQtQtQtQtQt.d.c.c.b.C.f.f.f.m.i.c.c.c.aQtQtQtQtQtQtQtQtQt",
"QtQtQtQtQtQtQtQtQt.c.c.u.h.r.r.r.T.U.V.W.b.c.bQtQtQtQtQtQtQtQtQt",
"QtQtQtQtQtQtQtQt.s.c.c.X.r.r.r.r.Y.h.h.n.a.b.c.CQtQtQtQtQtQtQtQt",
"QtQtQtQtQtQtQtQt.c.c.e.T.r.r.r.r.Z.V.0.0.m.s.d.DQtQtQtQtQtQtQtQt",
"QtQtQtQtQtQtQt.C.c.c.1.r.r.r.r.r.Z.j.0.0.#.t.u.bQtQtQtQtQtQtQtQt",
"QtQtQtQtQtQtQt.i.c.c.X.r.r.r.r.r.T.j.k.0.0.S.u.d.CQtQtQtQtQtQtQt",
"QtQtQtQtQtQtQt.g.c.b.h.r.r.r.r.r.T.2.k.0.0.C.g.d.dQtQtQtQtQtQtQt",
"QtQtQtQtQtQtQt.d.c.g.j.r.r.r.r.r.T.j.0.n.k.m.g.c.dQtQtQtQtQtQtQt",
"QtQtQtQtQtQtQt.b.c.D.2.r.r.r.r.r.Z.V.0.n.0.1.u.c.dQtQtQtQtQtQtQt",
"QtQtQtQtQt.3.4.5.b.d.k.r.r.r.r.Z.2.h.n.0.0.C.d.E.6.y.KQtQtQtQtQt",
"QtQtQtQt.K.7.8.9#..M##.T.r.T.Z.2.h.0.n.0.n.p#a.G#b#c#d#eQtQtQtQt",
"QtQtQtQt#f.y#.#b#g.L#h#i.T.Z.V.k.0.n.0.0.6.G#b#j#k#l.I.BQtQtQtQt",
"QtQtQt#m.7#n#l#l#k#o#p#f#i.U.V.0.0.k.0.6#q#c#r#s#k.G#t#u#mQtQtQt",
"QtQtQt.B#v#w#x#q#b#j#y#u#z.1.0.0.n.l.S.O#l#r#A#s#..G#B#h#eQtQtQt",
"QtQtQt#C#D.G#E#E#q#b#j.y#h#F.s.e.e.D.o#G#c#H#o.8#I#B#J#o#KQtQtQt",
"QtQtQtQt#L#M#J#J#G.G#J#g#D.b.c.d.d.d.E#G#l#o#y#v#I#I.I#NQtQtQtQt",
"QtQtQtQtQtQtQtQtQt#O#t#P.d.d.c.c.c.c.d.d#t#D#QQtQtQtQtQtQtQtQtQt",
"QtQtQtQtQtQtQtQtQtQtQtQtQtQtQtQtQtQtQtQtQtQtQtQtQtQtQtQtQtQtQtQt",
"QtQtQtQtQtQtQtQtQtQtQtQtQtQtQtQtQtQtQtQtQtQtQtQtQtQtQtQtQtQtQtQt"};
