/* XPM */
static char*floater6[]={
"32 32 117 2",
".E c #ffefbd",
".k c #424242",
".v c #deb542",
".C c #ffa521",
".w c #f7d67b",
".V c #004221",
"#P c #947352",
"#x c #4a4a4a",
"#L c #ffad29",
"#z c #c6c6c6",
"#m c #104221",
".0 c #522900",
".b c #525252",
".5 c #104a29",
".N c #ffbd39",
".G c #ffde94",
".g c #000800",
"#f c #cecece",
".M c #de8410",
"#g c #5a5a5a",
".K c #185231",
"#X c #ff9c00",
"#R c #635a5a",
"#e c #d6d6d6",
".O c #ffc64a",
".U c #5a635a",
"#t c #dedede",
"#V c #ffa500",
"#b c #106339",
".3 c #102110",
".Q c #ffd66b",
".F c #fff7c6",
"#F c #de7b00",
".# c #186bbd",
"#I c #6b6b73",
"#Q c #a59c94",
"#J c #182121",
".i c #212121",
"#N c #9c5a00",
".p c #e7eff7",
".I c #6b7b18",
".d c #292929",
"#p c #a5a5a5",
".7 c #293131",
".j c #313131",
"#W c #ff8400",
"#h c #006b31",
"#w c #adadad",
".B c #f79410",
"#i c #393939",
".A c #ad6b08",
".W c #291800",
"#v c #b5b5b5",
".s c #f7bd73",
"#Y c #ffb500",
".1 c #6b4200",
"## c #314239",
"#E c #ad7321",
".Y c #7b4200",
"#d c #bdbdbd",
".o c #efe7ce",
"#S c #845210",
"#n c #4a4a52",
".u c #ffd694",
".h c #000000",
".f c #080808",
"#M c #ff9400",
".n c #ced6de",
"#C c #848484",
"#a c #101010",
".x c #846b31",
".l c #8c8c8c",
"#r c #181818",
".r c #d6bd9c",
".D c #ffc663",
".z c #008442",
".J c #088442",
"#K c #8c5200",
"#y c #9c9c9c",
"#l c #004a21",
".y c #4a524a",
".L c #02d96e",
".8 c #182129",
".R c #ffde8c",
"#c c #085a31",
"#D c #292931",
"#q c #001808",
".Z c #633100",
"#G c #5a5a63",
"#B c #a5a5ad",
"#O c #633908",
".t c #de9429",
".2 c #524208",
".c c #104252",
"#U c #ffad00",
".e c #636363",
"Qt c None",
".X c #734208",
"#j c #083118",
"#u c #6b6b6b",
"#o c #e7e7e7",
".a c #6b9cd6",
"#s c #efefef",
"#H c #737b7b",
".4 c #7b7b7b",
"#k c #f7f7f7",
".S c #ffef84",
"#A c #313129",
".m c #f7ffff",
".H c #ffd642",
".9 c #080810",
"#. c #007b39",
".T c #7b8421",
".6 c #081018",
".q c #8c8c94",
".P c #ffc65a",
"#T c #c67308",
"QtQtQtQtQtQtQtQtQtQtQtQtQtQtQtQtQtQtQtQtQtQtQtQtQtQtQtQtQtQtQtQt",
"QtQtQtQtQtQtQtQtQtQtQtQtQtQtQtQtQtQtQtQtQtQtQtQtQtQtQtQtQtQtQtQt",
"QtQtQtQtQtQtQtQtQtQt.#.#.#.#QtQtQtQtQtQtQtQtQtQtQtQtQtQtQtQtQtQt",
"QtQtQtQtQtQtQtQtQtQtQtQt.#.#.#.#.#QtQtQtQtQtQtQtQtQtQtQtQtQtQtQt",
"QtQtQtQtQtQtQtQtQtQtQtQtQtQtQt.a.#.#.#.#QtQtQtQtQtQtQtQtQtQtQtQt",
"QtQtQtQtQtQtQtQtQtQtQtQtQtQtQt.#QtQtQt.#.#.#QtQtQtQtQtQtQtQtQtQt",
"QtQtQtQtQtQtQtQtQtQtQtQtQt.b.c.c.d.eQtQtQtQtQtQtQtQtQtQtQtQtQtQt",
"QtQtQtQtQtQtQtQtQtQtQtQt.f.f.g.h.i.i.jQtQtQtQtQtQtQtQtQtQtQtQtQt",
"QtQtQtQtQtQtQtQtQtQtQt.f.g.g.g.g.g.g.k.lQtQtQtQtQtQtQtQtQtQtQtQt",
"QtQtQtQtQtQtQtQtQtQtQt.i.m.n.i.o.i.p.q.bQtQtQtQtQtQtQtQtQtQtQtQt",
"QtQtQtQtQtQtQtQtQtQtQt.i.r.s.t.u.v.w.x.yQtQtQtQtQtQtQtQtQtQtQtQt",
"QtQtQtQtQtQtQtQtQtQt.z.A.B.C.D.E.F.G.H.I.JQtQtQtQtQtQtQtQtQtQtQt",
"QtQtQtQtQtQtQtQtQt.K.L.M.N.O.O.P.Q.R.S.T.L.UQtQtQtQtQtQtQtQtQtQt",
"QtQtQtQtQtQtQtQt.f.V.z.W.X.Y.Z.0.Z.1.2.3.z.j.4QtQtQtQtQtQtQtQtQt",
"QtQtQtQtQtQtQt.4.h.5.z.g.h.h.6.7.8.9.h.f#.##.dQtQtQtQtQtQtQtQtQt",
"QtQtQtQtQtQtQt.h#a#b#c.h.j.4#d#e#f#d#g.f#h.5#i.eQtQtQtQtQtQtQtQt",
"QtQtQtQtQtQt.4.h.d#c#j.U#d#k.m.m.m.m#e#g.V#l.j.iQtQtQtQtQtQtQtQt",
"QtQtQtQt.h.e.d.f#i#m#n#f.m.m.m.m.m.m#o#p.d#q#r#r.e#rQtQtQtQtQtQt",
"QtQtQtQt.h.h.h.i#i.i#p.m.m.m.m.m.m.m#s#d.b.f#a.d#r.fQtQtQtQtQtQt",
"QtQtQtQt.h.h.f#i#r.k#t.m.m.m.m.m.m.m#o#d#u.h.f.d#r.fQtQtQtQtQtQt",
"QtQtQtQtQt.k#r#i.h#u#k.m.m.m.m.m.m.m#o#d.l#a.h.f#aQtQtQtQtQtQtQt",
"QtQtQtQtQtQtQt.j.h.4.m.m.m.m.m.m.m#k#t#v#p#i.hQtQtQtQtQtQtQtQtQt",
"QtQtQtQtQtQtQt#u.h.4.m.m.m.m.m#k#k#o#f#w#p#x.hQtQtQtQtQtQtQtQtQt",
"QtQtQtQtQtQtQtQt.h#u#s#k#k#s#s#o#t#f#d#p#y#i.hQtQtQtQtQtQtQtQtQt",
"QtQtQtQtQtQtQtQt.i.7#z#o#t#t#e#z#z#v#w#p.4.f#AQtQtQtQtQtQtQtQtQt",
"QtQtQtQtQtQtQtQtQt.W#g#w#d#d#v#w#B#w#y#C#D.h#EQtQtQtQtQtQtQtQtQt",
"QtQtQtQtQtQtQtQtQt#F.X.j#G#H#H.4.4#I#n#J.f#K#LQtQtQtQtQtQtQtQtQt",
"QtQtQtQtQtQtQtQtQt#M#M#N#O.X#P#Q#R#O.X#S#T#M.PQtQtQtQtQtQtQtQtQt",
"QtQtQtQtQtQtQtQtQt.C#U#V#V#WQtQtQt#W#M#X#X#VQtQtQtQtQtQtQtQtQtQt",
"QtQtQtQtQtQtQtQtQtQt#V#Y#Y#UQtQtQtQt#X#V#UQtQtQtQtQtQtQtQtQtQtQt",
"QtQtQtQtQtQtQtQtQtQtQtQtQtQtQtQtQtQtQtQtQtQtQtQtQtQtQtQtQtQtQtQt",
"QtQtQtQtQtQtQtQtQtQtQtQtQtQtQtQtQtQtQtQtQtQtQtQtQtQtQtQtQtQtQtQt"};
