/* XPM */
static char*floater8[]={
"32 32 117 2",
"#s c #424242",
".D c #ffefbd",
".u c #deb542",
".B c #ffa521",
".v c #f7d67b",
".U c #004221",
"#P c #947352",
"#x c #4a4a4a",
"#L c #ffad29",
"#z c #c6c6c6",
"#l c #104221",
".Z c #522900",
".b c #525252",
".4 c #104a29",
".M c #ffbd39",
".F c #ffde94",
".g c #000800",
"#e c #cecece",
".L c #de8410",
"#f c #5a5a5a",
".J c #185231",
"#X c #ff9c00",
"#R c #635a5a",
"#d c #d6d6d6",
".N c #ffc64a",
".T c #5a635a",
"#t c #dedede",
"#V c #ffa500",
"#a c #106339",
".2 c #102110",
".P c #ffd66b",
".E c #fff7c6",
"#F c #de7b00",
".# c #186bbd",
"#I c #6b6b73",
"#Q c #a59c94",
"#J c #182121",
".i c #212121",
"#N c #9c5a00",
".o c #e7eff7",
".H c #6b7b18",
".d c #292929",
"#o c #a5a5a5",
".6 c #293131",
".j c #313131",
"#W c #ff8400",
"#g c #006b31",
"#w c #adadad",
".A c #f79410",
"#h c #393939",
".z c #ad6b08",
".V c #291800",
"#v c #b5b5b5",
".r c #f7bd73",
"#Y c #ffb500",
".0 c #6b4200",
"#. c #314239",
"#E c #ad7321",
".X c #7b4200",
"#c c #bdbdbd",
".n c #efe7ce",
"#S c #845210",
"#m c #4a4a52",
".t c #ffd694",
".h c #000000",
".f c #080808",
"#M c #ff9400",
".m c #ced6de",
"#C c #848484",
"## c #101010",
".w c #846b31",
".k c #8c8c8c",
"#q c #181818",
".q c #d6bd9c",
".C c #ffc663",
".y c #008442",
".I c #088442",
"#K c #8c5200",
"#y c #9c9c9c",
"#k c #004a21",
".x c #4a524a",
".K c #02d96e",
".7 c #182129",
".Q c #ffde8c",
"#b c #085a31",
"#D c #292931",
"#p c #001808",
".Y c #633100",
"#G c #5a5a63",
"#B c #a5a5ad",
"#O c #633908",
".s c #de9429",
".1 c #524208",
".c c #104252",
"#U c #ffad00",
".e c #636363",
"Qt c None",
".W c #734208",
"#i c #083118",
"#u c #6b6b6b",
"#n c #e7e7e7",
".a c #6b9cd6",
"#r c #efefef",
"#H c #737b7b",
".3 c #7b7b7b",
"#j c #f7f7f7",
".R c #ffef84",
"#A c #313129",
".l c #f7ffff",
".G c #ffd642",
".8 c #080810",
".9 c #007b39",
".S c #7b8421",
".5 c #081018",
".p c #8c8c94",
".O c #ffc65a",
"#T c #c67308",
"QtQtQtQtQtQtQtQtQtQtQtQtQtQtQtQtQtQtQtQtQtQtQtQtQtQtQtQtQtQtQtQt",
"QtQtQtQtQtQtQtQtQtQtQtQtQtQtQtQtQtQtQtQtQtQtQtQtQtQtQtQtQtQtQtQt",
"QtQtQtQtQtQtQtQtQtQtQtQtQtQtQtQtQt.#.#.#.#QtQtQtQtQtQtQtQtQtQtQt",
"QtQtQtQtQtQtQtQtQtQtQtQtQtQt.#.#.#.#.#QtQtQtQtQtQtQtQtQtQtQtQtQt",
"QtQtQtQtQtQtQtQtQtQtQt.#.#.#.#.aQtQtQtQtQtQtQtQtQtQtQtQtQtQtQtQt",
"QtQtQtQtQtQtQtQtQt.#.#.#QtQtQt.#QtQtQtQtQtQtQtQtQtQtQtQtQtQtQtQt",
"QtQtQtQtQtQtQtQtQtQtQtQtQt.b.c.c.d.eQtQtQtQtQtQtQtQtQtQtQtQtQtQt",
"QtQtQtQtQtQtQtQtQtQtQtQt.f.f.g.h.i.i.jQtQtQtQtQtQtQtQtQtQtQtQtQt",
"QtQtQtQtQtQtQtQtQtQtQt.f.g.g.g.g.g.g.g.kQtQtQtQtQtQtQtQtQtQtQtQt",
"QtQtQtQtQtQtQtQtQtQtQt.i.l.m.i.n.i.o.p.bQtQtQtQtQtQtQtQtQtQtQtQt",
"QtQtQtQtQtQtQtQtQtQtQt.i.q.r.s.t.u.v.w.xQtQtQtQtQtQtQtQtQtQtQtQt",
"QtQtQtQtQtQtQtQtQtQt.y.z.A.B.C.D.E.F.G.H.IQtQtQtQtQtQtQtQtQtQtQt",
"QtQtQtQtQtQtQtQtQt.J.K.L.M.N.N.O.P.Q.R.S.K.TQtQtQtQtQtQtQtQtQtQt",
"QtQtQtQtQtQtQtQt.f.U.y.V.W.X.Y.Z.Y.0.1.2.y.j.3QtQtQtQtQtQtQtQtQt",
"QtQtQtQtQtQtQt.3.h.4.y.g.h.h.5.6.7.8.h.f.9#..dQtQtQtQtQtQtQtQtQt",
"QtQtQtQtQtQtQt.h###a#b.h.j.3#c#d#e#c#f.f#g.4#h.eQtQtQtQtQtQtQtQt",
"QtQtQtQtQtQt.3.h.d#b#i.T#c#j.l.l.l.l#d#f.U#k.j.iQtQtQtQtQtQtQtQt",
"QtQtQtQt.h.e.d.f#h#l#m#e.l.l.l.l.l.l#n#o.d#p#q#q.e#qQtQtQtQtQtQt",
"QtQtQtQt.h.h.h.i#h.i#o.l.l.l.l.l.l.l#r#c.b.f##.d#q.fQtQtQtQtQtQt",
"QtQtQtQt.h.h.f#h#q#s#t.l.l.l.l.l.l.l#n#c#u.h.f.d#q.fQtQtQtQtQtQt",
"QtQtQtQtQt#s#q#h.h#u#j.l.l.l.l.l.l.l#n#c.k##.h.f##QtQtQtQtQtQtQt",
"QtQtQtQtQtQtQt.j.h.3.l.l.l.l.l.l.l#j#t#v#o#h.hQtQtQtQtQtQtQtQtQt",
"QtQtQtQtQtQtQt#u.h.3.l.l.l.l.l#j#j#n#e#w#o#x.hQtQtQtQtQtQtQtQtQt",
"QtQtQtQtQtQtQtQt.h#u#r#j#j#r#r#n#t#e#c#o#y#h.hQtQtQtQtQtQtQtQtQt",
"QtQtQtQtQtQtQtQt.i.6#z#n#t#t#d#z#z#v#w#o.3.f#AQtQtQtQtQtQtQtQtQt",
"QtQtQtQtQtQtQtQtQt.V#f#w#c#c#v#w#B#w#y#C#D.h#EQtQtQtQtQtQtQtQtQt",
"QtQtQtQtQtQtQtQtQt#F.W.j#G#H#H.3.3#I#m#J.f#K#LQtQtQtQtQtQtQtQtQt",
"QtQtQtQtQtQtQtQtQt#M#M#N#O.W#P#Q#R#O.W#S#T#M.OQtQtQtQtQtQtQtQtQt",
"QtQtQtQtQtQtQtQtQt.B#U#V#V#WQtQtQt#W#M#X#X#VQtQtQtQtQtQtQtQtQtQt",
"QtQtQtQtQtQtQtQtQtQt#V#Y#Y#UQtQtQtQt#X#V#UQtQtQtQtQtQtQtQtQtQtQt",
"QtQtQtQtQtQtQtQtQtQtQtQtQtQtQtQtQtQtQtQtQtQtQtQtQtQtQtQtQtQtQtQt",
"QtQtQtQtQtQtQtQtQtQtQtQtQtQtQtQtQtQtQtQtQtQtQtQtQtQtQtQtQtQtQtQt"};
