/* XPM */
static char*floater5[]={
"32 32 117 2",
"#s c #424242",
".C c #ffefbd",
".t c #deb542",
".A c #ffa521",
".u c #f7d67b",
".T c #004221",
"#P c #947352",
"#x c #4a4a4a",
"#L c #ffad29",
"#z c #c6c6c6",
"#l c #104221",
".Y c #522900",
".b c #525252",
".4 c #104a29",
".L c #ffbd39",
".E c #ffde94",
".g c #000800",
"#e c #cecece",
".K c #de8410",
"#f c #5a5a5a",
".I c #185231",
"#X c #ff9c00",
"#R c #635a5a",
"#d c #d6d6d6",
".M c #ffc64a",
".S c #5a635a",
"#t c #dedede",
"#V c #ffa500",
"#a c #106339",
".1 c #102110",
".O c #ffd66b",
".D c #fff7c6",
"#F c #de7b00",
".# c #186bbd",
"#I c #6b6b73",
"#Q c #a59c94",
"#J c #182121",
".i c #212121",
"#N c #9c5a00",
".n c #e7eff7",
".G c #6b7b18",
".d c #292929",
"#o c #a5a5a5",
".6 c #293131",
".2 c #313131",
"#W c #ff8400",
"#g c #006b31",
"#w c #adadad",
".z c #f79410",
"#h c #393939",
".y c #ad6b08",
".U c #291800",
"#v c #b5b5b5",
".q c #f7bd73",
"#Y c #ffb500",
".Z c #6b4200",
"#. c #314239",
"#E c #ad7321",
".W c #7b4200",
"#c c #bdbdbd",
".m c #efe7ce",
"#S c #845210",
"#m c #4a4a52",
".s c #ffd694",
".h c #000000",
".f c #080808",
"#M c #ff9400",
".l c #ced6de",
"#C c #848484",
"## c #101010",
".v c #846b31",
".j c #8c8c8c",
"#q c #181818",
".p c #d6bd9c",
".B c #ffc663",
".x c #008442",
".H c #088442",
"#K c #8c5200",
"#y c #9c9c9c",
"#k c #004a21",
".w c #4a524a",
".J c #02d96e",
".7 c #182129",
".P c #ffde8c",
"#b c #085a31",
"#D c #292931",
"#p c #001808",
".X c #633100",
"#G c #5a5a63",
"#B c #a5a5ad",
"#O c #633908",
".r c #de9429",
".0 c #524208",
".c c #104252",
"#U c #ffad00",
".e c #636363",
"Qt c None",
".V c #734208",
"#i c #083118",
"#u c #6b6b6b",
"#n c #e7e7e7",
".a c #6b9cd6",
"#r c #efefef",
"#H c #737b7b",
".3 c #7b7b7b",
"#j c #f7f7f7",
".Q c #ffef84",
"#A c #313129",
".k c #f7ffff",
".F c #ffd642",
".8 c #080810",
".9 c #007b39",
".R c #7b8421",
".5 c #081018",
".o c #8c8c94",
".N c #ffc65a",
"#T c #c67308",
"QtQtQtQtQtQtQtQtQtQtQtQtQtQtQtQtQtQtQtQtQtQtQtQtQtQtQtQtQtQtQtQt",
"QtQtQtQtQtQtQtQtQtQtQtQtQtQtQtQtQtQtQtQtQtQtQtQtQtQtQtQtQtQtQtQt",
"QtQtQtQtQtQtQtQtQtQtQtQtQtQtQtQtQtQtQtQtQtQtQtQtQtQtQtQtQtQtQtQt",
"QtQtQtQtQtQtQtQtQtQt.#.#.#QtQtQtQtQtQtQtQtQtQtQtQtQtQtQtQtQtQtQt",
"QtQtQtQtQtQtQtQtQtQt.#.#.#.#.#.#.a.#.#.#.#.#.#QtQtQtQtQtQtQtQtQt",
"QtQtQtQtQtQtQtQtQtQtQtQtQtQtQtQt.#QtQtQt.#.#.#QtQtQtQtQtQtQtQtQt",
"QtQtQtQtQtQtQtQtQtQtQtQtQtQt.b.c.c.d.eQtQtQtQtQtQtQtQtQtQtQtQtQt",
"QtQtQtQtQtQtQtQtQtQtQtQtQt.f.f.g.h.i.i.gQtQtQtQtQtQtQtQtQtQtQtQt",
"QtQtQtQtQtQtQtQtQtQtQtQt.f.g.g.g.g.g.g.g.jQtQtQtQtQtQtQtQtQtQtQt",
"QtQtQtQtQtQtQtQtQtQtQtQt.i.k.l.i.m.i.n.o.bQtQtQtQtQtQtQtQtQtQtQt",
"QtQtQtQtQtQtQtQtQtQtQtQt.i.p.q.r.s.t.u.v.wQtQtQtQtQtQtQtQtQtQtQt",
"QtQtQtQtQtQtQtQtQtQtQt.x.y.z.A.B.C.D.E.F.G.HQtQtQtQtQtQtQtQtQtQt",
"QtQtQtQtQtQtQtQtQtQt.I.J.K.L.M.M.N.O.P.Q.R.J.SQtQtQtQtQtQtQtQtQt",
"QtQtQtQtQtQtQtQtQt.f.T.x.U.V.W.X.Y.X.Z.0.1.x.2.3QtQtQtQtQtQtQtQt",
"QtQtQtQtQtQtQtQt.3.h.4.x.g.h.h.5.6.7.8.h.f.9#..dQtQtQtQtQtQtQtQt",
"QtQtQtQtQtQtQtQt.h###a#b.h.2.3#c#d#e#c#f.f#g.4#h.eQtQtQtQtQtQtQt",
"QtQtQtQtQtQtQt.3.h.d#b#i.S#c#j.k.k.k.k#d#f.T#k.2.iQtQtQtQtQtQtQt",
"QtQtQtQtQt.h.e.d.f#h#l#m#e.k.k.k.k.k.k#n#o.d#p#q#q.e#qQtQtQtQtQt",
"QtQtQtQtQt.h.h.h.i#h.i#o.k.k.k.k.k.k.k#r#c.b.f##.d#q.fQtQtQtQtQt",
"QtQtQtQtQt.h.h.f#h#q#s#t.k.k.k.k.k.k.k#n#c#u.h.f.d#q.fQtQtQtQtQt",
"QtQtQtQtQtQt#s#q#h.h#u#j.k.k.k.k.k.k.k#n#c.j##.h.f##QtQtQtQtQtQt",
"QtQtQtQtQtQtQtQt.2.h.3.k.k.k.k.k.k.k#j#t#v#o#h.hQtQtQtQtQtQtQtQt",
"QtQtQtQtQtQtQtQt#u.h.3.k.k.k.k.k#j#j#n#e#w#o#x.hQtQtQtQtQtQtQtQt",
"QtQtQtQtQtQtQtQtQt.h#u#r#j#j#r#r#n#t#e#c#o#y#h.hQtQtQtQtQtQtQtQt",
"QtQtQtQtQtQtQtQtQt.i.6#z#n#t#t#d#z#z#v#w#o.3.f#AQtQtQtQtQtQtQtQt",
"QtQtQtQtQtQtQtQtQtQt.U#f#w#c#c#v#w#B#w#y#C#D.h#EQtQtQtQtQtQtQtQt",
"QtQtQtQtQtQtQtQtQtQt#F.V.2#G#H#H.3.3#I#m#J.f#K#LQtQtQtQtQtQtQtQt",
"QtQtQtQtQtQtQtQtQtQt#M#M#N#O.V#P#Q#R#O.V#S#T#M.NQtQtQtQtQtQtQtQt",
"QtQtQtQtQtQtQtQtQtQt.A#U#V#V#WQtQtQt#W#M#X#X#VQtQtQtQtQtQtQtQtQt",
"QtQtQtQtQtQtQtQtQtQtQt#V#Y#Y#UQtQtQtQt#X#V#UQtQtQtQtQtQtQtQtQtQt",
"QtQtQtQtQtQtQtQtQtQtQtQtQtQtQtQtQtQtQtQtQtQtQtQtQtQtQtQtQtQtQtQt",
"QtQtQtQtQtQtQtQtQtQtQtQtQtQtQtQtQtQtQtQtQtQtQtQtQtQtQtQtQtQtQtQt"};
