/* XPM */
static char*tumble3[]={
"32 32 85 2",
".n c #e6e6e5",
".3 c #feac04",
".0 c #c66e04",
".2 c #fea207",
"#s c #861a3c",
".m c #eaf2f4",
".a c #020204",
".M c #f66e04",
".W c #fe7254",
".R c #0a0a0c",
".u c #fe9e39",
".1 c #432207",
".8 c #feb20c",
".N c #fe7b05",
".B c #939291",
"#f c #fdbe37",
".v c #fe9d1a",
".k c #c2c2c0",
"#c c #aa4a0c",
".Z c #fea609",
".o c #bebdbc",
".p c #8a827c",
"#a c #feba3c",
".9 c #e27e04",
".c c #d3d2d6",
".t c #fab25c",
".J c #6f6e6c",
".q c #12060c",
".Q c #2a1204",
".I c #26161c",
"#r c #ca5a0c",
"#d c #280e1a",
".h c #0c0206",
".z c #8e8e8c",
".g c #b2b2b2",
".x c #e0e3e4",
".P c #f18e04",
".D c #feae4b",
".# c #686a6c",
".U c #150e04",
"#b c #febb1f",
".A c #a6a6a4",
".6 c #f2ae24",
".7 c #feb60a",
".y c #aeaeac",
".G c #fe8d07",
"#k c #220624",
"#j c #eeb23c",
".T c #1b1b1c",
".H c #d67604",
"#h c #9e2e34",
".j c #e6aa5c",
".C c #302210",
".f c #c6c6c4",
"#o c #9e223c",
".X c #f27e0c",
".5 c #d68224",
".4 c #ee6909",
"#. c #fbaa2f",
"#m c #eea21c",
"#g c #aa6e4c",
".Y c #fe9e0a",
"Qt c None",
"## c #eaad44",
".r c #fe9ec4",
".F c #fe8c16",
"#p c #120208",
"#i c #feb622",
"#n c #fd9505",
".V c #656564",
".s c #feb28c",
".w c #eeeeec",
".l c #f6f6f4",
"#l c #be862c",
".O c #fd9a04",
".d c #f6fefc",
".E c #fe9630",
".i c #d29e7c",
".L c #1c0e0c",
".e c #e8ecec",
".S c #161614",
".b c #140a0b",
"#e c #a64604",
".K c #868584",
"#q c #965614",
"QtQtQtQtQtQtQtQtQtQtQtQtQtQtQtQtQtQtQtQtQtQtQtQtQtQtQtQtQtQtQtQt",
"QtQtQtQtQtQtQtQtQtQtQtQtQtQtQtQtQtQtQtQtQtQtQtQtQtQtQtQtQtQtQtQt",
"QtQtQtQtQtQtQtQtQtQtQtQtQtQtQtQtQtQtQtQtQtQtQtQtQtQtQtQtQtQtQtQt",
"QtQtQtQtQtQtQtQtQtQtQtQtQtQtQtQtQtQtQtQtQtQtQtQtQtQtQtQtQtQtQtQt",
"QtQtQtQtQtQtQtQtQtQtQtQtQtQtQtQtQtQtQtQtQtQtQtQtQtQtQtQtQtQtQtQt",
"QtQtQtQtQtQtQtQtQtQtQtQtQtQtQtQtQtQtQtQtQtQtQtQtQtQtQtQtQtQtQtQt",
"QtQtQtQtQtQtQtQtQtQtQtQtQtQtQtQtQtQtQtQtQtQtQtQtQtQtQtQtQtQtQtQt",
"QtQtQtQtQtQtQtQtQtQtQtQtQtQtQtQtQtQtQtQtQtQtQtQtQtQtQtQtQtQtQtQt",
"QtQtQtQtQtQtQtQtQtQtQtQtQtQtQtQtQtQtQtQtQtQtQtQtQtQtQtQtQtQtQtQt",
"QtQtQtQtQtQtQtQtQtQtQtQtQtQtQtQtQtQtQtQtQtQtQtQtQtQtQtQtQtQtQtQt",
"QtQtQtQtQtQtQtQtQtQtQtQtQtQtQtQtQtQtQtQtQtQtQtQtQtQtQtQtQtQtQtQt",
"QtQtQtQtQtQtQtQtQtQtQtQt.#.a.a.a.a.a.a.#QtQtQtQtQtQtQtQtQtQtQtQt",
"QtQtQtQtQtQtQtQtQtQt.#.b.c.d.d.d.d.e.f.g.h.#QtQtQtQtQtQtQtQtQtQt",
"QtQtQtQtQtQtQtQt.i.j.a.k.d.d.d.l.m.n.o.g.p.q.j.iQtQtQtQtQtQtQtQt",
"QtQtQtQtQtQt.r.s.t.u.v.a.w.e.x.y.y.z.A.B.C.v.u.D.s.rQtQtQtQtQtQt",
"QtQtQtQtQtQt.s.D.E.F.G.H.a.I.B.#.J.K.L.a.H.G.F.E.D.sQtQtQt.#QtQt",
"QtQt.a.a.#.M.u.F.N.G.O.P.a.Q.R.S.T.U.Q.a.P.O.G.N.F.u.M.V.a.aQtQt",
"QtQtQt.a.a.M.W.X.F.Y.Z.Y.0.1.a.a.a.a.1.0.2.3.Y.F.X.3.4.a.aQtQtQt",
"QtQtQtQt.a.a.M.5.6.7.8.Z.9.a.a.a.a.b.a.9.Z.8.8#..5.M.a.aQtQtQtQt",
"QtQtQtQtQt.#.a.a###a#b.3.3#c.a.a.a#d#e.3.3#b#f##.a.a.aQtQtQtQtQt",
"QtQtQtQtQtQtQt#d#g##.7.Z.3#h.a.a.a.a#h.3.2#i#j#g#k.aQtQtQtQtQtQt",
"QtQtQtQtQtQtQt.#.a#l#m#n.M#o.a.a.a.a#o.M#n#m#l.a#pQtQtQtQtQtQtQt",
"QtQtQtQtQtQtQtQt.b.a#q#r#s.a.a.a.a.a.a#s#r#q.a.bQtQtQtQtQtQtQtQt",
"QtQtQtQtQtQtQtQtQt.a.a.a.a.a.a.a.a.a.a.a.a.h.a.#QtQtQtQtQtQtQtQt",
"QtQtQtQtQtQtQtQtQtQtQt.a.a.a.a.a.a.a.a.a.a.hQtQtQtQtQtQtQtQtQtQt",
"QtQtQtQtQtQtQtQtQtQtQtQtQt.a.a.a.a.a.a.aQtQtQtQtQtQtQtQtQtQtQtQt",
"QtQtQtQtQtQtQtQtQtQtQtQtQtQtQtQtQtQtQtQtQtQtQtQtQtQtQtQtQtQtQtQt",
"QtQtQtQtQtQtQtQtQtQtQtQtQtQtQtQtQtQtQtQtQtQtQtQtQtQtQtQtQtQtQtQt",
"QtQtQtQtQtQtQtQtQtQtQtQtQtQtQtQtQtQtQtQtQtQtQtQtQtQtQtQtQtQtQtQt",
"QtQtQtQtQtQtQtQtQtQtQtQtQtQtQtQtQtQtQtQtQtQtQtQtQtQtQtQtQtQtQtQt",
"QtQtQtQtQtQtQtQtQtQtQtQtQtQtQtQtQtQtQtQtQtQtQtQtQtQtQtQtQtQtQtQt",
"QtQtQtQtQtQtQtQtQtQtQtQtQtQtQtQtQtQtQtQtQtQtQtQtQtQtQtQtQtQtQtQt"};
