/* XPM */
static char*tumble8[]={
"32 32 119 2",
"#t c #febe47",
"#O c #feac04",
".z c #5a524c",
"#T c #fe8e34",
"#w c #fea207",
"#I c #feb694",
".4 c #eaf2f4",
".D c #e65a04",
".b c #0c0605",
".X c #a17e69",
".Q c #ee7216",
".c c #020204",
".g c #3a3634",
"#X c #822e04",
"#o c #864204",
".i c #0a0a0c",
"#K c #fe5a04",
"#U c #fe9e39",
".W c #926e54",
".V c #432207",
".U c #1e1604",
"#H c #fe7b05",
"#d c #121214",
".k c #2c2c2c",
"#D c #d67634",
"#B c #c2c2c0",
"#b c #f2f3f2",
".0 c #271a0b",
"#L c #fea609",
".q c #bebdbc",
".h c #8a827c",
".d c #222224",
"#J c #feba3c",
".5 c #d9dbdb",
".r c #cecdcc",
"#Q c #feae28",
"#M c #f55604",
".2 c #d3d2d6",
".9 c #6f6e6c",
"#W c #12060c",
"#r c #fec66d",
".s c #424244",
".E c #fea43c",
"#y c #eeca74",
".Z c #5e4e3c",
".o c #4a4a4c",
".w c #7e7e7c",
".B c #725a34",
".H c #fee6a9",
".S c #fe922c",
"#z c #f4d488",
".Y c #a6826c",
"#g c #fdda84",
".e c #8e8e8c",
"#0 c #fe568c",
"#f c #b2b2b2",
"#C c #b2927c",
".y c #522a1c",
".N c #fede9c",
"#F c #f18e04",
"#a c #969694",
".# c #6a6264",
".L c #feae4b",
".J c #686a6c",
".F c #fef6d0",
".f c #150e04",
".j c #727274",
"#P c #febb1f",
".l c #a6a6a4",
"#R c #fec2bc",
"#x c #f2ae24",
"#l c #beb29c",
".T c #361c08",
".t c #7a7a7c",
".p c #aeaeac",
"#v c #fe8d07",
"#N c #fe8608",
"## c #b6b6b4",
".G c #dec69c",
".v c #1b1b1c",
".O c #fece60",
"#Z c #fec24c",
"#E c #e67e0c",
".6 c #cac6c4",
".I c #a69e8c",
"#p c #d68224",
"#V c #7a5a14",
".m c #333334",
"#q c #fbaa2f",
".M c #fece88",
"#j c #845a14",
".A c #d6d6d4",
"#s c #fece6c",
".1 c #3b3b3c",
"#i c #fe9e0a",
"Qt c None",
".R c #fe8c16",
"#S c #fe2a7c",
"#Y c #feb622",
"#u c #fd9505",
".u c #656564",
"#. c #eeeeec",
".P c #281608",
"#n c #693204",
"#c c #535354",
"#h c #f2c654",
"#e c #f6f6f4",
"#m c #8a6a4c",
"#G c #fd9a04",
".3 c #f6fefc",
".8 c #c9cacc",
".K c #fe7204",
".C c #fe9630",
"#k c #6e5224",
".7 c #e8ecec",
".a c #161614",
".x c #dededd",
"#A c #eadecc",
".n c #868584",
"QtQtQtQtQtQtQtQtQtQtQtQtQtQtQtQtQtQtQtQtQtQtQtQtQtQtQtQtQtQtQtQt",
"QtQtQtQtQtQtQtQtQtQtQtQtQtQtQtQtQtQtQtQtQtQtQtQtQtQtQtQtQtQtQtQt",
"QtQtQtQtQtQtQtQtQtQtQtQtQtQtQtQtQtQtQtQtQtQtQtQtQtQtQtQtQtQtQtQt",
"QtQtQtQtQtQtQtQtQtQtQtQtQtQtQtQtQtQtQtQtQtQtQtQtQtQtQtQtQtQtQtQt",
"QtQtQtQtQtQtQtQtQtQtQtQtQtQtQtQtQtQtQtQtQtQtQtQtQtQtQtQtQtQtQtQt",
"QtQtQtQtQtQtQtQtQtQtQtQtQtQtQtQtQtQtQtQtQtQtQtQtQtQtQtQtQtQtQtQt",
"QtQtQtQtQtQtQtQtQtQtQtQtQtQtQtQtQtQtQtQtQtQtQtQtQtQtQtQtQtQtQtQt",
"QtQtQtQtQtQtQtQtQtQtQtQtQtQtQtQtQtQtQtQtQtQtQtQtQtQtQtQtQtQtQtQt",
"QtQtQtQtQtQtQtQtQtQtQtQtQt.#.a.b.c.b.dQtQtQtQtQtQtQtQtQtQtQtQtQt",
"QtQt.e.f.g.hQtQtQtQtQtQt.b.c.i.c.c.i.c.bQtQtQtQtQt.j.k.a.d.eQtQt",
"QtQtQt.l.m.c.c.d.nQtQt.o.d.p.p.b.i.q.r.s.gQt.t.d.c.c.k.tQtQtQtQt",
"QtQtQtQtQt.t.c.c.c.b.u.v.w.x.v.y.z.m.A.x.c.c.c.c.c.oQtQtQtQtQtQt",
"QtQtQtQtQtQt.t.b.c.c.c.c.B.C.D.E.F.G.H.I.c.c.c.c.JQtQtQtQtQtQtQt",
"QtQtQtQtQtQtQt.t.c.c.c.c.K.K.L.M.N.H.O.c.P.c.c.dQtQtQtQtQtQtQtQt",
"QtQtQtQtQtQtQtQt.b.c.c.c.c.Q.Q.R.R.S.c.c.T.c.iQtQtQtQtQtQtQtQtQt",
"QtQtQtQtQtQtQtQtQt.c.c.c.c.c.c.c.c.c.c.c.c.c.cQtQtQtQtQtQtQtQtQt",
"QtQtQtQtQtQtQtQtQt.c.c.c.c.c.c.c.c.c.c.c.c.c.cQtQtQtQtQtQtQtQtQt",
"QtQtQtQtQtQtQtQtQt.c.c.U.V.W.X.Y.Y.X.Z.0.c.c.gQtQtQtQtQtQtQtQtQt",
"QtQtQtQtQtQtQtQtQt.c.c.1.2.3.3.3.4.5.r.t.v.c.iQtQtQtQtQtQtQtQtQt",
"QtQtQtQtQtQtQtQt.a.c.d.6.3.3.3.3.7.8.q.p.u.d.c.oQtQtQtQtQtQtQtQt",
"QtQtQtQtQtQtQt.c.c.c.9.3.3.3.3.3#..2#####a.o.a.aQtQtQtQtQtQtQtQt",
"QtQtQtQtQtQtQt.g.c.c.l.3.3.3.3.3#b.5.q####.9.v.b#cQtQtQtQtQtQtQt",
"QtQtQtQtQtQtQt#d.c.a.r.3.3.3.3.3#e.5###f##.t.d.b.bQtQtQtQtQtQtQt",
"QtQtQtQtQtQtQt.c.f.c.k.x.3.3.3.3#.#f.p##.w.v.c.b.cQtQtQtQtQtQtQt",
"QtQtQtQtQtQt#g#h#i#j#k#l#b.3.3.x.r.p#f.p#m#n#o#p#q#rQtQtQtQtQtQt",
"QtQtQtQtQt#s#t#u#v#w#x#y#z#A.7#B###f#C#D#E#F#w#G#H.E.NQtQtQtQtQt",
"QtQtQtQt#I#J.S#K#K.K#u#G#s#L.1.j.9.1#M#N#O#P#P#Q#N#N#J#RQtQtQtQt",
"QtQtQtQtQt#K#K#K#K#S#T.R#U#V.i#d.i#W#X.R#Y#Z#K#K#K#K#0QtQtQtQtQt",
"QtQtQtQtQtQtQtQtQtQtQtQtQtQtQtQtQtQtQtQtQtQtQtQtQtQtQtQtQtQtQtQt",
"QtQtQtQtQtQtQtQtQtQtQtQtQtQtQtQtQtQtQtQtQtQtQtQtQtQtQtQtQtQtQtQt",
"QtQtQtQtQtQtQtQtQtQtQtQtQtQtQtQtQtQtQtQtQtQtQtQtQtQtQtQtQtQtQtQt",
"QtQtQtQtQtQtQtQtQtQtQtQtQtQtQtQtQtQtQtQtQtQtQtQtQtQtQtQtQtQtQtQt"};
