/* XPM */
static char*tumble5[]={
"32 32 83 2",
".3 c #ae760c",
".t c #febe47",
".N c #fea207",
".a c #e26a4c",
".y c #e65a04",
".c c #0c0605",
".d c #020204",
".F c #fee69c",
".g c #e27a5c",
"#. c #3a3634",
"#g c #0a0a0c",
".I c #fe5a04",
".A c #1e1604",
".j c #fe7b05",
"#a c #121214",
"#c c #2c2c2c",
".C c #fdbe37",
".V c #feeecc",
"#i c #8a827c",
"#f c #222224",
".B c #b6821c",
".s c #feba3c",
".p c #5e421c",
".e c #3e0a34",
".9 c #12060c",
".8 c #deb674",
".W c #fec66d",
"#q c #424244",
".o c #2a1204",
".v c #fed66c",
"#d c #4a4a4c",
".7 c #fed4a4",
".i c #fe922c",
".X c #be6e0c",
".4 c #b96d09",
".z c #622604",
"#h c #0c0206",
"#o c #8e8e8c",
".6 c #fab24c",
".2 c #fede9c",
"#n c #969694",
".0 c #f18e04",
"#e c #686a6c",
".1 c #feae4b",
".T c #150e04",
".Q c #fef6d0",
".J c #fe6604",
"#p c #9e9e9c",
".h c #feca64",
"## c #727274",
".b c #b64a4c",
".Y c #361c08",
".D c #fe8608",
"#m c #1b1b1c",
".r c #fece60",
".u c #fead1c",
"#b c #333334",
".w c #fbaa2f",
"Qt c None",
".q c #eaad44",
".f c #b2425c",
".Z c #523204",
".E c #feb622",
".5 c #fd9505",
".L c #523a0c",
".S c #693204",
".R c #e27204",
"#k c #535354",
".m c #5a2e14",
".O c #fec55c",
".M c #e6a20c",
".H c #fd9a04",
".l c #ce5624",
".x c #fe7204",
".k c #fe4a04",
".# c #fea65c",
".G c #fede88",
".P c #feeeb4",
"#l c #161614",
".n c #140a0b",
".U c #a66e04",
".K c #a64604",
"#j c #868584",
"QtQtQtQtQtQtQtQtQtQtQtQtQtQtQtQtQtQtQtQtQtQtQtQtQtQtQtQtQtQtQtQt",
"QtQtQtQtQtQtQtQtQtQtQtQtQtQtQtQtQtQtQtQtQtQtQtQtQtQtQtQtQtQtQtQt",
"QtQtQtQtQtQtQtQtQtQtQtQtQtQtQtQtQtQtQtQtQtQtQtQtQtQtQtQtQtQtQtQt",
"QtQtQtQtQtQtQtQtQtQtQtQtQtQtQtQtQtQtQtQtQtQtQtQtQtQtQtQtQtQtQtQt",
"QtQtQtQtQtQtQtQtQtQtQtQtQtQtQtQtQtQtQtQtQtQtQtQtQtQtQtQtQtQtQtQt",
"QtQtQtQtQtQtQtQtQtQtQtQtQtQtQtQtQtQtQtQtQtQtQtQtQtQtQtQtQtQtQtQt",
"QtQtQtQtQtQtQtQtQt.#.a.b.c.c.d.d.d.d.c.e.f.g.hQtQtQtQtQtQtQtQtQt",
"QtQtQtQt.i.#.j.j.k.l.m.n.d.d.d.d.d.d.d.d.o.p.q.r.s.t.#.uQtQtQtQt",
"QtQtQt.v.w.x.k.k.y.z.d.d.d.d.d.d.d.d.d.d.d.A.B.C.t.D.j.E.FQtQtQt",
"QtQtQt.G.r.H.I.J.K.o.d.d.d.d.d.d.d.d.d.d.d.c.L.M.N.x.D.O.PQtQtQt",
"QtQtQt.Q.r.t.D.R.S.d.d.d.d.d.d.d.d.d.d.d.d.d.T.U.H.x.i.G.VQtQtQt",
"QtQtQtQt.r.W.N.X.Y.d.d.d.d.d.d.d.d.d.d.d.d.d.d.Z.0.D.1.GQtQtQtQt",
"QtQtQtQt.2.h.t.3.d.d.d.d.d.d.d.d.d.d.d.d.d.d.d.n.4.5.6.PQtQtQtQt",
"QtQtQtQtQt.7.8.c.d.d.d.d.d.d.d.d.d.d.d.d.d.d.d.d.9.W.2QtQtQtQtQt",
"QtQtQtQtQtQtQt.d.d.d.d.d.d.d.d.d.d.d.d.d.d.d.d.d.dQtQtQtQtQtQtQt",
"QtQtQtQtQtQtQt.d.d.d.d.d.d.d.d.d.d.d.d.d.d.d.d.d.dQtQtQtQtQtQtQt",
"QtQtQtQtQtQtQt.d.d.d.d.d.d.d.d.d.d.d.d.d.d.d.d.d.cQtQtQtQtQtQtQt",
"QtQtQtQtQtQtQt#..d.d.d.d.d.d.d.d.d.d.d.d.d.d.d.c##QtQtQtQtQtQtQt",
"QtQtQtQtQtQtQt##.d.d.d.d.d.d.d.d.d.d.d.d.d.d.d#aQtQtQtQtQtQtQtQt",
"QtQtQtQtQtQtQtQt.d.d.d.d.d.d.d.d.d.d.d.d.d#b.d#cQtQtQtQtQtQtQtQt",
"QtQtQtQtQtQtQtQt#c.d.d.d.d.d.d.d.d.d.d.d.d#a.d##QtQtQtQtQtQtQtQt",
"QtQtQtQtQtQtQtQtQt.d.d.d.d.d.d.d.d.d.d.d.d.d.TQtQtQtQtQtQtQtQtQt",
"QtQtQtQtQtQtQtQtQt.c.d.d.d.d.d.d.d.d.d.d.d.d#dQtQtQtQtQtQtQtQtQt",
"QtQtQtQtQtQtQt#d.d.d.c.d.d.d.d.d.d.d.d.d.d.d.d#eQtQtQtQtQtQtQtQt",
"Qt###f#g.d.d.d.d.d.d#h.d.d.d.d.d.d.d.d.d.d.d.d.d.d.d.d.c#f#iQtQt",
"QtQtQtQt#j#k#l.T.d.c.c.d.d.d.d.d.d.d.d.d.d.d.d.d#.#k##QtQtQtQtQt",
"QtQtQtQtQtQtQtQtQtQt#j.d.d.d.d.d.d.d.d.d#c#jQtQtQtQtQtQtQtQtQtQt",
"QtQtQtQtQtQtQtQtQtQtQt#m.d.d.d.d.d.d.d.d#nQtQtQtQtQtQtQtQtQtQtQt",
"QtQtQtQtQtQtQtQtQtQtQt#o.d.c.c.d.d.T.d#fQtQtQtQtQtQtQtQtQtQtQtQt",
"QtQtQtQtQtQtQtQtQtQtQtQt#p#d#a.d.d#g#qQtQtQtQtQtQtQtQtQtQtQtQtQt",
"QtQtQtQtQtQtQtQtQtQtQtQtQtQtQtQtQtQtQtQtQtQtQtQtQtQtQtQtQtQtQtQt",
"QtQtQtQtQtQtQtQtQtQtQtQtQtQtQtQtQtQtQtQtQtQtQtQtQtQtQtQtQtQtQtQt"};
