/* XPM */
static char*tumble1[]={
"32 32 111 2",
".2 c #e6e6e5",
"#y c #feac04",
"#d c #fea207",
".T c #e65a04",
".d c #0c0605",
".U c #ee7216",
".z c #a66234",
".c c #020204",
"#N c #fee69c",
".l c #3a3634",
".y c #0a0a0c",
"#D c #fe5a04",
"#G c #feb20c",
"#M c #fe7b05",
".g c #121214",
".I c #2c2c2c",
".o c #939291",
"#L c #fdbe37",
"#C c #fe9d1a",
"#j c #f2f3f2",
".q c #271a0b",
"#h c #fea609",
"#v c #feeecc",
".n c #bebdbc",
".u c #8a827c",
".h c #222224",
".R c #b6821c",
"#w c #feba3c",
".7 c #d9dbdb",
".0 c #cecdcc",
"#a c #d3d2d6",
".H c #6f6e6c",
".C c #fec66d",
".e c #424244",
"#p c #fea43c",
".Q c #fed66c",
".a c #4a4a4c",
"#b c #7e7e7c",
".r c #725a34",
".P c #fee6a9",
"#B c #fe922c",
".A c #fe6a2c",
".E c #f4d488",
"#F c #fee28c",
".W c #86623c",
".J c #0c0206",
".f c #8e8e8c",
".8 c #b2b2b2",
".Z c #e0e3e4",
"#n c #fab24c",
".F c #fede9c",
".X c #686a6c",
".N c #feae4b",
".D c #fef6d0",
".b c #150e04",
"#x c #fe6604",
"#J c #fe5204",
".1 c #9e9e9c",
".G c #727274",
"#e c #ae724c",
".# c #a6a6a4",
"#c c #e6ce7c",
"#z c #feb60a",
".6 c #7a7a7c",
".p c #aeaeac",
"#l c #fe8d07",
"#t c #fe8608",
".5 c #b6b6b4",
"#r c #dec69c",
".i c #1b1b1c",
"#f c #fece60",
".K c #e66204",
".j c #c6c6c4",
"#i c #a69e8c",
".Y c #cac6c4",
"#g c #fec642",
"#E c #fe6204",
"#Q c #fead1c",
".S c #7a5a14",
".B c #ee6909",
".v c #333334",
"#O c #fbaa2f",
".O c #fece88",
".m c #d6d6d4",
"#S c #fece6c",
"#I c #3b3b3c",
"#A c #fe9e0a",
"#k c #ae4a04",
"Qt c None",
".V c #c6964c",
".M c #fe8c16",
"#K c #feb622",
"#m c #fd9505",
".s c #656564",
".4 c #eeeeec",
".w c #535354",
"#q c #fec55c",
"#. c #f6f6f4",
"#s c #fd9a04",
".t c #f6fefc",
".3 c #c9cacc",
".L c #fe7204",
"#H c #fe4a04",
"#R c #fe9630",
".9 c #fefefc",
"#P c #fea65c",
"#u c #fede88",
"#o c #feeeb4",
".x c #161614",
"## c #dededd",
".k c #868584",
"QtQtQtQtQtQtQtQtQtQtQtQtQtQtQtQtQtQtQtQtQtQtQtQtQtQtQtQtQtQtQtQt",
"QtQtQtQtQtQtQtQtQtQtQtQtQtQtQtQtQtQtQtQtQtQtQtQtQtQtQtQtQtQtQtQt",
"QtQtQtQtQtQtQtQtQtQtQtQtQtQtQtQtQtQtQtQtQtQtQtQtQtQtQtQtQtQtQtQt",
"QtQtQtQtQtQtQtQtQtQtQtQtQtQtQtQtQtQtQtQtQtQtQtQtQtQtQtQtQtQtQtQt",
"QtQtQtQtQtQtQtQtQtQtQtQtQtQtQtQtQtQtQtQtQtQtQtQtQtQtQtQtQtQtQtQt",
"QtQtQtQtQtQtQtQtQtQtQtQtQtQtQtQtQtQtQtQtQtQtQtQtQtQtQtQtQtQtQtQt",
"QtQtQtQtQtQtQtQtQtQtQtQt.#.a.b.c.c.d.eQtQtQtQtQtQtQtQtQtQtQtQtQt",
"QtQtQtQtQtQtQtQtQtQtQt.f.c.d.d.c.c.g.c.hQtQtQtQtQtQtQtQtQtQtQtQt",
"QtQtQtQtQtQtQtQtQtQtQt.i.a.j.k.c.l.m.n.h.oQtQtQtQtQtQtQtQtQtQtQt",
"QtQtQtQtQtQtQtQtQtQt.k.c.p.p.q.r.s.l.t.u.v.uQtQtQtQtQtQtQtQtQtQt",
"QtQtQtQt.u.w.x.b.d.d.y.g.z.A.B.C.D.E.F.a.c.c.c.c.l.w.GQtQtQtQtQt",
"Qt.H.I.d.c.c.c.c.c.c.J.K.L.M.N.O.P.F.Q.R.d.c.c.c.c.c.c.d.h.uQtQt",
"QtQtQtQtQtQtQt.a.c.c.y.S.T.T.T.T.B.U.V.W.c.c.c.XQtQtQtQtQtQtQtQt",
"QtQtQtQtQtQtQtQtQt.d.c.c.g.H.f.f.f.u.l.c.c.c.aQtQtQtQtQtQtQtQtQt",
"QtQtQtQtQtQtQtQtQt.c.c.x.Y.t.t.t.t.Z.0.X.y.c.bQtQtQtQtQtQtQtQtQt",
"QtQtQtQtQtQtQtQt.I.c.c.1.t.t.t.t.2.3.j.p.a.g.c.GQtQtQtQtQtQtQtQt",
"QtQtQtQtQtQtQtQt.c.c.e.t.t.t.t.t.4.0.5.5.k.I.d.hQtQtQtQtQtQtQtQt",
"QtQtQtQtQtQtQt.G.c.c.6.t.t.t.t.t.4.7.8.5.#.w.i.gQtQtQtQtQtQtQtQt",
"QtQtQtQtQtQtQt.l.c.c.1.t.t.9.t.t#..m.n.8.5.X.i.d.GQtQtQtQtQtQtQt",
"QtQtQtQtQtQtQt.h.c.b.Y.t.t.t.t.t#.##.n.5.5.G.i.d.dQtQtQtQtQtQtQt",
"QtQtQtQtQtQtQt.d.c.i.7.t.t.t.t.t.t#a.5.p.n.k.h.c.dQtQtQtQtQtQtQt",
"QtQtQtQtQtQtQt.g.c.I##.t.t.t.t.t.4.0.8.p.5#b.i.c.yQtQtQtQtQtQtQt",
"QtQtQtQtQt.P#c#d.b.d.n.t.t.t.t.4##.j.p.5.8.G.c.J#e.C.FQtQtQtQtQt",
"QtQtQtQt.F#f#g#h#h.R#i.9.t#.#j##.j.5.p.8.p.r#k.L#l#m#n#oQtQtQtQt",
"QtQtQtQt#f.C#h#l#p.Q#q#r#..4.0.n.5.p.5.5#e.L#l#d#s#t.N#uQtQtQtQt",
"QtQtQt#v#f#w#t#t#h#d#u#f#r.Z.0.5.8.n.5#e#x#m#y#z#A.L#B#u#vQtQtQt",
"QtQtQt#u#f#C#D#E#l#h#h#F#h#b.5.5.p.o.X.T#t#y#z#G#h.L#t#q#oQtQtQt",
"QtQtQt.Q.N.L#H#H#E#l#h.C#h.c.v.e#I.I.q#J#m#z#K#g#L#t#M#K#NQtQtQt",
"QtQtQtQt#B#p#M#M#J.L#M#p#O.g.c.y.d.d.J#J#t#G#g#f#w#w#P#QQtQtQtQt",
"QtQtQtQtQtQtQtQtQt#P#B#R.y.d.c.c.c.c.d.d#B.N#SQtQtQtQtQtQtQtQtQt",
"QtQtQtQtQtQtQtQtQtQtQtQtQtQtQtQtQtQtQtQtQtQtQtQtQtQtQtQtQtQtQtQt",
"QtQtQtQtQtQtQtQtQtQtQtQtQtQtQtQtQtQtQtQtQtQtQtQtQtQtQtQtQtQtQtQt"};
