/* XPM */
static char*tumble2[]={
"32 32 85 2",
".P c #feb63f",
"#l c #febe47",
".w c #e6e6e5",
".8 c #feac04",
"#c c #e65a04",
".d c #0c0605",
".n c #ee7216",
".# c #020204",
"#e c #fee69c",
".k c #8e7a4c",
".y c #0a0a0c",
"#p c #fe5a04",
".7 c #feb20c",
"#g c #fe7b05",
".c c #939291",
"#h c #fdbe37",
".D c #c2c2c0",
".v c #f2f3f2",
".o c #ee822c",
".2 c #fea609",
".l c #b25e0c",
"## c #feeecc",
".K c #bebdbc",
".p c #f2923c",
"#n c #feba3c",
".q c #e6a24c",
".H c #d9dbdb",
"#r c #feae28",
".r c #a67a3c",
".A c #d3d2d6",
".t c #6f6e6c",
".h c #fec66d",
".G c #4a4a4c",
".W c #725a34",
".i c #fee6a9",
".6 c #fe922c",
".j c #f4d488",
".Y c #fdda84",
".N c #0c0206",
".I c #e0e3e4",
".X c #fab24c",
".L c #fede9c",
".Z c #feae4b",
".5 c #fef6d0",
".a c #150e04",
".9 c #fe6604",
"#k c #fe5204",
".z c #727274",
".M c #ae724c",
".x c #a6a6a4",
"#b c #feb60a",
".F c #aeaeac",
".R c #fe8d07",
".0 c #fe8608",
".b c #b6b6b4",
"#o c #fece60",
".3 c #c6c6c4",
"#i c #fec642",
"#. c #fe6204",
"#m c #fead1c",
".m c #ee6909",
"#q c #fbaa2f",
".f c #de6e24",
"#s c #fece6c",
".C c #3b3b3c",
".T c #ae4a04",
"Qt c None",
"#f c #feb622",
".Q c #fd9505",
".J c #eeeeec",
"#a c #fec55c",
".e c #6e3a0c",
".U c #f6f6f4",
".1 c #fd9a04",
".E c #f6fefc",
".S c #fe7204",
"#j c #fe4a04",
".u c #fefefc",
".4 c #fede88",
".O c #feeeb4",
".s c #161614",
"#d c #b0a4a0",
".V c #dededd",
".B c #868584",
".g c #f67e24",
"QtQtQtQtQtQtQtQtQtQtQtQtQtQtQtQtQtQtQtQtQtQtQtQtQtQtQtQtQtQtQtQt",
"QtQtQtQtQtQtQtQtQtQtQtQtQtQtQtQtQtQtQtQtQtQtQtQtQtQtQtQtQtQtQtQt",
"QtQtQtQtQtQtQtQtQtQtQtQtQtQtQtQtQtQtQtQtQtQtQtQtQtQtQtQtQtQtQtQt",
"QtQtQtQtQtQtQtQtQtQtQtQtQtQtQtQtQtQtQtQtQtQtQtQtQtQtQtQtQtQtQtQt",
"QtQtQtQtQtQtQtQtQtQtQtQtQtQtQtQtQtQtQtQtQtQtQtQtQtQtQtQtQtQtQtQt",
"QtQtQtQtQtQtQtQtQtQtQtQtQtQtQtQtQtQtQtQtQtQtQtQtQtQtQtQtQtQtQtQt",
"QtQtQtQtQtQtQtQtQtQtQtQtQtQtQtQtQtQtQtQtQtQtQtQtQtQtQtQtQtQtQtQt",
"QtQtQtQtQtQtQtQtQtQtQtQtQtQtQtQtQtQtQtQtQtQtQtQtQtQtQtQtQtQtQtQt",
"QtQtQtQtQtQtQtQtQtQtQtQtQtQt.#.#.#QtQtQtQtQtQtQtQtQtQtQtQtQtQtQt",
"QtQtQtQtQtQtQtQtQtQtQtQt.#.#.#.#.#.#.#QtQtQtQtQtQtQtQtQtQtQtQtQt",
"QtQtQtQtQtQtQtQtQtQtQtQt.#.a.b.#.b.#.#.#QtQtQtQtQtQtQtQtQtQtQtQt",
"QtQtQtQtQtQtQtQtQtQtQt.#.#.b.c.d.c.b.#.#QtQtQtQtQtQtQtQtQtQtQtQt",
"QtQtQtQtQtQtQtQtQtQtQt.#.d.#.#.#.#.#.#.#.#QtQtQtQtQtQtQtQtQtQtQt",
"QtQtQt.#.#.#QtQtQtQt.#.#.e.f.g.h.i.j.k.#.#.#QtQtQtQt.#.#QtQtQtQt",
"QtQtQtQtQt.#.#.#.#.#.#.#.l.m.n.o.p.q.r.#.#.#.#.#.#.#.#QtQtQtQtQt",
"QtQtQtQtQtQt.#.#.#.#.#.s.t.b.u.v.v.w.x.y.#.#.#.#.#.#QtQtQtQtQtQt",
"QtQtQtQtQtQtQtQt.#.#.d.z.A.u.u.u.u.u.u.B.a.#.#QtQtQtQtQtQtQtQtQt",
"QtQtQtQtQtQtQt.#.#.#.C.D.E.u.u.u.u.u.u.F.G.#.#QtQtQtQtQtQtQtQtQt",
"QtQtQtQtQtQtQt.#.#.#.H.I.u.u.u.u.u.u.J.b.K.y.#QtQtQtQtQtQtQtQtQt",
"QtQtQtQtQtQt.L.h.M.N.z.u.u.u.u.u.u.E.A.K.z.y.N.M.h.LQtQtQtQtQtQt",
"QtQtQtQtQt.O.P.Q.R.S.T.u.u.u.u.u.U.V.K.K.W.T.S.R.Q.X.OQtQtQtQtQt",
"QtQtQtQtQt.Y.Z.0.1.2.R.S.u.u.u.u.V.3.K.M.S.R.2.1.0.Z.4QtQtQtQtQt",
"QtQtQtQt.5.Y.6.S.1.7.8.Q.9.u.u.3.K.K.K#..Q.8.7.1.S.6.4##QtQtQtQt",
"QtQtQtQt.O#a.0.S.2#b#b.8.0#c.F.K.K#d#c.0.8#b#b.2.S.0#a.OQtQtQtQt",
"QtQtQtQt#e#f#g.0#h#i#f.7.Q#j.#.#.#.##k.Q.7#f#i#l.0#g#f#eQtQtQtQt",
"QtQtQtQtQt#m.Z#n#n#o#i#f.0#p.#.#.#.##j.0#f#i#o#l#n.Z#mQtQtQtQtQt",
"QtQtQtQtQtQtQtQtQtQt#o#q.6.d.#.#.#.#.d.6#r#sQtQtQtQtQtQtQtQtQtQt",
"QtQtQtQtQtQtQtQtQtQtQtQt.#.#.#.#.#.#.#.#QtQtQtQtQtQtQtQtQtQtQtQt",
"QtQtQtQtQtQtQtQtQtQtQtQtQtQtQtQtQtQtQtQtQtQtQtQtQtQtQtQtQtQtQtQt",
"QtQtQtQtQtQtQtQtQtQtQtQtQtQtQtQtQtQtQtQtQtQtQtQtQtQtQtQtQtQtQtQt",
"QtQtQtQtQtQtQtQtQtQtQtQtQtQtQtQtQtQtQtQtQtQtQtQtQtQtQtQtQtQtQtQt",
"QtQtQtQtQtQtQtQtQtQtQtQtQtQtQtQtQtQtQtQtQtQtQtQtQtQtQtQtQtQtQtQt"};
