/* XPM */
static char*tumble7[]={
"32 32 59 1",
"0 c #e6e6e5",
"A c #feac04",
"1 c #825284",
"4 c #5a265c",
"T c #eaf2f4",
"c c #020204",
"i c #3a3634",
"y c #fe7254",
"C c #fe9e39",
"f c #2c2c2c",
"Q c #f2f3f2",
"q c #bebdbc",
"r c #222224",
"2 c #d9dbdb",
"a c #5e5e5c",
"P c #cecdcc",
"Y c #d3d2d6",
"N c #fab25c",
"e c #6f6e6c",
"E c #de9e24",
"K c #2a1204",
"# c #4a4a4c",
"u c #725a34",
"l c #280e1a",
"n c #8e8e8c",
"Z c #e0e3e4",
"d c #6a6264",
"J c #feae4b",
"g c #686a6c",
"k c #46363c",
"G c #feca64",
"s c #aeaeac",
"F c #fece60",
"V c #e6aa5c",
"m c #c6c6c4",
"X c #cac6c4",
"z c #f27e0c",
"x c #d68224",
"B c #ee6909",
"3 c #d2cecc",
"p c #d6d6d4",
"o c #3b3b3c",
". c None",
"M c #fe9ec4",
"D c #fe8c16",
"j c #120208",
"b c #656564",
"I c #feb28c",
"t c #281608",
"R c #f6f6f4",
"v c #f6fefc",
"O c #c9cacc",
"H c #fe7204",
"L c #fe9630",
"S c #fefefc",
"U c #d29e7c",
"h c #140a0b",
"W c #dededd",
"w c #868584",
"................................",
"................................",
"................................",
"................................",
"................................",
"................................",
"................................",
"................................",
".............##aa###............",
"...........##aabbbbba#..........",
".........c###adeebdeeafe....g...",
"........hc#####aa#abdafi..gcc...",
".......eff###cfff####fffjccc....",
".......kf###cccccccccccclcc.....",
".....gcff#ff#mncopqrcccccc......",
"....cccccfffsstudivwccccx.......",
"...cccyccccccccccccccccczA......",
"..ccgBCDcccccEFGCCHcccccDC......",
"......IJcccccKEFCHlccccLJI......",
"......MINcccOPQGCRSTcccNIM......",
"........UVcWXXXXOYZ0RhVU........",
"..........g12OOOX3W04g..........",
"............gccccccg............",
"................................",
"................................",
"................................",
"................................",
"................................",
"................................",
"................................",
"................................",
"................................"};
