/* XPM */
static char*tumble6[]={
"32 32 70 2",
".s c #feb63f",
".g c #3e1a04",
".L c #7a227c",
".f c #9e4214",
".Q c #7e5e7c",
".7 c #e6e6e5",
".p c #febe47",
".b c #fe8e34",
"#d c #fea207",
".u c #e66e04",
".h c #0c0605",
".a c #020204",
".V c #661a64",
".K c #0a0a0c",
".m c #fe5a04",
".i c #fe9e39",
".t c #fe7b05",
".H c #121214",
".5 c #939291",
".A c #2e1604",
".T c #460a44",
"#a c #fea609",
".I c #222224",
".U c #520654",
".4 c #2a022c",
".6 c #5e5e5c",
".e c #f55604",
".x c #fec66d",
".q c #fee2c4",
".0 c #522a54",
".C c #be6e0c",
".j c #fdda84",
".z c #b96d09",
".w c #0c0206",
".R c #5e0a5c",
".F c #66420c",
".# c #963a3c",
".1 c #320634",
".W c #501a50",
".P c #150e04",
".c c #fe6604",
".o c #fe5204",
".D c #feca64",
".X c #421644",
"#b c #fe8d07",
".n c #be4e04",
".Z c #220624",
".2 c #1b1b1c",
".r c #fece60",
".k c #fec24c",
".d c #fe6204",
".y c #fead1c",
"## c #333334",
".G c #fece88",
".Y c #2c0c2c",
".O c #462644",
".M c #720a74",
"#. c #3b3b3c",
"Qt c None",
".l c #fe8c16",
".8 c #656564",
".B c #281608",
".v c #693204",
".N c #5e025c",
".J c #535354",
".E c #eeba5c",
"#c c #fe7204",
".S c #6e3a6c",
".3 c #161614",
".9 c #868584",
"QtQtQtQtQtQtQtQtQtQtQtQtQtQtQtQtQtQtQtQtQtQtQtQtQtQtQtQtQtQtQtQt",
"QtQtQtQtQtQtQtQtQtQtQtQtQtQtQtQtQtQtQtQtQtQtQtQtQtQtQtQtQtQtQtQt",
"QtQtQtQtQtQtQtQtQtQtQtQtQtQtQtQtQtQtQtQtQtQtQtQtQtQtQtQtQtQtQtQt",
"QtQtQtQtQtQtQtQtQtQtQtQtQtQtQtQtQtQtQtQtQtQtQtQtQtQtQtQtQtQtQtQt",
"QtQtQtQtQtQtQtQtQtQtQtQtQtQtQtQtQtQtQtQtQtQtQtQtQtQtQtQtQtQtQtQt",
"QtQtQtQtQtQtQtQtQtQtQtQtQtQtQtQtQtQtQtQtQtQtQtQtQtQtQtQtQtQtQtQt",
"QtQtQtQtQtQtQtQtQtQtQtQtQtQtQtQtQtQtQtQtQtQtQtQtQtQtQtQtQtQtQtQt",
"QtQtQtQtQtQtQtQtQtQtQtQtQtQtQtQtQtQtQtQtQtQtQtQtQtQtQtQtQtQtQtQt",
"QtQtQtQtQtQtQtQtQtQtQt.#.a.a.a.a.a.a.a.a.#QtQtQtQtQtQtQtQtQtQtQt",
"QtQtQtQtQt.b.c.d.e.f.g.h.a.a.a.a.a.a.a.a.h.g.f.e.c.c.b.iQtQtQtQt",
"QtQtQt.j.k.l.m.m.n.g.a.a.a.a.a.a.a.a.a.a.a.a.g.n.m.o.l.p.jQtQtQt",
"QtQtQt.q.r.s.t.u.v.a.a.a.a.a.a.a.a.a.a.a.a.a.w.v.u.t.s.r.qQtQtQt",
"QtQtQtQt.r.x.y.z.A.a.a.a.a.a.a.a.a.a.a.a.a.a.a.B.C.y.x.rQtQtQtQt",
"QtQtQtQtQt.D.E.F.a.a.a.a.a.a.a.a.a.a.a.a.a.a.a.a.F.E.GQtQtQtQtQt",
"QtQtQtQtQtQtQt.H.a.a.a.a.a.a.a.a.a.a.a.a.a.a.a.a.IQtQtQtQtQtQtQt",
"QtQtQtQtQtQtQt.J.a.a.a.a.a.a.a.a.a.a.a.a.a.a.a.KQtQtQtQtQtQtQtQt",
"QtQtQtQt.LQtQtQt.a.a.a.a.a.a.a.a.a.a.a.a.a.I.h.IQtQtQtQtQtQtQtQt",
"QtQtQtQtQt.M.NQt.O.a.a.a.a.a.a.a.a.a.a.a.a.P.a.QQt.RQtQtQtQtQtQt",
"QtQtQtQtQtQt.S.T.U.V.a.a.a.a.a.a.a.a.a.a.a.a.IQt.WQtQtQtQtQtQtQt",
"QtQtQtQtQtQtQt.X.Y.h.w.a.a.a.a.a.a.a.a.a.a.a.I.W.aQtQtQtQtQtQtQt",
"QtQtQtQtQtQtQtQt.a.Z.w.a.a.a.a.a.a.a.a.a.a.h.Y.0QtQtQtQtQtQtQtQt",
"QtQtQtQtQtQtQtQtQt.1.2.a.a.a.a.a.a.a.a.a.h.3.4QtQtQtQtQtQtQtQtQt",
"QtQtQtQtQtQtQtQtQtQtQt.K.a.a.5.a.a.5.a.a.JQtQtQtQtQtQtQtQtQtQtQt",
"QtQtQtQtQtQtQtQtQtQtQt.6.a.5.7.8.8.7.5.HQtQtQtQtQtQtQtQtQtQtQtQt",
"QtQtQtQtQtQtQtQtQtQtQtQt.9#..K.a.a.K##QtQtQtQtQtQtQtQtQtQtQtQtQt",
"QtQtQtQtQtQtQtQtQtQtQtQtQt.r#a#b.l#c.dQtQtQtQtQtQtQtQtQtQtQtQtQt",
"QtQtQtQtQtQtQtQtQtQtQtQtQtQt.r#d#c.cQtQtQtQtQtQtQtQtQtQtQtQtQtQt",
"QtQtQtQtQtQtQtQtQtQtQtQtQtQtQt.r.cQtQtQtQtQtQtQtQtQtQtQtQtQtQtQt",
"QtQtQtQtQtQtQtQtQtQtQtQtQtQtQtQtQtQtQtQtQtQtQtQtQtQtQtQtQtQtQtQt",
"QtQtQtQtQtQtQtQtQtQtQtQtQtQtQtQtQtQtQtQtQtQtQtQtQtQtQtQtQtQtQtQt",
"QtQtQtQtQtQtQtQtQtQtQtQtQtQtQtQtQtQtQtQtQtQtQtQtQtQtQtQtQtQtQtQt",
"QtQtQtQtQtQtQtQtQtQtQtQtQtQtQtQtQtQtQtQtQtQtQtQtQtQtQtQtQtQtQtQt"};
