/* XPM */
static char*tumble4[]={
"32 32 32 1",
"j c #febe47",
"h c #0c0605",
"g c #020204",
"w c #3a3634",
"v c #0a0a0c",
"y c #2c2c2c",
"A c #8a827c",
"z c #222224",
"p c #feba3c",
"n c #5e421c",
"i c #3e0a34",
"u c #12060c",
"c c #686a6c",
"r c #150e04",
"o c #fe6604",
"x c #727274",
"s c #361c08",
"# c #c6c6c4",
"a c #fe6204",
"f c #fe9e0a",
". c None",
"t c #523204",
"m c #281608",
"q c #693204",
"B c #535354",
"k c #5a2e14",
"b c #fd9a04",
"e c #fe7204",
"d c #fefefc",
"D c #161614",
"l c #140a0b",
"C c #868584",
"................................",
"................................",
"................................",
"................................",
"................................",
"................................",
"................................",
".............######.............",
".....aba...c#dddddd#c...aea.....",
".....bfbe.gghc#dd#cigg.ebbe.....",
".....ejbbeklggccccggmnejja......",
"......afjbboggggggggabjfa.......",
".......afjbbagggggggfpbe........",
"........qgafagggggggagrg........",
".......gsggggggggggggggt........",
".......ghggggggggggggggl........",
".......gggggggggggggggggu.......",
".......gggggggggggggggggv.......",
".......wggggggggggggggghx.......",
"........gggggggggggggygghzA.....",
"...xzvgggggggggggggggrBx........",
"......CBDrhggggggggggg..........",
"..........gggggggggggg..........",
"...........gggggggggg...........",
"...........gggggggggg...........",
"............gggggggg............",
".............gggggg.............",
"..............gggg..............",
"................................",
"................................",
"................................",
"................................"};
