/* XPM */
static char*walk_r2[]={
"32 32 76 2",
".E c #ffa510",
".P c #424242",
".I c #844a00",
".h c #4a4a4a",
".o c #ffd68c",
".B c #522900",
".N c #525252",
".T c #cecece",
".V c #5a5a5a",
".4 c #ced6d6",
".F c #ff9c00",
".1 c #d6d6d6",
".w c #f7c64a",
".5 c #9c846b",
".3 c #cebd94",
".U c #dedede",
".H c #ffa500",
".7 c #ffce52",
".L c #9c6b29",
"#d c #9c7342",
".u c #ffb521",
"#. c #d6c6a5",
".b c #212121",
".s c #292929",
".6 c #efad52",
".f c #a5a5a5",
".J c #f78400",
".O c #313131",
"#h c #ff8400",
"## c #d6bd84",
"#j c #ef9410",
".W c #adadad",
".D c #ff8c08",
".R c #393939",
"#f c #734200",
".Y c #bdbdbd",
".q c #ffa518",
".n c #7b7b73",
".a c #000000",
".k c #fffff7",
".c c #080808",
".y c #ff9400",
".Z c #848484",
"#e c #ff9c08",
".M c #101010",
".Q c #8c8c8c",
".l c #181818",
"#b c #ffce5a",
".p c #949494",
".z c #ffad10",
".9 c #9c9c9c",
".A c #ffbd31",
".t c #946308",
".8 c #ffc631",
"#a c #f7ce4a",
".v c #ffce4a",
".0 c #adadb5",
".2 c #dedee7",
".G c #ffad00",
".i c #636363",
".K c #291808",
"Qt c None",
".d c #6b6b6b",
"#c c #292108",
".S c #e7e7e7",
".r c #ffbd21",
".j c #737373",
"#g c #d68c00",
".g c #efefef",
".# c #7b7b7b",
".X c #f7f7f7",
".m c #debd6b",
"#i c #423118",
".C c #ff8c00",
".x c #ff9c10",
".e c #101018",
"QtQtQtQtQtQtQtQtQtQtQtQtQtQtQtQtQtQtQtQtQtQtQtQtQtQtQtQtQtQtQtQt",
"QtQtQtQtQtQtQtQtQtQtQtQtQtQtQtQtQtQtQtQtQtQtQtQtQtQtQtQtQtQtQtQt",
"QtQtQtQtQtQtQtQtQtQtQtQtQtQtQtQtQtQtQtQtQtQtQtQtQtQtQtQtQtQtQtQt",
"QtQtQtQtQtQtQtQtQtQtQtQtQtQt.#.a.a.#QtQtQtQtQtQtQtQtQtQtQtQtQtQt",
"QtQtQtQtQtQtQtQtQtQtQtQtQt.b.c.a.a.a.bQtQtQtQtQtQtQtQtQtQtQtQtQt",
"QtQtQtQtQtQtQtQtQtQtQtQt.b.a.a.a.a.a.a.aQtQtQtQtQtQtQtQtQtQtQtQt",
"QtQtQtQtQtQtQtQtQtQtQt.d.a.c.a.a.e.f.g.dQtQtQtQtQtQtQtQtQtQtQtQt",
"QtQtQtQtQtQtQtQtQtQtQt.b.a.h.i.h.j.k.l.l.mQtQtQtQtQtQtQtQtQtQtQt",
"QtQtQtQtQtQtQtQtQtQtQt.l.a.a.b.n.o.o.p.q.r.oQtQtQtQtQtQtQtQtQtQt",
"QtQtQtQtQtQtQtQtQtQtQt.s.a.a.a.t.u.v.w.x.y.z.A.A.AQtQtQtQtQtQtQt",
"QtQtQtQtQtQtQtQtQtQtQt.i.a.a.a.B.C.D.E.E.F.G.z.H.FQtQtQtQtQtQtQt",
"QtQtQtQtQtQtQtQtQtQtQtQt.a.a.a.a.I.J.C.C.y.y.y.CQtQtQtQtQtQtQtQt",
"QtQtQtQtQtQtQtQtQtQtQt.c.c.a.a.a.a.K.B.LQtQtQtQtQtQtQtQtQtQtQtQt",
"QtQtQtQtQtQtQtQtQtQt.M.h.b.a.a.a.a.a.a.eQtQtQtQtQtQtQtQtQtQtQtQt",
"QtQtQtQtQtQtQtQtQt.l.N.O.a.a.a.a.a.a.c.s.sQtQtQtQtQtQtQtQtQtQtQt",
"QtQtQtQtQtQtQtQtQt.N.s.a.a.a.a.a.a.M.P.Q.P.cQtQtQtQtQtQtQtQtQtQt",
"QtQtQtQtQtQtQtQt.d.O.a.a.a.b.b.a.M.R.p.S.p.c.bQtQtQtQtQtQtQtQtQt",
"QtQtQtQtQtQtQtQt.N.c.a.a.O.h.M.a.s.j.T.k.U.N.a.hQtQtQtQtQtQtQtQt",
"QtQtQtQtQtQtQt.p.l.a.a.s.V.M.a.M.N.W.g.k.k.jQtQtQtQtQtQtQtQtQtQt",
"QtQtQtQtQtQtQt.b.c.b.P.V.l.a.a.s.#.T.X.k.k.W.QQtQtQtQtQtQtQtQtQt",
"QtQtQtQtQtQtQt.d.i.N.P.M.a.a.M.N.W.S.k.k.k.S.#QtQtQtQtQtQtQtQtQt",
"QtQtQtQtQtQtQtQt.Q.a.a.a.a.a.b.j.Y.S.k.k.k.X.QQtQtQtQtQtQtQtQtQt",
"QtQtQtQtQtQtQtQt.i.a.a.a.a.c.O.#.Y.g.k.k.k.g.pQtQtQtQtQtQtQtQtQt",
"QtQtQtQtQtQtQtQt.N.a.a.a.a.c.R.Z.0.g.k.k.k.U.#QtQtQtQtQtQtQtQtQt",
"QtQtQtQtQtQtQtQt.P.a.a.a.a.M.R.Z.Y.S.k.k.k.f.pQtQtQtQtQtQtQtQtQt",
"QtQtQtQtQtQtQtQt.V.a.a.a.a.M.R.#.W.1.X.k.2.j.3QtQtQtQtQtQtQtQtQt",
"QtQtQtQtQtQt.a.l.O.a.a.a.a.c.O.j.f.W.4.2.5.6.7.8.zQtQtQtQtQtQtQt",
"QtQtQtQtQtQt.c.a.a.a.a.a.a.a.s.d.9.W#.###a#b#b.A.DQtQtQtQtQtQtQt",
"QtQtQtQtQtQtQt.a.a.a.a.a.a.a#c#d.m.6.w#b#b.v.u#eQtQtQtQtQtQtQtQt",
"QtQtQtQtQtQtQtQt.M.a.a.a.a.a#f#g.E.z.q.A.q.D#hQtQtQtQtQtQtQtQtQt",
"QtQtQtQtQtQtQtQtQtQt.d.P#i#d#j#h#h.C.C#h#hQtQtQtQtQtQtQtQtQtQtQt",
"QtQtQtQtQtQtQtQtQtQtQtQtQtQtQtQtQtQtQtQtQtQtQtQtQtQtQtQtQtQtQtQt"};
