/* XPM */
static char*walk_r4[]={
"32 32 80 2",
".H c #ffa510",
".L c #844a00",
".e c #424242",
"#d c #f7a521",
"#j c #524231",
"#b c #ffa521",
".7 c #b58410",
".S c #735a21",
".T c #4a4a4a",
".E c #8c5208",
".Z c #525252",
".4 c #cecece",
".m c #5a5a5a",
"#h c #ff9c00",
".2 c #d6d6d6",
"#g c #9c846b",
"#a c #ffc64a",
".j c #dedede",
".I c #ffa500",
"#m c #9c6b29",
".s c #ffb510",
"## c #ffbd18",
"#l c #ff9c39",
".l c #212121",
".i c #292929",
".W c #a5a5a5",
".g c #313131",
".F c #ff8400",
".8 c #ef9410",
".0 c #adadad",
".G c #ff8c08",
".d c #393939",
".z c #ff9410",
".1 c #b5b5b5",
".X c #bdbdbd",
".r c #ffa518",
"#n c #ffa529",
".R c #392908",
".a c #000000",
".y c #efbd52",
".u c #080000",
".3 c #fffff7",
".h c #080808",
".J c #ff9400",
".V c #848484",
".A c #ff9c08",
".P c #101010",
"#e c #8c8c8c",
".c c #181818",
".t c #ffce5a",
".q c #949494",
"#f c #ffb518",
".Y c #9c9c9c",
".C c #ffbd31",
".v c #946308",
".6 c #ffc631",
".Q c #181000",
".x c #ffc642",
"#i c #ffce4a",
".B c #ffad00",
".U c #636363",
".K c #291808",
"#. c #b5b5bd",
".D c #ffb508",
"Qt c None",
"#c c #ffbd10",
".b c #6b6b6b",
"#k c #c66b10",
".9 c #292108",
".5 c #e7e7e7",
".n c #737373",
".f c #efefef",
".# c #7b7b7b",
".k c #debd6b",
".N c #ff8c00",
".o c #ad9452",
".O c #ff9408",
".p c #ffdeb5",
".M c #bd6b00",
".w c #ff9c21",
"QtQtQtQtQtQtQtQtQtQtQtQtQtQtQtQtQtQtQtQtQtQtQtQtQtQtQtQtQtQtQtQt",
"QtQtQtQtQtQtQtQtQtQtQtQtQtQtQtQtQtQtQtQtQtQtQtQtQtQtQtQtQtQtQtQt",
"QtQtQtQtQtQtQtQtQtQtQtQtQtQtQtQtQtQtQtQtQtQtQtQtQtQtQtQtQtQtQtQt",
"QtQtQtQtQtQtQtQtQtQtQtQtQtQt.#.a.a.#QtQtQtQtQtQtQtQtQtQtQtQtQtQt",
"QtQtQtQtQtQtQtQtQtQtQtQtQt.b.c.a.a.a.aQtQtQtQtQtQtQtQtQtQtQtQtQt",
"QtQtQtQtQtQtQtQtQtQtQtQt.d.a.a.a.a.a.a.dQtQtQtQtQtQtQtQtQtQtQtQt",
"QtQtQtQtQtQtQtQtQtQtQt.#.a.a.a.a.a.e.f.bQtQtQtQtQtQtQtQtQtQtQtQt",
"QtQtQtQtQtQtQtQtQtQtQt.g.h.i.i.a.i.j.c.c.kQtQtQtQtQtQtQtQtQtQtQt",
"QtQtQtQtQtQtQtQtQtQtQt.l.a.i.m.n.o.p.q.r.s.tQtQtQtQtQtQtQtQtQtQt",
"QtQtQtQtQtQtQtQtQtQtQt.l.a.a.u.v.w.x.y.z.A.B.C.C.DQtQtQtQtQtQtQt",
"QtQtQtQtQtQtQtQtQtQtQt.b.a.a.u.E.F.G.r.H.D.D.I.I.JQtQtQtQtQtQtQt",
"QtQtQtQtQtQtQtQtQtQtQtQt.a.a.a.K.L.M.F.N.N.N.O.GQtQtQtQtQtQtQtQt",
"QtQtQtQtQtQtQtQtQtQtQt.P.a.a.a.a.a.Q.R.SQtQtQtQtQtQtQtQtQtQtQtQt",
"QtQtQtQtQtQtQtQtQtQt.T.a.a.a.a.a.a.a.a.iQtQtQtQtQtQtQtQtQtQtQtQt",
"QtQtQtQtQtQtQtQtQtQt.a.a.a.a.a.a.h.d.T.l.#QtQtQtQtQtQtQtQtQtQtQt",
"QtQtQtQtQtQtQtQtQt.T.a.a.a.a.a.a.a.a.l.e.U.VQtQtQtQtQtQtQtQtQtQt",
"QtQtQtQtQtQtQtQtQt.P.a.a.a.a.a.P.h.a.a.c.#.V.WQtQtQtQtQtQtQtQtQt",
"QtQtQtQtQtQtQtQtQt.a.a.a.a.a.a.l.T.c.a.a.e.X.nQtQtQtQtQtQtQtQtQt",
"QtQtQtQtQtQtQtQt.n.a.a.a.a.a.a.a.i.T.h.a.c.Y.#QtQtQtQtQtQtQtQtQt",
"QtQtQtQtQtQtQtQt.Z.a.a.a.a.a.a.a.a.T.g.a.h.q.0.VQtQtQtQtQtQtQtQt",
"QtQtQtQtQtQtQtQt.T.a.a.a.a.a.a.a.a.P.T.P.h.Y.0.VQtQtQtQtQtQtQtQt",
"QtQtQtQtQtQtQtQt.e.a.a.a.a.a.a.a.a.a.T.g.c.0.1.VQtQtQtQtQtQtQtQt",
"QtQtQtQtQtQtQtQt.e.a.a.a.a.a.a.a.a.a.P.e.d.2.0.VQtQtQtQtQtQtQtQt",
"QtQtQtQtQtQtQtQt.Z.a.a.a.a.a.a.a.a.a.h.d.#.3.VQtQtQtQtQtQtQtQtQt",
"QtQtQtQtQtQtQtQt.Z.a.a.a.a.a.a.a.a.a.l.V.4.5.bQtQtQtQtQtQtQtQtQt",
"QtQtQtQtQtQtQtQt.m.Q.a.a.a.a.a.a.a.a.g.W.4.4.V.C.6QtQtQtQtQtQtQt",
"QtQtQtQtQtQt.a.l.7.8.v.9.a.a.a.a.a.h.d.q#..V.t###aQtQtQtQtQtQtQt",
"QtQtQtQtQtQt.h.S#b.D#c#d.S.P.a.a.a.h.g#e.V.k#f.DQtQtQtQtQtQtQtQt",
"QtQtQtQtQtQtQt#g#b#h.A###i.o#j.c.a.a.c.V.V.A.IQtQtQtQtQtQtQtQtQt",
"QtQtQtQtQtQtQtQtQt.z.N.O.s.6.t.k.S.c.R#k.F.zQtQtQtQtQtQtQtQtQtQt",
"QtQtQtQtQtQtQtQtQtQtQt#l.G.J.r.x#i#m.M#nQtQtQtQtQtQtQtQtQtQtQtQt",
"QtQtQtQtQtQtQtQtQtQtQtQtQtQtQtQtQtQtQtQtQtQtQtQtQtQtQtQtQtQtQtQt"};
