/* XPM */
static char*walk_l6[]={
"32 32 73 2",
".I c #844a00",
".h c #424242",
".9 c #b58410",
".X c #c6c6c6",
".K c #522900",
".c c #525252",
".Z c #cecece",
".O c #5a5a5a",
".C c #ff9c00",
"#g c #5a3910",
".1 c #d6d6d6",
"## c #f7c64a",
".s c #9c846b",
".5 c #cebd94",
".u c #ffc64a",
".U c #dedede",
".B c #ffa500",
".7 c #9c7342",
"#a c #ffb521",
".d c #212121",
".N c #292929",
".J c #a58439",
".S c #a5a5a5",
".H c #f78400",
".f c #313131",
".G c #ff8400",
".q c #d6bd84",
".2 c #adadad",
".g c #393939",
".w c #ff9410",
".3 c #b5b5b5",
"#e c #ff9c18",
".8 c #a57b29",
".0 c #bdbdbd",
".l c #efce7b",
".o c #ffa518",
".m c #ffce7b",
".L c #392908",
".4 c #7b7b73",
"#d c #ffad31",
".x c #ffb539",
".a c #000000",
".R c #fffff7",
".b c #080808",
".v c #ff9400",
".W c #848484",
".M c #101010",
".P c #8c8c8c",
".e c #181818",
"#. c #ffce5a",
".p c #949494",
".n c #ffad10",
".Q c #9c9c9c",
".z c #c69429",
".A c #181000",
".y c #ffce4a",
"#b c #ffad00",
".k c #636363",
".t c #ffb508",
".6 c #9c9c8c",
"Qt c None",
".i c #6b6b6b",
".Y c #e7e7e7",
".T c #737373",
"#f c #d68c00",
".j c #efefef",
".# c #7b7b7b",
".V c #f7f7f7",
".E c #ff8c00",
".r c #ad9452",
".F c #bd6b00",
".D c #ff9c10",
"#c c #bd7308",
"QtQtQtQtQtQtQtQtQtQtQtQtQtQtQtQtQtQtQtQtQtQtQtQtQtQtQtQtQtQtQtQt",
"QtQtQtQtQtQtQtQtQtQtQtQtQtQtQtQtQtQtQtQtQtQtQtQtQtQtQtQtQtQtQtQt",
"QtQtQtQtQtQtQtQtQtQtQtQtQtQtQtQtQtQtQtQtQtQtQtQtQtQtQtQtQtQtQtQt",
"QtQtQtQtQtQtQtQtQtQtQtQtQtQtQtQtQtQtQtQtQtQtQtQtQtQtQtQtQtQtQtQt",
"QtQtQtQtQtQtQtQtQtQtQtQtQtQt.#.a.a.bQtQtQtQtQtQtQtQtQtQtQtQtQtQt",
"QtQtQtQtQtQtQtQtQtQtQtQtQt.c.d.e.f.b.bQtQtQtQtQtQtQtQtQtQtQtQtQt",
"QtQtQtQtQtQtQtQtQtQtQtQt.g.b.b.b.b.b.b.hQtQtQtQtQtQtQtQtQtQtQtQt",
"QtQtQtQtQtQtQtQtQtQtQtQt.i.j.h.b.b.b.b.b.kQtQtQtQtQtQtQtQtQtQtQt",
"QtQtQtQtQtQtQtQtQtQtQt.l.e.e.j.b.e.h.g.b.eQtQtQtQtQtQtQtQtQtQtQt",
"QtQtQtQtQtQtQtQtQtQt.m.n.o.p.q.r.s.c.d.b.bQtQtQtQtQtQtQtQtQtQtQt",
"QtQtQtQtQtQtQt.t.u.u.t.v.w.x.u.y.z.A.b.b.kQtQtQtQtQtQtQtQtQtQtQt",
"QtQtQtQtQtQtQt.B.B.B.B.C.v.D.w.E.F.A.b.bQtQtQtQtQtQtQtQtQtQtQtQt",
"QtQtQtQtQtQtQtQt.E.E.G.E.E.H.H.I.A.b.b.b.bQtQtQtQtQtQtQtQtQtQtQt",
"QtQtQtQtQtQtQtQtQtQtQtQt.J.K.L.b.b.b.b.b.b.hQtQtQtQtQtQtQtQtQtQt",
"QtQtQtQtQtQtQtQtQtQtQtQt.h.b.b.M.e.b.b.b.b.bQtQtQtQtQtQtQtQtQtQt",
"QtQtQtQtQtQtQtQtQtQtQt.p.b.b.b.g.N.b.b.b.b.b.OQtQtQtQtQtQtQtQtQt",
"QtQtQtQtQtQtQtQtQtQtQt.#.P.e.b.h.M.b.b.b.b.b.dQtQtQtQtQtQtQtQtQt",
"QtQtQtQtQtQtQtQtQtQtQt.Q.R.S.f.h.b.b.b.b.b.b.bQtQtQtQtQtQtQtQtQt",
"QtQtQtQtQtQtQtQtQtQt.T.U.R.V.T.N.b.b.e.f.b.b.b.cQtQtQtQtQtQtQtQt",
"QtQtQtQtQtQtQtQtQtQt.T.R.R.V.T.d.b.b.f.g.b.b.b.gQtQtQtQtQtQtQtQt",
"QtQtQtQtQtQtQtQtQtQt.W.R.R.R.P.N.b.b.g.N.b.b.b.NQtQtQtQtQtQtQtQt",
"QtQtQtQtQtQtQtQtQtQt.p.R.R.R.S.f.b.b.c.e.b.b.b.eQtQtQtQtQtQtQtQt",
"QtQtQtQtQtQtQtQtQtQt.p.R.R.R.X.c.e.M.c.M.b.b.b.bQtQtQtQtQtQtQtQt",
"QtQtQtQtQtQtQtQtQtQt.#.R.R.R.Y.P.h.e.h.e.b.b.b.bQtQtQtQtQtQtQtQt",
"QtQtQtQtQtQtQtQtQtQt.k.V.R.j.Z.S.i.c.c.N.b.b.b.bQtQtQtQtQtQtQtQt",
"QtQtQtQtQtQtQtQtQtQt.#.0.V.1.2.Q.c.f.g.e.b.b.b.bQtQtQtQtQtQtQtQt",
"QtQtQtQtQtQtQtQtQtQtQt.T.1.3.Q.#.g.b.b.b.b.b.b.bQtQtQtQtQtQtQtQt",
"QtQtQtQtQtQtQtQtQtQtQt.i.S.2.P.c.d.b.b.b.b.b.b.b.f.fQtQtQtQtQtQt",
"QtQtQtQtQtQtQtQtQtQtQtQt.4.5.6.7.8.9.9.9.L.b.b.b.b.bQtQtQtQtQtQt",
"QtQtQtQtQtQtQtQtQtQtQt#.###.#.#..y#a#b#b#c.A.b.b.eQtQtQtQtQtQtQt",
"QtQtQtQtQtQtQtQtQtQt.x#a.u.x.x#d#e.v.E.E#f#g.hQtQtQtQtQtQtQtQtQt",
"QtQtQtQtQtQtQtQtQtQtQtQtQtQtQtQtQtQtQtQtQtQtQtQtQtQtQtQtQtQtQtQt"};
