/* XPM */
static char*walk_r3[]={
"32 32 73 2",
".G c #844a00",
".g c #424242",
".4 c #b58410",
".X c #c6c6c6",
".K c #522900",
".f c #525252",
".Z c #cecece",
".N c #5a5a5a",
".E c #ff9c00",
"#d c #5a3910",
".1 c #d6d6d6",
"#c c #f7c64a",
".m c #9c846b",
".8 c #cebd94",
".w c #ffc64a",
".V c #dedede",
".F c #ffa500",
".6 c #9c7342",
"#a c #ffb521",
".e c #212121",
".O c #292929",
".L c #a58439",
".Q c #a5a5a5",
".H c #f78400",
".c c #313131",
".I c #ff8400",
".o c #d6bd84",
".0 c #adadad",
".h c #393939",
".y c #ff9410",
".3 c #b5b5b5",
"#f c #ff9c18",
".5 c #a57b29",
".2 c #bdbdbd",
".l c #efce7b",
".q c #ffa518",
".s c #ffce7b",
".J c #392908",
".9 c #7b7b73",
"#g c #ffad31",
".x c #ffb539",
".a c #000000",
".R c #fffff7",
".# c #080808",
".z c #ff9400",
".W c #848484",
".M c #101010",
".P c #8c8c8c",
".d c #181818",
"#b c #ffce5a",
".p c #949494",
".r c #ffad10",
".S c #9c9c9c",
".u c #c69429",
".t c #181000",
".v c #ffce4a",
"## c #ffad00",
".i c #636363",
".A c #ffb508",
".7 c #9c9c8c",
"Qt c None",
".k c #6b6b6b",
".Y c #e7e7e7",
".T c #737373",
"#e c #d68c00",
".j c #efefef",
".b c #7b7b7b",
".U c #f7f7f7",
".C c #ff8c00",
".n c #ad9452",
".B c #bd6b00",
".D c #ff9c10",
"#. c #bd7308",
"QtQtQtQtQtQtQtQtQtQtQtQtQtQtQtQtQtQtQtQtQtQtQtQtQtQtQtQtQtQtQtQt",
"QtQtQtQtQtQtQtQtQtQtQtQtQtQtQtQtQtQtQtQtQtQtQtQtQtQtQtQtQtQtQtQt",
"QtQtQtQtQtQtQtQtQtQtQtQtQtQtQtQtQtQtQtQtQtQtQtQtQtQtQtQtQtQtQtQt",
"QtQtQtQtQtQtQtQtQtQtQtQtQtQtQtQtQtQtQtQtQtQtQtQtQtQtQtQtQtQtQtQt",
"QtQtQtQtQtQtQtQtQtQtQtQtQtQt.#.a.a.bQtQtQtQtQtQtQtQtQtQtQtQtQtQt",
"QtQtQtQtQtQtQtQtQtQtQtQtQt.#.#.c.d.e.fQtQtQtQtQtQtQtQtQtQtQtQtQt",
"QtQtQtQtQtQtQtQtQtQtQtQt.g.#.#.#.#.#.#.hQtQtQtQtQtQtQtQtQtQtQtQt",
"QtQtQtQtQtQtQtQtQtQtQt.i.#.#.#.#.#.g.j.kQtQtQtQtQtQtQtQtQtQtQtQt",
"QtQtQtQtQtQtQtQtQtQtQt.d.#.h.g.d.#.j.d.d.lQtQtQtQtQtQtQtQtQtQtQt",
"QtQtQtQtQtQtQtQtQtQtQt.#.#.e.f.m.n.o.p.q.r.sQtQtQtQtQtQtQtQtQtQt",
"QtQtQtQtQtQtQtQtQtQtQt.i.#.#.t.u.v.w.x.y.z.A.w.w.AQtQtQtQtQtQtQt",
"QtQtQtQtQtQtQtQtQtQtQtQt.#.#.t.B.C.y.D.z.E.F.F.F.FQtQtQtQtQtQtQt",
"QtQtQtQtQtQtQtQtQtQtQt.#.#.#.#.t.G.H.H.C.C.I.C.CQtQtQtQtQtQtQtQt",
"QtQtQtQtQtQtQtQtQtQt.g.#.#.#.#.#.#.J.K.LQtQtQtQtQtQtQtQtQtQtQtQt",
"QtQtQtQtQtQtQtQtQtQt.#.#.#.#.#.d.M.#.#.gQtQtQtQtQtQtQtQtQtQtQtQt",
"QtQtQtQtQtQtQtQtQt.N.#.#.#.#.#.O.h.#.#.#.pQtQtQtQtQtQtQtQtQtQtQt",
"QtQtQtQtQtQtQtQtQt.e.#.#.#.#.#.M.g.#.d.P.bQtQtQtQtQtQtQtQtQtQtQt",
"QtQtQtQtQtQtQtQtQt.#.#.#.#.#.#.#.g.c.Q.R.SQtQtQtQtQtQtQtQtQtQtQt",
"QtQtQtQtQtQtQtQt.f.#.#.#.c.d.#.#.O.T.U.R.V.TQtQtQtQtQtQtQtQtQtQt",
"QtQtQtQtQtQtQtQt.h.#.#.#.h.c.#.#.e.T.U.R.R.TQtQtQtQtQtQtQtQtQtQt",
"QtQtQtQtQtQtQtQt.O.#.#.#.O.h.#.#.O.P.R.R.R.WQtQtQtQtQtQtQtQtQtQt",
"QtQtQtQtQtQtQtQt.d.#.#.#.d.f.#.#.c.Q.R.R.R.pQtQtQtQtQtQtQtQtQtQt",
"QtQtQtQtQtQtQtQt.#.#.#.#.M.f.M.d.f.X.R.R.R.pQtQtQtQtQtQtQtQtQtQt",
"QtQtQtQtQtQtQtQt.#.#.#.#.d.g.d.g.P.Y.R.R.R.bQtQtQtQtQtQtQtQtQtQt",
"QtQtQtQtQtQtQtQt.#.#.#.#.O.f.f.k.Q.Z.j.R.U.iQtQtQtQtQtQtQtQtQtQt",
"QtQtQtQtQtQtQtQt.#.#.#.#.d.h.c.f.S.0.1.U.2.bQtQtQtQtQtQtQtQtQtQt",
"QtQtQtQtQtQtQtQt.#.#.#.#.#.#.#.h.b.S.3.1.TQtQtQtQtQtQtQtQtQtQtQt",
"QtQtQtQtQtQt.c.c.#.#.#.#.#.#.#.e.f.P.0.Q.kQtQtQtQtQtQtQtQtQtQtQt",
"QtQtQtQtQtQt.#.#.#.#.#.J.4.4.4.5.6.7.8.9QtQtQtQtQtQtQtQtQtQtQtQt",
"QtQtQtQtQtQtQt.d.#.#.t#.#####a.v#b#b#b#c#bQtQtQtQtQtQtQtQtQtQtQt",
"QtQtQtQtQtQtQtQtQt.g#d#e.C.C.z#f#g.x.x.w#a.xQtQtQtQtQtQtQtQtQtQt",
"QtQtQtQtQtQtQtQtQtQtQtQtQtQtQtQtQtQtQtQtQtQtQtQtQtQtQtQtQtQtQtQt"};
