/* XPM */
static char*walk_l3[]={
"32 32 87 2",
".p c #ffa510",
".b c #424242",
".I c #ffa521",
".E c #b58410",
"## c #735a21",
".K c #8c5208",
".e c #4a4a4a",
"#g c #c6c6c6",
".g c #525252",
".X c #cecece",
".m c #5a5a5a",
".G c #ff9c00",
"#q c #5a3910",
"#. c #d6d6d6",
".u c #9c846b",
".Z c #dedede",
".o c #ffce52",
".R c #9c7342",
"#m c #ffb521",
".y c #ffbd18",
".v c #212121",
"#u c #a58439",
".f c #292929",
"#a c #efad52",
".4 c #a5a5a5",
"#n c #f78400",
"#j c #ada5a5",
".l c #313131",
".N c #ff8400",
".W c #adadad",
".B c #ef9410",
".O c #ff8c08",
".n c #393939",
".1 c #b5b5b5",
".J c #ff9c18",
".Q c #734200",
".q c #ffa518",
"#o c #ffa529",
".D c #ffce7b",
"#r c #392908",
"#l c #ffad31",
".a c #000000",
".C c #efbd52",
".F c #080000",
".5 c #fffff7",
".c c #080808",
".A c #ff9400",
".V c #848484",
".H c #ff9c08",
".d c #101010",
".Y c #8c8c8c",
"#d c #ffc652",
"#t c #ff8418",
".j c #181818",
"#h c #4a4229",
".r c #949494",
".w c #ffad10",
".0 c #9c9c9c",
".x c #ffbd31",
"#e c #c69429",
"#b c #ffc631",
"#i c #ffce39",
".T c #211000",
".7 c #adadb5",
".z c #ffad00",
".6 c #6b6352",
".2 c #636363",
".S c #291808",
"#f c #b5b5bd",
"#c c #ffb508",
"Qt c None",
".h c #6b6b6b",
".P c #c66b10",
".9 c #ffbd21",
".8 c #292108",
".L c #737373",
"#p c #d68c00",
".i c #efefef",
".# c #7b7b7b",
".3 c #f7f7f7",
".k c #debd6b",
"#s c #ffad4a",
".M c #ff8c00",
".t c #ad9452",
".s c #ffdeb5",
"#k c #423931",
".U c #101018",
"QtQtQtQtQtQtQtQtQtQtQtQtQtQtQtQtQtQtQtQtQtQtQtQtQtQtQtQtQtQtQtQt",
"QtQtQtQtQtQtQtQtQtQtQtQtQtQtQtQtQtQtQtQtQtQtQtQtQtQtQtQtQtQtQtQt",
"QtQtQtQtQtQtQtQtQtQtQtQtQtQtQtQtQtQtQtQtQtQtQtQtQtQtQtQtQtQtQtQt",
"QtQtQtQtQtQtQtQtQtQtQtQtQtQt.#.a.a.#QtQtQtQtQtQtQtQtQtQtQtQtQtQt",
"QtQtQtQtQtQtQtQtQtQtQtQtQt.b.a.a.c.d.eQtQtQtQtQtQtQtQtQtQtQtQtQt",
"QtQtQtQtQtQtQtQtQtQtQtQt.f.a.a.a.a.a.a.gQtQtQtQtQtQtQtQtQtQtQtQt",
"QtQtQtQtQtQtQtQtQtQtQtQt.h.i.j.a.a.a.a.cQtQtQtQtQtQtQtQtQtQtQtQt",
"QtQtQtQtQtQtQtQtQtQtQt.k.j.j.i.a.l.m.n.a.bQtQtQtQtQtQtQtQtQtQtQt",
"QtQtQtQtQtQtQtQtQtQt.o.p.q.r.s.t.u.n.a.a.vQtQtQtQtQtQtQtQtQtQtQt",
"QtQtQtQtQtQtQt.w.x.y.z.A.B.C.D.o.E.F.a.a.lQtQtQtQtQtQtQtQtQtQtQt",
"QtQtQtQtQtQtQt.G.G.G.G.A.H.I.J.A.K.a.a.a.LQtQtQtQtQtQtQtQtQtQtQt",
"QtQtQtQtQtQtQtQt.M.N.M.M.O.N.P.Q.c.a.a.aQtQtQtQtQtQtQtQtQtQtQtQt",
"QtQtQtQtQtQtQtQtQtQtQtQt.R.S.T.U.a.a.a.a.vQtQtQtQtQtQtQtQtQtQtQt",
"QtQtQtQtQtQtQtQtQtQtQtQt.d.U.b.f.a.a.a.a.a.eQtQtQtQtQtQtQtQtQtQt",
"QtQtQtQtQtQtQtQtQtQtQt.n.j.e.v.a.a.a.a.a.a.aQtQtQtQtQtQtQtQtQtQt",
"QtQtQtQtQtQtQtQtQtQt.r.V.g.d.a.a.a.a.a.a.a.a.bQtQtQtQtQtQtQtQtQt",
"QtQtQtQtQtQtQtQtQtQt.r.W.v.a.a.d.v.c.a.a.a.a.fQtQtQtQtQtQtQtQtQt",
"QtQtQtQtQtQtQtQtQt.#.X.L.a.a.f.b.j.a.a.a.a.a.vQtQtQtQtQtQtQtQtQt",
"QtQtQtQtQtQtQtQtQt.Y.Z.l.a.l.e.d.a.a.a.a.a.a.j.eQtQtQtQtQtQtQtQt",
"QtQtQtQtQtQtQtQtQt.V.0.a.d.g.j.a.a.a.a.a.a.a.j.f.vQtQtQtQtQtQtQt",
"QtQtQtQtQtQtQtQt.#.r.W.a.l.l.a.a.a.a.a.a.a.a.d.l.fQtQtQtQtQtQtQt",
"QtQtQtQtQtQtQtQt.#.1.X.j.2.h.j.a.a.a.a.a.a.a.a.mQtQtQtQtQtQtQtQt",
"QtQtQtQtQtQtQtQt.#.1.3.#.W.4.e.d.a.a.a.a.a.a.a.2QtQtQtQtQtQtQtQt",
"QtQtQtQtQtQtQtQt.#.0.5.i.Z.W.h.v.a.a.a.a.a.a.a.6QtQtQtQtQtQtQtQt",
"QtQtQtQtQtQtQtQtQt.h.5.5.Z.7.L.f.a.c.a.a.a.8.K.w.9QtQtQtQtQtQtQt",
"QtQtQtQtQtQtQtQtQt.6.7.5#..W.V.l.c.a.a.d###a#b#c.GQtQtQtQtQtQtQt",
"QtQtQtQtQtQtQt#d#b#e.6#f#g.1.Y.l.d.c#h#e#i#b.w.G#e.6QtQtQtQtQtQt",
"QtQtQtQtQtQtQt.J.w#i#e.R#j#g.r#k#h.R.C#i.y.G.H.P#h.dQtQtQtQtQtQt",
"QtQtQtQtQtQtQtQt.O.p.x#e.6.r.u#e#l#b#m.p.M#n.K.d.a.eQtQtQtQtQtQt",
"QtQtQtQtQtQtQtQtQt#o.O.p#p###q.E.B.O#n#n.K#r.a.j.#QtQtQtQtQtQtQt",
"QtQtQtQtQtQtQtQtQtQtQt#s#t#n.P.P.P.P#u.u.h.rQtQtQtQtQtQtQtQtQtQt",
"QtQtQtQtQtQtQtQtQtQtQtQtQtQtQtQtQtQtQtQtQtQtQtQtQtQtQtQtQtQtQtQt"};
