/* XPM */
static char*walk_l4[]={
"32 32 86 2",
".j c #ffa510",
".R c #424242",
"#i c #524231",
".C c #ffa521",
"#e c #b58410",
".S c #4a4a4a",
".I c #8c5208",
"#m c #522900",
".M c #525252",
".Y c #cecece",
".o c #5a5a5a",
".B c #ff9c00",
".0 c #d6d6d6",
"#b c #f7c64a",
"#c c #9c846b",
".U c #dedede",
".s c #ffa500",
"#k c #ffce52",
".4 c #9c6b29",
"#g c #ffb510",
".7 c #9c7342",
".5 c #ffbd18",
".O c #212121",
"#d c #a58439",
".c c #292929",
".v c #efad52",
".L c #a5a5a5",
"#j c #633900",
"#h c #f78400",
".b c #313131",
"#n c #ff8400",
".u c #ef9410",
".P c #393939",
".2 c #b5b5b5",
".D c #ff9c18",
"#o c #734200",
".T c #bdbdbd",
".k c #ffa518",
"## c #ffa529",
".J c #392908",
".1 c #7b7b73",
".6 c #ffb539",
".a c #000000",
".V c #fffff7",
"#. c #423918",
".h c #080808",
".G c #ff9400",
".Q c #848484",
"#r c #ff9c08",
".q c #ffbd63",
".z c #101010",
".f c #181818",
".y c #4a4229",
".l c #949494",
"#a c #ffad10",
".8 c #ffb518",
".X c #9c9c9c",
".p c #ffbd31",
".x c #c69429",
".F c #946308",
".i c #ffc631",
"#p c #181000",
"#f c #ffc642",
".w c #ffce4a",
"#t c #ff8c10",
".A c #ffad00",
".n c #6b6352",
".3 c #636363",
"Qt c None",
".d c #6b6b6b",
"#q c #292108",
".W c #e7e7e7",
".r c #ffbd21",
".N c #737373",
".H c #d68c00",
".e c #efefef",
".# c #7b7b7b",
".Z c #f7f7f7",
".g c #debd6b",
"#l c #ffad4a",
".K c #423118",
".t c #ff8c00",
".9 c #ad9452",
".E c #ff9408",
".m c #ffdeb5",
"#s c #ff9c10",
"QtQtQtQtQtQtQtQtQtQtQtQtQtQtQtQtQtQtQtQtQtQtQtQtQtQtQtQtQtQtQtQt",
"QtQtQtQtQtQtQtQtQtQtQtQtQtQt.#.a.a.#QtQtQtQtQtQtQtQtQtQtQtQtQtQt",
"QtQtQtQtQtQtQtQtQtQtQtQtQt.b.a.a.a.c.#QtQtQtQtQtQtQtQtQtQtQtQtQt",
"QtQtQtQtQtQtQtQtQtQtQtQt.b.a.a.a.a.a.a.#QtQtQtQtQtQtQtQtQtQtQtQt",
"QtQtQtQtQtQtQtQtQtQtQtQt.d.e.b.a.a.a.a.fQtQtQtQtQtQtQtQtQtQtQtQt",
"QtQtQtQtQtQtQtQtQtQtQt.g.f.f.e.a.a.f.f.h.#QtQtQtQtQtQtQtQtQtQtQt",
"QtQtQtQtQtQtQtQtQtQt.i.j.k.l.m.n.o.o.c.a.aQtQtQtQtQtQtQtQtQtQtQt",
"QtQtQtQtQtQtQt.p.q.r.s.t.u.v.w.x.y.z.a.a.aQtQtQtQtQtQtQtQtQtQtQt",
"QtQtQtQtQtQtQt.s.A.A.j.B.j.C.D.E.F.a.a.a.aQtQtQtQtQtQtQtQtQtQtQt",
"QtQtQtQtQtQtQtQt.G.G.t.t.t.H.I.I.J.a.a.a.dQtQtQtQtQtQtQtQtQtQtQt",
"QtQtQtQtQtQtQtQtQtQtQtQtQt.K.a.a.a.a.a.aQtQtQtQtQtQtQtQtQtQtQtQt",
"QtQtQtQtQtQtQtQtQtQtQtQt.L.c.M.M.h.a.a.h.MQtQtQtQtQtQtQtQtQtQtQt",
"QtQtQtQtQtQtQtQtQtQtQt.N.M.M.O.a.a.a.a.a.zQtQtQtQtQtQtQtQtQtQtQt",
"QtQtQtQtQtQtQtQtQtQt.d.O.h.a.a.a.a.a.a.a.a.bQtQtQtQtQtQtQtQtQtQt",
"QtQtQtQtQtQtQtQtQt.P.a.a.a.a.z.h.a.a.a.a.a.O.oQtQtQtQtQtQtQtQtQt",
"QtQtQtQtQtQtQtQt.z.a.a.a.c.M.M.O.a.a.a.a.a.h.P.O.QQtQtQtQtQtQtQt",
"QtQtQtQtQtQtQt.h.a.a.f.M.R.f.h.a.a.a.a.a.a.a.R.z.z.b.SQtQtQtQtQt",
"QtQtQtQtQtQt.f.a.f.P.T.U.c.a.a.a.a.a.a.a.a.a.b.O.a.a.a.lQtQtQtQt",
"QtQtQtQtQtQtQtQtQt.N.V.W.R.a.a.a.a.a.a.a.a.a.PQt.d.NQtQtQtQtQtQt",
"QtQtQtQtQtQtQtQtQt.X.V.T.P.a.a.a.a.a.a.a.a.a.fQtQtQtQtQtQtQtQtQt",
"QtQtQtQtQtQtQtQt.#.Y.Z.l.c.a.a.a.a.a.a.a.a.a.aQtQtQtQtQtQtQtQtQt",
"QtQtQtQtQtQtQtQt.N.0.0.N.c.a.a.a.a.a.a.a.a.a.aQtQtQtQtQtQtQtQtQt",
"QtQtQtQtQtQtQt.g.1.T.2.3.O.a.a.a.a.a.a.a.a.a.a.4.rQtQtQtQtQtQtQt",
"QtQtQtQtQtQt.5.6.7.L.l.M.f.a.a.a.a.a.a.a.a.a.a.4.8.CQtQtQtQtQtQt",
"QtQtQtQtQtQt.8.w.9.1.#.P.h.a.a.a.a.a.a.a.a.a#..x.8##QtQtQtQtQtQt",
"QtQtQtQtQtQt#a.i#b#c.R.f.a.a.a.a.a.a.a.a.a.J#d.p.j.vQtQtQtQtQtQt",
"QtQtQtQtQtQtQt.j.8#e.J.h.a.a.a.a.a.a.a.a.J.9#f#g#h#iQtQtQtQtQtQt",
"QtQtQtQtQtQtQt.6.G#h#j.a.a.a.a.a.a.a.a.z.7#k.r.B.I.RQtQtQtQtQtQt",
"QtQtQtQtQtQtQtQt#l.t#h#m.a.a.a.a.a.a.h.4#k.r.s#h.KQtQtQtQtQtQtQt",
"QtQtQtQtQtQtQtQtQt#l#n#h#o#p.h.a.a.a#q.v.i#r.t##QtQtQtQtQtQtQtQt",
"QtQtQtQtQtQtQtQtQtQtQt#h#h#h.a.a.a.a.7#s.E#t#lQtQtQtQtQtQtQtQtQt",
"QtQtQtQtQtQtQtQtQtQtQtQtQtQtQtQtQtQtQtQtQtQtQtQtQtQtQtQtQtQtQtQt"};
