/* XPM */
static char*walk_r6[]={
"32 32 87 2",
".u c #ffa510",
".e c #424242",
".J c #ffa521",
".x c #b58410",
"#b c #735a21",
".H c #8c5208",
".b c #4a4a4a",
"#g c #c6c6c6",
".f c #525252",
".X c #cecece",
".l c #5a5a5a",
".L c #ff9c00",
"#p c #5a3910",
"#c c #d6d6d6",
".p c #9c846b",
".Y c #dedede",
".v c #ffce52",
".U c #9c7342",
"#m c #ffb521",
".D c #ffbd18",
".o c #212121",
"#s c #a58439",
".g c #292929",
"#a c #efad52",
".3 c #a5a5a5",
"#l c #f78400",
"#k c #ada5a5",
".m c #313131",
".O c #ff8400",
".W c #adadad",
".A c #ef9410",
".P c #ff8c08",
".k c #393939",
".2 c #b5b5b5",
".I c #ff9c18",
".M c #734200",
".t c #ffa518",
"#r c #ffa529",
".y c #ffce7b",
"#o c #392908",
"#n c #ffad31",
".a c #000000",
".z c #efbd52",
".w c #080000",
".6 c #fffff7",
".d c #080808",
".B c #ff9400",
".V c #848484",
".K c #ff9c08",
".c c #101010",
".Z c #8c8c8c",
"#i c #ffc652",
"#t c #ff8418",
".h c #181818",
"#f c #4a4229",
".s c #949494",
".F c #ffad10",
".0 c #9c9c9c",
".E c #ffbd31",
"#d c #c69429",
"## c #ffc631",
"#e c #ffce39",
".S c #211000",
".9 c #adadb5",
".C c #ffad00",
".5 c #6b6352",
".1 c #636363",
".T c #291808",
"#h c #b5b5bd",
"#. c #ffb508",
"Qt c None",
".j c #6b6b6b",
".N c #c66b10",
".8 c #292108",
".7 c #ffbd21",
".G c #737373",
"#q c #d68c00",
".i c #efefef",
".# c #7b7b7b",
".4 c #f7f7f7",
".n c #debd6b",
"#u c #ffad4a",
".Q c #ff8c00",
".q c #ad9452",
".r c #ffdeb5",
"#j c #423931",
".R c #101018",
"QtQtQtQtQtQtQtQtQtQtQtQtQtQtQtQtQtQtQtQtQtQtQtQtQtQtQtQtQtQtQtQt",
"QtQtQtQtQtQtQtQtQtQtQtQtQtQtQtQtQtQtQtQtQtQtQtQtQtQtQtQtQtQtQtQt",
"QtQtQtQtQtQtQtQtQtQtQtQtQtQtQtQtQtQtQtQtQtQtQtQtQtQtQtQtQtQtQtQt",
"QtQtQtQtQtQtQtQtQtQtQtQtQtQt.#.a.a.#QtQtQtQtQtQtQtQtQtQtQtQtQtQt",
"QtQtQtQtQtQtQtQtQtQtQtQtQt.b.c.d.a.a.eQtQtQtQtQtQtQtQtQtQtQtQtQt",
"QtQtQtQtQtQtQtQtQtQtQtQt.f.a.a.a.a.a.a.gQtQtQtQtQtQtQtQtQtQtQtQt",
"QtQtQtQtQtQtQtQtQtQtQtQt.d.a.a.a.a.h.i.jQtQtQtQtQtQtQtQtQtQtQtQt",
"QtQtQtQtQtQtQtQtQtQtQt.e.a.k.l.m.a.i.h.h.nQtQtQtQtQtQtQtQtQtQtQt",
"QtQtQtQtQtQtQtQtQtQtQt.o.a.a.k.p.q.r.s.t.u.vQtQtQtQtQtQtQtQtQtQt",
"QtQtQtQtQtQtQtQtQtQtQt.m.a.a.w.x.v.y.z.A.B.C.D.E.FQtQtQtQtQtQtQt",
"QtQtQtQtQtQtQtQtQtQtQt.G.a.a.a.H.B.I.J.K.B.L.L.L.LQtQtQtQtQtQtQt",
"QtQtQtQtQtQtQtQtQtQtQtQt.a.a.a.d.M.N.O.P.Q.Q.O.QQtQtQtQtQtQtQtQt",
"QtQtQtQtQtQtQtQtQtQtQt.o.a.a.a.a.R.S.T.UQtQtQtQtQtQtQtQtQtQtQtQt",
"QtQtQtQtQtQtQtQtQtQt.b.a.a.a.a.a.g.e.R.cQtQtQtQtQtQtQtQtQtQtQtQt",
"QtQtQtQtQtQtQtQtQtQt.a.a.a.a.a.a.a.o.b.h.kQtQtQtQtQtQtQtQtQtQtQt",
"QtQtQtQtQtQtQtQtQt.e.a.a.a.a.a.a.a.a.c.f.V.sQtQtQtQtQtQtQtQtQtQt",
"QtQtQtQtQtQtQtQtQt.g.a.a.a.a.d.o.c.a.a.o.W.sQtQtQtQtQtQtQtQtQtQt",
"QtQtQtQtQtQtQtQtQt.o.a.a.a.a.a.h.e.g.a.a.G.X.#QtQtQtQtQtQtQtQtQt",
"QtQtQtQtQtQtQtQt.b.h.a.a.a.a.a.a.c.b.m.a.m.Y.ZQtQtQtQtQtQtQtQtQt",
"QtQtQtQtQtQtQt.o.g.h.a.a.a.a.a.a.a.h.f.c.a.0.VQtQtQtQtQtQtQtQtQt",
"QtQtQtQtQtQtQt.g.m.c.a.a.a.a.a.a.a.a.m.m.a.W.s.#QtQtQtQtQtQtQtQt",
"QtQtQtQtQtQtQtQt.l.a.a.a.a.a.a.a.a.h.j.1.h.X.2.#QtQtQtQtQtQtQtQt",
"QtQtQtQtQtQtQtQt.1.a.a.a.a.a.a.a.c.b.3.W.#.4.2.#QtQtQtQtQtQtQtQt",
"QtQtQtQtQtQtQtQt.5.a.a.a.a.a.a.a.o.j.W.Y.i.6.0.#QtQtQtQtQtQtQtQt",
"QtQtQtQtQtQtQt.7.F.H.8.a.a.a.d.a.g.G.9.Y.6.6.jQtQtQtQtQtQtQtQtQt",
"QtQtQtQtQtQtQt.L#.###a#b.c.a.a.d.m.V.W#c.6.9.5QtQtQtQtQtQtQtQtQt",
"QtQtQtQtQtQt.5#d.L.F###e#d#f.d.c.m.Z.2#g#h.5#d###iQtQtQtQtQtQtQt",
"QtQtQtQtQtQt.c#f.N.K.L.D#e.z.U#f#j.s#g#k.U#d#e.F.IQtQtQtQtQtQtQt",
"QtQtQtQtQtQt.b.a.c.H#l.Q.u#m###n#d.p.s.5#d.E.u.PQtQtQtQtQtQtQtQt",
"QtQtQtQtQtQtQt.#.h.a#o.H#l#l.P.A.x#p#b#q.u.P#rQtQtQtQtQtQtQtQtQt",
"QtQtQtQtQtQtQtQtQtQt.s.j.p#s.N.N.N.N#l#t#uQtQtQtQtQtQtQtQtQtQtQt",
"QtQtQtQtQtQtQtQtQtQtQtQtQtQtQtQtQtQtQtQtQtQtQtQtQtQtQtQtQtQtQtQt"};
