/* XPM */
static char*walk_l8[]={
"32 32 100 2",
"#i c #ffa510",
".I c #844a00",
".u c #424242",
"#n c #ffa521",
"#t c #8c5208",
".W c #4a4a4a",
".0 c #c6c6c6",
".O c #522900",
".n c #525252",
".Y c #cecece",
".m c #5a5a5a",
".p c #ff9c00",
"#F c #5a3910",
"## c #d6d6d6",
".R c #9c846b",
"#j c #ffc64a",
".3 c #dedede",
"#x c #ffa500",
"#G c #9c6b29",
".y c #ffb510",
"#v c #9c7342",
".C c #ffb521",
".P c #182121",
".d c #212121",
"#f c #a58439",
".f c #292929",
"#C c #efad52",
".U c #a5a5a5",
"#u c #633900",
".H c #f78400",
"#h c #ffce31",
".b c #313131",
".L c #ff8400",
"#H c #ef9410",
".7 c #adadad",
".M c #ff8c08",
".X c #393939",
".F c #ff9410",
".4 c #b5b5b5",
"#B c #ff9c18",
".T c #bdbdbd",
".r c #efce7b",
".q c #ffa518",
"#o c #392908",
"#r c #7b7b73",
".B c #ffad31",
"#c c #ffb539",
".a c #000000",
".S c #080000",
".1 c #fffff7",
"#m c #423918",
".c c #080808",
".z c #ff9400",
".6 c #848484",
".E c #ff9c08",
".v c #101010",
".Z c #8c8c8c",
".o c #ffc652",
"#d c #ff8418",
".e c #181818",
"#g c #4a4229",
"#p c #ffce5a",
".l c #949494",
"#b c #ffad10",
"#D c #4a4a42",
".5 c #9c9c9c",
".D c #946308",
"#a c #ffc631",
"#s c #181000",
".A c #ffc642",
".j c #ffce39",
".K c #ff8408",
".J c #ff8c10",
".w c #ffad00",
".t c #6b6352",
".Q c #636363",
"#E c #291808",
".i c #b5b5bd",
".9 c #9c9c8c",
"#l c #ff9429",
"Qt c None",
".g c #6b6b6b",
".N c #c66b10",
"#y c #292108",
".8 c #e7e7e7",
".x c #ffbd21",
".2 c #737373",
"#z c #d68c00",
".h c #efefef",
".# c #7b7b7b",
".k c #f7f7f7",
".s c #debd6b",
"#A c #423118",
"#q c #b5ad94",
"#k c #ffb552",
"#. c #ad9452",
".G c #ff9408",
"#w c #423931",
".V c #393942",
"#e c #ff9c10",
"QtQtQtQtQtQtQtQtQtQtQtQtQtQtQtQtQtQtQtQtQtQtQtQtQtQtQtQtQtQtQtQt",
"QtQtQtQtQtQtQtQtQtQtQtQtQtQt.#.a.a.#QtQtQtQtQtQtQtQtQtQtQtQtQtQt",
"QtQtQtQtQtQtQtQtQtQtQtQtQt.b.c.a.a.a.dQtQtQtQtQtQtQtQtQtQtQtQtQt",
"QtQtQtQtQtQtQtQtQtQtQtQt.e.e.c.a.a.a.a.fQtQtQtQtQtQtQtQtQtQtQtQt",
"QtQtQtQtQtQtQtQtQtQtQtQt.g.h.i.b.a.a.a.a.gQtQtQtQtQtQtQtQtQtQtQt",
"QtQtQtQtQtQtQtQtQtQtQt.j.e.e.k.l.d.m.n.c.bQtQtQtQtQtQtQtQtQtQtQt",
"QtQtQtQtQtQtQtQtQtQt.o.p.q.l.r.s.t.u.v.a.cQtQtQtQtQtQtQtQtQtQtQt",
"QtQtQtQtQtQtQt.w.x.y.w.z.q.A.B.C.D.a.a.a.cQtQtQtQtQtQtQtQtQtQtQt",
"QtQtQtQtQtQtQt.z.p.p.p.z.E.F.G.H.I.a.a.a.vQtQtQtQtQtQtQtQtQtQtQt",
"QtQtQtQtQtQtQtQt.J.K.K.L.M.J.N.O.a.a.P.d.QQtQtQtQtQtQtQtQtQtQtQt",
"QtQtQtQtQtQtQtQtQtQtQtQtQt.R.v.a.a.S.v.v.nQtQtQtQtQtQtQtQtQtQtQt",
"QtQtQtQtQtQtQtQtQtQtQtQt.T.P.a.a.a.a.a.a.a.cQtQtQtQtQtQtQtQtQtQt",
"QtQtQtQtQtQtQtQtQtQtQt.U.V.v.a.a.a.a.a.a.a.a.vQtQtQtQtQtQtQtQtQt",
"QtQtQtQtQtQtQtQtQtQt.W.d.Q.W.c.a.a.a.a.a.a.a.a.bQtQtQtQtQtQtQtQt",
"QtQtQtQtQtQtQtQt.m.c.c.X.Y.Y.m.v.a.a.c.X.v.a.a.a.ZQtQtQtQtQtQtQt",
"QtQtQtQtQtQtQt.f.a.a.b.0.1.h.U.X.c.a.a.u.u.a.a.a.e.#QtQtQtQtQtQt",
"QtQtQtQtQtQt.#.c.a.a.2.3.1.h.4.m.v.a.a.v.n.f.a.a.a.a.a.2QtQtQtQt",
"QtQtQtQtQtQtQtQtQtQt.5.1.1.h.T.2.f.a.a.a.e.n.u.d.c.a.a.2QtQtQtQt",
"QtQtQtQtQtQtQtQtQtQt.5.1.1.h.T.#.b.a.a.a.a.c.n.6.#.#.2QtQtQtQtQt",
"QtQtQtQtQtQtQtQtQt.U.7.1.1.8.4.6.X.c.a.a.a.a.eQtQtQtQtQtQtQtQtQt",
"QtQtQtQtQtQtQtQtQt.9.3.1.1.3.7.#.b.c.a.a.a.a.aQtQtQtQtQtQtQtQtQt",
"QtQtQtQtQtQtQtQtQt#..1.1.k##.U.2.b.c.a.a.a.a.a.tQt#a#bQtQtQtQtQt",
"QtQtQtQtQtQt#c#d#e#f.1.1.8.T.l.Q.f.c.a.a.a.a.a#g.o#h.E.LQtQtQtQt",
"QtQtQtQtQt#i#j#k#l#f.1.1.T.7.Z.n.d.a.a.a.a.a.a#m#a.y.z.MQtQtQtQt",
"QtQtQtQtQt#n#n.o#k#l#f.1.i.5.g.X.v.a.a.a.a.a.a#o#i.G.LQtQtQtQtQt",
"QtQtQtQtQtQt.p.C.o#p#l#f#q#r.u.d.c.a.a.a.a.a.a#s#t#u#vQtQtQtQtQt",
"QtQtQtQtQtQtQt.p#b.x#a#l#f#w.e.c.a.a.a.a.a.a.a.a.a.a.WQtQtQtQtQt",
"QtQtQtQtQtQtQtQt.p#x.y#l#f#y.S.a.a.a.a.a.a.a.a.a.a.cQtQtQtQtQtQt",
"QtQtQtQtQtQtQtQtQt.z.p#x#z#s.a.a.a.a.a.a.a.a.a.S#AQtQtQtQtQtQtQt",
"QtQtQtQtQtQtQtQtQtQtQt#B#C#D.a.a.a.a.a.a#E#F#l#lQtQtQtQtQtQtQtQt",
"QtQtQtQtQtQtQtQtQtQtQtQtQtQt.5.n.u.X.W#G#H#lQtQtQtQtQtQtQtQtQtQt",
"QtQtQtQtQtQtQtQtQtQtQtQtQtQtQtQtQtQtQtQtQtQtQtQtQtQtQtQtQtQtQtQt"};
