/* XPM */
static char*walk_l5[]={
"32 32 80 2",
".G c #ffa510",
".N c #844a00",
".f c #424242",
"#d c #f7a521",
"#g c #524231",
"#f c #ffa521",
"#a c #b58410",
".P c #735a21",
".T c #4a4a4a",
".J c #8c5208",
".0 c #525252",
".5 c #cecece",
".s c #5a5a5a",
"#i c #ff9c00",
".2 c #d6d6d6",
"#j c #9c846b",
".7 c #ffc64a",
".h c #dedede",
".F c #ffa500",
"#m c #9c6b29",
".m c #ffb510",
".8 c #ffbd18",
"#n c #ff9c39",
".t c #212121",
".i c #292929",
".W c #a5a5a5",
".k c #313131",
".I c #ff8400",
"## c #ef9410",
".Z c #adadad",
".H c #ff8c08",
".d c #393939",
".y c #ff9410",
".1 c #b5b5b5",
".X c #bdbdbd",
".n c #ffa518",
"#l c #ffa529",
".Q c #392908",
".a c #000000",
".z c #efbd52",
".D c #080000",
".3 c #fffff7",
".j c #080808",
".E c #ff9400",
".U c #848484",
".x c #ff9c08",
".S c #101010",
"#c c #8c8c8c",
".b c #181818",
".l c #ffce5a",
".o c #949494",
"#b c #ffb518",
".Y c #9c9c9c",
".v c #ffbd31",
".C c #946308",
".6 c #ffc631",
".R c #181000",
".A c #ffc642",
"#h c #ffce4a",
".w c #ffad00",
".V c #636363",
".O c #291808",
".9 c #b5b5bd",
".u c #ffb508",
"Qt c None",
"#e c #ffbd10",
".c c #6b6b6b",
"#k c #c66b10",
"#. c #292108",
".4 c #e7e7e7",
".r c #737373",
".e c #efefef",
".# c #7b7b7b",
".g c #debd6b",
".L c #ff8c00",
".q c #ad9452",
".K c #ff9408",
".p c #ffdeb5",
".M c #bd6b00",
".B c #ff9c21",
"QtQtQtQtQtQtQtQtQtQtQtQtQtQtQtQtQtQtQtQtQtQtQtQtQtQtQtQtQtQtQtQt",
"QtQtQtQtQtQtQtQtQtQtQtQtQtQtQtQtQtQtQtQtQtQtQtQtQtQtQtQtQtQtQtQt",
"QtQtQtQtQtQtQtQtQtQtQtQtQtQtQtQtQtQtQtQtQtQtQtQtQtQtQtQtQtQtQtQt",
"QtQtQtQtQtQtQtQtQtQtQtQtQtQt.#.a.a.#QtQtQtQtQtQtQtQtQtQtQtQtQtQt",
"QtQtQtQtQtQtQtQtQtQtQtQtQt.a.a.a.a.b.cQtQtQtQtQtQtQtQtQtQtQtQtQt",
"QtQtQtQtQtQtQtQtQtQtQtQt.d.a.a.a.a.a.a.dQtQtQtQtQtQtQtQtQtQtQtQt",
"QtQtQtQtQtQtQtQtQtQtQtQt.c.e.f.a.a.a.a.a.#QtQtQtQtQtQtQtQtQtQtQt",
"QtQtQtQtQtQtQtQtQtQtQt.g.b.b.h.i.a.i.i.j.kQtQtQtQtQtQtQtQtQtQtQt",
"QtQtQtQtQtQtQtQtQtQt.l.m.n.o.p.q.r.s.i.a.tQtQtQtQtQtQtQtQtQtQtQt",
"QtQtQtQtQtQtQt.u.v.v.w.x.y.z.A.B.C.D.a.a.tQtQtQtQtQtQtQtQtQtQtQt",
"QtQtQtQtQtQtQt.E.F.F.u.u.G.n.H.I.J.D.a.a.cQtQtQtQtQtQtQtQtQtQtQt",
"QtQtQtQtQtQtQtQt.H.K.L.L.L.I.M.N.O.a.a.aQtQtQtQtQtQtQtQtQtQtQtQt",
"QtQtQtQtQtQtQtQtQtQtQtQt.P.Q.R.a.a.a.a.a.SQtQtQtQtQtQtQtQtQtQtQt",
"QtQtQtQtQtQtQtQtQtQtQtQt.i.a.a.a.a.a.a.a.a.TQtQtQtQtQtQtQtQtQtQt",
"QtQtQtQtQtQtQtQtQtQtQt.#.t.T.d.j.a.a.a.a.a.aQtQtQtQtQtQtQtQtQtQt",
"QtQtQtQtQtQtQtQtQtQt.U.V.f.t.a.a.a.a.a.a.a.a.TQtQtQtQtQtQtQtQtQt",
"QtQtQtQtQtQtQtQtQt.W.U.#.b.a.a.j.S.a.a.a.a.a.SQtQtQtQtQtQtQtQtQt",
"QtQtQtQtQtQtQtQtQt.r.X.f.a.a.b.T.t.a.a.a.a.a.aQtQtQtQtQtQtQtQtQt",
"QtQtQtQtQtQtQtQtQt.#.Y.b.a.j.T.i.a.a.a.a.a.a.a.rQtQtQtQtQtQtQtQt",
"QtQtQtQtQtQtQtQt.U.Z.o.j.a.k.T.a.a.a.a.a.a.a.a.0QtQtQtQtQtQtQtQt",
"QtQtQtQtQtQtQtQt.U.Z.Y.j.S.T.S.a.a.a.a.a.a.a.a.TQtQtQtQtQtQtQtQt",
"QtQtQtQtQtQtQtQt.U.1.Z.b.k.T.a.a.a.a.a.a.a.a.a.fQtQtQtQtQtQtQtQt",
"QtQtQtQtQtQtQtQt.U.Z.2.d.f.S.a.a.a.a.a.a.a.a.a.fQtQtQtQtQtQtQtQt",
"QtQtQtQtQtQtQtQtQt.U.3.#.d.j.a.a.a.a.a.a.a.a.a.0QtQtQtQtQtQtQtQt",
"QtQtQtQtQtQtQtQtQt.c.4.5.U.t.a.a.a.a.a.a.a.a.a.0QtQtQtQtQtQtQtQt",
"QtQtQtQtQtQtQt.6.v.U.5.5.W.k.a.a.a.a.a.a.a.a.R.sQtQtQtQtQtQtQtQt",
"QtQtQtQtQtQtQt.7.8.l.U.9.o.d.j.a.a.a.a.a#..C###a.t.aQtQtQtQtQtQt",
"QtQtQtQtQtQtQtQt.u#b.g.U#c.k.j.a.a.a.S.P#d#e.u#f.P.jQtQtQtQtQtQt",
"QtQtQtQtQtQtQtQtQt.F.x.U.U.b.a.a.b#g.q#h.8.x#i#f#jQtQtQtQtQtQtQt",
"QtQtQtQtQtQtQtQtQtQt.y.I#k.Q.b.P.g.l.6.m.K.L.yQtQtQtQtQtQtQtQtQt",
"QtQtQtQtQtQtQtQtQtQtQtQt#l.M#m#h.A.n.E.H#nQtQtQtQtQtQtQtQtQtQtQt",
"QtQtQtQtQtQtQtQtQtQtQtQtQtQtQtQtQtQtQtQtQtQtQtQtQtQtQtQtQtQtQtQt"};
