/* XPM */
static char*walk_l2[]={
"32 32 76 2",
".5 c #ffa510",
"#c c #844a00",
".L c #424242",
".4 c #524231",
"#. c #ffa521",
"#a c #b58410",
".t c #4a4a4a",
".r c #fff7d6",
".X c #c6c6c6",
"#b c #ffd68c",
".I c #522900",
".b c #525252",
".M c #cecece",
".g c #5a5a5a",
".Y c #ced6d6",
".x c #ff9c00",
"#g c #5a3910",
".u c #ffc64a",
".V c #dedede",
".A c #ffa500",
".6 c #ffce52",
"#f c #9c6b29",
".v c #ffb510",
".3 c #9c7342",
".o c #ffb521",
".c c #212121",
".h c #292929",
".7 c #efad52",
".W c #a5a5a5",
"#h c #f78400",
".f c #313131",
".F c #ff8400",
".2 c #d6bd84",
".O c #adadad",
".i c #393939",
".Q c #b5b5b5",
".E c #734200",
".T c #bdbdbd",
".p c #ffa518",
".B c #ffa529",
".J c #392908",
".a c #000000",
".1 c #efbd52",
".P c #fffff7",
".m c #080808",
"#i c #ff9400",
".S c #848484",
".9 c #ff9c08",
".8 c #ffbd63",
".d c #101010",
".U c #8c8c8c",
".e c #181818",
".y c #ffce5a",
".q c #949494",
".0 c #9c9c9c",
"#e c #ffbd31",
".z c #946308",
".n c #ffc631",
"## c #ffc642",
".w c #ffad00",
".K c #636363",
"Qt c None",
".j c #6b6b6b",
".H c #c66b10",
".R c #e7e7e7",
".N c #737373",
".k c #efefef",
".# c #7b7b7b",
".l c #debd6b",
"#j c #423118",
".G c #ff8c00",
".s c #ad9452",
".D c #ff9408",
".Z c #ffdeb5",
"#d c #bd6b00",
".C c #ff9c10",
"QtQtQtQtQtQtQtQtQtQtQtQtQtQtQtQtQtQtQtQtQtQtQtQtQtQtQtQtQtQtQtQt",
"QtQtQtQtQtQtQtQtQtQtQtQtQtQtQtQtQtQtQtQtQtQtQtQtQtQtQtQtQtQtQtQt",
"QtQtQtQtQtQtQtQtQtQtQtQtQtQtQtQtQtQtQtQtQtQtQtQtQtQtQtQtQtQtQtQt",
"QtQtQtQtQtQtQtQtQtQtQtQtQtQtQtQtQtQtQtQtQtQtQtQtQtQtQtQtQtQtQtQt",
"QtQtQtQtQtQtQtQtQtQtQtQtQtQt.#.a.a.#QtQtQtQtQtQtQtQtQtQtQtQtQtQt",
"QtQtQtQtQtQtQtQtQtQtQtQtQt.b.c.d.e.f.gQtQtQtQtQtQtQtQtQtQtQtQtQt",
"QtQtQtQtQtQtQtQtQtQtQtQt.h.a.a.a.a.a.a.iQtQtQtQtQtQtQtQtQtQtQtQt",
"QtQtQtQtQtQtQtQtQtQtQtQt.j.k.f.a.a.a.a.a.#QtQtQtQtQtQtQtQtQtQtQt",
"QtQtQtQtQtQtQtQtQtQtQt.l.e.e.k.h.d.f.i.m.fQtQtQtQtQtQtQtQtQtQtQt",
"QtQtQtQtQtQtQtQtQtQt.n.o.p.q.r.s.j.t.d.a.eQtQtQtQtQtQtQtQtQtQtQt",
"QtQtQtQtQtQtQt.o.u.v.w.x.p.y.y.u.z.a.a.a.bQtQtQtQtQtQtQtQtQtQtQt",
"QtQtQtQtQtQtQt.x.x.x.A.x.p.B.C.D.E.a.a.aQtQtQtQtQtQtQtQtQtQtQtQt",
"QtQtQtQtQtQtQtQt.F.F.F.G.D.F.H.E.a.a.a.a.tQtQtQtQtQtQtQtQtQtQtQt",
"QtQtQtQtQtQtQtQtQtQtQtQt.I.J.m.a.a.a.a.a.aQtQtQtQtQtQtQtQtQtQtQt",
"QtQtQtQtQtQtQtQtQtQtQt.K.a.a.h.c.a.a.a.a.a.LQtQtQtQtQtQtQtQtQtQt",
"QtQtQtQtQtQtQtQtQtQtQt.t.e.a.L.t.a.a.m.m.a.mQtQtQtQtQtQtQtQtQtQt",
"QtQtQtQtQtQtQtQtQtQt.g.M.N.m.i.b.a.a.K.h.a.aQtQtQtQtQtQtQtQtQtQt",
"QtQtQtQtQtQtQtQtQt.#.O.P.Q.h.f.K.a.a.K.h.a.a.iQtQtQtQtQtQtQtQtQt",
"QtQtQtQtQtQtQtQtQt.g.P.P.R.K.h.g.m.a.K.h.a.a.aQtQtQtQtQtQtQtQtQt",
"QtQtQtQtQtQtQtQt.S.T.P.P.R.U.h.L.i.a.K.K.a.a.aQtQtQtQtQtQtQtQtQt",
"QtQtQtQtQtQtQtQt.S.V.P.P.R.W.i.c.b.h.m.K.a.a.aQtQtQtQtQtQtQtQtQt",
"QtQtQtQtQtQtQtQt.U.V.P.P.R.T.b.m.c.g.f.K.m.a.aQtQtQtQtQtQtQtQtQt",
"QtQtQtQtQtQtQtQt.#.R.P.P.k.X.N.d.a.e.g.K.d.a.aQtQtQtQtQtQtQtQtQt",
"QtQtQtQtQtQtQtQt.#.Y.P.k.V.T.U.h.a.a.d.h.m.a.aQtQtQtQtQtQtQtQtQt",
"QtQtQtQtQtQtQtQtQt.l.Z.V.M.T.0.i.a.a.a.a.a.a.aQtQtQtQtQtQtQtQtQt",
"QtQtQtQtQtQtQtQtQt.w.o.1.2.l.l.3.4.c.a.a.a.a.aQtQtQtQtQtQtQtQtQt",
"QtQtQtQtQtQtQtQtQt.o.5.v.p.v.o.n.6.7.3.m.a.a.aQtQtQtQtQtQtQtQtQt",
"QtQtQtQtQtQtQtQtQtQt.8.B.5.9.9.C#..n###a.m.a.a.e.e.eQtQtQtQtQtQt",
"QtQtQtQtQtQtQtQtQtQtQt#b.s#c#d.F.F.F.C.5.J.a.a.a.a.aQtQtQtQtQtQt",
"QtQtQtQtQtQtQtQtQt.n#e.n.7#f.4#g#d#h.F#d.m.a.a.a.aQtQtQtQtQtQtQt",
"QtQtQtQtQtQtQtQtQtQt.p.p.D#i#h#f#g.4#j.m.a.a.dQtQtQtQtQtQtQtQtQt",
"QtQtQtQtQtQtQtQtQtQtQtQtQtQtQtQtQtQtQtQtQtQtQtQtQtQtQtQtQtQtQtQt"};
