/* XPM */
static char*walk_r5[]={
"32 32 86 2",
".n c #ffa510",
".S c #424242",
"#e c #524231",
".D c #ffa521",
"#i c #b58410",
".R c #4a4a4a",
".H c #8c5208",
"#l c #522900",
".L c #525252",
".Z c #cecece",
".i c #5a5a5a",
".E c #ff9c00",
".0 c #d6d6d6",
"#c c #f7c64a",
"#b c #9c846b",
".T c #dedede",
".w c #ffa500",
"#j c #ffce52",
".1 c #9c6b29",
"#g c #ffb510",
".6 c #9c7342",
".8 c #ffbd18",
".N c #212121",
"#a c #a58439",
".b c #292929",
".t c #efad52",
".M c #a5a5a5",
"#k c #633900",
"#f c #f78400",
".c c #313131",
"#r c #ff8400",
".u c #ef9410",
".P c #393939",
".3 c #b5b5b5",
".C c #ff9c18",
"#q c #734200",
".U c #bdbdbd",
".m c #ffa518",
".9 c #ffa529",
".G c #392908",
".4 c #7b7b73",
".7 c #ffb539",
".a c #000000",
".W c #fffff7",
"#. c #423918",
".g c #080808",
".J c #ff9400",
".Q c #848484",
"#n c #ff9c08",
".y c #ffbd63",
".p c #101010",
".d c #181818",
".q c #4a4229",
".l c #949494",
"#d c #ffad10",
".5 c #ffb518",
".X c #9c9c9c",
".z c #ffbd31",
".r c #c69429",
".A c #946308",
".o c #ffc631",
"#p c #181000",
"#h c #ffc642",
".s c #ffce4a",
"#s c #ff8c10",
".F c #ffad00",
".j c #6b6352",
".2 c #636363",
"Qt c None",
".f c #6b6b6b",
"#o c #292108",
".V c #e7e7e7",
".x c #ffbd21",
".O c #737373",
".I c #d68c00",
".e c #efefef",
".# c #7b7b7b",
".Y c #f7f7f7",
".h c #debd6b",
"#m c #ffad4a",
".K c #423118",
".v c #ff8c00",
"## c #ad9452",
".B c #ff9408",
".k c #ffdeb5",
"#t c #ff9c10",
"QtQtQtQtQtQtQtQtQtQtQtQtQtQtQtQtQtQtQtQtQtQtQtQtQtQtQtQtQtQtQtQt",
"QtQtQtQtQtQtQtQtQtQtQtQtQtQt.#.a.a.#QtQtQtQtQtQtQtQtQtQtQtQtQtQt",
"QtQtQtQtQtQtQtQtQtQtQtQtQt.#.b.a.a.a.cQtQtQtQtQtQtQtQtQtQtQtQtQt",
"QtQtQtQtQtQtQtQtQtQtQtQt.#.a.a.a.a.a.a.cQtQtQtQtQtQtQtQtQtQtQtQt",
"QtQtQtQtQtQtQtQtQtQtQtQt.d.a.a.a.a.c.e.fQtQtQtQtQtQtQtQtQtQtQtQt",
"QtQtQtQtQtQtQtQtQtQtQt.#.g.d.d.a.a.e.d.d.hQtQtQtQtQtQtQtQtQtQtQt",
"QtQtQtQtQtQtQtQtQtQtQt.a.a.b.i.i.j.k.l.m.n.oQtQtQtQtQtQtQtQtQtQt",
"QtQtQtQtQtQtQtQtQtQtQt.a.a.a.p.q.r.s.t.u.v.w.x.y.zQtQtQtQtQtQtQt",
"QtQtQtQtQtQtQtQtQtQtQt.a.a.a.a.A.B.C.D.n.E.n.F.F.wQtQtQtQtQtQtQt",
"QtQtQtQtQtQtQtQtQtQtQt.f.a.a.a.G.H.H.I.v.v.v.J.JQtQtQtQtQtQtQtQt",
"QtQtQtQtQtQtQtQtQtQtQtQt.a.a.a.a.a.a.KQtQtQtQtQtQtQtQtQtQtQtQtQt",
"QtQtQtQtQtQtQtQtQtQtQt.L.g.a.a.g.L.L.b.MQtQtQtQtQtQtQtQtQtQtQtQt",
"QtQtQtQtQtQtQtQtQtQtQt.p.a.a.a.a.a.N.L.L.OQtQtQtQtQtQtQtQtQtQtQt",
"QtQtQtQtQtQtQtQtQtQt.c.a.a.a.a.a.a.a.a.g.N.fQtQtQtQtQtQtQtQtQtQt",
"QtQtQtQtQtQtQtQtQt.i.N.a.a.a.a.a.g.p.a.a.a.a.PQtQtQtQtQtQtQtQtQt",
"QtQtQtQtQtQtQt.Q.N.P.g.a.a.a.a.a.N.L.L.b.a.a.a.pQtQtQtQtQtQtQtQt",
"QtQtQtQtQt.R.c.p.p.S.a.a.a.a.a.a.a.g.d.S.L.d.a.a.gQtQtQtQtQtQtQt",
"QtQtQtQt.l.a.a.a.N.c.a.a.a.a.a.a.a.a.a.b.T.U.P.d.a.dQtQtQtQtQtQt",
"QtQtQtQtQtQt.O.fQt.P.a.a.a.a.a.a.a.a.a.S.V.W.OQtQtQtQtQtQtQtQtQt",
"QtQtQtQtQtQtQtQtQt.d.a.a.a.a.a.a.a.a.a.P.U.W.XQtQtQtQtQtQtQtQtQt",
"QtQtQtQtQtQtQtQtQt.a.a.a.a.a.a.a.a.a.a.b.l.Y.Z.#QtQtQtQtQtQtQtQt",
"QtQtQtQtQtQtQtQtQt.a.a.a.a.a.a.a.a.a.a.b.O.0.0.OQtQtQtQtQtQtQtQt",
"QtQtQtQtQtQtQt.x.1.a.a.a.a.a.a.a.a.a.a.N.2.3.U.4.hQtQtQtQtQtQtQt",
"QtQtQtQtQtQt.D.5.1.a.a.a.a.a.a.a.a.a.a.d.L.l.M.6.7.8QtQtQtQtQtQt",
"QtQtQtQtQtQt.9.5.r#..a.a.a.a.a.a.a.a.a.g.P.#.4##.s.5QtQtQtQtQtQt",
"QtQtQtQtQtQt.t.n.z#a.G.a.a.a.a.a.a.a.a.a.d.S#b#c.o#dQtQtQtQtQtQt",
"QtQtQtQtQtQt#e#f#g#h##.G.a.a.a.a.a.a.a.a.g.G#i.5.nQtQtQtQtQtQtQt",
"QtQtQtQtQtQt.S.H.E.x#j.6.p.a.a.a.a.a.a.a.a#k#f.J.7QtQtQtQtQtQtQt",
"QtQtQtQtQtQtQt.K#f.w.x#j.1.g.a.a.a.a.a.a#l#f.v#mQtQtQtQtQtQtQtQt",
"QtQtQtQtQtQtQtQt.9.v#n.o.t#o.a.a.a.g#p#q#f#r#mQtQtQtQtQtQtQtQtQt",
"QtQtQtQtQtQtQtQtQt#m#s.B#t.6.a.a.a.a#f#f#fQtQtQtQtQtQtQtQtQtQtQt",
"QtQtQtQtQtQtQtQtQtQtQtQtQtQtQtQtQtQtQtQtQtQtQtQtQtQtQtQtQtQtQtQt"};
