/* XPM */
static char*walk_r8[]={
"32 32 77 2",
".d c #424242",
".J c #8c5208",
".H c #4a4a4a",
".4 c #fff7d6",
".X c #c6c6c6",
"#h c #522900",
".j c #525252",
".S c #cecece",
".e c #5a5a5a",
".G c #ff9c00",
".T c #d6d6d6",
".Y c #dedede",
".t c #ffce52",
".r c #9c6b29",
".9 c #ffb510",
".P c #9c7342",
".q c #ffbd18",
"#c c #d6c6a5",
".u c #ffde84",
".c c #212121",
"#e c #a58439",
".N c #292929",
".0 c #a5a5a5",
".B c #633900",
"#i c #f78400",
".A c #313131",
".M c #ff8400",
".2 c #adadad",
".D c #ff8c08",
".R c #393939",
"#j c #ff9410",
".W c #b5b5b5",
".5 c #bdbdbd",
".p c #ffa518",
".E c #ffa529",
".y c #ffce7b",
".s c #ffb539",
".a c #000000",
".O c #080000",
".V c #fffff7",
".h c #080808",
".v c #ff9400",
".Z c #848484",
"#g c #ffbd63",
".b c #101010",
".Q c #8c8c8c",
".i c #181818",
".o c #949494",
".w c #ffad10",
"#a c #4a4a42",
".6 c #ffb518",
".3 c #9c9c9c",
"## c #ffbd31",
".7 c #ffc631",
".z c #ffc642",
".x c #ffce4a",
".l c #636363",
".I c #291808",
"Qt c None",
".g c #6b6b6b",
".C c #c66b10",
".8 c #ffbd21",
".1 c #737373",
".f c #efefef",
".k c #f7ce94",
".# c #7b7b7b",
".U c #f7f7f7",
"#. c #debd6b",
"#d c #ffad4a",
"#b c #b5ad94",
".L c #ff8c00",
"#k c #ffb552",
".m c #ad9452",
".F c #ff9408",
".K c #bd6b00",
"#f c #ff9c10",
".n c #ffe7b5",
"QtQtQtQtQtQtQtQtQtQtQtQtQtQtQtQtQtQtQtQtQtQtQtQtQtQtQtQtQtQtQtQt",
"QtQtQtQtQtQtQtQtQtQtQtQtQtQtQtQtQtQtQtQtQtQtQtQtQtQtQtQtQtQtQtQt",
"QtQtQtQtQtQtQtQtQtQtQtQtQtQtQtQtQtQtQtQtQtQtQtQtQtQtQtQtQtQtQtQt",
"QtQtQtQtQtQtQtQtQtQtQtQtQtQt.#.a.a.#QtQtQtQtQtQtQtQtQtQtQtQtQtQt",
"QtQtQtQtQtQtQtQtQtQtQtQtQt.b.a.a.a.a.cQtQtQtQtQtQtQtQtQtQtQtQtQt",
"QtQtQtQtQtQtQtQtQtQtQtQt.a.a.a.a.a.a.a.bQtQtQtQtQtQtQtQtQtQtQtQt",
"QtQtQtQtQtQtQtQtQtQtQt.d.a.a.a.a.a.e.f.gQtQtQtQtQtQtQtQtQtQtQtQt",
"QtQtQtQtQtQtQtQtQtQtQt.h.a.c.i.a.j.f.i.i.kQtQtQtQtQtQtQtQtQtQtQt",
"QtQtQtQtQtQtQtQtQtQtQt.a.a.c.e.l.m.n.o.p.q.qQtQtQtQtQtQtQtQtQtQt",
"QtQtQtQtQtQtQtQtQtQtQt.a.a.a.a.r.s.t.u.s.v.w.x.y.zQtQtQtQtQtQtQt",
"QtQtQtQtQtQtQtQtQtQtQt.A.a.a.a.B.C.D.E.E.F.G.G.G.vQtQtQtQtQtQtQt",
"QtQtQtQtQtQtQtQtQtQtQt.H.b.b.a.a.I.J.K.D.L.M.M.DQtQtQtQtQtQtQtQt",
"QtQtQtQtQtQtQtQtQtQtQt.N.c.b.a.a.a.a.O.PQtQtQtQtQtQtQtQtQtQtQtQt",
"QtQtQtQtQtQtQtQtQtQt.A.i.a.a.a.a.a.a.a.b.QQtQtQtQtQtQtQtQtQtQtQt",
"QtQtQtQtQtQtQtQtQt.R.b.a.a.a.b.A.h.a.a.A.i.HQtQtQtQtQtQtQtQtQtQt",
"QtQtQtQtQtQtQtQtQt.b.a.a.a.b.e.d.a.a.N.S.T.h.eQtQtQtQtQtQtQtQtQt",
"QtQtQtQtQtQtQtQt.A.a.a.a.b.e.A.a.a.i.#.U.V.l.a.AQtQtQtQtQtQtQtQt",
"QtQtQtQtQtQtQt.A.a.a.a.a.e.R.a.a.h.d.W.V.V.X.h.a.eQtQtQtQtQtQtQt",
"QtQtQtQtQtQt.i.i.c.i.R.e.R.a.a.a.c.#.Y.V.V.U.jQtQtQtQtQtQtQtQtQt",
"QtQtQtQtQtQtQt.Z.g.H.d.c.a.a.a.b.H.0.Y.V.V.V.1QtQtQtQtQtQtQtQtQt",
"QtQtQtQtQtQtQtQt.a.a.a.a.a.a.a.c.g.W.Y.V.V.V.1QtQtQtQtQtQtQtQtQt",
"QtQtQtQtQtQtQtQt.N.a.a.a.a.a.h.A.Z.W.Y.V.V.V.QQtQtQtQtQtQtQtQtQt",
"QtQtQtQtQtQtQtQt.a.a.a.a.a.a.b.H.o.2.Y.V.V.V.0QtQtQtQtQtQtQtQtQt",
"QtQtQtQtQtQtQtQt.a.a.a.a.a.a.b.j.3.2.T.U.V.V.3QtQtQtQtQtQtQtQtQt",
"QtQtQtQtQtQtQtQt.a.a.a.a.a.a.i.e.0.W.X.T.U.4.z.tQtQtQtQtQtQtQtQt",
"QtQtQtQtQtQtQtQt.c.a.a.a.a.a.i.e.2.5.5.S.6.6.7.8.w.9QtQtQtQtQtQt",
"QtQtQtQtQt.h.a.A.i.a.a.a.a.a.b.e.2.X.X#..6.7##.6.wQtQtQtQtQtQtQt",
"QtQtQtQtQt.a.a.a.a.a.a.a.a.a.b#a#b#c.6.6.z##.w#dQtQtQtQtQtQtQtQt",
"QtQtQtQtQtQt.a.h.a.a.a.a.a.a.a.N#e#e.p##.p#f#gQtQtQtQtQtQtQtQtQt",
"QtQtQtQtQtQtQtQt.P#h.h.a.a.a.a#h.C.F.F.F#dQtQtQtQtQtQtQtQtQtQtQt",
"QtQtQtQtQtQtQtQtQtQt.C.J#h#h.J#i.L#j#kQtQtQtQtQtQtQtQtQtQtQtQtQt",
"QtQtQtQtQtQtQtQtQtQtQtQtQtQtQtQtQtQtQtQtQtQtQtQtQtQtQtQtQtQtQtQt"};
