/* XPM */
static char*walk_r1[]={
"32 32 100 2",
"#m c #ffa510",
".E c #844a00",
".p c #424242",
"#o c #ffa521",
"#r c #8c5208",
".W c #4a4a4a",
".1 c #c6c6c6",
".L c #522900",
".j c #525252",
".Z c #cecece",
".k c #5a5a5a",
".u c #ff9c00",
"#B c #5a3910",
"#a c #d6d6d6",
".S c #9c846b",
"#l c #ffc64a",
".4 c #dedede",
"#y c #ffa500",
"#H c #9c6b29",
".C c #ffb510",
"#p c #9c7342",
".x c #ffb521",
".K c #182121",
".b c #212121",
"#e c #a58439",
".e c #292929",
"#E c #efad52",
".V c #a5a5a5",
"#q c #633900",
".F c #f78400",
"#c c #ffce31",
".d c #313131",
".P c #ff8400",
"#G c #ef9410",
".8 c #adadad",
".O c #ff8c08",
".Y c #393939",
".H c #ff9410",
".3 c #b5b5b5",
"#F c #ff9c18",
".T c #bdbdbd",
".s c #efce7b",
".t c #ffa518",
"#n c #392908",
"#t c #7b7b73",
".y c #ffad31",
"#h c #ffb539",
".a c #000000",
".R c #080000",
".0 c #fffff7",
"#i c #423918",
".c c #080808",
".A c #ff9400",
".6 c #848484",
".I c #ff9c08",
".o c #101010",
".X c #8c8c8c",
".v c #ffc652",
"#g c #ff8418",
".f c #181818",
"#d c #4a4229",
"#v c #ffce5a",
".l c #949494",
"#. c #ffad10",
"#D c #4a4a42",
".5 c #9c9c9c",
".w c #946308",
"## c #ffc631",
"#s c #181000",
".z c #ffc642",
".n c #ffce39",
".Q c #ff8408",
".N c #ff8c10",
".B c #ffad00",
".q c #6b6352",
".J c #636363",
"#C c #291808",
".h c #b5b5bd",
".9 c #9c9c8c",
"#j c #ff9429",
"Qt c None",
".g c #6b6b6b",
".M c #c66b10",
"#x c #292108",
".7 c #e7e7e7",
".D c #ffbd21",
".2 c #737373",
"#A c #d68c00",
".i c #efefef",
".# c #7b7b7b",
".m c #f7f7f7",
".r c #debd6b",
"#z c #423118",
"#u c #b5ad94",
"#k c #ffb552",
"#b c #ad9452",
".G c #ff9408",
"#w c #423931",
".U c #393942",
"#f c #ff9c10",
"QtQtQtQtQtQtQtQtQtQtQtQtQtQtQtQtQtQtQtQtQtQtQtQtQtQtQtQtQtQtQtQt",
"QtQtQtQtQtQtQtQtQtQtQtQtQtQt.#.a.a.#QtQtQtQtQtQtQtQtQtQtQtQtQtQt",
"QtQtQtQtQtQtQtQtQtQtQtQtQt.b.a.a.a.c.dQtQtQtQtQtQtQtQtQtQtQtQtQt",
"QtQtQtQtQtQtQtQtQtQtQtQt.e.a.a.a.a.c.f.fQtQtQtQtQtQtQtQtQtQtQtQt",
"QtQtQtQtQtQtQtQtQtQtQt.g.a.a.a.a.d.h.i.gQtQtQtQtQtQtQtQtQtQtQtQt",
"QtQtQtQtQtQtQtQtQtQtQt.d.c.j.k.b.l.m.f.f.nQtQtQtQtQtQtQtQtQtQtQt",
"QtQtQtQtQtQtQtQtQtQtQt.c.a.o.p.q.r.s.l.t.u.vQtQtQtQtQtQtQtQtQtQt",
"QtQtQtQtQtQtQtQtQtQtQt.c.a.a.a.w.x.y.z.t.A.B.C.D.BQtQtQtQtQtQtQt",
"QtQtQtQtQtQtQtQtQtQtQt.o.a.a.a.E.F.G.H.I.A.u.u.u.AQtQtQtQtQtQtQt",
"QtQtQtQtQtQtQtQtQtQtQt.J.b.K.a.a.L.M.N.O.P.Q.Q.NQtQtQtQtQtQtQtQt",
"QtQtQtQtQtQtQtQtQtQtQt.j.o.o.R.a.a.o.SQtQtQtQtQtQtQtQtQtQtQtQtQt",
"QtQtQtQtQtQtQtQtQtQt.c.a.a.a.a.a.a.a.K.TQtQtQtQtQtQtQtQtQtQtQtQt",
"QtQtQtQtQtQtQtQtQt.o.a.a.a.a.a.a.a.a.o.U.VQtQtQtQtQtQtQtQtQtQtQt",
"QtQtQtQtQtQtQtQt.d.a.a.a.a.a.a.a.a.c.W.J.b.WQtQtQtQtQtQtQtQtQtQt",
"QtQtQtQtQtQtQt.X.a.a.a.o.Y.c.a.a.o.k.Z.Z.Y.c.c.kQtQtQtQtQtQtQtQt",
"QtQtQtQtQtQt.#.f.a.a.a.p.p.a.a.c.Y.V.i.0.1.d.a.a.eQtQtQtQtQtQtQt",
"QtQtQtQt.2.a.a.a.a.a.e.j.o.a.a.o.k.3.i.0.4.2.a.a.c.#QtQtQtQtQtQt",
"QtQtQtQt.2.a.a.c.b.p.j.f.a.a.a.e.2.T.i.0.0.5QtQtQtQtQtQtQtQtQtQt",
"QtQtQtQtQt.2.#.#.6.j.c.a.a.a.a.d.#.T.i.0.0.5QtQtQtQtQtQtQtQtQtQt",
"QtQtQtQtQtQtQtQtQt.f.a.a.a.a.c.Y.6.3.7.0.0.8.VQtQtQtQtQtQtQtQtQt",
"QtQtQtQtQtQtQtQtQt.a.a.a.a.a.c.d.#.8.4.0.0.4.9QtQtQtQtQtQtQtQtQt",
"QtQtQtQtQt#.##Qt.q.a.a.a.a.a.c.d.2.V#a.m.0.0#bQtQtQtQtQtQtQtQtQt",
"QtQtQtQt.P.I#c.v#d.a.a.a.a.a.c.e.J.l.T.7.0.0#e#f#g#hQtQtQtQtQtQt",
"QtQtQtQt.O.A.C###i.a.a.a.a.a.a.b.j.X.8.T.0.0#e#j#k#l#mQtQtQtQtQt",
"QtQtQtQtQt.P.G#m#n.a.a.a.a.a.a.o.Y.g.5.h.0#e#j#k.v#o#oQtQtQtQtQt",
"QtQtQtQtQt#p#q#r#s.a.a.a.a.a.a.c.b.p#t#u#e#j#v.v.x.uQtQtQtQtQtQt",
"QtQtQtQtQt.W.a.a.a.a.a.a.a.a.a.a.c.f#w#e#j##.D#..uQtQtQtQtQtQtQt",
"QtQtQtQtQtQt.c.a.a.a.a.a.a.a.a.a.a.R#x#e#j.C#y.uQtQtQtQtQtQtQtQt",
"QtQtQtQtQtQtQt#z.R.a.a.a.a.a.a.a.a.a#s#A#y.u.AQtQtQtQtQtQtQtQtQt",
"QtQtQtQtQtQtQtQt#j#j#B#C.a.a.a.a.a.a#D#E#FQtQtQtQtQtQtQtQtQtQtQt",
"QtQtQtQtQtQtQtQtQtQt#j#G#H.W.Y.p.j.5QtQtQtQtQtQtQtQtQtQtQtQtQtQt",
"QtQtQtQtQtQtQtQtQtQtQtQtQtQtQtQtQtQtQtQtQtQtQtQtQtQtQtQtQtQtQtQt"};
