/* XPM */
static char*walk_r7[]={
"32 32 76 2",
".7 c #ffa510",
"#c c #844a00",
".K c #424242",
".1 c #524231",
"#. c #ffa521",
".8 c #b58410",
".n c #4a4a4a",
".p c #fff7d6",
".X c #c6c6c6",
"#d c #ffd68c",
".J c #522900",
".g c #525252",
".N c #cecece",
".b c #5a5a5a",
".Y c #ced6d6",
".x c #ff9c00",
"#f c #5a3910",
".v c #ffc64a",
".W c #dedede",
".E c #ffa500",
".6 c #ffce52",
"#g c #9c6b29",
".z c #ffb510",
".2 c #9c7342",
".s c #ffb521",
".f c #212121",
".i c #292929",
".5 c #efad52",
".V c #a5a5a5",
"#e c #f78400",
".c c #313131",
".G c #ff8400",
".3 c #d6bd84",
".Q c #adadad",
".h c #393939",
".O c #b5b5b5",
".A c #734200",
".T c #bdbdbd",
".r c #ffa518",
".D c #ffa529",
".I c #392908",
".a c #000000",
".4 c #efbd52",
".P c #fffff7",
".l c #080808",
"#j c #ff9400",
".U c #848484",
"#a c #ffbd63",
"## c #ff9c08",
".e c #101010",
".S c #8c8c8c",
".d c #181818",
".w c #ffce5a",
".q c #949494",
".Z c #9c9c9c",
"#h c #ffbd31",
".u c #946308",
".t c #ffc631",
".9 c #ffc642",
".y c #ffad00",
".L c #636363",
"Qt c None",
".k c #6b6b6b",
".F c #c66b10",
".R c #e7e7e7",
".M c #737373",
".j c #efefef",
".# c #7b7b7b",
".m c #debd6b",
"#i c #423118",
".H c #ff8c00",
".o c #ad9452",
".B c #ff9408",
".0 c #ffdeb5",
"#b c #bd6b00",
".C c #ff9c10",
"QtQtQtQtQtQtQtQtQtQtQtQtQtQtQtQtQtQtQtQtQtQtQtQtQtQtQtQtQtQtQtQt",
"QtQtQtQtQtQtQtQtQtQtQtQtQtQtQtQtQtQtQtQtQtQtQtQtQtQtQtQtQtQtQtQt",
"QtQtQtQtQtQtQtQtQtQtQtQtQtQtQtQtQtQtQtQtQtQtQtQtQtQtQtQtQtQtQtQt",
"QtQtQtQtQtQtQtQtQtQtQtQtQtQtQtQtQtQtQtQtQtQtQtQtQtQtQtQtQtQtQtQt",
"QtQtQtQtQtQtQtQtQtQtQtQtQtQt.#.a.a.#QtQtQtQtQtQtQtQtQtQtQtQtQtQt",
"QtQtQtQtQtQtQtQtQtQtQtQtQt.b.c.d.e.f.gQtQtQtQtQtQtQtQtQtQtQtQtQt",
"QtQtQtQtQtQtQtQtQtQtQtQt.h.a.a.a.a.a.a.iQtQtQtQtQtQtQtQtQtQtQtQt",
"QtQtQtQtQtQtQtQtQtQtQt.#.a.a.a.a.a.c.j.kQtQtQtQtQtQtQtQtQtQtQtQt",
"QtQtQtQtQtQtQtQtQtQtQt.c.l.h.c.e.i.j.d.d.mQtQtQtQtQtQtQtQtQtQtQt",
"QtQtQtQtQtQtQtQtQtQtQt.d.a.e.n.k.o.p.q.r.s.tQtQtQtQtQtQtQtQtQtQt",
"QtQtQtQtQtQtQtQtQtQtQt.g.a.a.a.u.v.w.w.r.x.y.z.v.sQtQtQtQtQtQtQt",
"QtQtQtQtQtQtQtQtQtQtQtQt.a.a.a.A.B.C.D.r.x.E.x.x.xQtQtQtQtQtQtQt",
"QtQtQtQtQtQtQtQtQtQtQt.n.a.a.a.a.A.F.G.B.H.G.G.GQtQtQtQtQtQtQtQt",
"QtQtQtQtQtQtQtQtQtQtQt.a.a.a.a.a.a.l.I.JQtQtQtQtQtQtQtQtQtQtQtQt",
"QtQtQtQtQtQtQtQtQtQt.K.a.a.a.a.a.f.i.a.a.LQtQtQtQtQtQtQtQtQtQtQt",
"QtQtQtQtQtQtQtQtQtQt.l.a.l.l.a.a.n.K.a.d.nQtQtQtQtQtQtQtQtQtQtQt",
"QtQtQtQtQtQtQtQtQtQt.a.a.i.L.a.a.g.h.l.M.N.bQtQtQtQtQtQtQtQtQtQt",
"QtQtQtQtQtQtQtQtQt.h.a.a.i.L.a.a.L.c.i.O.P.Q.#QtQtQtQtQtQtQtQtQt",
"QtQtQtQtQtQtQtQtQt.a.a.a.i.L.a.l.b.i.L.R.P.P.bQtQtQtQtQtQtQtQtQt",
"QtQtQtQtQtQtQtQtQt.a.a.a.L.L.a.h.K.i.S.R.P.P.T.UQtQtQtQtQtQtQtQt",
"QtQtQtQtQtQtQtQtQt.a.a.a.L.l.i.g.f.h.V.R.P.P.W.UQtQtQtQtQtQtQtQt",
"QtQtQtQtQtQtQtQtQt.a.a.l.L.c.b.f.l.g.T.R.P.P.W.SQtQtQtQtQtQtQtQt",
"QtQtQtQtQtQtQtQtQt.a.a.e.L.b.d.a.e.M.X.j.P.P.R.#QtQtQtQtQtQtQtQt",
"QtQtQtQtQtQtQtQtQt.a.a.l.i.e.a.a.i.S.T.W.j.P.Y.#QtQtQtQtQtQtQtQt",
"QtQtQtQtQtQtQtQtQt.a.a.a.a.a.a.a.h.Z.T.N.W.0.mQtQtQtQtQtQtQtQtQt",
"QtQtQtQtQtQtQtQtQt.a.a.a.a.a.f.1.2.m.m.3.4.s.yQtQtQtQtQtQtQtQtQt",
"QtQtQtQtQtQtQtQtQt.a.a.a.l.2.5.6.t.s.z.r.z.7.sQtQtQtQtQtQtQtQtQt",
"QtQtQtQtQtQt.d.d.d.a.a.l.8.9.t#..C####.7.D#aQtQtQtQtQtQtQtQtQtQt",
"QtQtQtQtQtQt.a.a.a.a.a.I.7.C.G.G.G#b#c.o#dQtQtQtQtQtQtQtQtQtQtQt",
"QtQtQtQtQtQtQt.a.a.a.a.l#b.G#e#b#f.1#g.5.t#h.tQtQtQtQtQtQtQtQtQt",
"QtQtQtQtQtQtQtQtQt.e.a.a.l#i.1#f#g#e#j.B.r.rQtQtQtQtQtQtQtQtQtQt",
"QtQtQtQtQtQtQtQtQtQtQtQtQtQtQtQtQtQtQtQtQtQtQtQtQtQtQtQtQtQtQtQt"};
