/* XPM */
static char*walk_l1[]={
"32 32 77 2",
".g c #424242",
".M c #4a4a4a",
".K c #8c5208",
".4 c #fff7d6",
".W c #c6c6c6",
"#h c #522900",
".j c #525252",
".T c #cecece",
".f c #5a5a5a",
".A c #ff9c00",
".S c #d6d6d6",
".Y c #dedede",
".y c #ffce52",
".z c #9c6b29",
".5 c #ffb510",
".N c #9c7342",
".l c #ffbd18",
"#b c #d6c6a5",
".x c #ffde84",
".b c #212121",
"#g c #a58439",
".P c #292929",
".0 c #a5a5a5",
".F c #633900",
"#k c #f78400",
".G c #313131",
".H c #ff8400",
".2 c #adadad",
".D c #ff8c08",
".R c #393939",
"#j c #ff9410",
".X c #b5b5b5",
".9 c #bdbdbd",
".m c #ffa518",
".C c #ffa529",
".s c #ffce7b",
".w c #ffb539",
".a c #000000",
".O c #080000",
".U c #fffff7",
".k c #080808",
".v c #ff9400",
".1 c #848484",
"#e c #ffbd63",
".c c #101010",
".Q c #8c8c8c",
".i c #181818",
".n c #949494",
".u c #ffad10",
"#d c #4a4a42",
".8 c #ffb518",
".3 c #9c9c9c",
"#. c #ffbd31",
".7 c #ffc631",
".r c #ffc642",
".t c #ffce4a",
".q c #636363",
".L c #291808",
"Qt c None",
".d c #6b6b6b",
".E c #c66b10",
".6 c #ffbd21",
".Z c #737373",
".e c #efefef",
".h c #f7ce94",
".# c #7b7b7b",
".V c #f7f7f7",
"## c #debd6b",
"#a c #ffad4a",
"#c c #b5ad94",
".I c #ff8c00",
"#i c #ffb552",
".p c #ad9452",
".B c #ff9408",
".J c #bd6b00",
"#f c #ff9c10",
".o c #ffe7b5",
"QtQtQtQtQtQtQtQtQtQtQtQtQtQtQtQtQtQtQtQtQtQtQtQtQtQtQtQtQtQtQtQt",
"QtQtQtQtQtQtQtQtQtQtQtQtQtQtQtQtQtQtQtQtQtQtQtQtQtQtQtQtQtQtQtQt",
"QtQtQtQtQtQtQtQtQtQtQtQtQtQtQtQtQtQtQtQtQtQtQtQtQtQtQtQtQtQtQtQt",
"QtQtQtQtQtQtQtQtQtQtQtQtQtQt.#.a.a.#QtQtQtQtQtQtQtQtQtQtQtQtQtQt",
"QtQtQtQtQtQtQtQtQtQtQtQtQt.b.a.a.a.a.cQtQtQtQtQtQtQtQtQtQtQtQtQt",
"QtQtQtQtQtQtQtQtQtQtQtQt.c.a.a.a.a.a.a.aQtQtQtQtQtQtQtQtQtQtQtQt",
"QtQtQtQtQtQtQtQtQtQtQtQt.d.e.f.a.a.a.a.a.gQtQtQtQtQtQtQtQtQtQtQt",
"QtQtQtQtQtQtQtQtQtQtQt.h.i.i.e.j.a.i.b.a.kQtQtQtQtQtQtQtQtQtQtQt",
"QtQtQtQtQtQtQtQtQtQt.l.l.m.n.o.p.q.f.b.a.aQtQtQtQtQtQtQtQtQtQtQt",
"QtQtQtQtQtQtQt.r.s.t.u.v.w.x.y.w.z.a.a.a.aQtQtQtQtQtQtQtQtQtQtQt",
"QtQtQtQtQtQtQt.v.A.A.A.B.C.C.D.E.F.a.a.a.GQtQtQtQtQtQtQtQtQtQtQt",
"QtQtQtQtQtQtQtQt.D.H.H.I.D.J.K.L.a.a.c.c.MQtQtQtQtQtQtQtQtQtQtQt",
"QtQtQtQtQtQtQtQtQtQtQtQt.N.O.a.a.a.a.c.b.PQtQtQtQtQtQtQtQtQtQtQt",
"QtQtQtQtQtQtQtQtQtQtQt.Q.c.a.a.a.a.a.a.a.i.GQtQtQtQtQtQtQtQtQtQt",
"QtQtQtQtQtQtQtQtQtQt.M.i.G.a.a.k.G.c.a.a.a.c.RQtQtQtQtQtQtQtQtQt",
"QtQtQtQtQtQtQtQtQt.f.k.S.T.P.a.a.g.f.c.a.a.a.cQtQtQtQtQtQtQtQtQt",
"QtQtQtQtQtQtQtQt.G.a.q.U.V.#.i.a.a.G.f.c.a.a.a.GQtQtQtQtQtQtQtQt",
"QtQtQtQtQtQtQt.f.a.k.W.U.U.X.g.k.a.a.R.f.a.a.a.a.GQtQtQtQtQtQtQt",
"QtQtQtQtQtQtQtQtQt.j.V.U.U.Y.#.b.a.a.a.R.f.R.i.b.i.iQtQtQtQtQtQt",
"QtQtQtQtQtQtQtQtQt.Z.U.U.U.Y.0.M.c.a.a.a.b.g.M.d.1QtQtQtQtQtQtQt",
"QtQtQtQtQtQtQtQtQt.Z.U.U.U.Y.X.d.b.a.a.a.a.a.a.aQtQtQtQtQtQtQtQt",
"QtQtQtQtQtQtQtQtQt.Q.U.U.U.Y.X.1.G.k.a.a.a.a.a.PQtQtQtQtQtQtQtQt",
"QtQtQtQtQtQtQtQtQt.0.U.U.U.Y.2.n.M.c.a.a.a.a.a.aQtQtQtQtQtQtQtQt",
"QtQtQtQtQtQtQtQtQt.3.U.U.V.S.2.3.j.c.a.a.a.a.a.aQtQtQtQtQtQtQtQt",
"QtQtQtQtQtQtQtQt.y.r.4.V.S.W.X.0.f.i.a.a.a.a.a.aQtQtQtQtQtQtQtQt",
"QtQtQtQtQtQt.5.u.6.7.8.8.T.9.9.2.f.i.a.a.a.a.a.bQtQtQtQtQtQtQtQt",
"QtQtQtQtQtQtQt.u.8#..7.8##.W.W.2.f.c.a.a.a.a.a.i.G.a.kQtQtQtQtQt",
"QtQtQtQtQtQtQtQt#a.u#..r.8.8#b#c#d.c.a.a.a.a.a.a.a.a.aQtQtQtQtQt",
"QtQtQtQtQtQtQtQtQt#e#f.m#..m#g#g.P.a.a.a.a.a.a.a.k.aQtQtQtQtQtQt",
"QtQtQtQtQtQtQtQtQtQtQt#a.B.B.B.E#h.a.a.a.a.k#h.NQtQtQtQtQtQtQtQt",
"QtQtQtQtQtQtQtQtQtQtQtQtQt#i#j.I#k.K#h#h.K.EQtQtQtQtQtQtQtQtQtQt",
"QtQtQtQtQtQtQtQtQtQtQtQtQtQtQtQtQtQtQtQtQtQtQtQtQtQtQtQtQtQtQtQt"};
