/* XPM */
static char*walk_l7[]={
"32 32 76 2",
".E c #ffa510",
".P c #424242",
".J c #844a00",
".l c #4a4a4a",
".n c #ffd68c",
".H c #522900",
".O c #525252",
".U c #cecece",
".W c #5a5a5a",
".8 c #ced6d6",
".B c #ff9c00",
".3 c #d6d6d6",
".w c #f7c64a",
".7 c #9c846b",
".1 c #cebd94",
".T c #dedede",
".C c #ffa500",
".5 c #ffce52",
".K c #9c6b29",
"#d c #9c7342",
".y c #ffb521",
"#a c #d6c6a5",
".b c #212121",
".A c #292929",
".6 c #efad52",
".f c #a5a5a5",
".I c #f78400",
".N c #313131",
"#f c #ff8400",
"## c #d6bd84",
"#i c #ef9410",
".V c #adadad",
".F c #ff8c08",
".S c #393939",
"#h c #734200",
".Y c #bdbdbd",
".p c #ffa518",
".r c #7b7b73",
".a c #000000",
".j c #fffff7",
".c c #080808",
".u c #ff9400",
".0 c #848484",
"#c c #ff9c08",
".M c #101010",
".Q c #8c8c8c",
".i c #181818",
".9 c #ffce5a",
".q c #949494",
".t c #ffad10",
"#b c #9c9c9c",
".s c #ffbd31",
".z c #946308",
".4 c #ffc631",
"#. c #f7ce4a",
".x c #ffce4a",
".Z c #adadb5",
".2 c #dedee7",
".D c #ffad00",
".m c #636363",
".L c #291808",
"Qt c None",
".d c #6b6b6b",
"#e c #292108",
".R c #e7e7e7",
".o c #ffbd21",
".k c #737373",
"#g c #d68c00",
".e c #efefef",
".# c #7b7b7b",
".X c #f7f7f7",
".h c #debd6b",
"#j c #423118",
".G c #ff8c00",
".v c #ff9c10",
".g c #101018",
"QtQtQtQtQtQtQtQtQtQtQtQtQtQtQtQtQtQtQtQtQtQtQtQtQtQtQtQtQtQtQtQt",
"QtQtQtQtQtQtQtQtQtQtQtQtQtQtQtQtQtQtQtQtQtQtQtQtQtQtQtQtQtQtQtQt",
"QtQtQtQtQtQtQtQtQtQtQtQtQtQtQtQtQtQtQtQtQtQtQtQtQtQtQtQtQtQtQtQt",
"QtQtQtQtQtQtQtQtQtQtQtQtQtQt.#.a.a.#QtQtQtQtQtQtQtQtQtQtQtQtQtQt",
"QtQtQtQtQtQtQtQtQtQtQtQtQt.b.a.a.a.c.bQtQtQtQtQtQtQtQtQtQtQtQtQt",
"QtQtQtQtQtQtQtQtQtQtQtQt.a.a.a.a.a.a.a.bQtQtQtQtQtQtQtQtQtQtQtQt",
"QtQtQtQtQtQtQtQtQtQtQtQt.d.e.f.g.a.a.c.a.dQtQtQtQtQtQtQtQtQtQtQt",
"QtQtQtQtQtQtQtQtQtQtQt.h.i.i.j.k.l.m.l.a.bQtQtQtQtQtQtQtQtQtQtQt",
"QtQtQtQtQtQtQtQtQtQt.n.o.p.q.n.n.r.b.a.a.iQtQtQtQtQtQtQtQtQtQtQt",
"QtQtQtQtQtQtQt.s.s.s.t.u.v.w.x.y.z.a.a.a.AQtQtQtQtQtQtQtQtQtQtQt",
"QtQtQtQtQtQtQt.B.C.t.D.B.E.E.F.G.H.a.a.a.mQtQtQtQtQtQtQtQtQtQtQt",
"QtQtQtQtQtQtQtQt.G.u.u.u.G.G.I.J.a.a.a.aQtQtQtQtQtQtQtQtQtQtQtQt",
"QtQtQtQtQtQtQtQtQtQtQtQt.K.H.L.a.a.a.a.c.cQtQtQtQtQtQtQtQtQtQtQt",
"QtQtQtQtQtQtQtQtQtQtQtQt.g.a.a.a.a.a.a.b.l.MQtQtQtQtQtQtQtQtQtQt",
"QtQtQtQtQtQtQtQtQtQtQt.A.A.c.a.a.a.a.a.a.N.O.iQtQtQtQtQtQtQtQtQt",
"QtQtQtQtQtQtQtQtQtQt.c.P.Q.P.M.a.a.a.a.a.a.A.OQtQtQtQtQtQtQtQtQt",
"QtQtQtQtQtQtQtQtQt.b.c.q.R.q.S.M.a.b.b.a.a.a.N.dQtQtQtQtQtQtQtQt",
"QtQtQtQtQtQtQtQt.l.a.O.T.j.U.k.A.a.M.l.N.a.a.c.OQtQtQtQtQtQtQtQt",
"QtQtQtQtQtQtQtQtQtQt.k.j.j.e.V.O.M.a.M.W.A.a.a.i.qQtQtQtQtQtQtQt",
"QtQtQtQtQtQtQtQtQt.Q.V.j.j.X.U.#.A.a.a.i.W.P.b.c.bQtQtQtQtQtQtQt",
"QtQtQtQtQtQtQtQtQt.#.R.j.j.j.R.V.O.M.a.a.M.P.O.m.dQtQtQtQtQtQtQt",
"QtQtQtQtQtQtQtQtQt.Q.X.j.j.j.R.Y.k.b.a.a.a.a.a.QQtQtQtQtQtQtQtQt",
"QtQtQtQtQtQtQtQtQt.q.e.j.j.j.e.Y.#.N.c.a.a.a.a.mQtQtQtQtQtQtQtQt",
"QtQtQtQtQtQtQtQtQt.#.T.j.j.j.e.Z.0.S.c.a.a.a.a.OQtQtQtQtQtQtQtQt",
"QtQtQtQtQtQtQtQtQt.q.f.j.j.j.R.Y.0.S.M.a.a.a.a.PQtQtQtQtQtQtQtQt",
"QtQtQtQtQtQtQtQtQt.1.k.2.j.X.3.V.#.S.M.a.a.a.a.WQtQtQtQtQtQtQtQt",
"QtQtQtQtQtQtQt.t.4.5.6.7.2.8.V.f.k.N.c.a.a.a.a.N.i.aQtQtQtQtQtQt",
"QtQtQtQtQtQtQt.F.s.9.9#.###a.V#b.d.A.a.a.a.a.a.a.a.cQtQtQtQtQtQt",
"QtQtQtQtQtQtQtQt#c.y.x.9.9.w.6.h#d#e.a.a.a.a.a.a.aQtQtQtQtQtQtQt",
"QtQtQtQtQtQtQtQtQt#f.F.p.s.p.t.E#g#h.a.a.a.a.a.MQtQtQtQtQtQtQtQt",
"QtQtQtQtQtQtQtQtQtQtQt#f#f.G.G#f#f#i#d#j.P.dQtQtQtQtQtQtQtQtQtQt",
"QtQtQtQtQtQtQtQtQtQtQtQtQtQtQtQtQtQtQtQtQtQtQtQtQtQtQtQtQtQtQtQt"};
