/* XPM */
static char * sa2_xpm[] = {
"32 32 4 1",
" 	c None",
".	c #000000",
"+	c #999999",
"@	c #FFFFFF",
"                             .++",
"                            .+++",
"                            .+++",
"   .         ....            .++",
"  .@.       .@@@@.     ..     ..",
"  .@.      .@@@@@@.   .++.      ",
" .@@@.     .@@@@@@.  .++++.     ",
"  .@@@.    .@@@@@@.  .++++.     ",
"   .@@@.    .@@@@.    .++.      ",
"    .@@@..........     ..       ",
"     .@@@@@@@@@@@@.             ",
"      .@@@@@@@@@@@@.            ",
"       ......@@@.@@@.           ",
"            .@@@..@@@.          ",
"            .@@@. .@@@.     ..  ",
"            .@@@..@@@.     .++. ",
"             .@@.@@@.     .++++.",
"   ..        .@@@@@.      .++++.",
"  .++.       .@@@@.        .++. ",
" .++++.      .@@@.@.        ..  ",
" .++++.     .@@@@...            ",
"  .++.     .@@@@@@@.            ",
"   ..     .@@@...@@@.           ",
"         .@@@..  .@@@.          ",
"        .@@@.     .@@@.         ",
"        .@@.       .@@.         ",
"       .@@.        .@@.         ",
"       .@@.        .@@.         ",
"      .@@@.        .@@.         ",
"       ...          ..          ",
"                                ",
"                                "};
