/* XPM */
static char * sa2a_xpm[] = {
"32 32 6 1",
" 	c None",
".	c #000000",
"+	c #00FF00",
"@	c #FFFFFF",
"#	c #00FFFF",
"$	c #FF00FF",
"                             .++",
"                            .+++",
"                            .+++",
"   +         ++++            .++",
"  +@+       +@@@@+     ..     ..",
"  +@+      +@@@@@@+   .@@.      ",
" +@@@+     +@@@@@@+  .@@@@.     ",
"  +@@@+    +@@@@@@+  .@@@@.     ",
"   +@@@+    +@@@@+    .@@.      ",
"    +@@@++++++++++     ..       ",
"     +@@@@@@@@@@@@+             ",
"      +@@@@@@@@@@@@+            ",
"       ++++++@@@+@@@+           ",
"            +@@@++@@@+          ",
"            +@@@+ +@@@+     ..  ",
"            +@@@++@@@+     .##. ",
"             +@@+@@@+     .####.",
"   ..        +@@@@@+      .####.",
"  .$$.       +@@@@+        .##. ",
" .$$$$.      +@@@+@+        ..  ",
" .$$$$.     +@@@@+++            ",
"  .$$.     +@@@@@@@+            ",
"   ..     +@@@+++@@@+           ",
"         +@@@++  +@@@+          ",
"        +@@@+     +@@@+         ",
"        +@@+       +@@+         ",
"       +@@+        +@@+         ",
"       +@@+        +@@+         ",
"      +@@@+        +@@+         ",
"       +++          ++          ",
"                                ",
"                                "};
