/* XPM */
static char * sa2b_xpm[] = {
"32 32 7 1",
" 	c None",
".	c #000000",
"+	c #00FFFF",
"@	c #FF0000",
"#	c #FFFFFF",
"$	c #00FF00",
"%	c #FF00FF",
"                             .++",
"                            .+++",
"                            .+++",
"   @         @@@@            .++",
"  @#@       @####@     ..     ..",
"  @#@      @######@   .$$.      ",
" @###@     @######@  .$$$$.     ",
"  @###@    @######@  .$$$$.     ",
"   @###@    @####@    .$$.      ",
"    @###@@@@@@@@@@     ..       ",
"     @############@             ",
"      @############@            ",
"       @@@@@@###@###@           ",
"            @###@@###@          ",
"            @###@ @###@     ..  ",
"            @###@@###@     .%%. ",
"             @##@###@     .%%%%.",
"   ..        @#####@      .%%%%.",
"  .##.       @####@        .%%. ",
" .####.      @###@#@        ..  ",
" .####.     @####@@@            ",
"  .##.     @#######@            ",
"   ..     @###@@@###@           ",
"         @###@@  @###@          ",
"        @###@     @###@         ",
"        @##@       @##@         ",
"       @##@        @##@         ",
"       @##@        @##@         ",
"      @###@        @##@         ",
"       @@@          @@          ",
"                                ",
"                                "};
