/* XPM */
static char * blob_BeamUp9_xpm[] = {
"32 32 41 1",
" 	c None",
".	c #FFFFFF",
"+	c #FFFFBE",
"@	c #FFFF00",
"#	c #FFDFAA",
"$	c #FFBEFF",
"%	c #FFBEBE",
"&	c #FFAA59",
"*	c #FF8200",
"=	c #FF00FF",
"-	c #FF0000",
";	c #DFDFDF",
">	c #C3C3C3",
",	c #BEFFFF",
"'	c #BEFFBE",
")	c #BEBEFF",
"!	c #BEBE00",
"~	c #BE5900",
"{	c #BE00BE",
"]	c #BE0000",
"^	c #A0A0A0",
"/	c #80807F",
"(	c #808000",
"_	c #800080",
":	c #800000",
"<	c #595959",
"[	c #3C3C00",
"}	c #3C0000",
"|	c #303030",
"1	c #00FFFF",
"2	c #00FF00",
"3	c #00BEBE",
"4	c #00BE00",
"5	c #008080",
"6	c #008000",
"7	c #003C00",
"8	c #0000FF",
"9	c #0000BE",
"0	c #000080",
"a	c #00003C",
"b	c #000000",
"8                               ",
" 3                            1 ",
"81     383          888      138",
"3      88       8            3 1",
"81   8 81           1   81 3 1 8",
"83    31    bbb   333         33",
"81        b      (<             ",
"3     83 8        88 81       18",
"         8            8         ",
"81  8 3 8   3      11!!    3 188",
" 1    3  8  33     8         1  ",
"1      !8@ 8                  18",
"3    118</88 <  </   3 8 1    88",
"81   88   8b|>     88><@ <b   1 ",
"31   8   8/b/    ./ 81        18",
"      !@<;;1    <    1   !b    3",
"31   8  <8   /  <     8! ! 8138 ",
"8   83!@@<^  <       81@!  8   3",
" 3   3  @        @     !88    38",
"31  b !8        @  3   8!<b   18",
"      38  183      3888       1 ",
"818      3]3   ]  8338        83",
"31  8 8 !@!      8883@  |     1 ",
" 1   8b[!            ! 1      13",
"8 1  8   !1  8  @   !   3  8 1 3",
"83  38  1 (!!8     !          3 ",
" 1      1  |<3     8   1  8     ",
"3 1    31           388    8    ",
"8    8331           8          8",
"8     88888      8             1",
"  1        1  88 8            13",
"                                "};
