/* XPM */
static char * blob_r315_xpm[] = {
"32 32 14 1",
" 	c None",
".	c #000000",
"+	c #303030",
"@	c #595959",
"#	c #808000",
"$	c #BEBE00",
"%	c #3C3C00",
"&	c #FFFF00",
"*	c #80807F",
"=	c #C3C3C3",
"-	c #FFFFFF",
";	c #DFDFDF",
">	c #A0A0A0",
",	c #BE0000",
"                                ",
"                                ",
"                                ",
"                                ",
"                                ",
"            .......             ",
"          .+@#$$$#@+.           ",
"        .+#$$$$$$$$$#+.         ",
"       .%$$$&*@@*$&$$$%.        ",
"      .%$$&$*@&&&@&$&$$%.       ",
"      +$$&$&@&&&&=@&$&$$+       ",
"     .#$&$&&@&&&+*-@&$&$#.      ",
"     +$$&&&&*&&+.*;**&&$$+      ",
"    .@$&*@@*&@>**>--@&$&$@.     ",
"    .#$*@&&&@&@-;-->@&&$$#.     ",
"    .$$@&&&&=@&@*->@*&&&$$.     ",
"    .$$@&&&+*-@&*@@*&&,$$$.     ",
"    .$$*&&+.*;**&&&&&,.,$$.     ",
"    .#$$@>**>--@&&&&&,.,$#.     ",
"    .@$&$@-;-->@&&&&&,.$$@.     ",
"     +$$&&@*->@*&&&&,.,$$+      ",
"     .#$&$&*@@*&&&&,.,&$#.      ",
"      +$$&$&&&&&,,,.,&$$+       ",
"      .%$$&$&&&,...,&$$%.       ",
"       .%$$$&$&$,,$$$$%.        ",
"        .+#$$$$$$$$$#+.         ",
"          .+@#$$$#@+.           ",
"            .......             ",
"                                ",
"                                ",
"                                ",
"                                "};
