/* XPM */
static char * blob_jet3_xpm[] = {
"32 32 20 1",
" 	c None",
".	c #000000",
"+	c #DFDFDF",
"@	c #FFFFFF",
"#	c #303030",
"$	c #595959",
"%	c #808000",
"&	c #BEBE00",
"*	c #3C3C00",
"=	c #FFFF00",
"-	c #C3C3C3",
";	c #A0A0A0",
">	c #0000FF",
",	c #00FFFF",
"'	c #80807F",
")	c #BE5900",
"!	c #BE0000",
"~	c #003C00",
"{	c #FF0000",
"]	c #FF8200",
"                                ",
"                                ",
"                                ",
"                                ",
"                                ",
"    ..      .......             ",
"   .+@.   .#$%&&&%$#.           ",
"  .@..@ .#%&&&&&&&&&%#.         ",
"  .@. +.*&&&=&=&=&=&&&*.        ",
"....@.@*&&==&=====&==$==$       ",
".@+-;.#&&=&=========&$===$      ",
".@+-;.@&=&===========$$$$$$     ",
".@+>;#&&&=============$$;@$     ",
".@+,;$+================$@;'     ",
".@+-;%+&===============$@;'$    ",
".@+-;+&================$+@@$    ",
".@+-;&&&===============$;@-$    ",
".@+-;&&=================$;$     ",
".@+-;%&&===============&&$$     ",
".@+-;$&=================&$.     ",
".@+-;#&&&===========)!&&&#      ",
".@+-;.%&=&==========!~!!!.      ",
" {{{{ #&&=&=========&!~~~       ",
"]{{{{].*&&==&=====&==&!!!       ",
"]]{{=] .*&&&=&=&=&=&&&*.        ",
"=]=]]=  .#%&&&&&&&&&%#.         ",
"==]]==    .#$%&&&%$#.           ",
" =]]=       .......             ",
"  ==                            ",
"   =                            ",
"                                ",
"                                "};
