/* XPM */
static char * blob_l_jet1_xpm[] = {
"32 32 18 1",
" 	c None",
".	c #000000",
"+	c #303030",
"@	c #595959",
"#	c #808000",
"$	c #BEBE00",
"%	c #FFFFFF",
"&	c #DFDFDF",
"*	c #3C3C00",
"=	c #FFFF00",
"-	c #A0A0A0",
";	c #C3C3C3",
">	c #0000FF",
",	c #80807F",
"'	c #00FFFF",
")	c #BE0000",
"!	c #BE5900",
"~	c #003C00",
"                                ",
"                                ",
"                                ",
"                                ",
"                                ",
"            .......      ..     ",
"          .+@#$$$#@+.   .%&.    ",
"        .+#$$$$$$$$$#+. %..%.   ",
"       .*$$$=$=$=$=$$$*.& .%.   ",
"      @==@==$=====$==$$*%.%.... ",
"     @===@$=========$=$$+.-;&%. ",
"    @@@@@@===========$=$%.-;&%. ",
"    @%-@@=============$$$+->&%. ",
"    ,-%@================&@-'&%. ",
"   @,-%@===============$&#-;&%. ",
"   @%%&@================$&-;&%. ",
"   @;%-@===============$$$-;&%. ",
"    @-@=================$$-;&%. ",
"    @@$$===============$$#-;&%. ",
"    .@$=================$@-;&%. ",
"     +$$$)!===========$$$+-;&%. ",
"     .)))~)==========$=$#.-;&%. ",
"      ~~~)$=========$=$$+...... ",
"      )))$==$=====$==$$*.       ",
"       .*$$$=$=$=$=$$$*.        ",
"        .+#$$$$$$$$$#+.         ",
"          .+@#$$$#@+.           ",
"            .......             ",
"                                ",
"                                ",
"                                ",
"                                "};
