/* XPM */
static char * blob_f1_xpm[] = {
"32 32 15 1",
" 	c None",
".	c #000000",
"+	c #303030",
"@	c #595959",
"#	c #808000",
"$	c #BEBE00",
"%	c #3C3C00",
"&	c #FFFF00",
"*	c #A0A0A0",
"=	c #C3C3C3",
"-	c #FFFFFF",
";	c #80807F",
">	c #DFDFDF",
",	c #BE0000",
"'	c #003C00",
"                                ",
"                                ",
"                                ",
"                                ",
"                                ",
"            .......             ",
"          .+@#$$$#@+.           ",
"        .+#$$$$$$$$$#+.         ",
"                                ",
"      .%$$@@@&&&&&@@@$$%.       ",
"      +$$@&&&@&&&@&&&@$$+       ",
"     .#$@&&&&&@&@&&&&&@$#.      ",
"                                ",
"    .@$&@*+.+=@&@*+.+=@&$@.     ",
"    .#$$@-;.;-@&@-;.;-@$$#.     ",
"    .$$&@>>*>>@&@>>*>>@&$$.     ",
"                                ",
"    .$$&&@*-*@&&&@*-*@&&$$.     ",
"    .#$$&&@@@&&&&&@@@&&$$#.     ",
"    .@$&&&&&&&&&&&&&&&&&$@.     ",
"                                ",
"     .#$&$,',,,,,,,',$&$#.      ",
"      +$$&$,''''''',$&$$+       ",
"      .%$$&&,,,,,,,&&$$%.       ",
"                                ",
"        .+#$$$$$$$$$#+.         ",
"          .+@#$$$#@+.           ",
"            .......             ",
"                                ",
"                                ",
"                                ",
"                                "};
