/* XPM */
static char * blob_f2_xpm[] = {
"32 32 14 1",
" 	c None",
".	c #000000",
"+	c #303030",
"@	c #595959",
"#	c #808000",
"$	c #BEBE00",
"%	c #FFFF00",
"&	c #FFFFFF",
"*	c #80807F",
"=	c #DFDFDF",
"-	c #A0A0A0",
";	c #BE0000",
">	c #003C00",
",	c #3C3C00",
"                                ",
"                                ",
"                                ",
"                                ",
"                                ",
"                                ",
"          .+@#$$$#@+.           ",
"        .+#$$$$$$$$$#+.         ",
"                                ",
"                                ",
"      +$$@%%%@%%%@%%%@$$+       ",
"     .#$@%%%%%@%@%%%%%@$#.      ",
"                                ",
"                                ",
"    .#$$@&*.*&@%@&*.*&@$$#.     ",
"    .$$%@==-==@%@==-==@%$$.     ",
"                                ",
"                                ",
"    .#$$%%@@@%%%%%@@@%%$$#.     ",
"    .@$%%%%%%%%%%%%%%%%%$@.     ",
"                                ",
"                                ",
"      +$$%$;>>>>>>>;$%$$+       ",
"      .,$$%%;;;;;;;%%$$,.       ",
"                                ",
"                                ",
"          .+@#$$$#@+.           ",
"            .......             ",
"                                ",
"                                ",
"                                ",
"                                "};
