/* XPM */
static char * blob_l_turn1_xpm[] = {
"32 32 16 1",
" 	c None",
".	c #000000",
"+	c #303030",
"@	c #595959",
"#	c #808000",
"$	c #BEBE00",
"%	c #3C3C00",
"&	c #FFFF00",
"*	c #80807F",
"=	c #C3C3C3",
"-	c #003C00",
";	c #DFDFDF",
">	c #A0A0A0",
",	c #FFFFFF",
"'	c #BE5900",
")	c #BE0000",
"                                ",
"                                ",
"                                ",
"                                ",
"                                ",
"            .......             ",
"          .+@#$$$#@+.           ",
"        .+#$$$$$$$$$#+.         ",
"       .%$$$&$&$&$&$$$%.        ",
"      .%@@&&$&&@@@$&&$$%.       ",
"      +@&&@&&&@&&&@&$&$$+       ",
"     .@&&&&@&@&&&&&@&$&$#.      ",
"     +@@&&@@&@@&&&*@&&$$$+      ",
"    .@@=--;@&@=+.+>@&&&&$@.     ",
"    .#@;@@;@&@,*.*,@&&&$$#.     ",
"    .$@;;;;@&@;;>;;@&&&&$$.     ",
"    .$@*,,,@&@*,,,*@&&&$$$.     ",
"    .$$@>,@&&&@>,>@&&&&&$$.     ",
"    .#$$@@&&&&&@@@&&&&&$$#.     ",
"    .@$&&&&&&&&&&&&&&&&&$@.     ",
"     +$$')&&&&&&)'&&&&$$$+      ",
"     .#$)-))))))-)&&&$&$#.      ",
"      +$$)------)&&&$&$$+       ",
"      .%$$))))))&&$&&$$%.       ",
"       .%$$$&$&$&$&$$$%.        ",
"        .+#$$$$$$$$$#+.         ",
"          .+@#$$$#@+.           ",
"            .......             ",
"                                ",
"                                ",
"                                ",
"                                "};
