/* XPM */
static char * blob_BeamUp6_xpm[] = {
"32 32 41 1",
" 	c None",
".	c #FFFFFF",
"+	c #FFFFBE",
"@	c #FFFF00",
"#	c #FFDFAA",
"$	c #FFBEFF",
"%	c #FFBEBE",
"&	c #FFAA59",
"*	c #FF8200",
"=	c #FF00FF",
"-	c #FF0000",
";	c #DFDFDF",
">	c #C3C3C3",
",	c #BEFFFF",
"'	c #BEFFBE",
")	c #BEBEFF",
"!	c #BEBE00",
"~	c #BE5900",
"{	c #BE00BE",
"]	c #BE0000",
"^	c #A0A0A0",
"/	c #80807F",
"(	c #808000",
"_	c #800080",
":	c #800000",
"<	c #595959",
"[	c #3C3C00",
"}	c #3C0000",
"|	c #303030",
"1	c #00FFFF",
"2	c #00FF00",
"3	c #00BEBE",
"4	c #00BE00",
"5	c #008080",
"6	c #008000",
"7	c #003C00",
"8	c #0000FF",
"9	c #0000BE",
"0	c #000080",
"a	c #00003C",
"b	c #000000",
"                                ",
"              388               ",
"           8 31  888            ",
"             8338 88            ",
"             33188              ",
"            b83bbbb             ",
"          888388!(<|b           ",
"        b 888331!!!! |b         ",
"         !! 88838               ",
"        !!8 8888188 <! [b       ",
"      |!  @@  33@<8888! |       ",
"         @   888..@@88<!        ",
"          8   <...888<   |      ",
"    b !@<^8888<3<.    <         ",
"    b !!<./b/831.8    <!! b     ",
"    b!!@<     1.188^;;<@!!b     ",
"         /. .388888             ",
"      !@ <^.  3318^.  @ !!b     ",
"      !!   <88131888<@@!!(      ",
"         88   31 888            ",
"     |!!!@888 @1@@       |      ",
"      (!@  8883388] ]!  (b      ",
"         @  7833177]  !!|       ",
"        !!   3838]]@@!![b       ",
"       b    88@!@8@!!![b        ",
"        b  !!  188!  |b         ",
"          b|88 31(              ",
"            b83 888             ",
"            88    8888          ",
"             833 3  888         ",
"              3388888           ",
"              3                 "};
