/* XPM */
static char * blob_l_turn3_xpm[] = {
"32 32 15 1",
" 	c None",
".	c #000000",
"+	c #303030",
"@	c #595959",
"#	c #808000",
"$	c #BEBE00",
"%	c #3C3C00",
"&	c #FFFF00",
"*	c #C3C3C3",
"=	c #003C00",
"-	c #DFDFDF",
";	c #80807F",
">	c #FFFFFF",
",	c #BE0000",
"'	c #BE5900",
"                                ",
"                                ",
"                                ",
"                                ",
"                                ",
"            .......             ",
"          .+@#$$$#@+.           ",
"        .+#$$$$$$$$$#+.         ",
"       .%$$$&$&$&$&$$$%.        ",
"      .%$$&&$&&&&&$&&$$%.       ",
"      +$$@@@&&&&&&&&$&$$+       ",
"     .#$@&&&@&&&&&&&&$&$#.      ",
"     +$#@&&@@&&&&&&&&&$$$+      ",
"    .@$@*=%-@&&&&&&&&&&&$@.     ",
"    .#$@-@-@#&&&&&&&&&&$$#.     ",
"    .$$@---@&&&&&&&&&&&&$$.     ",
"    .$$@;>;@&&&&&&&&&&&$$$.     ",
"    .$$&@@@&&&&&&&&&&&&&$$.     ",
"    .#$$&@&&&&&&&&&&&&&$$#.     ",
"    .@$&&&&&&&&&&&&&&&&&$@.     ",
"     +$$$&&&,'&&&&&&&&$$$+      ",
"     .,,,,,,=,&&&&&&&$&$#.      ",
"      +=====,&&&&&&&$&$$+       ",
"      .,,,,,$&&&&&$&&$$%.       ",
"       .%$$$&$&$&$&$$$%.        ",
"        .+#$$$$$$$$$#+.         ",
"          .+@#$$$#@+.           ",
"            .......             ",
"                                ",
"                                ",
"                                ",
"                                "};
