/* XPM */
static char * blob_BeamDown6_xpm[] = {
"32 32 41 1",
" 	c None",
".	c #FFFFFF",
"+	c #FFFFBE",
"@	c #FFFF00",
"#	c #FFDFAA",
"$	c #FFBEFF",
"%	c #FFBEBE",
"&	c #FFAA59",
"*	c #FF8200",
"=	c #FF00FF",
"-	c #FF0000",
";	c #DFDFDF",
">	c #C3C3C3",
",	c #BEFFFF",
"'	c #BEFFBE",
")	c #BEBEFF",
"!	c #BEBE00",
"~	c #BE5900",
"{	c #BE00BE",
"]	c #BE0000",
"^	c #A0A0A0",
"/	c #80807F",
"(	c #808000",
"_	c #800080",
":	c #800000",
"<	c #595959",
"[	c #3C3C00",
"}	c #3C0000",
"|	c #303030",
"1	c #00FFFF",
"2	c #00FF00",
"3	c #00BEBE",
"4	c #00BE00",
"5	c #008080",
"6	c #008000",
"7	c #003C00",
"8	c #0000FF",
"9	c #0000BE",
"0	c #000080",
"a	c #00003C",
"b	c #000000",
"                                ",
"      88            88          ",
"        3          88 8         ",
"       8 1         188     3    ",
"  3    8 1    8     3 8         ",
"     8  831 bb bbbb 18          ",
"       8  1|<3!     3888    3   ",
"      88331!  !!!   3.88        ",
"    8  883!!@! 8  @31..         ",
"  8   8 81<<<@@@   3118         ",
"      83.33@  @   @318.         ",
"  3  b 8 1  8@  <3  3@<8 b   8  ",
"       33  @@< @</@3  88        ",
"  8  88881|b|><@8^|b18  !     3 ",
"     8!831/ /.< <./b38< !(b     ",
"     !!811; ;;< <;;^;88@ !8     ",
"     8!88/8../3     188!!       ",
"    b8!83  .^<@8@ ^.3<@ !!   8  ",
"    8(8   <<< @88 <<<18   b     ",
"     <88833@@ 83@ @@3 8 !<      ",
"    8 !188  @ @@@ @]1388 |      ",
"      (!33  3 ]]] ] 83@!(8      ",
"       81 !]87777   138!| 3   3 ",
"      88 . @ ]]]8] @38![b  88   ",
"  8    b..   !@!@  !138b        ",
"       8b1  !!!!   !188     8   ",
"       883 |<(!88( |b38         ",
"        81  bbbbbb 118          ",
"       8 3          38          ",
"        88        3   8         ",
"              8   3  38         ",
"        8             8         "};
