/* XPM */
static char * blob_BeamUp3_xpm[] = {
"32 32 41 1",
" 	c None",
".	c #FFFFFF",
"+	c #FFFFBE",
"@	c #FFFF00",
"#	c #FFDFAA",
"$	c #FFBEFF",
"%	c #FFBEBE",
"&	c #FFAA59",
"*	c #FF8200",
"=	c #FF00FF",
"-	c #FF0000",
";	c #DFDFDF",
">	c #C3C3C3",
",	c #BEFFFF",
"'	c #BEFFBE",
")	c #BEBEFF",
"!	c #BEBE00",
"~	c #BE5900",
"{	c #BE00BE",
"]	c #BE0000",
"^	c #A0A0A0",
"/	c #80807F",
"(	c #808000",
"_	c #800080",
":	c #800000",
"<	c #595959",
"[	c #3C3C00",
"}	c #3C0000",
"|	c #303030",
"1	c #00FFFF",
"2	c #00FF00",
"3	c #00BEBE",
"4	c #00BE00",
"5	c #008080",
"6	c #008000",
"7	c #003C00",
"8	c #0000FF",
"9	c #0000BE",
"0	c #000080",
"a	c #00003C",
"b	c #000000",
"               3                ",
"         8      8               ",
"          3    3    8           ",
"           8   8  38            ",
"            3  88 8             ",
"            b833..88            ",
"          b|<833..<8b           ",
"        b|(!!83333!!(|b         ",
"         !!!@88888@8!  b        ",
"        !!<<8@@8 @8<<!![b       ",
"       !!< 3@<@8@ @3.<!!|       ",
"     b(!<@@@$@8.8  $@@<!(b      ",
"     |!!</@    $ /8@@<<!!|      ",
"    b<!@<    $$;..|8|><@!<      ",
"    b(!    $/$$.;.8$/.<!!       ",
"    b!!@ ;;  $$$.;;^;;<         ",
"     !!!</.  /$$$/$../<!!!      ",
"    b! @@<^.^$@$@<^$^<@@!!      ",
"    b(! @@<<$@8$ @8<.@  !(      ",
"     <!@@ @$ @8. 3@@  @@!<      ",
"      !!!@.] 3@$@3@]  !!!|      ",
"       !@!]7]]8$]]3  !@ (b      ",
"        !@!]7 78877] @! |       ",
"          @@]8]$]3 8@!![        ",
"           !@!3$8!3!!           ",
"        b (!!8!!!!8 (|          ",
"          b|<(3!!8<             ",
"            b8bbbb8             ",
"                                ",
"              3  88             ",
"                                ",
"             8                  "};
