/* XPM */
static char * blob_f3_xpm[] = {
"32 32 11 1",
" 	c None",
".	c #000000",
"+	c #303030",
"@	c #808000",
"#	c #BEBE00",
"$	c #595959",
"%	c #FFFF00",
"&	c #DFDFDF",
"*	c #A0A0A0",
"=	c #3C3C00",
"-	c #BE0000",
"                                ",
"                                ",
"                                ",
"                                ",
"                                ",
"                                ",
"                                ",
"        .+@#########@+.         ",
"                                ",
"                                ",
"                                ",
"     .@#$%%%%%$%$%%%%%$#@.      ",
"                                ",
"                                ",
"                                ",
"    .##%$&&*&&$%$&&*&&$%##.     ",
"                                ",
"                                ",
"                                ",
"    .$#%%%%%%%%%%%%%%%%%#$.     ",
"                                ",
"                                ",
"                                ",
"      .=##%%-------%%##=.       ",
"                                ",
"                                ",
"                                ",
"            .......             ",
"                                ",
"                                ",
"                                ",
"                                "};
