/* XPM */
static char * blob_r270_xpm[] = {
"32 32 16 1",
" 	c None",
".	c #000000",
"+	c #303030",
"@	c #595959",
"#	c #808000",
"$	c #BEBE00",
"%	c #3C3C00",
"&	c #FFFF00",
"*	c #C3C3C3",
"=	c #FFFFFF",
"-	c #DFDFDF",
";	c #80807F",
">	c #A0A0A0",
",	c #BE5900",
"'	c #BE0000",
")	c #003C00",
"                                ",
"                                ",
"                                ",
"                                ",
"                                ",
"            .......             ",
"          .+@#$$$#@+.           ",
"        .+#$$$$$$$$$#+.         ",
"       .%$$$&$&$&$&$$$%.        ",
"      .%$$@@@@@@&&&$&$$%.       ",
"      +$$@&@*=-;@&&&$&$$+       ",
"     .#$@&&&+;-=>@&,'$&$#.      ",
"     +$$@&&&..>==@&')'&$$+      ",
"    .@$&@&&&+;-=>@&&')'&$@.     ",
"    .#$$&@&;>=-;@&&&')'$$#.     ",
"    .$$&&&@@@@@@&&&&')'&$$.     ",
"    .$$$&&&&&&&&&&&&')'$$$.     ",
"    .$$&&&@@@@@@&&&&')'&$$.     ",
"    .#$$&@&@*=-;@&&&')'$$#.     ",
"    .@$&@&&&+;-=>@&&')'&$@.     ",
"     +$$@&&&..>==@&')'&$$+      ",
"     .#$@&&&+;-=>@&,'$&$#.      ",
"      +$$@&;>=-;@&&&$&$$+       ",
"      .%$$@@@@@@&&&$&$$%.       ",
"       .%$$$&$&$&$&$$$%.        ",
"        .+#$$$$$$$$$#+.         ",
"          .+@#$$$#@+.           ",
"            .......             ",
"                                ",
"                                ",
"                                ",
"                                "};
