/* XPM */
static char*w[]={
"32 32 5 1",
"# c #000000",
"a c #ffff00",
"c c #ffffc0",
"b c #ffffff",
". c None",
"................................",
".........#............#.........",
"................................",
"...........#........#...........",
"............#..##..#............",
".............##aa##.............",
".....#......#aaaaaa#......#.....",
".......#....##aaaa##....#.......",
"...........#a##aa##a#...........",
"...........#aa#aa#aa#...........",
"...........#aaaaaaaa#...........",
"...........#aaa##aaa#...........",
".......#....##aaaa##....#.......",
".....#.....#bb####bb#.....#.....",
"...........#b#bbbb#b#...........",
"...........#bbbbbbbb#...........",
"............##bbbb##............",
"...........#cc####cc#...........",
"...........#c#cccc#c#...........",
"...........#cccccccc#...........",
"............##cccc##............",
"...........#bb####bb#...........",
"...........#b#bbbb#b#...........",
"..........##bbbbbbbb##..........",
"..........#c##bbbb##c#..........",
"..........#ccc####ccc#..........",
"..........#cccccccccc#..........",
"..........###ccccccc##..........",
"............########............",
"................................",
"................................",
"................................"};
