/* XPM */
static char*w[]={
"32 32 4 1",
"# c #000000",
"b c #ffffc0",
"a c #ffffff",
". c None",
"................................",
"................................",
"................................",
"..........###......###..........",
".........#aaa#.##.#aaa#.........",
"........#aaaaa#bb#aaaaa#........",
".......#aaaaaaa##aaaaaaa#.......",
".......#aaaa#aa##aa#aaaa#.......",
".......#aaaaaaa##aaaaaaa#.......",
"........#aaaaa#bb#aaaaa#........",
".........#aaa#bbbb#aaa#.........",
"..........###bb##bb###..........",
"............##bbbb##............",
"...........#aa####aa#...........",
"...........#a#aaaa#a#...........",
"...........#aaaaaaaa#...........",
"............##aaaa##............",
"...........#bb####bb#...........",
"...........#b#bbbb#b#...........",
"...........#bbbbbbbb#...........",
"............##bbbb##............",
"...........#aa####aa#...........",
"...........#a#aaaa#a#...........",
"..........##aaaaaaaa##..........",
"..........#b##aaaa##b#..........",
"..........#bbb####bbb#..........",
"..........#bbbbbbbbbb#..........",
"..........###bbbbbbb##..........",
"............########............",
"................................",
"................................",
"................................"};
