/* XPM */
static char*w[]={
"32 32 4 1",
"# c #000000",
"a c #ffffc0",
"b c #ffffff",
". c None",
"................................",
"................................",
"................................",
"................................",
"................................",
"................................",
"................................",
"................................",
"................................",
"................................",
"................................",
"................................",
"................................",
"...........#..####..#...........",
"............##aaaa##............",
"............#aaaaaa#............",
"...........#aaaaaaaa#...........",
"...........#aa#aa#aa#...........",
"...........#a##aa##a#...........",
"...........#a##aa##a#...........",
"............##a##a##............",
"...........#bb####bb#...........",
"...........#b#bbbb#b#...........",
"..........##bbbbbbbb##..........",
"..........#a##bbbb##a#..........",
"..........#aaa####aaa#..........",
"..........#aaaaaaaaaa#..........",
"..........###aaaaaaa##..........",
"............########............",
"................................",
"................................",
"................................"};
