/* XPM */
static char*w[]={
"32 32 4 1",
"# c #000000",
"a c #ffffc0",
"b c #ffffff",
". c None",
"................................",
"................................",
"................................",
"................................",
"................................",
"................................",
"................................",
"................................",
"................................",
"................................",
"................................",
"................................",
"................................",
"................................",
"..............####..............",
"............##aaaa##............",
"...........#aaaaaaaa#...........",
"..........#aaa####aaa#..........",
"..........#a##bbbb##a#..........",
"..........##bbbbbbbb##..........",
"..........##bb####bb##..........",
"..........#b##aaaa##b#..........",
"..........#b#aaaaaa#b#..........",
"..........##aaaaaaaa##..........",
"..........##aa#aa#aa##..........",
"..........##a##aa##a##..........",
"..........##a##aa##a##..........",
"..........#a##a##a##a#..........",
"..........############..........",
"............########............",
"................................",
"................................"};
