/* XPM */
static char*w[]={
"32 32 3 1",
"# c #000000",
"a c #ffffc0",
". c None",
"................................",
"................................",
"................................",
"................................",
"................................",
"................................",
"................................",
"................................",
"................................",
"................................",
"................................",
"................................",
"................................",
"................................",
"................................",
"................................",
"................................",
"................................",
"................................",
"................................",
"................................",
"................................",
"................................",
"................................",
"................................",
"..............####..............",
"............##aaaa##............",
"...........#aaaaaaaa#...........",
"..........##aaaaaaaa##..........",
"..........####aaaa####..........",
"............########............",
"................................"};
