/* XPM */
static char*w[]={
"32 32 4 1",
"# c #000000",
"a c #ffffc0",
"b c #ffffff",
". c None",
"................................",
"................................",
"................................",
"...........#........#...........",
"............#..##..#............",
".............##aa##.............",
"............#aaaaaa#............",
"............#a#aa#a#............",
"...........#a##aa##a#...........",
"...........#a##aa##a#...........",
"...........#aaaaaaaa#...........",
"...........#aaa##aaa#...........",
".........#..##aaaa###.#.........",
"..........##bb####bb##..........",
"...........###bbbb###...........",
"...........#bbbbbbbb#...........",
".........#..##bbbb##..#.........",
"..........##aa####aa##..........",
"...........###aaaa###...........",
"...........#aaaaaaaa#...........",
".........#..##aaaa##..#.........",
"..........##bb####bb##..........",
"...........###bbbb###...........",
"..........##bbbbbbbb##..........",
"..........#a##bbbb##a#..........",
"..........#aaa####aaa#..........",
"..........#aaaaaaaaaa#..........",
"..........###aaaaaaa##..........",
"............########............",
"................................",
"................................",
"................................"};
