/* XPM */
static char*w[]={
"32 32 4 1",
"# c #000000",
"a c #ffffc0",
"b c #ffffff",
". c None",
"................................",
"................................",
"................................",
"................................",
"...........#....................",
"............#..##..##...........",
".............##aa##.............",
"............#aaaaaa#............",
"............#a#aaaa#............",
"...........#a##aa#aa#...........",
"...........#a##aaa#a#...........",
"...........#aaaaaaaa#...........",
"...........#aaa##aaa#...........",
"............##aaaa##............",
"...........#bb####bb#...........",
"...........#b#bbbb#b#...........",
"............##bbbb##............",
"...........#aa####aa#...........",
"...........#a#aaaa#a#...........",
"...........#aaaaaaaa#...........",
"............##aaaa##............",
"...........#bb####bb#...........",
"...........#b#bbbb#b#...........",
"..........##bbbbbbbb##..........",
"..........#a##bbbb##a#..........",
"..........#aaa####aaa#..........",
"..........#aaaaaaaaaa#..........",
"..........###aaaaaaa##..........",
"............########............",
"................................",
"................................",
"................................"};
