/* XPM */
static char*w[]={
"32 32 6 1",
"a c #000000",
"b c #ffdca8",
"d c #ffffc0",
"c c #ffffff",
"# c #ff0000",
". c None",
"................................",
"................................",
"........##.............##.......",
".......###.a........a..###......",
".......###..a..aa..a...###......",
".............aabbaa.............",
"............abbbbbba............",
"............ababbaba............",
"...........ababbbbaba...........",
"...........abbbbbbbba...........",
"...........abbabbabba...........",
"...........abbbaabbba...........",
"............aabbbbaa............",
"...........accaaaacca...........",
"...........acaccccaca...........",
"...........acccccccca...........",
"............aaccccaa............",
"...........addaaaadda...........",
"...........adaddddada...........",
"...........adddddddda...........",
"............aaddddaa............",
"...........accaaaacca...........",
"...........acaccccaca...........",
"..........aaccccccccaa..........",
"..........adaaccccaada..........",
"..........adddaaaaddda..........",
"..........adddddddddda..........",
"..........aaadddddddaa..........",
"............aaaaaaaa............",
"................................",
"................................",
"................................"};
