/* XPM */
static char*w[]={
"32 32 4 1",
"# c #000000",
"b c #ffffc0",
"a c #ffffff",
". c None",
"................................",
"................................",
"................................",
"................................",
"................................",
"................................",
"................................",
"................................",
"..................#.#...........",
"................##a#b##.........",
"..............##aaa#bbb##.......",
"..............#aaaa#bbbb#.......",
".............###aaa#bbb###......",
".............#bb##a#b##aa#......",
"............#bbbbb#.#aaaaa#.....",
"............#bbbbb#.#aaaaa#.....",
"............#bbbbb#.#aaaaa#.....",
".............####b#.#a####......",
"............#aaaa#...#bbbb#.....",
".........#..#aaaaa#.#bbbbb#.....",
"..........#.###aaa#.#bbbbb#.....",
"..........##bbb#aa#.#bb####.....",
".........#bb#bbb#a#.#b#aaaa##...",
"........#bb##bbbb#...#aaaaaaa##.",
"........#bb##bbbb#...#aaaaaaaa#.",
"........#bbbbbbbb#...#aaaaaaaa#.",
"........#bbbbbbb#.....#aaaaaaa#.",
".........#bbbbb#......#aaaaaa#..",
"..........#####........######...",
"................................",
"................................",
"................................"};
