/* XPM */
static char*w[]={
"32 32 4 1",
"# c #000000",
"a c #ffffc0",
"b c #ffffff",
". c None",
"................................",
"................................",
".............#..................",
".......#....#...................",
"........#..##...................",
".........##aa#..................",
"........#aaaaa#.................",
".......#a#aaaaa#................",
"......#a##aaaaa#................",
"......#a##aaaaaa#...............",
"......#aaaaaaaaa#...............",
".......#a##aaaaa#...............",
"........##aaaa##................",
".......#bb####bb#...............",
"........#b#bbbb#b#..............",
"........#bbbbbbbb#..............",
".........##bbbb##...............",
"........#aa####aa#..............",
".........#a#aaaa#a#.............",
".........#aaaaaaaa#.............",
"..........##aaaa##..............",
".........#bb####bb#.............",
"..........#b#bbbb#b#............",
"..........#bbbbbbbb##...........",
"..........###bbbb##aa#..........",
"..........#aa####aaaa#..........",
"..........#aaaaaaaaaa#..........",
"...........#aaaaaaa##...........",
"............########............",
"................................",
"................................",
"................................"};
