/* XPM */
static char*w[]={
"32 32 4 1",
"# c #000000",
"b c #ffffc0",
"a c #ffffff",
". c None",
"................................",
"................................",
"................................",
"................................",
"................................",
"................................",
"................................",
"................................",
"................................",
"................######..........",
"...............#aa#bbb#.........",
"..............#aaaa#bbb#........",
".............#aaaa#bbbbb#.......",
"............#b###a##b###a#......",
"............#bbbb#..#aaaa#......",
"...........#bbbbb#..#aaaa#......",
"...........#bbbb#....#aaaa#.....",
"...........####b#....#a###......",
"...........#aaa##.....#bbb#.....",
"......#...#aaaa#.....#bbbb#.....",
".......#.###aaa#.....#bbbb#.....",
".......##bbb#aa#.....#b####.....",
"......#bb#bbb#a#......#aaaa##...",
".....#bb##bbbb#......#aaaaaaa##.",
".....#bb##bbbb#......#aaaaaaaa#.",
".....#bbbbbbbb#......#aaaaaaaa#.",
".....#bbbbbbb#........#aaaaaaa#.",
"......#bbbbb#.........#aaaaaa#..",
".......#####...........######...",
"................................",
"................................",
"................................"};
