/* XPM */
static char*w[]={
"32 32 4 1",
"# c #000000",
"a c #ffffc0",
"b c #ffffff",
". c None",
"................................",
"................................",
"................................",
"................................",
"................................",
"................................",
"................................",
"................................",
"................................",
"..........######................",
".........#aaa#bb#...............",
"........#aaa#bbbb#..............",
".......#aaaaa#bbbb#.............",
"......#b###a##b###a#............",
"......#bbbb#..#aaaa#............",
"......#bbbb#..#aaaaa#...........",
".....#bbbb#....#aaaa#...........",
"......###b#....#a####...........",
".....#aaa#.....##bbb#...........",
".....#aaaa#.....#bbbb#...#......",
".....#aaaa#.....#bbb###.#.......",
".....####a#.....#bb#aaa##.......",
"...##bbbb#......#b#aaa#aa#......",
".##bbbbbbb#......#aaaa##aa#.....",
".#bbbbbbbb#......#aaaa##aa#.....",
".#bbbbbbbb#......#aaaaaaaa#.....",
".#bbbbbbb#........#aaaaaaa#.....",
"..#bbbbbb#.........#aaaaa#......",
"...######...........#####.......",
"................................",
"................................",
"................................"};
