/* XPM */
static char*w[]={
"32 32 4 1",
"# c #000000",
"a c #ffffc0",
"b c #ffffff",
". c None",
"................................",
"................................",
"................................",
"................................",
"................................",
"................................",
"................................",
"................................",
"...........#.#..................",
".........##a#b##................",
".......##aaa#bbb##..............",
".......#aaaa#bbbb#..............",
"......###aaa#bbb###.............",
"......#bb##a#b##aa#.............",
".....#bbbbb#.#aaaaa#............",
".....#bbbbb#.#aaaaa#............",
".....#bbbbb#.#aaaaa#............",
"......####b#.#a####.............",
".....#aaaa#...#bbbb#............",
".....#aaaaa#.#bbbbb#..#.........",
".....#aaaaa#.#bbb###.#..........",
".....####aa#.#bb#aaa##..........",
"...##bbbb#a#.#b#aaa#aa#.........",
".##bbbbbbb#...#aaaa##aa#........",
".#bbbbbbbb#...#aaaa##aa#........",
".#bbbbbbbb#...#aaaaaaaa#........",
".#bbbbbbb#.....#aaaaaaa#........",
"..#bbbbbb#......#aaaaa#.........",
"...######........#####..........",
"................................",
"................................",
"................................"};
