/* XPM */
static char*w[]={
"32 32 4 1",
"# c #000000",
"a c #ffffc0",
"b c #ffffff",
". c None",
"................................",
"................................",
"................................",
"................................",
"................................",
"................................",
"................................",
"................................",
"................................",
"................................",
"................................",
"................................",
"................................",
".............#####..............",
"...........##aaa#b##............",
"..........#aaaaa#bbb#...........",
".........#b##aa#bbbb##..........",
"........#bbbb#a##bb#aa#.........",
".......#a#bbbb#..##aaa##........",
"......#aaa##b#....#aa#bb#....#..",
".....#aaaaaa#......##bbb###.#...",
".....####aaa#......#bbb#aaa##...",
"...##bbbb#a#........#b#aaa#aa#..",
".##bbbbbbb#..........#aaaa##aa#.",
".#bbbbbbbb#..........#aaaa##aa#.",
".#bbbbbbbb#..........#aaaaaaaa#.",
".#bbbbbbb#............#aaaaaaa#.",
"..#bbbbbb#.............#aaaaa#..",
"...######...............#####...",
"................................",
"................................",
"................................"};
