/* XPM */
static char*w[]={
"32 32 4 1",
"# c #000000",
"a c #ffffc0",
"b c #ffffff",
". c None",
"................................",
"................................",
"..................#.............",
"...................#....#.......",
"...................##..#........",
"..................#aa##.........",
".................#aaaaa#........",
"................#aaaaa#a#.......",
"................#aaaaa##a#......",
"...............#aaaaaa##a#......",
"...............#aaaaaaaaa#......",
"...............#aaaaa##a#.......",
"................##aaaa##........",
"...............#bb####bb#.......",
"..............#b#bbbb#b#........",
"..............#bbbbbbbb#........",
"...............##bbbb##.........",
"..............#aa####aa#........",
".............#a#aaaa#a#.........",
".............#aaaaaaaa#.........",
"..............##aaaa##..........",
".............#bb####bb#.........",
"............#b#bbbb#b#..........",
"...........##bbbbbbbb#..........",
"..........#aa##bbbb###..........",
"..........#aaaa####aa#..........",
"..........#aaaaaaaaaa#..........",
"...........##aaaaaaa#...........",
"............########............",
"................................",
"................................",
"................................"};
