/* XPM */
static char*w[]={
"32 32 4 1",
"# c #000000",
"b c #ffffc0",
"a c #ffffff",
". c None",
"................................",
"................................",
"................................",
"................................",
"................................",
"................................",
"................................",
"................................",
"................................",
"................................",
"................................",
"................................",
"................................",
"................................",
"................................",
"................................",
"................................",
"..............####..............",
"............##aaaa##............",
"...........#aa####aa#...........",
"..........#a##bbbb##a#..........",
"..........#a##bbbb##a#..........",
".........#a#bbbbbbbb#a#.........",
".........#a#bb#bb#bb#a#.........",
".........#a#b#bbbb#b#a#.........",
".........#a#bbbbbbbb#a#.........",
"..........#a##b##b##a#..........",
"...........#aa####aa#...........",
"............########............",
"................................",
"................................",
"................................"};
