/* XPM */
static char * yy0_xpm[] = {
"32 32 80 1",
" 	c None",
".	c #222222",
"+	c #3F3F3F",
"@	c #373737",
"#	c #2D2D2D",
"$	c #2B2B2B",
"%	c #262626",
"&	c #202020",
"*	c #1A1A1A",
"=	c #565656",
"-	c #434343",
";	c #676767",
">	c #8D8D8D",
",	c #B2B2B2",
"'	c #C7C7C7",
")	c #CFCFCF",
"!	c #C4C4C4",
"~	c #ACACAC",
"{	c #8C8C8C",
"]	c #313131",
"^	c #080808",
"/	c #1B1B1B",
"(	c #C1C1C1",
"_	c #DDDDDD",
":	c #EAEAEA",
"<	c #F3F3F3",
"[	c #F9F9F9",
"}	c #FCFCFC",
"|	c #B0B0B0",
"1	c #3E3E3E",
"2	c #000000",
"3	c #4A4A4A",
"4	c #757575",
"5	c #BDBDBD",
"6	c #E6E6E6",
"7	c #F7F7F7",
"8	c #FEFEFE",
"9	c #B6B6B6",
"0	c #232323",
"a	c #404040",
"b	c #939393",
"c	c #D9D9D9",
"d	c #F6F6F6",
"e	c #FDFDFD",
"f	c #464646",
"g	c #070707",
"h	c #414141",
"i	c #989898",
"j	c #E1E1E1",
"k	c #FAFAFA",
"l	c #DADADA",
"m	c #D3D3D3",
"n	c #E0E0E0",
"o	c #FBFBFB",
"p	c #4D4D4D",
"q	c #D2D2D2",
"r	c #2A2A2A",
"s	c #020202",
"t	c #1C1C1C",
"u	c #828282",
"v	c #363636",
"w	c #BEBEBE",
"x	c #F5F5F5",
"y	c #EBEBEB",
"z	c #B3B3B3",
"A	c #F4F4F4",
"B	c #D0D0D0",
"C	c #292929",
"D	c #AFAFAF",
"E	c #D6D6D6",
"F	c #D1D1D1",
"G	c #999999",
"H	c #2F2F2F",
"I	c #030303",
"J	c #3A3A3A",
"K	c #111111",
"L	c #4E4E4E",
"M	c #010101",
"N	c #050505",
"O	c #060606",
"            .+@#$%&*            ",
"         =-;>,'))!~{;]^         ",
"       /-{(_:<[}}[<:_|1^2       ",
"      34567}88888888}<9022      ",
"     abcde88888eee888ecfg22     ",
"    hijk8888887lml7888d90222    ",
"   3bno888888elp$ple88eqr2222   ",
"  /4ck8888888em$s$me88emr22222  ",
"  a5788888888elp$ple88emr22222  ",
" tu6e8888888887lml7888eqr222222 ",
" vw788888888888eee8888x90222222 ",
" ;_e88888888888888888d5+g222222 ",
".>y88888888888888888d5+g22222222",
"+zA88888888888888eex5+g222222222",
"@'[888888888888edlq9+g2222222222",
"#B}88888888eeedc9fr.g22222222222",
"#B}8888888dlmq9f0g22222222222222",
"@'[888888d5frC.g2222222222222222",
"+zA88888d5+g22222222222222222222",
".>y8888ecfg222222222222222222222",
" ;_e888d90222222222222222222222 ",
" vw788elfg222222222222222222222 ",
" tu6e8emr22222g.C.g222222222222 ",
"  a578emr222220DqD022222222222  ",
"  /4ckemr22222rq}qr22222222222  ",
"   3bnkmr222220DqD02222222222   ",
"    hinEfg2222g.C.g222222222    ",
"     abFD.22222222222222222     ",
"      34GHI222222222222222      ",
"       /JpK22222222222222       ",
"         LK2MNM22222222         ",
"            O/O22222            "};
