/* XPM */
static char * yy105_xpm[] = {
"32 32 65 1",
" 	c None",
".	c #020202",
"+	c #E2E2E2",
"@	c #B6B6B6",
"#	c #8A8A8A",
"$	c #5E5E5E",
"%	c #4A4A4A",
"&	c #363636",
"*	c #2A2A2A",
"=	c #1E1E1E",
"-	c #EAEAEA",
";	c #C6C6C6",
">	c #1A1A1A",
",	c #EEEEEE",
"'	c #7E7E7E",
")	c #929292",
"!	c #F2F2F2",
"~	c #121212",
"{	c #CECECE",
"]	c #9A9A9A",
"^	c #F6F6F6",
"/	c #0A0A0A",
"(	c #6E6E6E",
"_	c #FAFAFA",
":	c #D2D2D2",
"<	c #AAAAAA",
"[	c #4E4E4E",
"}	c #D6D6D6",
"|	c #FEFEFE",
"1	c #626262",
"2	c #C2C2C2",
"3	c #3A3A3A",
"4	c #525252",
"5	c #9E9E9E",
"6	c #DEDEDE",
"7	c #060606",
"8	c #A6A6A6",
"9	c #262626",
"0	c #424242",
"a	c #666666",
"b	c #BABABA",
"c	c #2E2E2E",
"d	c #565656",
"e	c #767676",
"f	c #828282",
"g	c #B2B2B2",
"h	c #0E0E0E",
"i	c #5A5A5A",
"j	c #DADADA",
"k	c #6A6A6A",
"l	c #E6E6E6",
"m	c #222222",
"n	c #CACACA",
"o	c #323232",
"p	c #A2A2A2",
"q	c #969696",
"r	c #BEBEBE",
"s	c #868686",
"t	c #161616",
"u	c #464646",
"v	c #8E8E8E",
"w	c #3E3E3E",
"x	c #AEAEAE",
"y	c #727272",
"z	c #7A7A7A",
"            0ww1$iwc            ",
"         d$e)<2;r;;8zdw         ",
"       0a#r}l!_^^^_!+{8k        ",
"      %'@6^_|||||||_|^lrsw      ",
"     w#;6!|_|||||||||||!jpi     ",
"    u1pq)g}+,^||||||||||_-<d    ",
"   moco*=mwk56_||||||||||_l8i   ",
"   77.....7h*)}^_|||||||||_}v0  ",
"  7.........7ma}_||||||||||^2k  ",
" >/...........*),||||||||||_-5i ",
" 7............h4;_||||||||||_{a ",
" .....7~/......c<!||||||||||_6s ",
"...../3k%>.....*{_|||||||||||-5d",
".....tf:;ah.../4j||||||||||||^ba",
".....=5+}d/.../d{_|||||||||||_{[",
".....hiqp9.....cg!||||__|||||^;k",
"......h>>/.....m@^||||,n}l^||^2$",
"...............tyl|||_{%w'l_|^;i",
"...............tfl|||!pm~i6_|^;&",
" ..............tq-_||!<%&s-||,5c",
" ............../4}_||_l}b:^|_jy ",
" ...............9v-|||||^_||^20 ",
"  ............../[r_|||||||_+v= ",
"  ...............=f+_||||||!@a  ",
"   ..............7&@6-^|_!,;(   ",
"   .............../oa)b:np8d=   ",
"    ................h>9w%*>~    ",
"     ..................//..     ",
"      ....................      ",
"        ................        ",
"         ..............         ",
"             ......             "};
