/* XPM */
static char * yy120_xpm[] = {
"32 32 65 1",
" 	c None",
".	c #020202",
"+	c #DEDEDE",
"@	c #B2B2B2",
"#	c #7E7E7E",
"$	c #626262",
"%	c #464646",
"&	c #323232",
"*	c #262626",
"=	c #E2E2E2",
"-	c #1E1E1E",
";	c #E6E6E6",
">	c #BEBEBE",
",	c #161616",
"'	c #EEEEEE",
")	c #8A8A8A",
"!	c #F2F2F2",
"~	c #C6C6C6",
"{	c #929292",
"]	c #F6F6F6",
"^	c #0E0E0E",
"/	c #767676",
"(	c #5A5A5A",
"_	c #CACACA",
":	c #A6A6A6",
"<	c #FAFAFA",
"[	c #CECECE",
"}	c #0A0A0A",
"|	c #3E3E3E",
"1	c #525252",
"2	c #666666",
"3	c #FEFEFE",
"4	c #D6D6D6",
"5	c #969696",
"6	c #060606",
"7	c #6E6E6E",
"8	c #BABABA",
"9	c #A2A2A2",
"0	c #363636",
"a	c #4A4A4A",
"b	c #2E2E2E",
"c	c #AEAEAE",
"d	c #868686",
"e	c #9A9A9A",
"f	c #DADADA",
"g	c #1A1A1A",
"h	c #121212",
"i	c #222222",
"j	c #B6B6B6",
"k	c #7A7A7A",
"l	c #EAEAEA",
"m	c #AAAAAA",
"n	c #D2D2D2",
"o	c #9E9E9E",
"p	c #424242",
"q	c #C2C2C2",
"r	c #5E5E5E",
"s	c #6A6A6A",
"t	c #3A3A3A",
"u	c #4E4E4E",
"v	c #565656",
"w	c #828282",
"x	c #2A2A2A",
"y	c #727272",
"z	c #8E8E8E",
"            ur$r1(p1            ",
"         %$ke@_~n~~:z/t         ",
"       a|#j_l'<<<]<'=njsb       ",
"      i|%w9@+]3333333<'f9(      ",
"     .6^,-bbs>=]33333333;>7     ",
"    ^.......,bdf!3333333<'j2    ",
"   }}........6i7+<3333333<l8v   ",
"   ............tm'<33333333=ea  ",
"  .............h|[<33333333<fk  ",
" ......},^......x:]33333333<]c( ",
" .....^p5(g.....hz'333333333<n# ",
" .....-e+_$}....g/;333333333<le ",
"i.....&@=n%}...6x>!3333333333!j%",
"......h0w/g....,/=33333333333<~s",
".......},h.....g5'33333333333<47",
"...............-z'33333333333<4s",
"...............ij!33333333333<+s",
"...............*e!3333<]<3333<[/",
"i.............}|n<333![8=]333]_u",
" .............^/+<333f20/4<33'9$",
" .............^v+333]m&6|>]33={ ",
" ..............t8<33]_stk=33<ns ",
"  .............i:]333!f@4]3<l:0 ",
"  .............,/=33333]<33<n1  ",
"   ............}%[33333333]4dx  ",
"   .............x{f!33333]+o&   ",
"     ...........^i$j=!]]<+e1    ",
"     .............,xkj9>m)a     ",
"      ..............g*xbbg      ",
"        ...............66       ",
"          .............         ",
"             ......             "};
