/* XPM */
static char * yy135_xpm[] = {
"32 32 64 1",
" 	c None",
".	c #020202",
"+	c #DADADA",
"@	c #AEAEAE",
"#	c #7A7A7A",
"$	c #5E5E5E",
"%	c #4E4E4E",
"&	c #3A3A3A",
"*	c #262626",
"=	c #E2E2E2",
"-	c #1A1A1A",
";	c #EAEAEA",
">	c #BABABA",
",	c #9E9E9E",
"'	c #EEEEEE",
")	c #121212",
"!	c #F2F2F2",
"~	c #969696",
"{	c #BEBEBE",
"]	c #F6F6F6",
"^	c #0E0E0E",
"/	c #666666",
"(	c #C2C2C2",
"_	c #FAFAFA",
":	c #CACACA",
"<	c #8A8A8A",
"[	c #0A0A0A",
"}	c #6A6A6A",
"|	c #CECECE",
"1	c #FEFEFE",
"2	c #2E2E2E",
"3	c #7E7E7E",
"4	c #464646",
"5	c #060606",
"6	c #525252",
"7	c #6E6E6E",
"8	c #D2D2D2",
"9	c #222222",
"0	c #5A5A5A",
"a	c #A2A2A2",
"b	c #B2B2B2",
"c	c #828282",
"d	c #767676",
"e	c #424242",
"f	c #AAAAAA",
"g	c #363636",
"h	c #DEDEDE",
"i	c #E6E6E6",
"j	c #D6D6D6",
"k	c #161616",
"l	c #B6B6B6",
"m	c #626262",
"n	c #565656",
"o	c #2A2A2A",
"p	c #868686",
"q	c #727272",
"r	c #1E1E1E",
"s	c #8E8E8E",
"t	c #C6C6C6",
"u	c #3E3E3E",
"v	c #9A9A9A",
"w	c #323232",
"x	c #4A4A4A",
"y	c #A6A6A6",
"            2n/ddqm$            ",
"         )oen<>{tt:@sqe         ",
"       ^..[-udf:i!]'=|l<        ",
"      [^...5)9w#|!11__'|y7      ",
"      .5.......2c|]1111!=t3     ",
"    ...........[*ch]11111!t#    ",
"   .............[&a'111111!(q   ",
"   ......))[.....*ph_11111_ibm  ",
"  )....59n#g5....)6:]111111_j<  ",
" ......k$>(d9....5u(_111111_'>q ",
" ......kq8jco....[4>_11111111+c ",
" ......[o3~u)....)0(!1111111_;f ",
"........[-o^....5*~=_11111111!{$",
"5..............523j]111111111_|#",
"r..............^n>!11111111111hp",
"...............kq8_1111111111_+<",
"..............5ol'_1111111111_jc",
"..............)%b]11111111111_jc",
".............[&~=_11111111111_87",
".............[0:]111]i=]11111'>}",
" ............^n+1111=,~8!111_=, ",
" ............)m|_11ia42#=_11]8c ",
"  ...........)}8_1_iv&*mj_11;f6 ",
"   ..........^$8_11]:cdb;_1!ts  ",
"   ..........^68_111!8+;_1]hv/  ",
"   ..........^4b;_111__11_;@6   ",
"     ........5knbi_1111_!h@m    ",
"     ..........-nb;]_1_'|~n     ",
"       ........5k0@@jh+bce      ",
"         .......5k*xqp3$%       ",
"         ..........^-9-         ",
"             ......             "};
