/* XPM */
static char * yy15_xpm[] = {
"32 32 65 1",
" 	c None",
".	c #020202",
"+	c #E2E2E2",
"@	c #AEAEAE",
"#	c #7E7E7E",
"$	c #5E5E5E",
"%	c #424242",
"&	c #323232",
"*	c #262626",
"=	c #EAEAEA",
"-	c #1A1A1A",
";	c #BABABA",
">	c #EEEEEE",
",	c #8A8A8A",
"'	c #C6C6C6",
")	c #121212",
"!	c #F2F2F2",
"~	c #929292",
"{	c #767676",
"]	c #F6F6F6",
"^	c #525252",
"/	c #0E0E0E",
"(	c #CACACA",
"_	c #969696",
":	c #FAFAFA",
"<	c #CECECE",
"[	c #626262",
"}	c #0A0A0A",
"|	c #9A9A9A",
"1	c #363636",
"2	c #4E4E4E",
"3	c #6E6E6E",
"4	c #DADADA",
"5	c #9E9E9E",
"6	c #FEFEFE",
"7	c #060606",
"8	c #BEBEBE",
"9	c #3E3E3E",
"0	c #2E2E2E",
"a	c #4A4A4A",
"b	c #222222",
"c	c #5A5A5A",
"d	c #666666",
"e	c #A6A6A6",
"f	c #B2B2B2",
"g	c #D2D2D2",
"h	c #E6E6E6",
"i	c #868686",
"j	c #6A6A6A",
"k	c #3A3A3A",
"l	c #1E1E1E",
"m	c #161616",
"n	c #2A2A2A",
"o	c #DEDEDE",
"p	c #C2C2C2",
"q	c #7A7A7A",
"r	c #D6D6D6",
"s	c #8E8E8E",
"t	c #565656",
"u	c #828282",
"v	c #B6B6B6",
"w	c #464646",
"x	c #727272",
"y	c #AAAAAA",
"z	c #A2A2A2",
"            %d2[$c90            ",
"         t${_f''8''eqab         ",
"       %d,8rh!:]!]]>+(5d        ",
"      a#f+]::6666666:]h8u0      ",
"     %,g>:6666666666666!r{l     ",
"    2s4]66666666:>o+!:66]p17    ",
"   0ir]:66666666>z$qp]66](k..   ",
"   d<]6666666666+j-n~>666o3/..  ",
"  2e>:6666666666+$*1f!66:oj/..  ",
" 9ig]66666666666]re_+66664w}... ",
" 1;!6666666666666:!>:666];*.... ",
" ^r:66666666666666666666=s-.... ",
"0q+6666666666666666666:='c/.....",
"kz>6666666666666666::!g|%)......",
"9f!66666666!:::]]==>+y[*7.......",
"%e!666666]rf'4r;;iu_3&).........",
"[e>6666]h@d&n2d&bmm-/7..........",
"&z>666:+,k)..}/7................",
"*~>666=e%/......................",
" 34:6]'k7.......................",
" cp]6=_-....................... ",
" ^e=6+d).....}}................ ",
"  {g:r97....mttn/.............. ",
"  tzo;n.....*f4v&.............  ",
"   jv@%....7%'>8*............   ",
"   aqz^/...7n{z#-............   ",
"    &d97....}mlm7...........    ",
"     %%/...................     ",
"      &}..................      ",
"        .7..............        ",
"         -}............         ",
"             ......             "};
