/* XPM */
static char * yy150_xpm[] = {
"32 32 63 1",
" 	c None",
".	c #020202",
"+	c #DEDEDE",
"@	c #B2B2B2",
"#	c #7A7A7A",
"$	c #5E5E5E",
"%	c #464646",
"&	c #363636",
"*	c #262626",
"=	c #E6E6E6",
"-	c #1A1A1A",
";	c #BEBEBE",
">	c #EAEAEA",
",	c #9E9E9E",
"'	c #EEEEEE",
")	c #121212",
"!	c #F2F2F2",
"~	c #868686",
"{	c #C2C2C2",
"]	c #F6F6F6",
"^	c #0E0E0E",
"/	c #CACACA",
"(	c #6E6E6E",
"_	c #565656",
":	c #FAFAFA",
"<	c #929292",
"[	c #CECECE",
"}	c #0A0A0A",
"|	c #D6D6D6",
"1	c #525252",
"2	c #424242",
"3	c #626262",
"4	c #FEFEFE",
"5	c #A6A6A6",
"6	c #2A2A2A",
"7	c #222222",
"8	c #6A6A6A",
"9	c #B6B6B6",
"0	c #060606",
"a	c #7E7E7E",
"b	c #3A3A3A",
"c	c #9A9A9A",
"d	c #8E8E8E",
"e	c #4A4A4A",
"f	c #727272",
"g	c #E2E2E2",
"h	c #323232",
"i	c #DADADA",
"j	c #161616",
"k	c #AEAEAE",
"l	c #1E1E1E",
"m	c #D2D2D2",
"n	c #BABABA",
"o	c #666666",
"p	c #969696",
"q	c #8A8A8A",
"r	c #828282",
"s	c #3E3E3E",
"t	c #2E2E2E",
"u	c #5A5A5A",
"v	c #AAAAAA",
"w	c #4E4E4E",
"x	c #767676",
"            07weu3$e            ",
"         ^^..^635{@,#3%         ",
"       .......07#@+=|;q%&       ",
"      .........0-_i4:!+k(t      ",
"     ............ld=44:![a3     ",
"    .............}b[]444!mqs    ",
"   ......}lt).....-ag4444![qb   ",
"  ......}%c@&0....}ug:4444][_   ",
"  ......jpigrj....^8i:4444:>5t  ",
" .......^$/|f)....02|444444:|(b ",
" ........l$%-.....^oi4444444>v& ",
" ........0}}......j<'4444444!nu ",
".................js9:4444444]|or",
"...............0l({>:44444444ga8",
"...............-~i!4444444444><%",
"..............^%n:44444444444'<&",
"..............h9=44444444444:!cu",
"............}*xi:444444444444=<o",
"............*<+]444444444444:+r ",
"...........0%/:4444444444444:/8 ",
" ..........)(+44444!:4444444]@% ",
" ..........-,!444!iv/!444444g<1 ",
" .........0&9:44:[8h8i44444]{3  ",
"  ........}em:44]9&0b9]444:g~6  ",
"  ........^(i4444+#b#|:44:=@8   ",
"   .......0t{!444]|;+]44:'n$1   ",
"    .......j(+4444:]444:>9f     ",
"     .......*v>:444444:g;(7     ",
"      ......)1{>:44]]=|d%s      ",
"       ......j2~m==m9<w6        ",
"         .....}7$~afe7          ",
"             ...j)&             "};
