/* XPM */
static char * yy165_xpm[] = {
"32 32 65 1",
" 	c None",
".	c #020202",
"+	c #DEDEDE",
"@	c #A6A6A6",
"#	c #767676",
"$	c #5A5A5A",
"%	c #464646",
"&	c #363636",
"*	c #262626",
"=	c #E2E2E2",
"-	c #CECECE",
";	c #EAEAEA",
">	c #1A1A1A",
",	c #828282",
"'	c #EEEEEE",
")	c #121212",
"!	c #AEAEAE",
"~	c #F2F2F2",
"{	c #9A9A9A",
"]	c #6A6A6A",
"^	c #F6F6F6",
"/	c #B2B2B2",
"(	c #0A0A0A",
"_	c #FAFAFA",
":	c #C2C2C2",
"<	c #868686",
"[	c #4A4A4A",
"}	c #424242",
"|	c #FEFEFE",
"1	c #8A8A8A",
"2	c #D2D2D2",
"3	c #060606",
"4	c #B6B6B6",
"5	c #626262",
"6	c #525252",
"7	c #2E2E2E",
"8	c #929292",
"9	c #7E7E7E",
"0	c #D6D6D6",
"a	c #A2A2A2",
"b	c #6E6E6E",
"c	c #BEBEBE",
"d	c #222222",
"e	c #3E3E3E",
"f	c #0E0E0E",
"g	c #CACACA",
"h	c #161616",
"i	c #E6E6E6",
"j	c #727272",
"k	c #5E5E5E",
"l	c #DADADA",
"m	c #9E9E9E",
"n	c #AAAAAA",
"o	c #2A2A2A",
"p	c #1E1E1E",
"q	c #4E4E4E",
"r	c #8E8E8E",
"s	c #565656",
"t	c #BABABA",
"u	c #3A3A3A",
"v	c #C6C6C6",
"w	c #666666",
"x	c #7A7A7A",
"y	c #969696",
"z	c #323232",
"            .(f..h}[            ",
"         ........f7k9#k         ",
"       ...........)[{cn,        ",
"      .............oj:l:85      ",
"     .......33.....3&!'~0@$     ",
"    .......h7&d(....h<i_^=ak    ",
"   .......(qr!]h....)$l_|_+{}   ",
"  ........)wv=ro....(qt^||~-<5  ",
"  ........3}ng#>....3[c~|||;4w  ",
" .........3>}&*3....)]l_|||_lrq ",
" ...........(33....3pb=|||||^:q ",
" ..................(%a;_||||^-# ",
"..................fd90_||||||=1e",
"................f*6#:^|||||||im[",
"..............3>6ycl~||||||||'/}",
"..............psm+~_|||||||||;nk",
"............fd$:i_|||||||||||;aj",
"...........h68ci|||||||||||||;{b",
"..........(u{l^_||||||||||||_=r}",
" .........hj2_||||||||||||||_29u",
" ........f%/'|||||_||||||||_~t# ",
" ........o90_|__'++^||||||||=yb ",
" .......(qt~_|_+@,ml_|||||_~:x  ",
"  ......(62_||^:$oqt~|||||_l8$  ",
"   .....(}c^||_25d%/^||||_i!]   ",
"   ......z{'|||;!,a+^|||_;tb    ",
"    .....>,+_||_;='_|__^=tb&    ",
"     ....([v~_||_||||_'2a9      ",
"      ...3p5t'_|____'+t1bs      ",
"         .3d]4+=+ll-n85&        ",
"         ..(7$91r<b$s}e         ",
"             )& q*              "};
