/* XPM */
static char * yy180_xpm[] = {
"32 32 80 1",
" 	c None",
".	c #000000",
"+	c #060606",
"@	c #1B1B1B",
"#	c #010101",
"$	c #050505",
"%	c #111111",
"&	c #4E4E4E",
"*	c #4D4D4D",
"=	c #3A3A3A",
"-	c #030303",
";	c #2F2F2F",
">	c #999999",
",	c #757575",
"'	c #4A4A4A",
")	c #222222",
"!	c #AFAFAF",
"~	c #D1D1D1",
"{	c #939393",
"]	c #404040",
"^	c #070707",
"/	c #292929",
"(	c #464646",
"_	c #D6D6D6",
":	c #E0E0E0",
"<	c #989898",
"[	c #414141",
"}	c #232323",
"|	c #D2D2D2",
"1	c #2A2A2A",
"2	c #D3D3D3",
"3	c #FAFAFA",
"4	c #FCFCFC",
"5	c #FDFDFD",
"6	c #D9D9D9",
"7	c #FEFEFE",
"8	c #F7F7F7",
"9	c #BDBDBD",
"0	c #E6E6E6",
"a	c #828282",
"b	c #1C1C1C",
"c	c #DADADA",
"d	c #BEBEBE",
"e	c #363636",
"f	c #B6B6B6",
"g	c #F6F6F6",
"h	c #DDDDDD",
"i	c #676767",
"j	c #EBEBEB",
"k	c #8D8D8D",
"l	c #3F3F3F",
"m	c #F4F4F4",
"n	c #B3B3B3",
"o	c #F9F9F9",
"p	c #C7C7C7",
"q	c #373737",
"r	c #D0D0D0",
"s	c #2D2D2D",
"t	c #F5F5F5",
"u	c #2B2B2B",
"v	c #020202",
"w	c #FBFBFB",
"x	c #E1E1E1",
"y	c #F3F3F3",
"z	c #080808",
"A	c #3E3E3E",
"B	c #B0B0B0",
"C	c #EAEAEA",
"D	c #C1C1C1",
"E	c #8C8C8C",
"F	c #434343",
"G	c #313131",
"H	c #ACACAC",
"I	c #C4C4C4",
"J	c #CFCFCF",
"K	c #B2B2B2",
"L	c #565656",
"M	c #1A1A1A",
"N	c #202020",
"O	c #262626",
"            .....+@+            ",
"         ........#$#.%&         ",
"       ..............%*=@       ",
"      ...............-;>,'      ",
"     .................)!~{]     ",
"    .........^)/)^....^(_:<[    ",
"   ..........}!|!}.....123:{'   ",
"  ...........1|4|1.....12536,@  ",
"  ...........}!|!}.....125789]  ",
" ............^)/)^.....125750ab ",
" .....................^(c5778de ",
" .....................}fg7775hi ",
".....................^(657777jk)",
"....................^l9g77777mnl",
"................^)/1(9g777777opq",
"..............^}(f|2cg77777774rs",
"...........^)1(f6g555777777774rs",
"..........^lf|cg5777777777777opq",
".........^l9t5577777777777777mnl",
"........^l9g77777777777777777jk)",
" ......^l9g777777777777777775hi ",
" ......}ft7777555777777777778de ",
" ......1|57778c2c877777777750ab ",
"  .....125775c*u*c57777777789]  ",
"  .....1257752uvu25777777736,@  ",
"   ....1|5775c*u*c5777777w:{'   ",
"    ...}fg7778c2c87777773x<[    ",
"     ..^(65777555777775g6{]     ",
"      ..}fy4777777774809,'      ",
"       .zABhCyo44oyChDEF@       ",
"         zGiEHIJJpKkiFL         ",
"            MNOusql)            "};
