/* XPM */
static char * yy195_xpm[] = {
"32 32 64 1",
" 	c None",
".	c #020202",
"+	c #060606",
"@	c #1A1A1A",
"#	c #262626",
"$	c #323232",
"%	c #464646",
"&	c #363636",
"*	c #222222",
"=	c #121212",
"-	c #2A2A2A",
";	c #767676",
">	c #525252",
",	c #626262",
"'	c #BEBEBE",
")	c #AAAAAA",
"!	c #0A0A0A",
"~	c #2E2E2E",
"{	c #A2A2A2",
"]	c #5A5A5A",
"^	c #929292",
"/	c #EAEAEA",
"(	c #DADADA",
"_	c #6A6A6A",
":	c #1E1E1E",
"<	c #8A8A8A",
"[	c #CACACA",
"}	c #8E8E8E",
"|	c #424242",
"1	c #161616",
"2	c #828282",
"3	c #CECECE",
"4	c #3E3E3E",
"5	c #E2E2E2",
"6	c #C2C2C2",
"7	c #BABABA",
"8	c #F2F2F2",
"9	c #9E9E9E",
"0	c #FAFAFA",
"a	c #666666",
"b	c #FEFEFE",
"c	c #DEDEDE",
"d	c #3A3A3A",
"e	c #EEEEEE",
"f	c #9A9A9A",
"g	c #4A4A4A",
"h	c #AEAEAE",
"i	c #B6B6B6",
"j	c #0E0E0E",
"k	c #868686",
"l	c #7A7A7A",
"m	c #565656",
"n	c #6E6E6E",
"o	c #F6F6F6",
"p	c #C6C6C6",
"q	c #969696",
"r	c #E6E6E6",
"s	c #D6D6D6",
"t	c #5E5E5E",
"u	c #D2D2D2",
"v	c #A6A6A6",
"w	c #727272",
"x	c #B2B2B2",
"y	c #4E4E4E",
"            ........            ",
"         ............+@         ",
"       ...............+.        ",
"      ..................+#      ",
"     ...................+$%     ",
"    ............@&*=.....-;>    ",
"   ............=,')>!....~){]   ",
"   ............@^/(_=....:<[}|  ",
"  .............123'4+....@^56_  ",
" ..............+@-|1.....#78/9] ",
" .................+.....+|(003a ",
" .......................1_5b0c2 ",
".......................!d{ebbefg",
".......................~h/bbb8i4",
"...............++j=!.14k50bbb03|",
"...........1#:#||llmdnhcobbbbop_",
".........=d;'hqp(rrcs(8bbbbbbopt",
".......j#_)co88000bb0bbbbbbbbop]",
"......=>{u8bbbbbbbbbbbbbbbbbbop&",
" ....+d68bbbbbbbbbbbbbbbbbbbbe9~",
" ....ja5bbbbbbbbbbbbbbbbbbbb0c; ",
" ....:qebbb0/re0bbbbbbbbbbbbop> ",
"  ...#'obb0r<2vr0bbbbbbbbbb05qd ",
"  ..+%ubbbbud1|60bbbbbbbbbb8ia  ",
"   .+4iobbo74@gsbbbbbbbbbbouw   ",
"   ..#9ebb0rhkfr0bbbbbbbb05^$   ",
"    .1^e0bb0e/80bbbbbbbbo(fg    ",
"     =|7/o0bb0bbbbbbbbbe[^%     ",
"      @>f[e0b0bbbbbb0ech;m      ",
"        gwvu5e888ee53xkm        ",
"         *#%w9x))h{2a]y         ",
"             &4|,%m             "};
