/* XPM */
static char * yy210_xpm[] = {
"32 32 64 1",
" 	c None",
".	c #020202",
"+	c #E2E2E2",
"@	c #B2B2B2",
"#	c #868686",
"$	c #5A5A5A",
"%	c #464646",
"&	c #363636",
"*	c #222222",
"=	c #E6E6E6",
"-	c #1A1A1A",
";	c #EAEAEA",
">	c #BEBEBE",
",	c #EEEEEE",
"'	c #929292",
")	c #7A7A7A",
"!	c #CACACA",
"~	c #F2F2F2",
"{	c #121212",
"]	c #A6A6A6",
"^	c #F6F6F6",
"/	c #6A6A6A",
"(	c #0A0A0A",
"_	c #D6D6D6",
":	c #FAFAFA",
"<	c #4A4A4A",
"[	c #2A2A2A",
"}	c #9E9E9E",
"|	c #565656",
"1	c #424242",
"2	c #FEFEFE",
"3	c #626262",
"4	c #DEDEDE",
"5	c #060606",
"6	c #525252",
"7	c #8A8A8A",
"8	c #323232",
"9	c #3E3E3E",
"0	c #AEAEAE",
"a	c #9A9A9A",
"b	c #D2D2D2",
"c	c #6E6E6E",
"d	c #C2C2C2",
"e	c #1E1E1E",
"f	c #7E7E7E",
"g	c #0E0E0E",
"h	c #B6B6B6",
"i	c #DADADA",
"j	c #CECECE",
"k	c #4E4E4E",
"l	c #727272",
"m	c #5E5E5E",
"n	c #8E8E8E",
"o	c #C6C6C6",
"p	c #BABABA",
"q	c #3A3A3A",
"r	c #A2A2A2",
"s	c #969696",
"t	c #2E2E2E",
"u	c #AAAAAA",
"v	c #666666",
"w	c #828282",
"x	c #262626",
"y	c #161616",
"            ........            ",
"         ..............         ",
"       ..................       ",
"      ...................(      ",
"     ....................55     ",
"    ...............5g.......    ",
"   ...............ev$e(....([   ",
"   ..............gkj_7-....511  ",
"  ...............gw_='-....{|/  ",
" ................(t#@9g....-r}$ ",
" .................(-[{.....*7of ",
" .........................5td+s ",
"*.........................-#+^h%",
".........................(%b::dc",
"..........{*8-g55.5.....g&};::_c",
"......5e8|l}>'63<k&-5.(*v]+:22_/",
".....{|ndb;,:;+iij!f&1|7j,222:i3",
".....[@;^222222:::^+odi=:2222:j3",
"....-)+2222222222222^:2222222^d1",
"1..(9j^2222222222222222222222~] ",
" ..-#=2222,+;222222222222222:+' ",
" ..e}^:2:;u3a4:2222222222222:b/ ",
"  .*s~22:i6e&r^2222222222222;]& ",
"  .[h^22:o<e8o^222222222222^_6  ",
"   *7+222;!wa=222222222222:_'8  ",
"   {kh,:22~;,:22222222222^4]<   ",
"     ch;:222222222222222:4a|    ",
"     -mh+2:222222222222,!sk     ",
"      *&n_=^^22222:2^,4pl8      ",
"        [|}>b=;~,,;+j0#k&       ",
"          q|l#]]0rawc$<         ",
"             <6m8<<             "};
