/* XPM */
static char * yy225_xpm[] = {
"32 32 62 1",
" 	c None",
".	c #020202",
"+	c #060606",
"@	c #0A0A0A",
"#	c #4A4A4A",
"$	c #161616",
"%	c #424242",
"&	c #4E4E4E",
"*	c #262626",
"=	c #0E0E0E",
"-	c #AAAAAA",
";	c #B2B2B2",
">	c #666666",
",	c #1A1A1A",
"'	c #121212",
")	c #767676",
"!	c #D6D6D6",
"~	c #E2E2E2",
"{	c #929292",
"]	c #3E3E3E",
"^	c #9A9A9A",
"/	c #5E5E5E",
"(	c #363636",
"_	c #2E2E2E",
":	c #1E1E1E",
"<	c #222222",
"[	c #525252",
"}	c #565656",
"|	c #828282",
"1	c #464646",
"2	c #3A3A3A",
"3	c #7E7E7E",
"4	c #A6A6A6",
"5	c #BEBEBE",
"6	c #B6B6B6",
"7	c #AEAEAE",
"8	c #BABABA",
"9	c #D2D2D2",
"0	c #868686",
"a	c #EEEEEE",
"b	c #F6F6F6",
"c	c #F2F2F2",
"d	c #DADADA",
"e	c #9E9E9E",
"f	c #8A8A8A",
"g	c #2A2A2A",
"h	c #323232",
"i	c #FEFEFE",
"j	c #A2A2A2",
"k	c #6A6A6A",
"l	c #C6C6C6",
"m	c #FAFAFA",
"n	c #7A7A7A",
"o	c #E6E6E6",
"p	c #969696",
"q	c #CACACA",
"r	c #6E6E6E",
"s	c #EAEAEA",
"t	c #626262",
"u	c #CECECE",
"v	c #C2C2C2",
"w	c #DEDEDE",
"            ........            ",
"         ..............         ",
"       ..................       ",
"      ....................      ",
"      .....................     ",
"    ........................    ",
"   ..................+++....@   ",
"  #.................$%&*.....+  ",
"  $................=#-;>,.....  ",
" ..................')!~{*+...+, ",
" ..................=]^-/$....@( ",
" ...................'_%:+...+<[ ",
".......++..++........+@.....'}|}",
".....@*]%]112*=.............,)-)",
"=...+<3455678{#<=+.........'2;90",
"(..@_39abbcbbd-0[2<@......$&e~!f",
"g.@h3!ciiiiiiba~d73h+..+@:&j~b!|",
"..$klciiiiiiiiimma!0(__h/n7omm!|",
" .<pamiiiccmiiiiimbd8^pjqdaiib9r",
" @1;ciims5-diiiiiiimcsscbmmiia6k",
" :tumiia;/&^oiiiiiiiiiiiiiiiiop ",
" $/vbimw|hgkqmiiiiiiiiiiiiiibur ",
"  }7siicv>[j~miiiiiiiiiiiiiis;% ",
"   )lcmms5;omiiiiiiiiiiiiimal^  ",
"   ]{wbimbbiiiiiiiiiiiiiiimw^>  ",
"   <#eoiiiiiiiiiiiiiiiiimis7}   ",
"     /7~bmiiiiiiiiiiiiiic~;/    ",
"     (t49smiiiiiiiiiiims9e/     ",
"       &|;dabmimimimbs~70[      ",
"         r{;l!osooowl-0t[       ",
"         1&>rf^ej4p|r[(         ",
"             1& r/[             "};
