/* XPM */
static char * yy240_xpm[] = {
"32 32 64 1",
" 	c None",
".	c #020202",
"+	c #E2E2E2",
"@	c #AEAEAE",
"#	c #7E7E7E",
"$	c #5E5E5E",
"%	c #464646",
"&	c #323232",
"*	c #222222",
"=	c #E6E6E6",
"-	c #B6B6B6",
";	c #1A1A1A",
">	c #EEEEEE",
",	c #BABABA",
"'	c #8E8E8E",
")	c #121212",
"!	c #F2F2F2",
"~	c #C2C2C2",
"{	c #929292",
"]	c #F6F6F6",
"^	c #CECECE",
"/	c #727272",
"(	c #9A9A9A",
"_	c #565656",
":	c #0A0A0A",
"<	c #DADADA",
"[	c #FAFAFA",
"}	c #9E9E9E",
"|	c #666666",
"1	c #424242",
"2	c #2A2A2A",
"3	c #FEFEFE",
"4	c #4E4E4E",
"5	c #D6D6D6",
"6	c #6A6A6A",
"7	c #A2A2A2",
"8	c #060606",
"9	c #868686",
"0	c #363636",
"a	c #AAAAAA",
"b	c #767676",
"c	c #161616",
"d	c #4A4A4A",
"e	c #DEDEDE",
"f	c #262626",
"g	c #6E6E6E",
"h	c #3A3A3A",
"i	c #EAEAEA",
"j	c #1E1E1E",
"k	c #0E0E0E",
"l	c #D2D2D2",
"m	c #A6A6A6",
"n	c #B2B2B2",
"o	c #CACACA",
"p	c #5A5A5A",
"q	c #2E2E2E",
"r	c #828282",
"s	c #525252",
"t	c #BEBEBE",
"u	c #969696",
"v	c #7A7A7A",
"w	c #626262",
"x	c #C6C6C6",
"y	c #8A8A8A",
"            ........            ",
"         ..............         ",
"       ..................       ",
"      ....................      ",
"     ......................     ",
"    ........................    ",
"   ..........................   ",
"  ............................  ",
"  ...................)*&).....  ",
" ...................ks@n&8...8c ",
" ....8c;c:..........c(+ev)...8: ",
" ...cq#7vd0;).......)wxo|k..... ",
"..kfg~+!+5-(g28......jp0c.....8k",
".81me!333[[!5yf.......:8......*1",
".f#+333333333<b1)...........8j%%",
":65]33333333[]=n%*8.........)|y2",
"2(!3333>>!33333>^yj........kh@(d",
"0,]33[+nv^!33333[5_).....:jsal(d",
"sm>33]{&2v=333333>nd2c;;*h'<ier ",
"&y=[3im*cd5[333333>l@{ra{^=[]^6 ",
" w^]3[e/6,>33333333[[!>>![33!n$ ",
" fn!33!++![3333333333[333333e9d ",
" f|<333[[33333333333333333[>,4  ",
"  qm=[33333333333333333333[og0  ",
"   pt>3333333333333333333]+u0   ",
"   hg-i3333333333333333[]+u4    ",
"    &|,=]33333333333333[5m_     ",
"      gm<!]333333333[[il{d2     ",
"      _sv@li![[[[[]!+lms&       ",
"        *p#(-x5<<^~m{60         ",
"           4  66ww1w*h          ",
"            60 *%%6             "};
