/* XPM */
static char * yy255_xpm[] = {
"32 32 65 1",
" 	c None",
".	c #020202",
"+	c #DADADA",
"@	c #A6A6A6",
"#	c #727272",
"$	c #5A5A5A",
"%	c #3E3E3E",
"&	c #2E2E2E",
"*	c #262626",
"=	c #E2E2E2",
"-	c #EAEAEA",
";	c #B6B6B6",
">	c #1A1A1A",
",	c #7E7E7E",
"'	c #EEEEEE",
")	c #F2F2F2",
"!	c #CECECE",
"~	c #121212",
"{	c #868686",
"]	c #F6F6F6",
"^	c #8E8E8E",
"/	c #6A6A6A",
"(	c #0A0A0A",
"_	c #4E4E4E",
":	c #C6C6C6",
"<	c #FAFAFA",
"[	c #9E9E9E",
"}	c #666666",
"|	c #BEBEBE",
"1	c #3A3A3A",
"2	c #464646",
"3	c #FEFEFE",
"4	c #AEAEAE",
"5	c #060606",
"6	c #929292",
"7	c #626262",
"8	c #363636",
"9	c #D2D2D2",
"0	c #7A7A7A",
"a	c #565656",
"b	c #969696",
"c	c #222222",
"d	c #5E5E5E",
"e	c #2A2A2A",
"f	c #0E0E0E",
"g	c #E6E6E6",
"h	c #AAAAAA",
"i	c #424242",
"j	c #D6D6D6",
"k	c #323232",
"l	c #161616",
"m	c #C2C2C2",
"n	c #BABABA",
"o	c #DEDEDE",
"p	c #767676",
"q	c #6E6E6E",
"r	c #4A4A4A",
"s	c #CACACA",
"t	c #9A9A9A",
"u	c #1E1E1E",
"v	c #828282",
"w	c #B2B2B2",
"x	c #A2A2A2",
"y	c #525252",
"z	c #8A8A8A",
"            ........            ",
"         ..............         ",
"       ..................       ",
"      ....................      ",
"     ......................     ",
"    ........................    ",
"   ..........................   ",
"  ......5.....................  ",
"  ..5f>&%*f...................  ",
" ..u%${[h6$ef..........55...... ",
" .udhj=')gn,2l5.......l88e(.... ",
" *q;-3<333)j4q&5.....fr6wql.... ",
"e7n-<333333<':/~.....~7:o6e....5",
"%bo<333<<3333'[15.....1@:#>5...~",
"_@'33<'oo)33<]!vk(...5l%&*5....5",
"2@-<<-h,#j]333)!}c(...5(5.......",
"i[-3]9pe1['3333'!ql...........(f",
"*b=<3=,88b-33333)@&..........f*1",
"&0=33';^4j]<3333)ma~.......5>r$i",
" d!]3<'g'<<333333ob2>f(..(~*$^p&",
" 7hg3333<33333333]=;va2ee_}z;@/ ",
" izj]<333333333333<]+||b4n+-+td ",
"  $h'<33333333333333<]))']<):p  ",
"  i0s)<3333333333333333<33]9b}  ",
"   /69]33333333333333333<]=@/   ",
"   a7b9]3333333333333333<=w$    ",
"     _b!']333333333333<)jx71    ",
"     &d{w+'<3333333<<)=|^d      ",
"        #n:+=-]]))]'g:@q$       ",
"        } }0b4mmmmmx{#28        ",
"         1 k_a_//}_yi           ",
"             2k el              "};
