/* XPM */
static char * yy270_xpm[] = {
"32 32 80 1",
" 	c None",
".	c #000000",
"+	c #070707",
"@	c #232323",
"#	c #2A2A2A",
"$	c #080808",
"%	c #464646",
"&	c #B6B6B6",
"*	c #D2D2D2",
"=	c #D3D3D3",
"-	c #3F3F3F",
";	c #3E3E3E",
">	c #D9D9D9",
",	c #F6F6F6",
"'	c #FDFDFD",
")	c #F5F5F5",
"!	c #BDBDBD",
"~	c #313131",
"{	c #B0B0B0",
"]	c #F3F3F3",
"^	c #FEFEFE",
"/	c #676767",
"(	c #DDDDDD",
"_	c #FCFCFC",
":	c #1A1A1A",
"<	c #8C8C8C",
"[	c #EAEAEA",
"}	c #222222",
"|	c #202020",
"1	c #ACACAC",
"2	c #F7F7F7",
"3	c #DADADA",
"4	c #262626",
"5	c #C4C4C4",
"6	c #F9F9F9",
"7	c #4D4D4D",
"8	c #2B2B2B",
"9	c #AFAFAF",
"0	c #CFCFCF",
"a	c #020202",
"b	c #292929",
"c	c #2D2D2D",
"d	c #373737",
"e	c #C7C7C7",
"f	c #010101",
"g	c #060606",
"h	c #B2B2B2",
"i	c #050505",
"j	c #1B1B1B",
"k	c #8D8D8D",
"l	c #434343",
"m	c #C1C1C1",
"n	c #030303",
"o	c #111111",
"p	c #565656",
"q	c #E6E6E6",
"r	c #2F2F2F",
"s	c #4E4E4E",
"t	c #999999",
"u	c #3A3A3A",
"v	c #757575",
"w	c #FAFAFA",
"x	c #D6D6D6",
"y	c #D1D1D1",
"z	c #4A4A4A",
"A	c #939393",
"B	c #E1E1E1",
"C	c #FBFBFB",
"D	c #E0E0E0",
"E	c #404040",
"F	c #989898",
"G	c #414141",
"H	c #828282",
"I	c #BEBEBE",
"J	c #EBEBEB",
"K	c #F4F4F4",
"L	c #1C1C1C",
"M	c #363636",
"N	c #B3B3B3",
"O	c #D0D0D0",
"            ........            ",
"         ..............         ",
"       ..................       ",
"      ....................      ",
"     ......................     ",
"    ........................    ",
"   ..........................   ",
"  ..+@####@+..................  ",
"  $@%&*==*&-+.................  ",
" $;&>,'''')!-+................. ",
" ~{]'^^^^^^,!-+................ ",
" /(_^^^^^^^^,!-+............... ",
":<[^^^'''^^^^)&}................",
"|1]^^23=32^^^'*#......+@#@+.....",
"456^'37873'^^'3%+.....}9*9}.....",
"80_^'=8a8='^^^,&@.....b*_*b.....",
"c0_^'37873'^^^'>%+....}9*9}.....",
"de6^^23=32^^^^^,&}....+@#@+...fg",
"-h]^^^'''^^^^^^'*b............ij",
"}k[^^^^^^^^^^^^'=#............fg",
" /(_^^^^^^^^^^^'3%+............ ",
" lm2^^^^^^^^^^^^,!-+........noo ",
" p<q'^^^^^^^^^^^^,!%@+....+}r7s ",
"  l!,^^^^^^^^^^^^^,>&%####%9tu  ",
"  jv>w^^^^^^^^^^^^^',3====xyvj  ",
"   zABC^^^^^^^^^^^^^^''''wDAz   ",
"    EFDw^^^^^^^^^^^^^^^^wDFE    ",
"     GA>2'^^^^^^^^^^^^'2>AG     ",
"      zv!q2'^^^^^^^^'2q!vz      ",
"       jEHI(JK6__6KJ(IHEj       ",
"         LM/kNeOOeNk/ML         ",
"            }-dccd-}            "};
