/* XPM */
static char * yy285_xpm[] = {
"32 32 63 1",
" 	c None",
".	c #020202",
"+	c #060606",
"@	c #0E0E0E",
"#	c #1A1A1A",
"$	c #2E2E2E",
"%	c #323232",
"&	c #5A5A5A",
"*	c #6E6E6E",
"=	c #4A4A4A",
"-	c #262626",
";	c #626262",
">	c #AAAAAA",
",	c #CACACA",
"'	c #CECECE",
")	c #DEDEDE",
"!	c #DADADA",
"~	c #C2C2C2",
"{	c #969696",
"]	c #1E1E1E",
"^	c #C6C6C6",
"/	c #F2F2F2",
"(	c #F6F6F6",
"_	c #FEFEFE",
":	c #FAFAFA",
"<	c #EAEAEA",
"[	c #121212",
"}	c #A6A6A6",
"|	c #EEEEEE",
"1	c #BEBEBE",
"2	c #222222",
"3	c #7A7A7A",
"4	c #D2D2D2",
"5	c #E6E6E6",
"6	c #828282",
"7	c #B2B2B2",
"8	c #4E4E4E",
"9	c #0A0A0A",
"0	c #525252",
"a	c #D6D6D6",
"b	c #8A8A8A",
"c	c #E2E2E2",
"d	c #A2A2A2",
"e	c #363636",
"f	c #2A2A2A",
"g	c #727272",
"h	c #3A3A3A",
"i	c #868686",
"j	c #AEAEAE",
"k	c #424242",
"l	c #464646",
"m	c #8E8E8E",
"n	c #9A9A9A",
"o	c #9E9E9E",
"p	c #161616",
"q	c #565656",
"r	c #6A6A6A",
"s	c #7E7E7E",
"t	c #3E3E3E",
"u	c #767676",
"v	c #929292",
"w	c #B6B6B6",
"x	c #666666",
"            ........            ",
"         ..............         ",
"       .................        ",
"      ....................      ",
"     ..+@+.................     ",
"    #$%&*=-#@...............    ",
"   -;>,')!~{;]...............   ",
"   ;^/(__:(<';[...............  ",
"  =}|_______(1%...............  ",
" 234(________56]............... ",
" -7|__:|/____:189.............. ",
" 0a__:!{>!(___<b2.............. ",
"$3c__/defg5___:1-...............",
"hd<::5i-]35:__/j2...............",
"h7/__(7g&7/___/}f...............",
"k}/__:/c)/____:'=+....9f2#9.....",
";}|____::_____:)l+....]{1bf.....",
"l>|____________5m[....$,(^%+....",
"&n|___________:53[...+h}'o].....",
" g!____________!09....@2kh@.....",
" &~(___________4k.......++..... ",
" 0d<__________:5i]............+ ",
"  ga:__________:~0@..........+p ",
"  qo<___________|d0@..........  ",
"   r1|:_________:<~l][+..9+99   ",
"   =3^/__________:/,{rk-%qhke   ",
"    %s,(___________:|ca1}jst    ",
"     lu^5(___________::5~v=     ",
"      -qn,|:________:/)juq      ",
"        83j4c<//|||c'7iq        ",
"         th=uowj>>nsx&8         ",
"             ettxh-             "};
