/* XPM */
static char * yy30_xpm[] = {
"32 32 65 1",
" 	c None",
".	c #020202",
"+	c #E2E2E2",
"@	c #B2B2B2",
"#	c #7E7E7E",
"$	c #5E5E5E",
"%	c #464646",
"&	c #2E2E2E",
"*	c #222222",
"=	c #EAEAEA",
"-	c #161616",
";	c #C2C2C2",
">	c #9A9A9A",
",	c #EEEEEE",
"'	c #F2F2F2",
")	c #D6D6D6",
"!	c #767676",
"~	c #F6F6F6",
"{	c #0E0E0E",
"]	c #8E8E8E",
"^	c #4A4A4A",
"/	c #FAFAFA",
"(	c #A6A6A6",
"_	c #3A3A3A",
":	c #0A0A0A",
"<	c #6E6E6E",
"[	c #4E4E4E",
"}	c #CECECE",
"|	c #828282",
"1	c #FEFEFE",
"2	c #666666",
"3	c #060606",
"4	c #525252",
"5	c #B6B6B6",
"6	c #262626",
"7	c #1E1E1E",
"8	c #DEDEDE",
"9	c #8A8A8A",
"0	c #C6C6C6",
"a	c #363636",
"b	c #5A5A5A",
"c	c #A2A2A2",
"d	c #424242",
"e	c #AEAEAE",
"f	c #BABABA",
"g	c #CACACA",
"h	c #323232",
"i	c #2A2A2A",
"j	c #626262",
"k	c #1A1A1A",
"l	c #E6E6E6",
"m	c #D2D2D2",
"n	c #121212",
"o	c #DADADA",
"p	c #969696",
"q	c #3E3E3E",
"r	c #6A6A6A",
"s	c #565656",
"t	c #7A7A7A",
"u	c #AAAAAA",
"v	c #727272",
"w	c #9E9E9E",
"x	c #929292",
"y	c #BEBEBE",
"z	c #868686",
"            ^$j$s!sb            ",
"         %jtw@g0m0g(]!_         ",
"       ad9y)=,///~~,+m5ri       ",
"      &<e8'/11111111/~,oc^      ",
"     2#},/11111111111111lf2     ",
"    qz)'1111111111111111/,52    ",
"   a9}~111111111111=}8,/1/=@d   ",
"   s}~/11111111111'0^jf'/118j-  ",
"  &(=1111111111111+#k72=111+#n  ",
" _<)/1111111111111,9ihc=11/+4{. ",
" au=/1111111111111~+f>+/11/o<:. ",
" bf~1111111111111111'~/111~}a:. ",
" 2)/1111111111111111111111+tk...",
"&#8111111/'''111111111111'fi3...",
"ix=111/~=}uzuo,~'~~//1~'l0$n....",
"qx=11/~m#^676ru>5@;+,);>t4k.....",
"i>,11=ur*:...nk**hhv|$a*::......",
"^x=1/)%n..........3-{:..........",
" #8/+z7.........................",
" <g,;&3.........................",
" d@)v-......:.................. ",
" sx0j3....:a[7:................ ",
"  j>b{....7pgp&................ ",
"  6b&....3^;/0%:..............  ",
"   ^6....36|;|7...............  ",
"   q{.....3k_63..............   ",
"     .......33..............    ",
"     3{....................     ",
"      n...................      ",
"        .................       ",
"          .............         ",
"             ......             "};
