/* XPM */
static char * yy300_xpm[] = {
"32 32 63 1",
" 	c None",
".	c #020202",
"+	c #E2E2E2",
"@	c #B2B2B2",
"#	c #868686",
"$	c #5E5E5E",
"%	c #464646",
"&	c #323232",
"*	c #262626",
"=	c #1A1A1A",
"-	c #E6E6E6",
";	c #EAEAEA",
">	c #BEBEBE",
",	c #EEEEEE",
"'	c #A2A2A2",
")	c #121212",
"!	c #C6C6C6",
"~	c #7A7A7A",
"{	c #F2F2F2",
"]	c #F6F6F6",
"^	c #0E0E0E",
"/	c #CECECE",
"(	c #9A9A9A",
"_	c #565656",
":	c #0A0A0A",
"<	c #6E6E6E",
"[	c #D2D2D2",
"}	c #FAFAFA",
"|	c #8A8A8A",
"1	c #525252",
"2	c #DADADA",
"3	c #FEFEFE",
"4	c #929292",
"5	c #363636",
"6	c #A6A6A6",
"7	c #222222",
"8	c #3E3E3E",
"9	c #2E2E2E",
"0	c #626262",
"a	c #060606",
"b	c #BABABA",
"c	c #828282",
"d	c #6A6A6A",
"e	c #4A4A4A",
"f	c #AEAEAE",
"g	c #DEDEDE",
"h	c #161616",
"i	c #D6D6D6",
"j	c #2A2A2A",
"k	c #666666",
"l	c #3A3A3A",
"m	c #1E1E1E",
"n	c #9E9E9E",
"o	c #5A5A5A",
"p	c #727272",
"q	c #8E8E8E",
"r	c #969696",
"s	c #B6B6B6",
"t	c #CACACA",
"u	c #4E4E4E",
"v	c #424242",
"w	c #C2C2C2",
"x	c #AAAAAA",
"            ........            ",
"         ..............         ",
"       )a:.:.............       ",
"      *vd_1%m:............      ",
"     0~wg2[/ql=............     ",
"    j|[{}3}}-/~*:...........    ",
"   *~t{333333]2q=............   ",
"   1t]}3333333}@5.............  ",
"  96;33}{;}3333[%a............  ",
" ldi333+4r2,333+~h............. ",
" lx;}3,@97ki}33{67............. ",
" os{33{|9=k+333}s5............. ",
" di}33]2#us,333}!5a.............",
"h#+3333}-g,3333-#=..............",
".(;}333333}333}+k:..............",
"8r;333333333333g<)..............",
"*({3333333333332%:..............",
"ur-}3333333333}i0:....)lm^......",
" c+}3333333333{>*....^%b'%:.....",
" d!}3333333333gdh....=q-2#).....",
" %@{}33333333}t8.....)p[!u:.... ",
" 14-33333333332$^....a=81h..... ",
"  0>{33333333};|)......::...... ",
"  *#+}33333333}@8^............  ",
"   _x;333333333-xj............  ",
"   7_s;}3333333}[dm:........h   ",
"     ps;}3333333{g(v=:aa....    ",
"     7p>+}3333333};icvoj7)a     ",
"      8%4[-]]33333}}g!@|%e      ",
"        9on>[-;,{,;g[f#e&       ",
"          8_pcnnf'n~<oe         ",
"             l7e9ee             "};
