/* XPM */
static char * yy315_xpm[] = {
"32 32 63 1",
" 	c None",
".	c #020202",
"+	c #D6D6D6",
"@	c #A6A6A6",
"#	c #767676",
"$	c #525252",
"%	c #464646",
"&	c #363636",
"*	c #262626",
"=	c #DEDEDE",
"-	c #E6E6E6",
";	c #B6B6B6",
">	c #1A1A1A",
",	c #EAEAEA",
"'	c #9A9A9A",
")	c #121212",
"!	c #EEEEEE",
"~	c #F2F2F2",
"{	c #BABABA",
"]	c #5A5A5A",
"^	c #BEBEBE",
"/	c #8A8A8A",
"(	c #F6F6F6",
"_	c #0A0A0A",
":	c #C2C2C2",
"<	c #FAFAFA",
"[	c #666666",
"}	c #C6C6C6",
"|	c #828282",
"1	c #FEFEFE",
"2	c #060606",
"3	c #CACACA",
"4	c #AEAEAE",
"5	c #3E3E3E",
"6	c #323232",
"7	c #4A4A4A",
"8	c #969696",
"9	c #5E5E5E",
"0	c #CECECE",
"a	c #6E6E6E",
"b	c #9E9E9E",
"c	c #1E1E1E",
"d	c #2E2E2E",
"e	c #4E4E4E",
"f	c #161616",
"g	c #7A7A7A",
"h	c #0E0E0E",
"i	c #D2D2D2",
"j	c #E2E2E2",
"k	c #626262",
"l	c #565656",
"m	c #868686",
"n	c #2A2A2A",
"o	c #6A6A6A",
"p	c #A2A2A2",
"q	c #AAAAAA",
"r	c #DADADA",
"s	c #3A3A3A",
"t	c #B2B2B2",
"u	c #222222",
"v	c #424242",
"w	c #7E7E7E",
"x	c #8E8E8E",
"            22......            ",
"         e&vsc22.......         ",
"       n[m@;b#en_........       ",
"      *[pi!!,r3|6_........      ",
"      a^j(111<(0wd2........     ",
"    7g}!<111111~igc2........    ",
"   &g:~<<<(~<111~:]_.........   ",
"   ]t!<1<=@;,<11<39f..........  ",
"   /i<1<j'5]{!111rlh..........  ",
" fk;!<1<3[*&/j<1<i9h........... ",
" 2/=<111,p$a;~11<io)........... ",
" e@!111<<-{}!<11<09)........... ",
"6k^~11111<(~1111~}%_............",
"%wi(11111111111(igc2............",
"f|=<11111111111!@v_.............",
"2|r11111111111<jxn2.............",
"$|+<1111111111<i%h..............",
"9m+<1111111111,4e2..............",
" a0<11111111<!;9>....._2........",
" et~111111111+au2...2u7&)...... ",
" l'-11111111(:v.....f[;qeh..... ",
" 6#0(1111111~;e_....*/=+#)..... ",
"  ]4!<111111<^e_....>kqb%_..... ",
"   g3~111111<0[f....2c5&f2....  ",
"   7p=(111111,p*.....222.....   ",
"   sl@j<11111!;7)............   ",
"     9tj(1111<,@ef..........    ",
"     &k@0-<<11<-p7f2.......     ",
"       $|tr!(<<<-be7>_..2h      ",
"         a/q:r-,j0:8ln)2.       ",
"         sn$[/'bpp8#$vv         ",
"             %7 a9e             "};
