/* XPM */
static char * yy345_xpm[] = {
"32 32 64 1",
" 	c None",
".	c #020202",
"+	c #DEDEDE",
"@	c #AAAAAA",
"#	c #767676",
"$	c #5A5A5A",
"%	c #464646",
"&	c #363636",
"*	c #222222",
"=	c #E6E6E6",
"-	c #BABABA",
";	c #1A1A1A",
">	c #EAEAEA",
",	c #828282",
"'	c #EEEEEE",
")	c #121212",
"!	c #8E8E8E",
"~	c #C2C2C2",
"{	c #F2F2F2",
"]	c #F6F6F6",
"^	c #6A6A6A",
"/	c #9E9E9E",
"(	c #C6C6C6",
"_	c #0A0A0A",
":	c #FAFAFA",
"<	c #4A4A4A",
"[	c #323232",
"}	c #CECECE",
"|	c #AEAEAE",
"1	c #FEFEFE",
"2	c #5E5E5E",
"3	c #4E4E4E",
"4	c #D6D6D6",
"5	c #060606",
"6	c #2A2A2A",
"7	c #3A3A3A",
"8	c #727272",
"9	c #A6A6A6",
"0	c #666666",
"a	c #929292",
"b	c #565656",
"c	c #B2B2B2",
"d	c #7E7E7E",
"e	c #3E3E3E",
"f	c #868686",
"g	c #969696",
"h	c #D2D2D2",
"i	c #E2E2E2",
"j	c #1E1E1E",
"k	c #0E0E0E",
"l	c #626262",
"m	c #525252",
"n	c #161616",
"o	c #424242",
"p	c #6E6E6E",
"q	c #B6B6B6",
"r	c #A2A2A2",
"s	c #BEBEBE",
"t	c #DADADA",
"u	c #8A8A8A",
"v	c #262626",
"w	c #9A9A9A",
"x	c #2E2E2E",
"y	c #CACACA",
"              *;b%l             ",
"           72b0#fle*5[%         ",
"        om#w|(4h}ycpj.5*.       ",
"       b#@h='::]::>@b;5...      ",
"      pw~=]1:111111=@o_....     ",
"    %0r4{:11:]{{:11:+#n.....    ",
"   <l@+]:111+s/q>11:>r*......   ",
"   2/+:1111]sm78}]11{c%_......  ",
"   u}]11111]sx;<}:11:4$k......  ",
"  dq>:11111]hf0a4:11:}3k....... ",
" <a+:1111111{=h+{11:=/[........ ",
" 2|'111111111:]1111{q$)........ ",
"&^y]11111111111111:idv5.........",
"eut]1111111111111:>q%5..........",
"6w>:11111111111:{h9^j...........",
"m/'11111111111:'spo;5...........",
"p9>111111111:1>~8;_.............",
"m@>11111111]'h@lj5..............",
"o9>1111111]}g0<*5...............",
" f=:111111=![)_.................",
" 8h]11111'q3k.................. ",
" $s{:111:iu6................... ",
" o/i:111:+^;....5;6*).......... ",
"  ^s{111:hm5....nlgge_........  ",
"  3gh{11{~<5....*g+t2k........  ",
"   m9i]1:}l)....;psq$k.......   ",
"    ^ci::=#j...._[me*5......    ",
"     0c>]'@*.....__55......     ",
"      #9his$j5............      ",
"         s(@m)...........       ",
"         ,!a2v_........         ",
"             ok..5..            "};
