/* XPM */
static char * yy45_xpm[] = {
"32 32 63 1",
" 	c None",
".	c #020202",
"+	c #DEDEDE",
"@	c #A6A6A6",
"#	c #7E7E7E",
"$	c #5E5E5E",
"%	c #464646",
"&	c #323232",
"*	c #222222",
"=	c #E6E6E6",
"-	c #1A1A1A",
";	c #B6B6B6",
">	c #EAEAEA",
",	c #EEEEEE",
"'	c #828282",
")	c #BEBEBE",
"!	c #121212",
"~	c #F2F2F2",
"{	c #8A8A8A",
"]	c #F6F6F6",
"^	c #D2D2D2",
"/	c #727272",
"(	c #0E0E0E",
"_	c #565656",
":	c #8E8E8E",
"<	c #FAFAFA",
"[	c #929292",
"}	c #363636",
"|	c #0A0A0A",
"1	c #C6C6C6",
"2	c #626262",
"3	c #525252",
"4	c #969696",
"5	c #FEFEFE",
"6	c #2E2E2E",
"7	c #060606",
"8	c #3A3A3A",
"9	c #CECECE",
"0	c #AEAEAE",
"a	c #9A9A9A",
"b	c #666666",
"c	c #D6D6D6",
"d	c #4E4E4E",
"e	c #9E9E9E",
"f	c #2A2A2A",
"g	c #3E3E3E",
"h	c #6A6A6A",
"i	c #E2E2E2",
"j	c #4A4A4A",
"k	c #1E1E1E",
"l	c #161616",
"m	c #767676",
"n	c #CACACA",
"o	c #BABABA",
"p	c #DADADA",
"q	c #5A5A5A",
"r	c #424242",
"s	c #AAAAAA",
"t	c #262626",
"u	c #C2C2C2",
"v	c #A2A2A2",
"w	c #B2B2B2",
"x	c #868686",
"            r2h#m/2$            ",
"         j_#4w111nus:#_         ",
"       gm[uc=~]]~<~,+^0#3       ",
"      j'w+~<5555555<5]>1eq      ",
"     $:9><5555555555555,+)h     ",
"    j4c]<555555555555555<>ob    ",
"   r:+<55555555555555<555<=03   ",
"   /u,<5555555555555<~+><5<paj  ",
"  b@i<55555555555555,1ms=<5]1/  ",
" 6m9]55555555555555]1b6_;~5<>@% ",
" re>555555555555555])_f3v~55~;% ",
" bo~5555<<<<5555555<=s/ap]55,sr ",
"&#^]5<<,=+^9i]5555555=9=<<5<=#t7",
"3[>5<~nwxh2h[9~<55555<<<555]^2(.",
"da=<,1h%k!!l*/)p~<<5555555<ie}7.",
"rei>;b*|.....f$#wu+~5<555]+4%!..",
"feco$k|......7(-f_:9,i+=>ce}(...",
"r49/-...........7l&b##''#/8(....",
"b#ad7.............|(-*k!-k|.....",
"t3$6|....(-!................... ",
" d&(....!jh%!.................. ",
" gk....7849s%(................. ",
"  |....7&v=u%|................. ",
"  ......-q:hk.................  ",
"  7|.....-tl7.................  ",
"   l7.....7..................   ",
"    ........................    ",
"     ......................     ",
"      ....................      ",
"         ................       ",
"         .............          ",
"            .......             "};
