/* XPM */
static char * yy60_xpm[] = {
"32 32 65 1",
" 	c None",
".	c #020202",
"+	c #E6E6E6",
"@	c #B6B6B6",
"#	c #8A8A8A",
"$	c #626262",
"%	c #4A4A4A",
"&	c #323232",
"*	c #222222",
"=	c #1A1A1A",
"-	c #EAEAEA",
";	c #C2C2C2",
">	c #EEEEEE",
",	c #A6A6A6",
"'	c #F2F2F2",
")	c #6E6E6E",
"!	c #121212",
"~	c #CACACA",
"{	c #F6F6F6",
"]	c #DADADA",
"^	c #0A0A0A",
"/	c #727272",
"(	c #424242",
"_	c #9A9A9A",
":	c #4E4E4E",
"<	c #FAFAFA",
"[	c #7A7A7A",
"}	c #525252",
"|	c #CECECE",
"1	c #2A2A2A",
"2	c #565656",
"3	c #FEFEFE",
"4	c #AAAAAA",
"5	c #363636",
"6	c #7E7E7E",
"7	c #060606",
"8	c #929292",
"9	c #D6D6D6",
"0	c #BEBEBE",
"a	c #E2E2E2",
"b	c #5A5A5A",
"c	c #828282",
"d	c #B2B2B2",
"e	c #666666",
"f	c #A2A2A2",
"g	c #3A3A3A",
"h	c #0E0E0E",
"i	c #1E1E1E",
"j	c #D2D2D2",
"k	c #262626",
"l	c #161616",
"m	c #5E5E5E",
"n	c #BABABA",
"o	c #DEDEDE",
"p	c #C6C6C6",
"q	c #868686",
"r	c #8E8E8E",
"s	c #2E2E2E",
"t	c #464646",
"u	c #9E9E9E",
"v	c #3E3E3E",
"w	c #AEAEAE",
"x	c #969696",
"y	c #6A6A6A",
"z	c #767676",
"            g}(b}m$m            ",
"         &gzr,ppjp~d_[$         ",
"        sy@|+>{<<<<'+90#t       ",
"      gbfo><<33333333<'odq      ",
"     5)0+<333333333333<<>|c     ",
"     e@><3333333333333333{j#    ",
"   i}n><333333333333333333'|#   ",
"   %ua<33333333333333333333{|2  ",
"  *[]{33333333333333333<3<3<-,  ",
"  bw{333333333333333333>+'3339$ ",
"  6j<33'<'''3<3333333{ofe@>3<-u ",
" :x-<{a0,48d|-{333333{u&*$o<3'n ",
"zt@'+|[s1**s}ca333333>n1=:|33{9e",
"by0]rg=7....7k4>333333aq6;><33o ",
"vy06k^.......!};><3333<>+'333<]b",
"!m8t7.........l:#9{3333<33333-wg",
".(&!...........^*)d>33333333<p(!",
".5l......7......7=}|'{33333>]ci.",
"i^7....7its^......=e8@9-{>o4bi^.",
"%......kqpx*.......hi&26_d)kh...",
" 7....7g;{~:^.........^^**l.... ",
" lh....icp85................... ",
" ......7k%ih................... ",
"  .......7....................  ",
"  ............................  ",
"   ..........................   ",
"    ........................    ",
"     ......................     ",
"      ....................      ",
"       ..................       ",
"         ..............         ",
"            ........            "};
