/* XPM */
static char * yy75_xpm[] = {
"32 32 65 1",
" 	c None",
".	c #020202",
"+	c #DEDEDE",
"@	c #AAAAAA",
"#	c #828282",
"$	c #626262",
"%	c #464646",
"&	c #363636",
"*	c #262626",
"=	c #E6E6E6",
"-	c #1E1E1E",
";	c #BABABA",
">	c #EEEEEE",
",	c #161616",
"'	c #F2F2F2",
")	c #C6C6C6",
"!	c #8E8E8E",
"~	c #0E0E0E",
"{	c #767676",
"]	c #F6F6F6",
"^	c #969696",
"/	c #565656",
"(	c #CACACA",
"_	c #FAFAFA",
":	c #0A0A0A",
"<	c #A2A2A2",
"[	c #CECECE",
"}	c #6E6E6E",
"|	c #323232",
"1	c #3A3A3A",
"2	c #D6D6D6",
"3	c #FEFEFE",
"4	c #B6B6B6",
"5	c #666666",
"6	c #4E4E4E",
"7	c #060606",
"8	c #3E3E3E",
"9	c #C2C2C2",
"0	c #7E7E7E",
"a	c #5E5E5E",
"b	c #9E9E9E",
"c	c #B2B2B2",
"d	c #868686",
"e	c #2A2A2A",
"f	c #E2E2E2",
"g	c #EAEAEA",
"h	c #121212",
"i	c #6A6A6A",
"j	c #A6A6A6",
"k	c #9A9A9A",
"l	c #BEBEBE",
"m	c #D2D2D2",
"n	c #DADADA",
"o	c #222222",
"p	c #4A4A4A",
"q	c #AEAEAE",
"r	c #7A7A7A",
"s	c #5A5A5A",
"t	c #929292",
"u	c #727272",
"v	c #525252",
"w	c #424242",
"x	c #1A1A1A",
"y	c #8A8A8A",
"z	c #2E2E2E",
"            zww$55p/            ",
"         wpi0kll;;9j!{$         ",
"        vi<lng]'']]gfml^}       ",
"      -vy;f'_3_33333__>mqr      ",
"      akm'__33333333333]g(t     ",
"    8ajn]333333333333333_]my    ",
"    i<f]_33333333333333333][^   ",
"   s!n_3333333333333333333_'9r  ",
"  ail>_]'']__33333333333333_=@  ",
" /5km=+9@q;)n]_3333333333333][# ",
" &i4;^iv|e%ad)=]333333333_333>c ",
" oib5*,~..:hovkf_333333]'>'__]( ",
".op6*........~p[_33333_2qtl'__nr",
"h**h7........7&bg3333_><1|d+3_=!",
".~:...........-um]_333><**i+33>j",
".........7....:z{(]333'90rjf3_gj",
"7.....:-z|,....:odm_33_'fng]33=<",
"......-i@^w:....~w^g3333___33_f ",
"......*k>)s~.....xi[]33333333>)s",
"......xu9<%~.....:|{4n'_33__g4{1",
" .....~ew&x.......7x%y)g]'=+ca- ",
" ......7::..........hzaklj!aw-7 ",
" ....................7h*8&xh:7. ",
"  ......................:7....  ",
"  ............................  ",
"   ..........................   ",
"    ........................    ",
"     ......................     ",
"      ....................      ",
"       ..................       ",
"         ..............         ",
"            ........            "};
