/* XPM */
static char * yy90_xpm[] = {
"32 32 80 1",
" 	c None",
".	c #222222",
"+	c #3F3F3F",
"@	c #373737",
"#	c #2D2D2D",
"$	c #1C1C1C",
"%	c #363636",
"&	c #676767",
"*	c #8D8D8D",
"=	c #B3B3B3",
"-	c #C7C7C7",
";	c #D0D0D0",
">	c #1B1B1B",
",	c #404040",
"'	c #828282",
")	c #BEBEBE",
"!	c #DDDDDD",
"~	c #EBEBEB",
"{	c #F4F4F4",
"]	c #F9F9F9",
"^	c #FCFCFC",
"/	c #4A4A4A",
"(	c #757575",
"_	c #BDBDBD",
":	c #E6E6E6",
"<	c #F7F7F7",
"[	c #FDFDFD",
"}	c #FEFEFE",
"|	c #414141",
"1	c #939393",
"2	c #D9D9D9",
"3	c #989898",
"4	c #E0E0E0",
"5	c #FAFAFA",
"6	c #FBFBFB",
"7	c #E1E1E1",
"8	c #D1D1D1",
"9	c #D6D6D6",
"0	c #D3D3D3",
"a	c #DADADA",
"b	c #F6F6F6",
"c	c #3A3A3A",
"d	c #999999",
"e	c #AFAFAF",
"f	c #464646",
"g	c #2A2A2A",
"h	c #B6B6B6",
"i	c #434343",
"j	c #4E4E4E",
"k	c #4D4D4D",
"l	c #2F2F2F",
"m	c #070707",
"n	c #000000",
"o	c #232323",
"p	c #8C8C8C",
"q	c #565656",
"r	c #111111",
"s	c #030303",
"t	c #C1C1C1",
"u	c #060606",
"v	c #010101",
"w	c #EAEAEA",
"x	c #050505",
"y	c #292929",
"z	c #D2D2D2",
"A	c #F3F3F3",
"B	c #B2B2B2",
"C	c #2B2B2B",
"D	c #CFCFCF",
"E	c #020202",
"F	c #C4C4C4",
"G	c #262626",
"H	c #ACACAC",
"I	c #202020",
"J	c #F5F5F5",
"K	c #1A1A1A",
"L	c #B0B0B0",
"M	c #313131",
"N	c #3E3E3E",
"O	c #080808",
"            .+@##@+.            ",
"         $%&*=-;;-=*&%$         ",
"       >,')!~{]^^]{~!)',>       ",
"      /(_:<[}}}}}}}}[<:_(/      ",
"     |12<[}}}}}}}}}}}}[<21|     ",
"    ,345}}}}}}}}}}}}}}}}543,    ",
"   /145[[[[}}}}}}}}}}}}}}671/   ",
"  >(890000ab[}}}}}}}}}}}}}52(>  ",
"  cdefggggfh2b}}}}}}}}}}}}}b_i  ",
" jkl.mnnnnmof_b}}}}}}}}}}}}[:pq ",
" rrsnnnnnnnnm+_b}}}}}}}}}}}}<ti ",
" nnnnnnnnnnnnmfa[}}}}}}}}}}}^!& ",
"uvnnnnnnnnnnnng0[}}}}}}}}}}}}w*.",
">xnnnnnnnnnnnnyz[}}}}}}[[[}}}AB+",
"uvnnnmogomnnnn.hb}}}}}<a0a<}}]-@",
"nnnnn.eze.nnnnmf2[}}}[akCka[}^D#",
"nnnnnyz^zynnnnnohb}}}[0CEC0[}^DC",
"nnnnn.eze.nnnnnmfa[}}[akCka[}]FG",
"nnnnnmogomnnnnnngz[}}}<a0a<}}AHI",
"nnnnnnnnnnnnnnnn.hJ}}}}[[[}}}wpK",
" nnnnnnnnnnnnnnnm+_b}}}}}}}}^!& ",
" nnnnnnnnnnnnnnnnm+_b}}}}}}[ALM ",
" nnnnnnnnnnnnnnnnnm+_J[[[[b2hNO ",
"  nnnnnnnnnnnnnnnnnm+hz00zhfoO  ",
"  nnnnnnnnnnnnnnnnnnmoggggomnn  ",
"   nnnnnnnnnnnnnnnnnnnnnnnnnn   ",
"    nnnnnnnnnnnnnnnnnnnnnnnn    ",
"     nnnnnnnnnnnnnnnnnnnnnn     ",
"      nnnnnnnnnnnnnnnnnnnn      ",
"       nnnnnnnnnnnnnnnnnn       ",
"         nnnnnnnnnnnnnn         ",
"            nnnnnnnn            "};
