/* XPM */
static char * yyx14_xpm[] = {
"14 14 56 1",
" 	c None",
".	c #676767",
"+	c #787878",
"@	c #8D8D8D",
"#	c #878787",
"$	c #707070",
"%	c #424242",
"&	c #8E8E8E",
"*	c #E1E1E1",
"=	c #F7F7F7",
"-	c #FDFDFD",
";	c #FCFCFC",
">	c #C9C9C9",
",	c #1A1A1A",
"'	c #AFAFAF",
")	c #FEFEFE",
"!	c #D3D3D3",
"~	c #ADADAD",
"{	c #F9F9F9",
"]	c #FAFAFA",
"^	c #686868",
"/	c #000000",
"(	c #9D9D9D",
"_	c #4A4A4A",
":	c #F2F2F2",
"<	c #7E7E7E",
"[	c #505050",
"}	c #DFDFDF",
"|	c #F0F0F0",
"1	c #F8F8F8",
"2	c #909090",
"3	c #0E0E0E",
"4	c #F5F5F5",
"5	c #B7B7B7",
"6	c #717171",
"7	c #0F0F0F",
"8	c #727272",
"9	c #464646",
"0	c #080808",
"a	c #E3E3E3",
"b	c #2F2F2F",
"c	c #010101",
"d	c #949494",
"e	c #040404",
"f	c #070707",
"g	c #0D0D0D",
"h	c #5F5F5F",
"i	c #B3B3B3",
"j	c #0B0B0B",
"k	c #2A2A2A",
"l	c #050505",
"m	c #737373",
"n	c #171717",
"o	c #252525",
"p	c #060606",
"q	c #030303",
"    .+@#$%    ",
"   &*=-;=>,   ",
"  '=))!~{]^/  ",
" &=)))(_:)<// ",
"[}))))=|-=.///",
"+1))))))=23///",
"@-))))4567////",
"@-)->890//////",
"+1)abc////////",
"[})de/fgc/////",
" &=<//hij//// ",
"  '&e/k[l///  ",
"   mn//////   ",
"    opq///    "};
