/* XPM */
static char * yyx10_xpm[] = {
"10 10 38 1",
" 	c None",
".	c #949494",
"+	c #A9A9A9",
"@	c #A4A4A4",
"#	c #868686",
"$	c #7B7B7B",
"%	c #D8D8D8",
"&	c #FDFDFD",
"*	c #F1F1F1",
"=	c #E5E5E5",
"-	c #F9F9F9",
";	c #535353",
">	c #000000",
",	c #FEFEFE",
"'	c #C1C1C1",
")	c #858585",
"!	c #7E7E7E",
"~	c #8F8F8F",
"{	c #FCFCFC",
"]	c #FAFAFA",
"^	c #EFEFEF",
"/	c #494949",
"(	c #AAAAAA",
"_	c #C2C2C2",
":	c #515151",
"<	c #010101",
"[	c #F6F6F6",
"}	c #7D7D7D",
"|	c #3A3A3A",
"1	c #040404",
"2	c #020202",
"3	c #030303",
"4	c #3C3C3C",
"5	c #787878",
"6	c #848484",
"7	c #0C0C0C",
"8	c #181818",
"9	c #0E0E0E",
"   .+@#   ",
" $%&*=-;> ",
" %,,'),!> ",
"~&,,{]^/>>",
"(,,,-_:<>>",
"(,[}|1>>>>",
"~&(123>>>>",
" %!>45>>> ",
" $6378>>> ",
"   91>>   "};
