/* XPM */
static char * yyx18_xpm[] = {
"18 18 76 1",
" 	c None",
".	c #585858",
"+	c #686868",
"@	c #757575",
"#	c #6F6F6F",
"$	c #5A5A5A",
"%	c #545454",
"&	c #555555",
"*	c #ABABAB",
"=	c #D7D7D7",
"-	c #ECECEC",
";	c #F6F6F6",
">	c #D5D5D5",
",	c #7A7A7A",
"'	c #090909",
")	c #818181",
"!	c #D8D8D8",
"~	c #F8F8F8",
"{	c #FDFDFD",
"]	c #FEFEFE",
"^	c #F9F9F9",
"/	c #FCFCFC",
"(	c #DBDBDB",
"_	c #2E2E2E",
":	c #010101",
"<	c #E2E2E2",
"[	c #FAFAFA",
"}	c #ACACAC",
"|	c #727272",
"1	c #E0E0E0",
"2	c #777777",
"3	c #020202",
"4	c #000000",
"5	c #808080",
"6	c #272727",
"7	c #CFCFCF",
"8	c #FBFBFB",
"9	c #7E7E7E",
"0	c #030303",
"a	c #A2A2A2",
"b	c #E9E9E9",
"c	c #F7F7F7",
"d	c #565656",
"e	c #BABABA",
"f	c #292929",
"g	c #EDEDED",
"h	c #B9B9B9",
"i	c #313131",
"j	c #F0F0F0",
"k	c #B1B1B1",
"l	c #717171",
"m	c #2B2B2B",
"n	c #868686",
"o	c #4B4B4B",
"p	c #0D0D0D",
"q	c #7F7F7F",
"r	c #141414",
"s	c #050505",
"t	c #CECECE",
"u	c #212121",
"v	c #858585",
"w	c #222222",
"x	c #070707",
"y	c #7D7D7D",
"z	c #D6D6D6",
"A	c #DFDFDF",
"B	c #848484",
"C	c #515151",
"D	c #8A8A8A",
"E	c #1E1E1E",
"F	c #A8A8A8",
"G	c #1C1C1C",
"H	c #040404",
"I	c #4C4C4C",
"J	c #303030",
"K	c #0B0B0B",
"      .+@#$%      ",
"    &*=-;;->,'    ",
"   )!~{]^;/{(_:   ",
"  )<{]][}|1]^234  ",
" %!{]]]~567]89044 ",
" a~]]]]{b(c]~2344 ",
"d=]]]]]]]]]^ef:444",
"+g]]]]]]]8;hi:4444",
"@;]]]]]{jklm:44444",
"@;]]]janop44444444",
"+g]];qrs3444444444",
"d=]{tu444444444444",
" a~8vs4:rwx444444 ",
" %![904syz_444444 ",
"  )ABs40CDE44444  ",
"   5FG44Hx34444   ",
"    IJ34444444    ",
"      HK3444      "};
