/* XPM */
static char * yyx12_xpm[] = {
"12 12 44 1",
" 	c None",
".	c #878787",
"+	c #9C9C9C",
"@	c #959595",
"#	c #828282",
"$	c #888888",
"%	c #E0E0E0",
"&	c #FAFAFA",
"*	c #FBFBFB",
"=	c #F9F9F9",
"-	c #9A9A9A",
";	c #030303",
">	c #F1F1F1",
",	c #FEFEFE",
"'	c #B8B8B8",
")	c #777777",
"!	c #EAEAEA",
"~	c #0F0F0F",
"{	c #000000",
"]	c #DFDFDF",
"^	c #DADADA",
"/	c #FCFCFC",
"(	c #868686",
"_	c #F3F3F3",
":	c #747474",
"<	c #FDFDFD",
"[	c #F7F7F7",
"}	c #BCBCBC",
"|	c #676767",
"1	c #050505",
"2	c #E3E3E3",
"3	c #6F6F6F",
"4	c #414141",
"5	c #060606",
"6	c #626262",
"7	c #020202",
"8	c #EEEEEE",
"9	c #131313",
"0	c #232323",
"a	c #454545",
"b	c #E1E1E1",
"c	c #040404",
"d	c #848484",
"e	c #444444",
"    .+@#    ",
"  $%&*==-;  ",
" $>,,')&!~{ ",
" ],,,^'/!~{ ",
"(&,,,,,_:;{{",
"+<,,,[}|1{{{",
"+<,2345{{{{{",
".&*67{{{{{{{",
" ]89{0a7{{{ ",
" $b9{a(c{{{ ",
"  de{7c{{{  ",
"    1c{{    "};
