/* XPM */
static char * yyx22_xpm[] = {
"22 22 52 1",
" 	c None",
".	c #020202",
"+	c #E2E2E2",
"@	c #A6A6A6",
"#	c #666666",
"$	c #525252",
"%	c #424242",
"&	c #2E2E2E",
"*	c #929292",
"=	c #CACACA",
"-	c #222222",
";	c #E6E6E6",
">	c #EAEAEA",
",	c #EEEEEE",
"'	c #121212",
")	c #6E6E6E",
"!	c #AAAAAA",
"~	c #F2F2F2",
"{	c #0E0E0E",
"]	c #F6F6F6",
"^	c #AEAEAE",
"/	c #0A0A0A",
"(	c #7A7A7A",
"_	c #DADADA",
":	c #FAFAFA",
"<	c #BABABA",
"[	c #565656",
"}	c #4A4A4A",
"|	c #8E8E8E",
"1	c #969696",
"2	c #5A5A5A",
"3	c #3E3E3E",
"4	c #FEFEFE",
"5	c #9E9E9E",
"6	c #060606",
"7	c #5E5E5E",
"8	c #1E1E1E",
"9	c #BEBEBE",
"0	c #2A2A2A",
"a	c #7E7E7E",
"b	c #D2D2D2",
"c	c #626262",
"d	c #767676",
"e	c #C2C2C2",
"f	c #4E4E4E",
"g	c #828282",
"h	c #DEDEDE",
"i	c #CECECE",
"j	c #161616",
"k	c #A2A2A2",
"l	c #323232",
"m	c #262626",
"        }cc7$%        ",
"     &d5e+>;_e1l6     ",
"    #@+::44444]kj.    ",
"   c9~444:~>]44_f..   ",
"  #9]4444,g%!:4]a6..  ",
" &@~44444~#-5:4~a/... ",
" c+4444444b<+44~(6... ",
" 1:444444444444if6... ",
"}e:4444444444:_2/.....",
"#+444444444],=[6......",
"7>4444444:,^#%{.......",
"c>4444:=k1}'..........",
"#+:44:i}'{6...........",
"%e444;[6..............",
" 1:4:^-.............. ",
" c+4]g/...038........ ",
" &@~]a6..{|_7........ ",
"  #9,a/../a<$.......  ",
"   c<k-...{j/......   ",
"    #|3...........    ",
"     0%/.........     ",
"        .{....        "};
