/* XPM */
static char * yyx26_xpm[] = {
"26 26 62 1",
" 	c None",
".	c #020202",
"+	c #D6D6D6",
"@	c #9E9E9E",
"#	c #727272",
"$	c #5E5E5E",
"%	c #464646",
"&	c #323232",
"*	c #262626",
"=	c #DEDEDE",
"-	c #A6A6A6",
";	c #E6E6E6",
">	c #1A1A1A",
",	c #B2B2B2",
"'	c #EEEEEE",
")	c #929292",
"!	c #161616",
"~	c #F2F2F2",
"{	c #BABABA",
"]	c #F6F6F6",
"^	c #0E0E0E",
"/	c #868686",
"(	c #CACACA",
"_	c #6A6A6A",
":	c #FAFAFA",
"<	c #0A0A0A",
"[	c #3E3E3E",
"}	c #4E4E4E",
"|	c #FEFEFE",
"1	c #767676",
"2	c #BEBEBE",
"3	c #626262",
"4	c #525252",
"5	c #D2D2D2",
"6	c #060606",
"7	c #2E2E2E",
"8	c #969696",
"9	c #8E8E8E",
"0	c #C2C2C2",
"a	c #7A7A7A",
"b	c #AEAEAE",
"c	c #666666",
"d	c #565656",
"e	c #E2E2E2",
"f	c #C6C6C6",
"g	c #7E7E7E",
"h	c #EAEAEA",
"i	c #DADADA",
"j	c #A2A2A2",
"k	c #CECECE",
"l	c #1E1E1E",
"m	c #5A5A5A",
"n	c #363636",
"o	c #121212",
"p	c #2A2A2A",
"q	c #B6B6B6",
"r	c #424242",
"s	c #6E6E6E",
"t	c #9A9A9A",
"u	c #AAAAAA",
"v	c #8A8A8A",
"w	c #4A4A4A",
"         $m3c$d}d         ",
"       #/@,0f(2bts&       ",
"     3gbk='~~]~h=qc>.     ",
"    stfe]:::]~]:]e8n<.    ",
"   _j+~::||'fq5~:](co..   ",
"  3@+~::|:]+g4v=::ial...  ",
"  gf~|||||:+1w/=::=gl...  ",
" $-e::||||:;{j0'::ia>.... ",
" a(]||:||||]~'~::'03o.... ",
"$@e:|:|::|||:::|~(a7<.....",
"m,h:|||||:|||:]~kg7<......",
"30~:||||:||:]h5{g&<.......",
"3(]|:|||:~';(@_}*<........",
"c(]:|::~i,j9m7o<6.........",
"30]|||]59%7*o6............",
"m,h:|:et[^66..............",
"$@e::~0$!.................",
" gf~:;8&6...<^6.......... ",
" $-;]=gl...ordn<......... ",
"  g0'igl...*/,#l........  ",
"  3@5+gl...*a-s>........  ",
"   _j2v7...<&rp<.......   ",
"    _9vw^...666.......    ",
"     $3ro............     ",
"       [!..........       ",
"         .66.....         "};
