/* XPM */
static char * yyx20_xpm[] = {
"20 20 79 1",
" 	c None",
".	c #525252",
"+	c #676767",
"@	c #6B6B6B",
"#	c #666666",
"$	c #565656",
"%	c #4E4E4E",
"&	c #2D2D2D",
"*	c #6E6E6E",
"=	c #A4A4A4",
"-	c #CCCCCC",
";	c #E5E5E5",
">	c #F0F0F0",
",	c #EFEFEF",
"'	c #E3E3E3",
")	c #888888",
"!	c #232323",
"~	c #000000",
"{	c #555555",
"]	c #929292",
"^	c #F9F9F9",
"/	c #FEFEFE",
"(	c #EDEDED",
"_	c #6C6C6C",
":	c #020202",
"<	c #A7A7A7",
"[	c #FDFDFD",
"}	c #FAFAFA",
"|	c #CFCFCF",
"1	c #B3B3B3",
"2	c #FBFBFB",
"3	c #C9C9C9",
"4	c #151515",
"5	c #F3F3F3",
"6	c #737373",
"7	c #202020",
"8	c #1A1A1A",
"9	c #636363",
"0	c #F7F7F7",
"a	c #9C9C9C",
"b	c #C7C7C7",
"c	c #CDCDCD",
"d	c #FCFCFC",
"e	c #454545",
"f	c #F1F1F1",
"g	c #C5C5C5",
"h	c #404040",
"i	c #050505",
"j	c #B0B0B0",
"k	c #3B3B3B",
"l	c #DFDFDF",
"m	c #9B9B9B",
"n	c #8E8E8E",
"o	c #4C4C4C",
"p	c #0F0F0F",
"q	c #010101",
"r	c #696969",
"s	c #101010",
"t	c #0A0A0A",
"u	c #040404",
"v	c #909090",
"w	c #E8E8E8",
"x	c #333333",
"y	c #060606",
"z	c #030303",
"A	c #898989",
"B	c #2E2E2E",
"C	c #E2E2E2",
"D	c #8A8A8A",
"E	c #DDDDDD",
"F	c #4A4A4A",
"G	c #D8D8D8",
"H	c #494949",
"I	c #181818",
"J	c #8F8F8F",
"K	c #767676",
"L	c #0B0B0B",
"M	c #1C1C1C",
"N	c #0D0D0D",
"       .+@#$%       ",
"     *=-;>,'-)!     ",
"   {]'^//////(_:~   ",
"  {<([//}|1;/234~~  ",
"  ](////5671//'8~~  ",
" 9'[////0<6|//'8~~~ ",
" a^//////05}/}b4~~~ ",
".c//////////dbe:~~~~",
"+;////////^fghi~~~~~",
"@>/////[d(j_ki~~~~~~",
"@>///[lmnopq~~~~~~~~",
"+;///lrstu~~~~~~~~~~",
".c//2vp~~~~~~~~~~~~~",
" a^/wx:~~ytz~~~~~~~ ",
" 9'['8~~y$AB~~~~~~~ ",
"  ](C8~~tDEF~~~~~~  ",
"  {<Gx:~zBHI~~~~~~  ",
"   {JKL~~~~~~~~~~   ",
"     FM~q~~~~~~     ",
"       zN:~~~       "};
