/* XPM */
static char * yyx28_xpm[] = {
"28 28 57 1",
" 	c None",
".	c #020202",
"+	c #DEDEDE",
"@	c #B2B2B2",
"#	c #7E7E7E",
"$	c #626262",
"%	c #3E3E3E",
"&	c #2A2A2A",
"*	c #1E1E1E",
"=	c #E6E6E6",
"-	c #BABABA",
";	c #EAEAEA",
">	c #161616",
",	c #EEEEEE",
"'	c #BEBEBE",
")	c #828282",
"!	c #F2F2F2",
"~	c #5A5A5A",
"{	c #9E9E9E",
"]	c #121212",
"^	c #C2C2C2",
"/	c #767676",
"(	c #F6F6F6",
"_	c #CECECE",
":	c #0E0E0E",
"<	c #FAFAFA",
"[	c #4A4A4A",
"}	c #D2D2D2",
"|	c #363636",
"1	c #8E8E8E",
"2	c #0A0A0A",
"3	c #FEFEFE",
"4	c #6E6E6E",
"5	c #262626",
"6	c #D6D6D6",
"7	c #424242",
"8	c #929292",
"9	c #060606",
"0	c #666666",
"a	c #A2A2A2",
"b	c #323232",
"c	c #A6A6A6",
"d	c #525252",
"e	c #E2E2E2",
"f	c #DADADA",
"g	c #1A1A1A",
"h	c #B6B6B6",
"i	c #222222",
"j	c #464646",
"k	c #9A9A9A",
"l	c #2E2E2E",
"m	c #6A6A6A",
"n	c #3A3A3A",
"o	c #969696",
"p	c #7A7A7A",
"q	c #727272",
"r	c #AAAAAA",
"          |7[7%nll          ",
"        $4oh_ff_ho05        ",
"      %p-f,(<3<((;})*.      ",
"     m{f!333333333<6j..     ",
"    0@;33333<;=;333!o]..    ",
"   m@;<33333=#~1;33<}5...   ",
"  n{;3333333+72~=3336i....  ",
"  /+<3333333=4j#=333f5....  ",
" %@(33333333<=+;<33<}i..... ",
" mf<333333333<<333<=8>..... ",
"|o,333333333333333=ol.......",
"7h(33333333333333eob9.......",
"[}<33333333333(+68b9........",
"7f3333333333<+@dni9.........",
"7f<33333(+^'r[*9............",
"[_<3333<6pl*g9..............",
"7-(3333e/g..................",
"|o,333<@5...................",
" 0f333;0:.................. ",
" %@!3<f&.....>*]........... ",
"  /+33fi....>1-#].........  ",
"  %{=<65....ih!ag.........  ",
"   m@;f&....>#cq]........   ",
"    0@}$2....]g:........    ",
"     0ko*..............     ",
"      %~b9............      ",
"        %2..........        ",
"          .]2.....          "};
