/* XPM */
static char * yyx24_xpm[] = {
"24 24 52 1",
" 	c None",
".	c #020202",
"+	c #DEDEDE",
"@	c #AAAAAA",
"#	c #767676",
"$	c #565656",
"%	c #464646",
"&	c #3A3A3A",
"*	c #222222",
"=	c #E6E6E6",
"-	c #AEAEAE",
";	c #161616",
">	c #EAEAEA",
",	c #9A9A9A",
"'	c #C2C2C2",
")	c #EEEEEE",
"!	c #0E0E0E",
"~	c #F2F2F2",
"{	c #C6C6C6",
"]	c #F6F6F6",
"^	c #666666",
"/	c #8E8E8E",
"(	c #0A0A0A",
"_	c #D2D2D2",
":	c #FAFAFA",
"<	c #868686",
"[	c #BEBEBE",
"}	c #5E5E5E",
"|	c #FEFEFE",
"1	c #D6D6D6",
"2	c #525252",
"3	c #1E1E1E",
"4	c #2A2A2A",
"5	c #727272",
"6	c #060606",
"7	c #7A7A7A",
"8	c #A2A2A2",
"9	c #828282",
"0	c #4E4E4E",
"a	c #6E6E6E",
"b	c #424242",
"c	c #5A5A5A",
"d	c #DADADA",
"e	c #121212",
"f	c #7E7E7E",
"g	c #4A4A4A",
"h	c #969696",
"i	c #E2E2E2",
"j	c #3E3E3E",
"k	c #626262",
"l	c #9E9E9E",
"m	c #2E2E2E",
"         %c$2g&         ",
"      $7,[d==1'hge      ",
"     c@+~:::|::~[&.     ",
"    f_:||||]~:||)9(.    ",
"   f1]||||]@9[]||_;..   ",
"  c_]|||||=c;<~||+*...  ",
" %@:||||||)/c@]||+3.... ",
" ^d||||||||)>~||:_3.... ",
" ,~|||||||||||||i#(.... ",
"%':|||||||||||:_^e......",
"cd||||||||||]>d^e.......",
"c=||||||||:>-kge........",
"$i:||||~'@,0;6..........",
"}d||||~@&;;6............",
"%':|||'j6...............",
" h~||~7!............... ",
" ^d||i4....!e(......... ",
" %@:|+3...!a826........ ",
"  c_]+3...;8=7(.......  ",
"   91d4...(27j.......   ",
"    f{#!...6(6......    ",
"     }a3...........     ",
"      bm..........      ",
"         6(....         "};
