/* XPM */
static char * yyx30_xpm[] = {
"30 30 62 1",
" 	c None",
".	c #020202",
"+	c #DADADA",
"@	c #A6A6A6",
"#	c #7A7A7A",
"$	c #565656",
"%	c #424242",
"&	c #2E2E2E",
"*	c #E2E2E2",
"=	c #1E1E1E",
"-	c #E6E6E6",
";	c #B6B6B6",
">	c #EAEAEA",
",	c #161616",
"'	c #F2F2F2",
")	c #929292",
"!	c #CACACA",
"~	c #121212",
"{	c #F6F6F6",
"]	c #6A6A6A",
"^	c #8A8A8A",
"/	c #FAFAFA",
"(	c #4E4E4E",
"_	c #0A0A0A",
":	c #5E5E5E",
"<	c #3E3E3E",
"[	c #FEFEFE",
"}	c #C2C2C2",
"|	c #060606",
"1	c #868686",
"2	c #D6D6D6",
"3	c #B2B2B2",
"4	c #9E9E9E",
"5	c #4A4A4A",
"6	c #767676",
"7	c #363636",
"8	c #828282",
"9	c #BABABA",
"0	c #262626",
"a	c #666666",
"b	c #AAAAAA",
"c	c #9A9A9A",
"d	c #BEBEBE",
"e	c #1A1A1A",
"f	c #CECECE",
"g	c #7E7E7E",
"h	c #EEEEEE",
"i	c #525252",
"j	c #626262",
"k	c #464646",
"l	c #DEDEDE",
"m	c #323232",
"n	c #6E6E6E",
"o	c #AEAEAE",
"p	c #8E8E8E",
"q	c #0E0E0E",
"r	c #222222",
"s	c #969696",
"t	c #2A2A2A",
"u	c #C6C6C6",
"v	c #3A3A3A",
"w	c #A2A2A2",
"           %i$i(k<7           ",
"        j]gp@9dd;wp6%e        ",
"       j^o!l-'''h-+}p%~       ",
"     j8bf>'/[///{//'!#0|.     ",
"    :1;*'////{>->{//-@k_..    ",
"   j19-{[[[[/*bco*//'!]e...   ",
"   89-{/[[[[/fa%nf/[/+g=...   ",
"  :b*{[[[/[[{!jv]f{[/+#=....  ",
" <gf{/[/[/[[/*@pb*{//+g=..... ",
" $@-/[/[[[///{-*>{[['!]e..... ",
" #!'/[[[[[[[/[/////{2s%q..... ",
"%p+/[[[/[[[[[/[[[[{2c5,.......",
"(b-/[/[/[[/[[[//{h2s5,|.......",
"$9'[/[[[//[[[/{-!9)5,.........",
"id{[[[[[[/{'h-u4j%&q|.........",
"(d'[[/[[/hf93s:m~_|...........",
"$;h/[///-;n%vt~|..............",
"(b>/[[[>9a0_||................",
"<pl/[/{28&_...................",
" 6!'//h3i~................... ",
" $@-//lpm|....~,~............ ",
" <8f'{lgr|...ei](e........... ",
"  :b*'+#=...|&sdpt..........  ",
"   8;l2gr...|&)d^&|........   ",
"   j1;!1&|..|e5jk,.........   ",
"    j1@s5~....~e~|........    ",
"     j#gie...............     ",
"       (%=|............       ",
"        %0............        ",
"           ._......           "};
