/* XPM */
static char * yyx6_xpm[] = {
"6 6 22 1",
" 	c None",
".	c #A1A1A1",
"+	c #C9C9C9",
"@	c #C6C6C6",
"#	c #4B4B4B",
"$	c #9D9D9D",
"%	c #FBFBFB",
"&	c #E3E3E3",
"*	c #7D7D7D",
"=	c #000000",
"-	c #CACACA",
";	c #FEFEFE",
">	c #FCFCFC",
",	c #C5C5C5",
"'	c #1F1F1F",
")	c #CFCFCF",
"!	c #2C2C2C",
"~	c #010101",
"{	c #1A1A1A",
"]	c #343434",
"^	c #565656",
"/	c #030303",
" .+@# ",
"$%&+*=",
"-;>,'=",
"-)!~==",
"$*{]==",
" ^/~= "};
