/* XPM */
static char * yyx8_xpm[] = {
"8 8 30 1",
" 	c None",
".	c #A3A3A3",
"+	c #B6B6B6",
"@	c #B2B2B2",
"#	c #7A7A7A",
"$	c #C6C6C6",
"%	c #FDFDFD",
"&	c #DEDEDE",
"*	c #BEBEBE",
"=	c #E6E6E6",
"-	c #080808",
";	c #9B9B9B",
">	c #FEFEFE",
",	c #EEEEEE",
"'	c #E3E3E3",
")	c #000000",
"!	c #FBFBFB",
"~	c #C8C8C8",
"{	c #353535",
"]	c #9E9E9E",
"^	c #323232",
"/	c #030303",
"(	c #F5F5F5",
"_	c #181818",
":	c #101010",
"<	c #1F1F1F",
"[	c #BDBDBD",
"}	c #171717",
"|	c #3F3F3F",
"1	c #292929",
"  .+@#  ",
" $%&*=- ",
";>>,&'-)",
"+>>!~{))",
"+>]^/)))",
";(_:<)))",
" [}<|)) ",
"  1/))  "};
